G04 EasyPC Gerber Version 21.0.3 Build 4286 *
G04 #@! TF.Part,Single*
G04 #@! TF.FileFunction,Drillmap *
G04 #@! TF.FilePolarity,Positive *
%FSLAX35Y35*%
%MOIN*%
%ADD10C,0.00100*%
G04 #@! TA.AperFunction,WasherPad*
%ADD72C,0.10000*%
X0Y0D02*
D02*
D10*
X30644Y221316D02*
Y226441D01*
X31323*
Y223902*
X33870Y226441*
X34788*
X32640Y224363*
X34882Y221316*
X33987*
X32163Y223906*
X31323Y223093*
Y221316*
X30644*
Y221393D02*
X31323D01*
X33933D02*
X34825D01*
X30644Y221487D02*
X31323D01*
X33867D02*
X34756D01*
X30644Y221580D02*
X31323D01*
X33801D02*
X34687D01*
X30644Y221674D02*
X31323D01*
X33735D02*
X34618D01*
X30644Y221768D02*
X31323D01*
X33669D02*
X34549D01*
X30644Y221861D02*
X31323D01*
X33603D02*
X34480D01*
X30644Y221955D02*
X31323D01*
X33537D02*
X34411D01*
X30644Y222049D02*
X31323D01*
X33471D02*
X34343D01*
X30644Y222143D02*
X31323D01*
X33405D02*
X34274D01*
X30644Y222236D02*
X31323D01*
X33339D02*
X34205D01*
X30644Y222330D02*
X31323D01*
X33273D02*
X34135D01*
X30644Y222424D02*
X31323D01*
X33207D02*
X34067D01*
X30644Y222517D02*
X31323D01*
X33141D02*
X33998D01*
X30644Y222611D02*
X31323D01*
X33075D02*
X33929D01*
X30644Y222705D02*
X31323D01*
X33009D02*
X33860D01*
X30644Y222798D02*
X31323D01*
X32943D02*
X33791D01*
X30644Y222892D02*
X31323D01*
X32877D02*
X33722D01*
X30644Y222986D02*
X31323D01*
X32811D02*
X33653D01*
X30644Y223080D02*
X31323D01*
X32745D02*
X33584D01*
X30644Y223173D02*
X31406D01*
X32679D02*
X33515D01*
X30644Y223267D02*
X31503D01*
X32613D02*
X33446D01*
X30644Y223361D02*
X31600D01*
X32547D02*
X33377D01*
X30644Y223454D02*
X31697D01*
X32481D02*
X33308D01*
X30644Y223548D02*
X31794D01*
X32415D02*
X33239D01*
X30644Y223642D02*
X31891D01*
X32349D02*
X33170D01*
X30644Y223735D02*
X31987D01*
X32283D02*
X33101D01*
X30644Y223829D02*
X32084D01*
X32217D02*
X33032D01*
X30644Y223923D02*
X31323D01*
X31344D02*
X32963D01*
X30644Y224017D02*
X31323D01*
X31439D02*
X32894D01*
X30644Y224110D02*
X31323D01*
X31533D02*
X32826D01*
X30644Y224204D02*
X31323D01*
X31626D02*
X32757D01*
X30644Y224298D02*
X31323D01*
X31720D02*
X32687D01*
X30644Y224391D02*
X31323D01*
X31815D02*
X32669D01*
X30644Y224485D02*
X31323D01*
X31909D02*
X32767D01*
X30644Y224579D02*
X31323D01*
X32002D02*
X32863D01*
X30644Y224672D02*
X31323D01*
X32096D02*
X32960D01*
X30644Y224766D02*
X31323D01*
X32191D02*
X33057D01*
X30644Y224860D02*
X31323D01*
X32285D02*
X33154D01*
X30644Y224954D02*
X31323D01*
X32378D02*
X33251D01*
X30644Y225047D02*
X31323D01*
X32472D02*
X33348D01*
X30644Y225141D02*
X31323D01*
X32567D02*
X33444D01*
X30644Y225235D02*
X31323D01*
X32661D02*
X33541D01*
X30644Y225328D02*
X31323D01*
X32754D02*
X33638D01*
X30644Y225422D02*
X31323D01*
X32848D02*
X33735D01*
X30644Y225516D02*
X31323D01*
X32943D02*
X33832D01*
X30644Y225609D02*
X31323D01*
X33036D02*
X33929D01*
X30644Y225703D02*
X31323D01*
X33130D02*
X34026D01*
X30644Y225797D02*
X31323D01*
X33224D02*
X34123D01*
X30644Y225891D02*
X31323D01*
X33319D02*
X34220D01*
X30644Y225984D02*
X31323D01*
X33412D02*
X34317D01*
X30644Y226078D02*
X31323D01*
X33506D02*
X34413D01*
X30644Y226172D02*
X31323D01*
X33600D02*
X34510D01*
X30644Y226265D02*
X31323D01*
X33694D02*
X34607D01*
X30644Y226359D02*
X31323D01*
X33788D02*
X34704D01*
X30644Y231316D02*
Y236441D01*
X31323*
Y233902*
X33870Y236441*
X34788*
X32640Y234363*
X34882Y231316*
X33987*
X32163Y233906*
X31323Y233093*
Y231316*
X30644*
Y231393D02*
X31323D01*
X33933D02*
X34825D01*
X30644Y231487D02*
X31323D01*
X33867D02*
X34756D01*
X30644Y231580D02*
X31323D01*
X33801D02*
X34687D01*
X30644Y231674D02*
X31323D01*
X33735D02*
X34618D01*
X30644Y231768D02*
X31323D01*
X33669D02*
X34549D01*
X30644Y231861D02*
X31323D01*
X33603D02*
X34480D01*
X30644Y231955D02*
X31323D01*
X33537D02*
X34411D01*
X30644Y232049D02*
X31323D01*
X33471D02*
X34343D01*
X30644Y232143D02*
X31323D01*
X33405D02*
X34274D01*
X30644Y232236D02*
X31323D01*
X33339D02*
X34205D01*
X30644Y232330D02*
X31323D01*
X33273D02*
X34135D01*
X30644Y232424D02*
X31323D01*
X33207D02*
X34067D01*
X30644Y232517D02*
X31323D01*
X33141D02*
X33998D01*
X30644Y232611D02*
X31323D01*
X33075D02*
X33929D01*
X30644Y232705D02*
X31323D01*
X33009D02*
X33860D01*
X30644Y232798D02*
X31323D01*
X32943D02*
X33791D01*
X30644Y232892D02*
X31323D01*
X32877D02*
X33722D01*
X30644Y232986D02*
X31323D01*
X32811D02*
X33653D01*
X30644Y233080D02*
X31323D01*
X32745D02*
X33584D01*
X30644Y233173D02*
X31406D01*
X32679D02*
X33515D01*
X30644Y233267D02*
X31503D01*
X32613D02*
X33446D01*
X30644Y233361D02*
X31600D01*
X32547D02*
X33377D01*
X30644Y233454D02*
X31697D01*
X32481D02*
X33308D01*
X30644Y233548D02*
X31794D01*
X32415D02*
X33239D01*
X30644Y233642D02*
X31891D01*
X32349D02*
X33170D01*
X30644Y233735D02*
X31987D01*
X32283D02*
X33101D01*
X30644Y233829D02*
X32084D01*
X32217D02*
X33032D01*
X30644Y233923D02*
X31323D01*
X31344D02*
X32963D01*
X30644Y234017D02*
X31323D01*
X31439D02*
X32894D01*
X30644Y234110D02*
X31323D01*
X31533D02*
X32826D01*
X30644Y234204D02*
X31323D01*
X31626D02*
X32757D01*
X30644Y234298D02*
X31323D01*
X31720D02*
X32687D01*
X30644Y234391D02*
X31323D01*
X31815D02*
X32669D01*
X30644Y234485D02*
X31323D01*
X31909D02*
X32767D01*
X30644Y234579D02*
X31323D01*
X32002D02*
X32863D01*
X30644Y234672D02*
X31323D01*
X32096D02*
X32960D01*
X30644Y234766D02*
X31323D01*
X32191D02*
X33057D01*
X30644Y234860D02*
X31323D01*
X32285D02*
X33154D01*
X30644Y234954D02*
X31323D01*
X32378D02*
X33251D01*
X30644Y235047D02*
X31323D01*
X32472D02*
X33348D01*
X30644Y235141D02*
X31323D01*
X32567D02*
X33444D01*
X30644Y235235D02*
X31323D01*
X32661D02*
X33541D01*
X30644Y235328D02*
X31323D01*
X32754D02*
X33638D01*
X30644Y235422D02*
X31323D01*
X32848D02*
X33735D01*
X30644Y235516D02*
X31323D01*
X32943D02*
X33832D01*
X30644Y235609D02*
X31323D01*
X33036D02*
X33929D01*
X30644Y235703D02*
X31323D01*
X33130D02*
X34026D01*
X30644Y235797D02*
X31323D01*
X33224D02*
X34123D01*
X30644Y235891D02*
X31323D01*
X33319D02*
X34220D01*
X30644Y235984D02*
X31323D01*
X33412D02*
X34317D01*
X30644Y236078D02*
X31323D01*
X33506D02*
X34413D01*
X30644Y236172D02*
X31323D01*
X33600D02*
X34510D01*
X30644Y236265D02*
X31323D01*
X33694D02*
X34607D01*
X30644Y236359D02*
X31323D01*
X33788D02*
X34704D01*
X30644Y241316D02*
Y246441D01*
X31323*
Y243902*
X33870Y246441*
X34788*
X32640Y244363*
X34882Y241316*
X33987*
X32163Y243906*
X31323Y243093*
Y241316*
X30644*
Y241393D02*
X31323D01*
X33933D02*
X34825D01*
X30644Y241487D02*
X31323D01*
X33867D02*
X34756D01*
X30644Y241580D02*
X31323D01*
X33801D02*
X34687D01*
X30644Y241674D02*
X31323D01*
X33735D02*
X34618D01*
X30644Y241768D02*
X31323D01*
X33669D02*
X34549D01*
X30644Y241861D02*
X31323D01*
X33603D02*
X34480D01*
X30644Y241955D02*
X31323D01*
X33537D02*
X34411D01*
X30644Y242049D02*
X31323D01*
X33471D02*
X34343D01*
X30644Y242143D02*
X31323D01*
X33405D02*
X34274D01*
X30644Y242236D02*
X31323D01*
X33339D02*
X34205D01*
X30644Y242330D02*
X31323D01*
X33273D02*
X34135D01*
X30644Y242424D02*
X31323D01*
X33207D02*
X34067D01*
X30644Y242517D02*
X31323D01*
X33141D02*
X33998D01*
X30644Y242611D02*
X31323D01*
X33075D02*
X33929D01*
X30644Y242705D02*
X31323D01*
X33009D02*
X33860D01*
X30644Y242798D02*
X31323D01*
X32943D02*
X33791D01*
X30644Y242892D02*
X31323D01*
X32877D02*
X33722D01*
X30644Y242986D02*
X31323D01*
X32811D02*
X33653D01*
X30644Y243080D02*
X31323D01*
X32745D02*
X33584D01*
X30644Y243173D02*
X31406D01*
X32679D02*
X33515D01*
X30644Y243267D02*
X31503D01*
X32613D02*
X33446D01*
X30644Y243361D02*
X31600D01*
X32547D02*
X33377D01*
X30644Y243454D02*
X31697D01*
X32481D02*
X33308D01*
X30644Y243548D02*
X31794D01*
X32415D02*
X33239D01*
X30644Y243642D02*
X31891D01*
X32349D02*
X33170D01*
X30644Y243735D02*
X31987D01*
X32283D02*
X33101D01*
X30644Y243829D02*
X32084D01*
X32217D02*
X33032D01*
X30644Y243923D02*
X31323D01*
X31344D02*
X32963D01*
X30644Y244017D02*
X31323D01*
X31439D02*
X32894D01*
X30644Y244110D02*
X31323D01*
X31533D02*
X32826D01*
X30644Y244204D02*
X31323D01*
X31626D02*
X32757D01*
X30644Y244298D02*
X31323D01*
X31720D02*
X32687D01*
X30644Y244391D02*
X31323D01*
X31815D02*
X32669D01*
X30644Y244485D02*
X31323D01*
X31909D02*
X32767D01*
X30644Y244579D02*
X31323D01*
X32002D02*
X32863D01*
X30644Y244672D02*
X31323D01*
X32096D02*
X32960D01*
X30644Y244766D02*
X31323D01*
X32191D02*
X33057D01*
X30644Y244860D02*
X31323D01*
X32285D02*
X33154D01*
X30644Y244954D02*
X31323D01*
X32378D02*
X33251D01*
X30644Y245047D02*
X31323D01*
X32472D02*
X33348D01*
X30644Y245141D02*
X31323D01*
X32567D02*
X33444D01*
X30644Y245235D02*
X31323D01*
X32661D02*
X33541D01*
X30644Y245328D02*
X31323D01*
X32754D02*
X33638D01*
X30644Y245422D02*
X31323D01*
X32848D02*
X33735D01*
X30644Y245516D02*
X31323D01*
X32943D02*
X33832D01*
X30644Y245609D02*
X31323D01*
X33036D02*
X33929D01*
X30644Y245703D02*
X31323D01*
X33130D02*
X34026D01*
X30644Y245797D02*
X31323D01*
X33224D02*
X34123D01*
X30644Y245891D02*
X31323D01*
X33319D02*
X34220D01*
X30644Y245984D02*
X31323D01*
X33412D02*
X34317D01*
X30644Y246078D02*
X31323D01*
X33506D02*
X34413D01*
X30644Y246172D02*
X31323D01*
X33600D02*
X34510D01*
X30644Y246265D02*
X31323D01*
X33694D02*
X34607D01*
X30644Y246359D02*
X31323D01*
X33788D02*
X34704D01*
X30644Y251316D02*
Y256441D01*
X31323*
Y253902*
X33870Y256441*
X34788*
X32640Y254363*
X34882Y251316*
X33987*
X32163Y253906*
X31323Y253093*
Y251316*
X30644*
Y251393D02*
X31323D01*
X33933D02*
X34825D01*
X30644Y251487D02*
X31323D01*
X33867D02*
X34756D01*
X30644Y251580D02*
X31323D01*
X33801D02*
X34687D01*
X30644Y251674D02*
X31323D01*
X33735D02*
X34618D01*
X30644Y251768D02*
X31323D01*
X33669D02*
X34549D01*
X30644Y251861D02*
X31323D01*
X33603D02*
X34480D01*
X30644Y251955D02*
X31323D01*
X33537D02*
X34411D01*
X30644Y252049D02*
X31323D01*
X33471D02*
X34343D01*
X30644Y252143D02*
X31323D01*
X33405D02*
X34274D01*
X30644Y252236D02*
X31323D01*
X33339D02*
X34205D01*
X30644Y252330D02*
X31323D01*
X33273D02*
X34135D01*
X30644Y252424D02*
X31323D01*
X33207D02*
X34067D01*
X30644Y252517D02*
X31323D01*
X33141D02*
X33998D01*
X30644Y252611D02*
X31323D01*
X33075D02*
X33929D01*
X30644Y252705D02*
X31323D01*
X33009D02*
X33860D01*
X30644Y252798D02*
X31323D01*
X32943D02*
X33791D01*
X30644Y252892D02*
X31323D01*
X32877D02*
X33722D01*
X30644Y252986D02*
X31323D01*
X32811D02*
X33653D01*
X30644Y253080D02*
X31323D01*
X32745D02*
X33584D01*
X30644Y253173D02*
X31406D01*
X32679D02*
X33515D01*
X30644Y253267D02*
X31503D01*
X32613D02*
X33446D01*
X30644Y253361D02*
X31600D01*
X32547D02*
X33377D01*
X30644Y253454D02*
X31697D01*
X32481D02*
X33308D01*
X30644Y253548D02*
X31794D01*
X32415D02*
X33239D01*
X30644Y253642D02*
X31891D01*
X32349D02*
X33170D01*
X30644Y253735D02*
X31987D01*
X32283D02*
X33101D01*
X30644Y253829D02*
X32084D01*
X32217D02*
X33032D01*
X30644Y253923D02*
X31323D01*
X31344D02*
X32963D01*
X30644Y254017D02*
X31323D01*
X31439D02*
X32894D01*
X30644Y254110D02*
X31323D01*
X31533D02*
X32826D01*
X30644Y254204D02*
X31323D01*
X31626D02*
X32757D01*
X30644Y254298D02*
X31323D01*
X31720D02*
X32687D01*
X30644Y254391D02*
X31323D01*
X31815D02*
X32669D01*
X30644Y254485D02*
X31323D01*
X31909D02*
X32767D01*
X30644Y254579D02*
X31323D01*
X32002D02*
X32863D01*
X30644Y254672D02*
X31323D01*
X32096D02*
X32960D01*
X30644Y254766D02*
X31323D01*
X32191D02*
X33057D01*
X30644Y254860D02*
X31323D01*
X32285D02*
X33154D01*
X30644Y254954D02*
X31323D01*
X32378D02*
X33251D01*
X30644Y255047D02*
X31323D01*
X32472D02*
X33348D01*
X30644Y255141D02*
X31323D01*
X32567D02*
X33444D01*
X30644Y255235D02*
X31323D01*
X32661D02*
X33541D01*
X30644Y255328D02*
X31323D01*
X32754D02*
X33638D01*
X30644Y255422D02*
X31323D01*
X32848D02*
X33735D01*
X30644Y255516D02*
X31323D01*
X32943D02*
X33832D01*
X30644Y255609D02*
X31323D01*
X33036D02*
X33929D01*
X30644Y255703D02*
X31323D01*
X33130D02*
X34026D01*
X30644Y255797D02*
X31323D01*
X33224D02*
X34123D01*
X30644Y255891D02*
X31323D01*
X33319D02*
X34220D01*
X30644Y255984D02*
X31323D01*
X33412D02*
X34317D01*
X30644Y256078D02*
X31323D01*
X33506D02*
X34413D01*
X30644Y256172D02*
X31323D01*
X33600D02*
X34510D01*
X30644Y256265D02*
X31323D01*
X33694D02*
X34607D01*
X30644Y256359D02*
X31323D01*
X33788D02*
X34704D01*
X30644Y261316D02*
Y266441D01*
X31323*
Y263902*
X33870Y266441*
X34788*
X32640Y264363*
X34882Y261316*
X33987*
X32163Y263906*
X31323Y263093*
Y261316*
X30644*
Y261393D02*
X31323D01*
X33933D02*
X34825D01*
X30644Y261487D02*
X31323D01*
X33867D02*
X34756D01*
X30644Y261580D02*
X31323D01*
X33801D02*
X34687D01*
X30644Y261674D02*
X31323D01*
X33735D02*
X34618D01*
X30644Y261768D02*
X31323D01*
X33669D02*
X34549D01*
X30644Y261861D02*
X31323D01*
X33603D02*
X34480D01*
X30644Y261955D02*
X31323D01*
X33537D02*
X34411D01*
X30644Y262049D02*
X31323D01*
X33471D02*
X34343D01*
X30644Y262143D02*
X31323D01*
X33405D02*
X34274D01*
X30644Y262236D02*
X31323D01*
X33339D02*
X34205D01*
X30644Y262330D02*
X31323D01*
X33273D02*
X34135D01*
X30644Y262424D02*
X31323D01*
X33207D02*
X34067D01*
X30644Y262517D02*
X31323D01*
X33141D02*
X33998D01*
X30644Y262611D02*
X31323D01*
X33075D02*
X33929D01*
X30644Y262705D02*
X31323D01*
X33009D02*
X33860D01*
X30644Y262798D02*
X31323D01*
X32943D02*
X33791D01*
X30644Y262892D02*
X31323D01*
X32877D02*
X33722D01*
X30644Y262986D02*
X31323D01*
X32811D02*
X33653D01*
X30644Y263080D02*
X31323D01*
X32745D02*
X33584D01*
X30644Y263173D02*
X31406D01*
X32679D02*
X33515D01*
X30644Y263267D02*
X31503D01*
X32613D02*
X33446D01*
X30644Y263361D02*
X31600D01*
X32547D02*
X33377D01*
X30644Y263454D02*
X31697D01*
X32481D02*
X33308D01*
X30644Y263548D02*
X31794D01*
X32415D02*
X33239D01*
X30644Y263642D02*
X31891D01*
X32349D02*
X33170D01*
X30644Y263735D02*
X31987D01*
X32283D02*
X33101D01*
X30644Y263829D02*
X32084D01*
X32217D02*
X33032D01*
X30644Y263923D02*
X31323D01*
X31344D02*
X32963D01*
X30644Y264017D02*
X31323D01*
X31439D02*
X32894D01*
X30644Y264110D02*
X31323D01*
X31533D02*
X32826D01*
X30644Y264204D02*
X31323D01*
X31626D02*
X32757D01*
X30644Y264298D02*
X31323D01*
X31720D02*
X32687D01*
X30644Y264391D02*
X31323D01*
X31815D02*
X32669D01*
X30644Y264485D02*
X31323D01*
X31909D02*
X32767D01*
X30644Y264579D02*
X31323D01*
X32002D02*
X32863D01*
X30644Y264672D02*
X31323D01*
X32096D02*
X32960D01*
X30644Y264766D02*
X31323D01*
X32191D02*
X33057D01*
X30644Y264860D02*
X31323D01*
X32285D02*
X33154D01*
X30644Y264954D02*
X31323D01*
X32378D02*
X33251D01*
X30644Y265047D02*
X31323D01*
X32472D02*
X33348D01*
X30644Y265141D02*
X31323D01*
X32567D02*
X33444D01*
X30644Y265235D02*
X31323D01*
X32661D02*
X33541D01*
X30644Y265328D02*
X31323D01*
X32754D02*
X33638D01*
X30644Y265422D02*
X31323D01*
X32848D02*
X33735D01*
X30644Y265516D02*
X31323D01*
X32943D02*
X33832D01*
X30644Y265609D02*
X31323D01*
X33036D02*
X33929D01*
X30644Y265703D02*
X31323D01*
X33130D02*
X34026D01*
X30644Y265797D02*
X31323D01*
X33224D02*
X34123D01*
X30644Y265891D02*
X31323D01*
X33319D02*
X34220D01*
X30644Y265984D02*
X31323D01*
X33412D02*
X34317D01*
X30644Y266078D02*
X31323D01*
X33506D02*
X34413D01*
X30644Y266172D02*
X31323D01*
X33600D02*
X34510D01*
X30644Y266265D02*
X31323D01*
X33694D02*
X34607D01*
X30644Y266359D02*
X31323D01*
X33788D02*
X34704D01*
X30644Y271316D02*
Y276441D01*
X31323*
Y273902*
X33870Y276441*
X34788*
X32640Y274363*
X34882Y271316*
X33987*
X32163Y273906*
X31323Y273093*
Y271316*
X30644*
Y271393D02*
X31323D01*
X33933D02*
X34825D01*
X30644Y271487D02*
X31323D01*
X33867D02*
X34756D01*
X30644Y271580D02*
X31323D01*
X33801D02*
X34687D01*
X30644Y271674D02*
X31323D01*
X33735D02*
X34618D01*
X30644Y271768D02*
X31323D01*
X33669D02*
X34549D01*
X30644Y271861D02*
X31323D01*
X33603D02*
X34480D01*
X30644Y271955D02*
X31323D01*
X33537D02*
X34411D01*
X30644Y272049D02*
X31323D01*
X33471D02*
X34343D01*
X30644Y272143D02*
X31323D01*
X33405D02*
X34274D01*
X30644Y272236D02*
X31323D01*
X33339D02*
X34205D01*
X30644Y272330D02*
X31323D01*
X33273D02*
X34135D01*
X30644Y272424D02*
X31323D01*
X33207D02*
X34067D01*
X30644Y272517D02*
X31323D01*
X33141D02*
X33998D01*
X30644Y272611D02*
X31323D01*
X33075D02*
X33929D01*
X30644Y272705D02*
X31323D01*
X33009D02*
X33860D01*
X30644Y272798D02*
X31323D01*
X32943D02*
X33791D01*
X30644Y272892D02*
X31323D01*
X32877D02*
X33722D01*
X30644Y272986D02*
X31323D01*
X32811D02*
X33653D01*
X30644Y273080D02*
X31323D01*
X32745D02*
X33584D01*
X30644Y273173D02*
X31406D01*
X32679D02*
X33515D01*
X30644Y273267D02*
X31503D01*
X32613D02*
X33446D01*
X30644Y273361D02*
X31600D01*
X32547D02*
X33377D01*
X30644Y273454D02*
X31697D01*
X32481D02*
X33308D01*
X30644Y273548D02*
X31794D01*
X32415D02*
X33239D01*
X30644Y273642D02*
X31891D01*
X32349D02*
X33170D01*
X30644Y273735D02*
X31987D01*
X32283D02*
X33101D01*
X30644Y273829D02*
X32084D01*
X32217D02*
X33032D01*
X30644Y273923D02*
X31323D01*
X31344D02*
X32963D01*
X30644Y274017D02*
X31323D01*
X31439D02*
X32894D01*
X30644Y274110D02*
X31323D01*
X31533D02*
X32826D01*
X30644Y274204D02*
X31323D01*
X31626D02*
X32757D01*
X30644Y274298D02*
X31323D01*
X31720D02*
X32687D01*
X30644Y274391D02*
X31323D01*
X31815D02*
X32669D01*
X30644Y274485D02*
X31323D01*
X31909D02*
X32767D01*
X30644Y274579D02*
X31323D01*
X32002D02*
X32863D01*
X30644Y274672D02*
X31323D01*
X32096D02*
X32960D01*
X30644Y274766D02*
X31323D01*
X32191D02*
X33057D01*
X30644Y274860D02*
X31323D01*
X32285D02*
X33154D01*
X30644Y274954D02*
X31323D01*
X32378D02*
X33251D01*
X30644Y275047D02*
X31323D01*
X32472D02*
X33348D01*
X30644Y275141D02*
X31323D01*
X32567D02*
X33444D01*
X30644Y275235D02*
X31323D01*
X32661D02*
X33541D01*
X30644Y275328D02*
X31323D01*
X32754D02*
X33638D01*
X30644Y275422D02*
X31323D01*
X32848D02*
X33735D01*
X30644Y275516D02*
X31323D01*
X32943D02*
X33832D01*
X30644Y275609D02*
X31323D01*
X33036D02*
X33929D01*
X30644Y275703D02*
X31323D01*
X33130D02*
X34026D01*
X30644Y275797D02*
X31323D01*
X33224D02*
X34123D01*
X30644Y275891D02*
X31323D01*
X33319D02*
X34220D01*
X30644Y275984D02*
X31323D01*
X33412D02*
X34317D01*
X30644Y276078D02*
X31323D01*
X33506D02*
X34413D01*
X30644Y276172D02*
X31323D01*
X33600D02*
X34510D01*
X30644Y276265D02*
X31323D01*
X33694D02*
X34607D01*
X30644Y276359D02*
X31323D01*
X33788D02*
X34704D01*
X30644Y311316D02*
Y316441D01*
X31323*
Y313902*
X33870Y316441*
X34788*
X32640Y314363*
X34882Y311316*
X33987*
X32163Y313906*
X31323Y313093*
Y311316*
X30644*
Y311393D02*
X31323D01*
X33933D02*
X34825D01*
X30644Y311487D02*
X31323D01*
X33867D02*
X34756D01*
X30644Y311580D02*
X31323D01*
X33801D02*
X34687D01*
X30644Y311674D02*
X31323D01*
X33735D02*
X34618D01*
X30644Y311768D02*
X31323D01*
X33669D02*
X34549D01*
X30644Y311861D02*
X31323D01*
X33603D02*
X34480D01*
X30644Y311955D02*
X31323D01*
X33537D02*
X34411D01*
X30644Y312049D02*
X31323D01*
X33471D02*
X34343D01*
X30644Y312143D02*
X31323D01*
X33405D02*
X34274D01*
X30644Y312236D02*
X31323D01*
X33339D02*
X34205D01*
X30644Y312330D02*
X31323D01*
X33273D02*
X34135D01*
X30644Y312424D02*
X31323D01*
X33207D02*
X34067D01*
X30644Y312517D02*
X31323D01*
X33141D02*
X33998D01*
X30644Y312611D02*
X31323D01*
X33075D02*
X33929D01*
X30644Y312705D02*
X31323D01*
X33009D02*
X33860D01*
X30644Y312798D02*
X31323D01*
X32943D02*
X33791D01*
X30644Y312892D02*
X31323D01*
X32877D02*
X33722D01*
X30644Y312986D02*
X31323D01*
X32811D02*
X33653D01*
X30644Y313080D02*
X31323D01*
X32745D02*
X33584D01*
X30644Y313173D02*
X31406D01*
X32679D02*
X33515D01*
X30644Y313267D02*
X31503D01*
X32613D02*
X33446D01*
X30644Y313361D02*
X31600D01*
X32547D02*
X33377D01*
X30644Y313454D02*
X31697D01*
X32481D02*
X33308D01*
X30644Y313548D02*
X31794D01*
X32415D02*
X33239D01*
X30644Y313642D02*
X31891D01*
X32349D02*
X33170D01*
X30644Y313735D02*
X31987D01*
X32283D02*
X33101D01*
X30644Y313829D02*
X32084D01*
X32217D02*
X33032D01*
X30644Y313923D02*
X31323D01*
X31344D02*
X32963D01*
X30644Y314017D02*
X31323D01*
X31439D02*
X32894D01*
X30644Y314110D02*
X31323D01*
X31533D02*
X32826D01*
X30644Y314204D02*
X31323D01*
X31626D02*
X32757D01*
X30644Y314298D02*
X31323D01*
X31720D02*
X32687D01*
X30644Y314391D02*
X31323D01*
X31815D02*
X32669D01*
X30644Y314485D02*
X31323D01*
X31909D02*
X32767D01*
X30644Y314579D02*
X31323D01*
X32002D02*
X32863D01*
X30644Y314672D02*
X31323D01*
X32096D02*
X32960D01*
X30644Y314766D02*
X31323D01*
X32191D02*
X33057D01*
X30644Y314860D02*
X31323D01*
X32285D02*
X33154D01*
X30644Y314954D02*
X31323D01*
X32378D02*
X33251D01*
X30644Y315047D02*
X31323D01*
X32472D02*
X33348D01*
X30644Y315141D02*
X31323D01*
X32567D02*
X33444D01*
X30644Y315235D02*
X31323D01*
X32661D02*
X33541D01*
X30644Y315328D02*
X31323D01*
X32754D02*
X33638D01*
X30644Y315422D02*
X31323D01*
X32848D02*
X33735D01*
X30644Y315516D02*
X31323D01*
X32943D02*
X33832D01*
X30644Y315609D02*
X31323D01*
X33036D02*
X33929D01*
X30644Y315703D02*
X31323D01*
X33130D02*
X34026D01*
X30644Y315797D02*
X31323D01*
X33224D02*
X34123D01*
X30644Y315891D02*
X31323D01*
X33319D02*
X34220D01*
X30644Y315984D02*
X31323D01*
X33412D02*
X34317D01*
X30644Y316078D02*
X31323D01*
X33506D02*
X34413D01*
X30644Y316172D02*
X31323D01*
X33600D02*
X34510D01*
X30644Y316265D02*
X31323D01*
X33694D02*
X34607D01*
X30644Y316359D02*
X31323D01*
X33788D02*
X34704D01*
X30644Y321316D02*
Y326441D01*
X31323*
Y323902*
X33870Y326441*
X34788*
X32640Y324363*
X34882Y321316*
X33987*
X32163Y323906*
X31323Y323093*
Y321316*
X30644*
Y321393D02*
X31323D01*
X33933D02*
X34825D01*
X30644Y321487D02*
X31323D01*
X33867D02*
X34756D01*
X30644Y321580D02*
X31323D01*
X33801D02*
X34687D01*
X30644Y321674D02*
X31323D01*
X33735D02*
X34618D01*
X30644Y321768D02*
X31323D01*
X33669D02*
X34549D01*
X30644Y321861D02*
X31323D01*
X33603D02*
X34480D01*
X30644Y321955D02*
X31323D01*
X33537D02*
X34411D01*
X30644Y322049D02*
X31323D01*
X33471D02*
X34343D01*
X30644Y322143D02*
X31323D01*
X33405D02*
X34274D01*
X30644Y322236D02*
X31323D01*
X33339D02*
X34205D01*
X30644Y322330D02*
X31323D01*
X33273D02*
X34135D01*
X30644Y322424D02*
X31323D01*
X33207D02*
X34067D01*
X30644Y322517D02*
X31323D01*
X33141D02*
X33998D01*
X30644Y322611D02*
X31323D01*
X33075D02*
X33929D01*
X30644Y322705D02*
X31323D01*
X33009D02*
X33860D01*
X30644Y322798D02*
X31323D01*
X32943D02*
X33791D01*
X30644Y322892D02*
X31323D01*
X32877D02*
X33722D01*
X30644Y322986D02*
X31323D01*
X32811D02*
X33653D01*
X30644Y323080D02*
X31323D01*
X32745D02*
X33584D01*
X30644Y323173D02*
X31406D01*
X32679D02*
X33515D01*
X30644Y323267D02*
X31503D01*
X32613D02*
X33446D01*
X30644Y323361D02*
X31600D01*
X32547D02*
X33377D01*
X30644Y323454D02*
X31697D01*
X32481D02*
X33308D01*
X30644Y323548D02*
X31794D01*
X32415D02*
X33239D01*
X30644Y323642D02*
X31891D01*
X32349D02*
X33170D01*
X30644Y323735D02*
X31987D01*
X32283D02*
X33101D01*
X30644Y323829D02*
X32084D01*
X32217D02*
X33032D01*
X30644Y323923D02*
X31323D01*
X31344D02*
X32963D01*
X30644Y324017D02*
X31323D01*
X31439D02*
X32894D01*
X30644Y324110D02*
X31323D01*
X31533D02*
X32826D01*
X30644Y324204D02*
X31323D01*
X31626D02*
X32757D01*
X30644Y324298D02*
X31323D01*
X31720D02*
X32687D01*
X30644Y324391D02*
X31323D01*
X31815D02*
X32669D01*
X30644Y324485D02*
X31323D01*
X31909D02*
X32767D01*
X30644Y324579D02*
X31323D01*
X32002D02*
X32863D01*
X30644Y324672D02*
X31323D01*
X32096D02*
X32960D01*
X30644Y324766D02*
X31323D01*
X32191D02*
X33057D01*
X30644Y324860D02*
X31323D01*
X32285D02*
X33154D01*
X30644Y324954D02*
X31323D01*
X32378D02*
X33251D01*
X30644Y325047D02*
X31323D01*
X32472D02*
X33348D01*
X30644Y325141D02*
X31323D01*
X32567D02*
X33444D01*
X30644Y325235D02*
X31323D01*
X32661D02*
X33541D01*
X30644Y325328D02*
X31323D01*
X32754D02*
X33638D01*
X30644Y325422D02*
X31323D01*
X32848D02*
X33735D01*
X30644Y325516D02*
X31323D01*
X32943D02*
X33832D01*
X30644Y325609D02*
X31323D01*
X33036D02*
X33929D01*
X30644Y325703D02*
X31323D01*
X33130D02*
X34026D01*
X30644Y325797D02*
X31323D01*
X33224D02*
X34123D01*
X30644Y325891D02*
X31323D01*
X33319D02*
X34220D01*
X30644Y325984D02*
X31323D01*
X33412D02*
X34317D01*
X30644Y326078D02*
X31323D01*
X33506D02*
X34413D01*
X30644Y326172D02*
X31323D01*
X33600D02*
X34510D01*
X30644Y326265D02*
X31323D01*
X33694D02*
X34607D01*
X30644Y326359D02*
X31323D01*
X33788D02*
X34704D01*
X70644Y241316D02*
Y246441D01*
X71323*
Y243902*
X73870Y246441*
X74788*
X72640Y244363*
X74882Y241316*
X73987*
X72163Y243906*
X71323Y243093*
Y241316*
X70644*
Y241393D02*
X71323D01*
X73933D02*
X74825D01*
X70644Y241487D02*
X71323D01*
X73867D02*
X74756D01*
X70644Y241580D02*
X71323D01*
X73801D02*
X74687D01*
X70644Y241674D02*
X71323D01*
X73735D02*
X74618D01*
X70644Y241768D02*
X71323D01*
X73669D02*
X74549D01*
X70644Y241861D02*
X71323D01*
X73603D02*
X74480D01*
X70644Y241955D02*
X71323D01*
X73537D02*
X74411D01*
X70644Y242049D02*
X71323D01*
X73471D02*
X74343D01*
X70644Y242143D02*
X71323D01*
X73405D02*
X74274D01*
X70644Y242236D02*
X71323D01*
X73339D02*
X74205D01*
X70644Y242330D02*
X71323D01*
X73273D02*
X74135D01*
X70644Y242424D02*
X71323D01*
X73207D02*
X74067D01*
X70644Y242517D02*
X71323D01*
X73141D02*
X73998D01*
X70644Y242611D02*
X71323D01*
X73075D02*
X73929D01*
X70644Y242705D02*
X71323D01*
X73009D02*
X73860D01*
X70644Y242798D02*
X71323D01*
X72943D02*
X73791D01*
X70644Y242892D02*
X71323D01*
X72877D02*
X73722D01*
X70644Y242986D02*
X71323D01*
X72811D02*
X73653D01*
X70644Y243080D02*
X71323D01*
X72745D02*
X73584D01*
X70644Y243173D02*
X71406D01*
X72679D02*
X73515D01*
X70644Y243267D02*
X71503D01*
X72613D02*
X73446D01*
X70644Y243361D02*
X71600D01*
X72547D02*
X73377D01*
X70644Y243454D02*
X71697D01*
X72481D02*
X73308D01*
X70644Y243548D02*
X71794D01*
X72415D02*
X73239D01*
X70644Y243642D02*
X71891D01*
X72349D02*
X73170D01*
X70644Y243735D02*
X71987D01*
X72283D02*
X73101D01*
X70644Y243829D02*
X72084D01*
X72217D02*
X73032D01*
X70644Y243923D02*
X71323D01*
X71344D02*
X72963D01*
X70644Y244017D02*
X71323D01*
X71439D02*
X72894D01*
X70644Y244110D02*
X71323D01*
X71533D02*
X72826D01*
X70644Y244204D02*
X71323D01*
X71626D02*
X72757D01*
X70644Y244298D02*
X71323D01*
X71720D02*
X72687D01*
X70644Y244391D02*
X71323D01*
X71815D02*
X72669D01*
X70644Y244485D02*
X71323D01*
X71909D02*
X72767D01*
X70644Y244579D02*
X71323D01*
X72002D02*
X72863D01*
X70644Y244672D02*
X71323D01*
X72096D02*
X72960D01*
X70644Y244766D02*
X71323D01*
X72191D02*
X73057D01*
X70644Y244860D02*
X71323D01*
X72285D02*
X73154D01*
X70644Y244954D02*
X71323D01*
X72378D02*
X73251D01*
X70644Y245047D02*
X71323D01*
X72472D02*
X73348D01*
X70644Y245141D02*
X71323D01*
X72567D02*
X73444D01*
X70644Y245235D02*
X71323D01*
X72661D02*
X73541D01*
X70644Y245328D02*
X71323D01*
X72754D02*
X73638D01*
X70644Y245422D02*
X71323D01*
X72848D02*
X73735D01*
X70644Y245516D02*
X71323D01*
X72943D02*
X73832D01*
X70644Y245609D02*
X71323D01*
X73036D02*
X73929D01*
X70644Y245703D02*
X71323D01*
X73130D02*
X74026D01*
X70644Y245797D02*
X71323D01*
X73224D02*
X74123D01*
X70644Y245891D02*
X71323D01*
X73319D02*
X74220D01*
X70644Y245984D02*
X71323D01*
X73412D02*
X74317D01*
X70644Y246078D02*
X71323D01*
X73506D02*
X74413D01*
X70644Y246172D02*
X71323D01*
X73600D02*
X74510D01*
X70644Y246265D02*
X71323D01*
X73694D02*
X74607D01*
X70644Y246359D02*
X71323D01*
X73788D02*
X74704D01*
X70644Y251316D02*
Y256441D01*
X71323*
Y253902*
X73870Y256441*
X74788*
X72640Y254363*
X74882Y251316*
X73987*
X72163Y253906*
X71323Y253093*
Y251316*
X70644*
Y251393D02*
X71323D01*
X73933D02*
X74825D01*
X70644Y251487D02*
X71323D01*
X73867D02*
X74756D01*
X70644Y251580D02*
X71323D01*
X73801D02*
X74687D01*
X70644Y251674D02*
X71323D01*
X73735D02*
X74618D01*
X70644Y251768D02*
X71323D01*
X73669D02*
X74549D01*
X70644Y251861D02*
X71323D01*
X73603D02*
X74480D01*
X70644Y251955D02*
X71323D01*
X73537D02*
X74411D01*
X70644Y252049D02*
X71323D01*
X73471D02*
X74343D01*
X70644Y252143D02*
X71323D01*
X73405D02*
X74274D01*
X70644Y252236D02*
X71323D01*
X73339D02*
X74205D01*
X70644Y252330D02*
X71323D01*
X73273D02*
X74135D01*
X70644Y252424D02*
X71323D01*
X73207D02*
X74067D01*
X70644Y252517D02*
X71323D01*
X73141D02*
X73998D01*
X70644Y252611D02*
X71323D01*
X73075D02*
X73929D01*
X70644Y252705D02*
X71323D01*
X73009D02*
X73860D01*
X70644Y252798D02*
X71323D01*
X72943D02*
X73791D01*
X70644Y252892D02*
X71323D01*
X72877D02*
X73722D01*
X70644Y252986D02*
X71323D01*
X72811D02*
X73653D01*
X70644Y253080D02*
X71323D01*
X72745D02*
X73584D01*
X70644Y253173D02*
X71406D01*
X72679D02*
X73515D01*
X70644Y253267D02*
X71503D01*
X72613D02*
X73446D01*
X70644Y253361D02*
X71600D01*
X72547D02*
X73377D01*
X70644Y253454D02*
X71697D01*
X72481D02*
X73308D01*
X70644Y253548D02*
X71794D01*
X72415D02*
X73239D01*
X70644Y253642D02*
X71891D01*
X72349D02*
X73170D01*
X70644Y253735D02*
X71987D01*
X72283D02*
X73101D01*
X70644Y253829D02*
X72084D01*
X72217D02*
X73032D01*
X70644Y253923D02*
X71323D01*
X71344D02*
X72963D01*
X70644Y254017D02*
X71323D01*
X71439D02*
X72894D01*
X70644Y254110D02*
X71323D01*
X71533D02*
X72826D01*
X70644Y254204D02*
X71323D01*
X71626D02*
X72757D01*
X70644Y254298D02*
X71323D01*
X71720D02*
X72687D01*
X70644Y254391D02*
X71323D01*
X71815D02*
X72669D01*
X70644Y254485D02*
X71323D01*
X71909D02*
X72767D01*
X70644Y254579D02*
X71323D01*
X72002D02*
X72863D01*
X70644Y254672D02*
X71323D01*
X72096D02*
X72960D01*
X70644Y254766D02*
X71323D01*
X72191D02*
X73057D01*
X70644Y254860D02*
X71323D01*
X72285D02*
X73154D01*
X70644Y254954D02*
X71323D01*
X72378D02*
X73251D01*
X70644Y255047D02*
X71323D01*
X72472D02*
X73348D01*
X70644Y255141D02*
X71323D01*
X72567D02*
X73444D01*
X70644Y255235D02*
X71323D01*
X72661D02*
X73541D01*
X70644Y255328D02*
X71323D01*
X72754D02*
X73638D01*
X70644Y255422D02*
X71323D01*
X72848D02*
X73735D01*
X70644Y255516D02*
X71323D01*
X72943D02*
X73832D01*
X70644Y255609D02*
X71323D01*
X73036D02*
X73929D01*
X70644Y255703D02*
X71323D01*
X73130D02*
X74026D01*
X70644Y255797D02*
X71323D01*
X73224D02*
X74123D01*
X70644Y255891D02*
X71323D01*
X73319D02*
X74220D01*
X70644Y255984D02*
X71323D01*
X73412D02*
X74317D01*
X70644Y256078D02*
X71323D01*
X73506D02*
X74413D01*
X70644Y256172D02*
X71323D01*
X73600D02*
X74510D01*
X70644Y256265D02*
X71323D01*
X73694D02*
X74607D01*
X70644Y256359D02*
X71323D01*
X73788D02*
X74704D01*
X70644Y276316D02*
Y281441D01*
X71323*
Y278902*
X73870Y281441*
X74788*
X72640Y279363*
X74882Y276316*
X73987*
X72163Y278906*
X71323Y278093*
Y276316*
X70644*
Y276393D02*
X71323D01*
X73933D02*
X74825D01*
X70644Y276487D02*
X71323D01*
X73867D02*
X74756D01*
X70644Y276580D02*
X71323D01*
X73801D02*
X74687D01*
X70644Y276674D02*
X71323D01*
X73735D02*
X74618D01*
X70644Y276768D02*
X71323D01*
X73669D02*
X74549D01*
X70644Y276861D02*
X71323D01*
X73603D02*
X74480D01*
X70644Y276955D02*
X71323D01*
X73537D02*
X74411D01*
X70644Y277049D02*
X71323D01*
X73471D02*
X74343D01*
X70644Y277143D02*
X71323D01*
X73405D02*
X74274D01*
X70644Y277236D02*
X71323D01*
X73339D02*
X74205D01*
X70644Y277330D02*
X71323D01*
X73273D02*
X74135D01*
X70644Y277424D02*
X71323D01*
X73207D02*
X74067D01*
X70644Y277517D02*
X71323D01*
X73141D02*
X73998D01*
X70644Y277611D02*
X71323D01*
X73075D02*
X73929D01*
X70644Y277705D02*
X71323D01*
X73009D02*
X73860D01*
X70644Y277798D02*
X71323D01*
X72943D02*
X73791D01*
X70644Y277892D02*
X71323D01*
X72877D02*
X73722D01*
X70644Y277986D02*
X71323D01*
X72811D02*
X73653D01*
X70644Y278080D02*
X71323D01*
X72745D02*
X73584D01*
X70644Y278173D02*
X71406D01*
X72679D02*
X73515D01*
X70644Y278267D02*
X71503D01*
X72613D02*
X73446D01*
X70644Y278361D02*
X71600D01*
X72547D02*
X73377D01*
X70644Y278454D02*
X71697D01*
X72481D02*
X73308D01*
X70644Y278548D02*
X71794D01*
X72415D02*
X73239D01*
X70644Y278642D02*
X71891D01*
X72349D02*
X73170D01*
X70644Y278735D02*
X71987D01*
X72283D02*
X73101D01*
X70644Y278829D02*
X72084D01*
X72217D02*
X73032D01*
X70644Y278923D02*
X71323D01*
X71344D02*
X72963D01*
X70644Y279017D02*
X71323D01*
X71439D02*
X72894D01*
X70644Y279110D02*
X71323D01*
X71533D02*
X72826D01*
X70644Y279204D02*
X71323D01*
X71626D02*
X72757D01*
X70644Y279298D02*
X71323D01*
X71720D02*
X72687D01*
X70644Y279391D02*
X71323D01*
X71815D02*
X72669D01*
X70644Y279485D02*
X71323D01*
X71909D02*
X72767D01*
X70644Y279579D02*
X71323D01*
X72002D02*
X72863D01*
X70644Y279672D02*
X71323D01*
X72096D02*
X72960D01*
X70644Y279766D02*
X71323D01*
X72191D02*
X73057D01*
X70644Y279860D02*
X71323D01*
X72285D02*
X73154D01*
X70644Y279954D02*
X71323D01*
X72378D02*
X73251D01*
X70644Y280047D02*
X71323D01*
X72472D02*
X73348D01*
X70644Y280141D02*
X71323D01*
X72567D02*
X73444D01*
X70644Y280235D02*
X71323D01*
X72661D02*
X73541D01*
X70644Y280328D02*
X71323D01*
X72754D02*
X73638D01*
X70644Y280422D02*
X71323D01*
X72848D02*
X73735D01*
X70644Y280516D02*
X71323D01*
X72943D02*
X73832D01*
X70644Y280609D02*
X71323D01*
X73036D02*
X73929D01*
X70644Y280703D02*
X71323D01*
X73130D02*
X74026D01*
X70644Y280797D02*
X71323D01*
X73224D02*
X74123D01*
X70644Y280891D02*
X71323D01*
X73319D02*
X74220D01*
X70644Y280984D02*
X71323D01*
X73412D02*
X74317D01*
X70644Y281078D02*
X71323D01*
X73506D02*
X74413D01*
X70644Y281172D02*
X71323D01*
X73600D02*
X74510D01*
X70644Y281265D02*
X71323D01*
X73694D02*
X74607D01*
X70644Y281359D02*
X71323D01*
X73788D02*
X74704D01*
X70644Y286316D02*
Y291441D01*
X71323*
Y288902*
X73870Y291441*
X74788*
X72640Y289363*
X74882Y286316*
X73987*
X72163Y288906*
X71323Y288093*
Y286316*
X70644*
Y286393D02*
X71323D01*
X73933D02*
X74825D01*
X70644Y286487D02*
X71323D01*
X73867D02*
X74756D01*
X70644Y286580D02*
X71323D01*
X73801D02*
X74687D01*
X70644Y286674D02*
X71323D01*
X73735D02*
X74618D01*
X70644Y286768D02*
X71323D01*
X73669D02*
X74549D01*
X70644Y286861D02*
X71323D01*
X73603D02*
X74480D01*
X70644Y286955D02*
X71323D01*
X73537D02*
X74411D01*
X70644Y287049D02*
X71323D01*
X73471D02*
X74343D01*
X70644Y287143D02*
X71323D01*
X73405D02*
X74274D01*
X70644Y287236D02*
X71323D01*
X73339D02*
X74205D01*
X70644Y287330D02*
X71323D01*
X73273D02*
X74135D01*
X70644Y287424D02*
X71323D01*
X73207D02*
X74067D01*
X70644Y287517D02*
X71323D01*
X73141D02*
X73998D01*
X70644Y287611D02*
X71323D01*
X73075D02*
X73929D01*
X70644Y287705D02*
X71323D01*
X73009D02*
X73860D01*
X70644Y287798D02*
X71323D01*
X72943D02*
X73791D01*
X70644Y287892D02*
X71323D01*
X72877D02*
X73722D01*
X70644Y287986D02*
X71323D01*
X72811D02*
X73653D01*
X70644Y288080D02*
X71323D01*
X72745D02*
X73584D01*
X70644Y288173D02*
X71406D01*
X72679D02*
X73515D01*
X70644Y288267D02*
X71503D01*
X72613D02*
X73446D01*
X70644Y288361D02*
X71600D01*
X72547D02*
X73377D01*
X70644Y288454D02*
X71697D01*
X72481D02*
X73308D01*
X70644Y288548D02*
X71794D01*
X72415D02*
X73239D01*
X70644Y288642D02*
X71891D01*
X72349D02*
X73170D01*
X70644Y288735D02*
X71987D01*
X72283D02*
X73101D01*
X70644Y288829D02*
X72084D01*
X72217D02*
X73032D01*
X70644Y288923D02*
X71323D01*
X71344D02*
X72963D01*
X70644Y289017D02*
X71323D01*
X71439D02*
X72894D01*
X70644Y289110D02*
X71323D01*
X71533D02*
X72826D01*
X70644Y289204D02*
X71323D01*
X71626D02*
X72757D01*
X70644Y289298D02*
X71323D01*
X71720D02*
X72687D01*
X70644Y289391D02*
X71323D01*
X71815D02*
X72669D01*
X70644Y289485D02*
X71323D01*
X71909D02*
X72767D01*
X70644Y289579D02*
X71323D01*
X72002D02*
X72863D01*
X70644Y289672D02*
X71323D01*
X72096D02*
X72960D01*
X70644Y289766D02*
X71323D01*
X72191D02*
X73057D01*
X70644Y289860D02*
X71323D01*
X72285D02*
X73154D01*
X70644Y289954D02*
X71323D01*
X72378D02*
X73251D01*
X70644Y290047D02*
X71323D01*
X72472D02*
X73348D01*
X70644Y290141D02*
X71323D01*
X72567D02*
X73444D01*
X70644Y290235D02*
X71323D01*
X72661D02*
X73541D01*
X70644Y290328D02*
X71323D01*
X72754D02*
X73638D01*
X70644Y290422D02*
X71323D01*
X72848D02*
X73735D01*
X70644Y290516D02*
X71323D01*
X72943D02*
X73832D01*
X70644Y290609D02*
X71323D01*
X73036D02*
X73929D01*
X70644Y290703D02*
X71323D01*
X73130D02*
X74026D01*
X70644Y290797D02*
X71323D01*
X73224D02*
X74123D01*
X70644Y290891D02*
X71323D01*
X73319D02*
X74220D01*
X70644Y290984D02*
X71323D01*
X73412D02*
X74317D01*
X70644Y291078D02*
X71323D01*
X73506D02*
X74413D01*
X70644Y291172D02*
X71323D01*
X73600D02*
X74510D01*
X70644Y291265D02*
X71323D01*
X73694D02*
X74607D01*
X70644Y291359D02*
X71323D01*
X73788D02*
X74704D01*
X70644Y311316D02*
Y316441D01*
X71323*
Y313902*
X73870Y316441*
X74788*
X72640Y314363*
X74882Y311316*
X73987*
X72163Y313906*
X71323Y313093*
Y311316*
X70644*
Y311393D02*
X71323D01*
X73933D02*
X74825D01*
X70644Y311487D02*
X71323D01*
X73867D02*
X74756D01*
X70644Y311580D02*
X71323D01*
X73801D02*
X74687D01*
X70644Y311674D02*
X71323D01*
X73735D02*
X74618D01*
X70644Y311768D02*
X71323D01*
X73669D02*
X74549D01*
X70644Y311861D02*
X71323D01*
X73603D02*
X74480D01*
X70644Y311955D02*
X71323D01*
X73537D02*
X74411D01*
X70644Y312049D02*
X71323D01*
X73471D02*
X74343D01*
X70644Y312143D02*
X71323D01*
X73405D02*
X74274D01*
X70644Y312236D02*
X71323D01*
X73339D02*
X74205D01*
X70644Y312330D02*
X71323D01*
X73273D02*
X74135D01*
X70644Y312424D02*
X71323D01*
X73207D02*
X74067D01*
X70644Y312517D02*
X71323D01*
X73141D02*
X73998D01*
X70644Y312611D02*
X71323D01*
X73075D02*
X73929D01*
X70644Y312705D02*
X71323D01*
X73009D02*
X73860D01*
X70644Y312798D02*
X71323D01*
X72943D02*
X73791D01*
X70644Y312892D02*
X71323D01*
X72877D02*
X73722D01*
X70644Y312986D02*
X71323D01*
X72811D02*
X73653D01*
X70644Y313080D02*
X71323D01*
X72745D02*
X73584D01*
X70644Y313173D02*
X71406D01*
X72679D02*
X73515D01*
X70644Y313267D02*
X71503D01*
X72613D02*
X73446D01*
X70644Y313361D02*
X71600D01*
X72547D02*
X73377D01*
X70644Y313454D02*
X71697D01*
X72481D02*
X73308D01*
X70644Y313548D02*
X71794D01*
X72415D02*
X73239D01*
X70644Y313642D02*
X71891D01*
X72349D02*
X73170D01*
X70644Y313735D02*
X71987D01*
X72283D02*
X73101D01*
X70644Y313829D02*
X72084D01*
X72217D02*
X73032D01*
X70644Y313923D02*
X71323D01*
X71344D02*
X72963D01*
X70644Y314017D02*
X71323D01*
X71439D02*
X72894D01*
X70644Y314110D02*
X71323D01*
X71533D02*
X72826D01*
X70644Y314204D02*
X71323D01*
X71626D02*
X72757D01*
X70644Y314298D02*
X71323D01*
X71720D02*
X72687D01*
X70644Y314391D02*
X71323D01*
X71815D02*
X72669D01*
X70644Y314485D02*
X71323D01*
X71909D02*
X72767D01*
X70644Y314579D02*
X71323D01*
X72002D02*
X72863D01*
X70644Y314672D02*
X71323D01*
X72096D02*
X72960D01*
X70644Y314766D02*
X71323D01*
X72191D02*
X73057D01*
X70644Y314860D02*
X71323D01*
X72285D02*
X73154D01*
X70644Y314954D02*
X71323D01*
X72378D02*
X73251D01*
X70644Y315047D02*
X71323D01*
X72472D02*
X73348D01*
X70644Y315141D02*
X71323D01*
X72567D02*
X73444D01*
X70644Y315235D02*
X71323D01*
X72661D02*
X73541D01*
X70644Y315328D02*
X71323D01*
X72754D02*
X73638D01*
X70644Y315422D02*
X71323D01*
X72848D02*
X73735D01*
X70644Y315516D02*
X71323D01*
X72943D02*
X73832D01*
X70644Y315609D02*
X71323D01*
X73036D02*
X73929D01*
X70644Y315703D02*
X71323D01*
X73130D02*
X74026D01*
X70644Y315797D02*
X71323D01*
X73224D02*
X74123D01*
X70644Y315891D02*
X71323D01*
X73319D02*
X74220D01*
X70644Y315984D02*
X71323D01*
X73412D02*
X74317D01*
X70644Y316078D02*
X71323D01*
X73506D02*
X74413D01*
X70644Y316172D02*
X71323D01*
X73600D02*
X74510D01*
X70644Y316265D02*
X71323D01*
X73694D02*
X74607D01*
X70644Y316359D02*
X71323D01*
X73788D02*
X74704D01*
X70644Y321316D02*
Y326441D01*
X71323*
Y323902*
X73870Y326441*
X74788*
X72640Y324363*
X74882Y321316*
X73987*
X72163Y323906*
X71323Y323093*
Y321316*
X70644*
Y321393D02*
X71323D01*
X73933D02*
X74825D01*
X70644Y321487D02*
X71323D01*
X73867D02*
X74756D01*
X70644Y321580D02*
X71323D01*
X73801D02*
X74687D01*
X70644Y321674D02*
X71323D01*
X73735D02*
X74618D01*
X70644Y321768D02*
X71323D01*
X73669D02*
X74549D01*
X70644Y321861D02*
X71323D01*
X73603D02*
X74480D01*
X70644Y321955D02*
X71323D01*
X73537D02*
X74411D01*
X70644Y322049D02*
X71323D01*
X73471D02*
X74343D01*
X70644Y322143D02*
X71323D01*
X73405D02*
X74274D01*
X70644Y322236D02*
X71323D01*
X73339D02*
X74205D01*
X70644Y322330D02*
X71323D01*
X73273D02*
X74135D01*
X70644Y322424D02*
X71323D01*
X73207D02*
X74067D01*
X70644Y322517D02*
X71323D01*
X73141D02*
X73998D01*
X70644Y322611D02*
X71323D01*
X73075D02*
X73929D01*
X70644Y322705D02*
X71323D01*
X73009D02*
X73860D01*
X70644Y322798D02*
X71323D01*
X72943D02*
X73791D01*
X70644Y322892D02*
X71323D01*
X72877D02*
X73722D01*
X70644Y322986D02*
X71323D01*
X72811D02*
X73653D01*
X70644Y323080D02*
X71323D01*
X72745D02*
X73584D01*
X70644Y323173D02*
X71406D01*
X72679D02*
X73515D01*
X70644Y323267D02*
X71503D01*
X72613D02*
X73446D01*
X70644Y323361D02*
X71600D01*
X72547D02*
X73377D01*
X70644Y323454D02*
X71697D01*
X72481D02*
X73308D01*
X70644Y323548D02*
X71794D01*
X72415D02*
X73239D01*
X70644Y323642D02*
X71891D01*
X72349D02*
X73170D01*
X70644Y323735D02*
X71987D01*
X72283D02*
X73101D01*
X70644Y323829D02*
X72084D01*
X72217D02*
X73032D01*
X70644Y323923D02*
X71323D01*
X71344D02*
X72963D01*
X70644Y324017D02*
X71323D01*
X71439D02*
X72894D01*
X70644Y324110D02*
X71323D01*
X71533D02*
X72826D01*
X70644Y324204D02*
X71323D01*
X71626D02*
X72757D01*
X70644Y324298D02*
X71323D01*
X71720D02*
X72687D01*
X70644Y324391D02*
X71323D01*
X71815D02*
X72669D01*
X70644Y324485D02*
X71323D01*
X71909D02*
X72767D01*
X70644Y324579D02*
X71323D01*
X72002D02*
X72863D01*
X70644Y324672D02*
X71323D01*
X72096D02*
X72960D01*
X70644Y324766D02*
X71323D01*
X72191D02*
X73057D01*
X70644Y324860D02*
X71323D01*
X72285D02*
X73154D01*
X70644Y324954D02*
X71323D01*
X72378D02*
X73251D01*
X70644Y325047D02*
X71323D01*
X72472D02*
X73348D01*
X70644Y325141D02*
X71323D01*
X72567D02*
X73444D01*
X70644Y325235D02*
X71323D01*
X72661D02*
X73541D01*
X70644Y325328D02*
X71323D01*
X72754D02*
X73638D01*
X70644Y325422D02*
X71323D01*
X72848D02*
X73735D01*
X70644Y325516D02*
X71323D01*
X72943D02*
X73832D01*
X70644Y325609D02*
X71323D01*
X73036D02*
X73929D01*
X70644Y325703D02*
X71323D01*
X73130D02*
X74026D01*
X70644Y325797D02*
X71323D01*
X73224D02*
X74123D01*
X70644Y325891D02*
X71323D01*
X73319D02*
X74220D01*
X70644Y325984D02*
X71323D01*
X73412D02*
X74317D01*
X70644Y326078D02*
X71323D01*
X73506D02*
X74413D01*
X70644Y326172D02*
X71323D01*
X73600D02*
X74510D01*
X70644Y326265D02*
X71323D01*
X73694D02*
X74607D01*
X70644Y326359D02*
X71323D01*
X73788D02*
X74704D01*
X120644Y251316D02*
Y256441D01*
X121323*
Y253902*
X123870Y256441*
X124788*
X122640Y254363*
X124882Y251316*
X123987*
X122163Y253906*
X121323Y253093*
Y251316*
X120644*
Y251393D02*
X121323D01*
X123933D02*
X124825D01*
X120644Y251487D02*
X121323D01*
X123867D02*
X124756D01*
X120644Y251580D02*
X121323D01*
X123801D02*
X124687D01*
X120644Y251674D02*
X121323D01*
X123735D02*
X124618D01*
X120644Y251768D02*
X121323D01*
X123669D02*
X124549D01*
X120644Y251861D02*
X121323D01*
X123603D02*
X124480D01*
X120644Y251955D02*
X121323D01*
X123537D02*
X124411D01*
X120644Y252049D02*
X121323D01*
X123471D02*
X124343D01*
X120644Y252143D02*
X121323D01*
X123405D02*
X124274D01*
X120644Y252236D02*
X121323D01*
X123339D02*
X124205D01*
X120644Y252330D02*
X121323D01*
X123273D02*
X124135D01*
X120644Y252424D02*
X121323D01*
X123207D02*
X124067D01*
X120644Y252517D02*
X121323D01*
X123141D02*
X123998D01*
X120644Y252611D02*
X121323D01*
X123075D02*
X123929D01*
X120644Y252705D02*
X121323D01*
X123009D02*
X123860D01*
X120644Y252798D02*
X121323D01*
X122943D02*
X123791D01*
X120644Y252892D02*
X121323D01*
X122877D02*
X123722D01*
X120644Y252986D02*
X121323D01*
X122811D02*
X123653D01*
X120644Y253080D02*
X121323D01*
X122745D02*
X123584D01*
X120644Y253173D02*
X121406D01*
X122679D02*
X123515D01*
X120644Y253267D02*
X121503D01*
X122613D02*
X123446D01*
X120644Y253361D02*
X121600D01*
X122547D02*
X123377D01*
X120644Y253454D02*
X121697D01*
X122481D02*
X123308D01*
X120644Y253548D02*
X121794D01*
X122415D02*
X123239D01*
X120644Y253642D02*
X121891D01*
X122349D02*
X123170D01*
X120644Y253735D02*
X121987D01*
X122283D02*
X123101D01*
X120644Y253829D02*
X122084D01*
X122217D02*
X123032D01*
X120644Y253923D02*
X121323D01*
X121344D02*
X122963D01*
X120644Y254017D02*
X121323D01*
X121439D02*
X122894D01*
X120644Y254110D02*
X121323D01*
X121533D02*
X122826D01*
X120644Y254204D02*
X121323D01*
X121626D02*
X122757D01*
X120644Y254298D02*
X121323D01*
X121720D02*
X122687D01*
X120644Y254391D02*
X121323D01*
X121815D02*
X122669D01*
X120644Y254485D02*
X121323D01*
X121909D02*
X122767D01*
X120644Y254579D02*
X121323D01*
X122002D02*
X122863D01*
X120644Y254672D02*
X121323D01*
X122096D02*
X122960D01*
X120644Y254766D02*
X121323D01*
X122191D02*
X123057D01*
X120644Y254860D02*
X121323D01*
X122285D02*
X123154D01*
X120644Y254954D02*
X121323D01*
X122378D02*
X123251D01*
X120644Y255047D02*
X121323D01*
X122472D02*
X123348D01*
X120644Y255141D02*
X121323D01*
X122567D02*
X123444D01*
X120644Y255235D02*
X121323D01*
X122661D02*
X123541D01*
X120644Y255328D02*
X121323D01*
X122754D02*
X123638D01*
X120644Y255422D02*
X121323D01*
X122848D02*
X123735D01*
X120644Y255516D02*
X121323D01*
X122943D02*
X123832D01*
X120644Y255609D02*
X121323D01*
X123036D02*
X123929D01*
X120644Y255703D02*
X121323D01*
X123130D02*
X124026D01*
X120644Y255797D02*
X121323D01*
X123224D02*
X124123D01*
X120644Y255891D02*
X121323D01*
X123319D02*
X124220D01*
X120644Y255984D02*
X121323D01*
X123412D02*
X124317D01*
X120644Y256078D02*
X121323D01*
X123506D02*
X124413D01*
X120644Y256172D02*
X121323D01*
X123600D02*
X124510D01*
X120644Y256265D02*
X121323D01*
X123694D02*
X124607D01*
X120644Y256359D02*
X121323D01*
X123788D02*
X124704D01*
X120644Y261316D02*
Y266441D01*
X121323*
Y263902*
X123870Y266441*
X124788*
X122640Y264363*
X124882Y261316*
X123987*
X122163Y263906*
X121323Y263093*
Y261316*
X120644*
Y261393D02*
X121323D01*
X123933D02*
X124825D01*
X120644Y261487D02*
X121323D01*
X123867D02*
X124756D01*
X120644Y261580D02*
X121323D01*
X123801D02*
X124687D01*
X120644Y261674D02*
X121323D01*
X123735D02*
X124618D01*
X120644Y261768D02*
X121323D01*
X123669D02*
X124549D01*
X120644Y261861D02*
X121323D01*
X123603D02*
X124480D01*
X120644Y261955D02*
X121323D01*
X123537D02*
X124411D01*
X120644Y262049D02*
X121323D01*
X123471D02*
X124343D01*
X120644Y262143D02*
X121323D01*
X123405D02*
X124274D01*
X120644Y262236D02*
X121323D01*
X123339D02*
X124205D01*
X120644Y262330D02*
X121323D01*
X123273D02*
X124135D01*
X120644Y262424D02*
X121323D01*
X123207D02*
X124067D01*
X120644Y262517D02*
X121323D01*
X123141D02*
X123998D01*
X120644Y262611D02*
X121323D01*
X123075D02*
X123929D01*
X120644Y262705D02*
X121323D01*
X123009D02*
X123860D01*
X120644Y262798D02*
X121323D01*
X122943D02*
X123791D01*
X120644Y262892D02*
X121323D01*
X122877D02*
X123722D01*
X120644Y262986D02*
X121323D01*
X122811D02*
X123653D01*
X120644Y263080D02*
X121323D01*
X122745D02*
X123584D01*
X120644Y263173D02*
X121406D01*
X122679D02*
X123515D01*
X120644Y263267D02*
X121503D01*
X122613D02*
X123446D01*
X120644Y263361D02*
X121600D01*
X122547D02*
X123377D01*
X120644Y263454D02*
X121697D01*
X122481D02*
X123308D01*
X120644Y263548D02*
X121794D01*
X122415D02*
X123239D01*
X120644Y263642D02*
X121891D01*
X122349D02*
X123170D01*
X120644Y263735D02*
X121987D01*
X122283D02*
X123101D01*
X120644Y263829D02*
X122084D01*
X122217D02*
X123032D01*
X120644Y263923D02*
X121323D01*
X121344D02*
X122963D01*
X120644Y264017D02*
X121323D01*
X121439D02*
X122894D01*
X120644Y264110D02*
X121323D01*
X121533D02*
X122826D01*
X120644Y264204D02*
X121323D01*
X121626D02*
X122757D01*
X120644Y264298D02*
X121323D01*
X121720D02*
X122687D01*
X120644Y264391D02*
X121323D01*
X121815D02*
X122669D01*
X120644Y264485D02*
X121323D01*
X121909D02*
X122767D01*
X120644Y264579D02*
X121323D01*
X122002D02*
X122863D01*
X120644Y264672D02*
X121323D01*
X122096D02*
X122960D01*
X120644Y264766D02*
X121323D01*
X122191D02*
X123057D01*
X120644Y264860D02*
X121323D01*
X122285D02*
X123154D01*
X120644Y264954D02*
X121323D01*
X122378D02*
X123251D01*
X120644Y265047D02*
X121323D01*
X122472D02*
X123348D01*
X120644Y265141D02*
X121323D01*
X122567D02*
X123444D01*
X120644Y265235D02*
X121323D01*
X122661D02*
X123541D01*
X120644Y265328D02*
X121323D01*
X122754D02*
X123638D01*
X120644Y265422D02*
X121323D01*
X122848D02*
X123735D01*
X120644Y265516D02*
X121323D01*
X122943D02*
X123832D01*
X120644Y265609D02*
X121323D01*
X123036D02*
X123929D01*
X120644Y265703D02*
X121323D01*
X123130D02*
X124026D01*
X120644Y265797D02*
X121323D01*
X123224D02*
X124123D01*
X120644Y265891D02*
X121323D01*
X123319D02*
X124220D01*
X120644Y265984D02*
X121323D01*
X123412D02*
X124317D01*
X120644Y266078D02*
X121323D01*
X123506D02*
X124413D01*
X120644Y266172D02*
X121323D01*
X123600D02*
X124510D01*
X120644Y266265D02*
X121323D01*
X123694D02*
X124607D01*
X120644Y266359D02*
X121323D01*
X123788D02*
X124704D01*
X120644Y271316D02*
Y276441D01*
X121323*
Y273902*
X123870Y276441*
X124788*
X122640Y274363*
X124882Y271316*
X123987*
X122163Y273906*
X121323Y273093*
Y271316*
X120644*
Y271393D02*
X121323D01*
X123933D02*
X124825D01*
X120644Y271487D02*
X121323D01*
X123867D02*
X124756D01*
X120644Y271580D02*
X121323D01*
X123801D02*
X124687D01*
X120644Y271674D02*
X121323D01*
X123735D02*
X124618D01*
X120644Y271768D02*
X121323D01*
X123669D02*
X124549D01*
X120644Y271861D02*
X121323D01*
X123603D02*
X124480D01*
X120644Y271955D02*
X121323D01*
X123537D02*
X124411D01*
X120644Y272049D02*
X121323D01*
X123471D02*
X124343D01*
X120644Y272143D02*
X121323D01*
X123405D02*
X124274D01*
X120644Y272236D02*
X121323D01*
X123339D02*
X124205D01*
X120644Y272330D02*
X121323D01*
X123273D02*
X124135D01*
X120644Y272424D02*
X121323D01*
X123207D02*
X124067D01*
X120644Y272517D02*
X121323D01*
X123141D02*
X123998D01*
X120644Y272611D02*
X121323D01*
X123075D02*
X123929D01*
X120644Y272705D02*
X121323D01*
X123009D02*
X123860D01*
X120644Y272798D02*
X121323D01*
X122943D02*
X123791D01*
X120644Y272892D02*
X121323D01*
X122877D02*
X123722D01*
X120644Y272986D02*
X121323D01*
X122811D02*
X123653D01*
X120644Y273080D02*
X121323D01*
X122745D02*
X123584D01*
X120644Y273173D02*
X121406D01*
X122679D02*
X123515D01*
X120644Y273267D02*
X121503D01*
X122613D02*
X123446D01*
X120644Y273361D02*
X121600D01*
X122547D02*
X123377D01*
X120644Y273454D02*
X121697D01*
X122481D02*
X123308D01*
X120644Y273548D02*
X121794D01*
X122415D02*
X123239D01*
X120644Y273642D02*
X121891D01*
X122349D02*
X123170D01*
X120644Y273735D02*
X121987D01*
X122283D02*
X123101D01*
X120644Y273829D02*
X122084D01*
X122217D02*
X123032D01*
X120644Y273923D02*
X121323D01*
X121344D02*
X122963D01*
X120644Y274017D02*
X121323D01*
X121439D02*
X122894D01*
X120644Y274110D02*
X121323D01*
X121533D02*
X122826D01*
X120644Y274204D02*
X121323D01*
X121626D02*
X122757D01*
X120644Y274298D02*
X121323D01*
X121720D02*
X122687D01*
X120644Y274391D02*
X121323D01*
X121815D02*
X122669D01*
X120644Y274485D02*
X121323D01*
X121909D02*
X122767D01*
X120644Y274579D02*
X121323D01*
X122002D02*
X122863D01*
X120644Y274672D02*
X121323D01*
X122096D02*
X122960D01*
X120644Y274766D02*
X121323D01*
X122191D02*
X123057D01*
X120644Y274860D02*
X121323D01*
X122285D02*
X123154D01*
X120644Y274954D02*
X121323D01*
X122378D02*
X123251D01*
X120644Y275047D02*
X121323D01*
X122472D02*
X123348D01*
X120644Y275141D02*
X121323D01*
X122567D02*
X123444D01*
X120644Y275235D02*
X121323D01*
X122661D02*
X123541D01*
X120644Y275328D02*
X121323D01*
X122754D02*
X123638D01*
X120644Y275422D02*
X121323D01*
X122848D02*
X123735D01*
X120644Y275516D02*
X121323D01*
X122943D02*
X123832D01*
X120644Y275609D02*
X121323D01*
X123036D02*
X123929D01*
X120644Y275703D02*
X121323D01*
X123130D02*
X124026D01*
X120644Y275797D02*
X121323D01*
X123224D02*
X124123D01*
X120644Y275891D02*
X121323D01*
X123319D02*
X124220D01*
X120644Y275984D02*
X121323D01*
X123412D02*
X124317D01*
X120644Y276078D02*
X121323D01*
X123506D02*
X124413D01*
X120644Y276172D02*
X121323D01*
X123600D02*
X124510D01*
X120644Y276265D02*
X121323D01*
X123694D02*
X124607D01*
X120644Y276359D02*
X121323D01*
X123788D02*
X124704D01*
X120644Y281316D02*
Y286441D01*
X121323*
Y283902*
X123870Y286441*
X124788*
X122640Y284363*
X124882Y281316*
X123987*
X122163Y283906*
X121323Y283093*
Y281316*
X120644*
Y281393D02*
X121323D01*
X123933D02*
X124825D01*
X120644Y281487D02*
X121323D01*
X123867D02*
X124756D01*
X120644Y281580D02*
X121323D01*
X123801D02*
X124687D01*
X120644Y281674D02*
X121323D01*
X123735D02*
X124618D01*
X120644Y281768D02*
X121323D01*
X123669D02*
X124549D01*
X120644Y281861D02*
X121323D01*
X123603D02*
X124480D01*
X120644Y281955D02*
X121323D01*
X123537D02*
X124411D01*
X120644Y282049D02*
X121323D01*
X123471D02*
X124343D01*
X120644Y282143D02*
X121323D01*
X123405D02*
X124274D01*
X120644Y282236D02*
X121323D01*
X123339D02*
X124205D01*
X120644Y282330D02*
X121323D01*
X123273D02*
X124135D01*
X120644Y282424D02*
X121323D01*
X123207D02*
X124067D01*
X120644Y282517D02*
X121323D01*
X123141D02*
X123998D01*
X120644Y282611D02*
X121323D01*
X123075D02*
X123929D01*
X120644Y282705D02*
X121323D01*
X123009D02*
X123860D01*
X120644Y282798D02*
X121323D01*
X122943D02*
X123791D01*
X120644Y282892D02*
X121323D01*
X122877D02*
X123722D01*
X120644Y282986D02*
X121323D01*
X122811D02*
X123653D01*
X120644Y283080D02*
X121323D01*
X122745D02*
X123584D01*
X120644Y283173D02*
X121406D01*
X122679D02*
X123515D01*
X120644Y283267D02*
X121503D01*
X122613D02*
X123446D01*
X120644Y283361D02*
X121600D01*
X122547D02*
X123377D01*
X120644Y283454D02*
X121697D01*
X122481D02*
X123308D01*
X120644Y283548D02*
X121794D01*
X122415D02*
X123239D01*
X120644Y283642D02*
X121891D01*
X122349D02*
X123170D01*
X120644Y283735D02*
X121987D01*
X122283D02*
X123101D01*
X120644Y283829D02*
X122084D01*
X122217D02*
X123032D01*
X120644Y283923D02*
X121323D01*
X121344D02*
X122963D01*
X120644Y284017D02*
X121323D01*
X121439D02*
X122894D01*
X120644Y284110D02*
X121323D01*
X121533D02*
X122826D01*
X120644Y284204D02*
X121323D01*
X121626D02*
X122757D01*
X120644Y284298D02*
X121323D01*
X121720D02*
X122687D01*
X120644Y284391D02*
X121323D01*
X121815D02*
X122669D01*
X120644Y284485D02*
X121323D01*
X121909D02*
X122767D01*
X120644Y284579D02*
X121323D01*
X122002D02*
X122863D01*
X120644Y284672D02*
X121323D01*
X122096D02*
X122960D01*
X120644Y284766D02*
X121323D01*
X122191D02*
X123057D01*
X120644Y284860D02*
X121323D01*
X122285D02*
X123154D01*
X120644Y284954D02*
X121323D01*
X122378D02*
X123251D01*
X120644Y285047D02*
X121323D01*
X122472D02*
X123348D01*
X120644Y285141D02*
X121323D01*
X122567D02*
X123444D01*
X120644Y285235D02*
X121323D01*
X122661D02*
X123541D01*
X120644Y285328D02*
X121323D01*
X122754D02*
X123638D01*
X120644Y285422D02*
X121323D01*
X122848D02*
X123735D01*
X120644Y285516D02*
X121323D01*
X122943D02*
X123832D01*
X120644Y285609D02*
X121323D01*
X123036D02*
X123929D01*
X120644Y285703D02*
X121323D01*
X123130D02*
X124026D01*
X120644Y285797D02*
X121323D01*
X123224D02*
X124123D01*
X120644Y285891D02*
X121323D01*
X123319D02*
X124220D01*
X120644Y285984D02*
X121323D01*
X123412D02*
X124317D01*
X120644Y286078D02*
X121323D01*
X123506D02*
X124413D01*
X120644Y286172D02*
X121323D01*
X123600D02*
X124510D01*
X120644Y286265D02*
X121323D01*
X123694D02*
X124607D01*
X120644Y286359D02*
X121323D01*
X123788D02*
X124704D01*
X120644Y291316D02*
Y296441D01*
X121323*
Y293902*
X123870Y296441*
X124788*
X122640Y294363*
X124882Y291316*
X123987*
X122163Y293906*
X121323Y293093*
Y291316*
X120644*
Y291393D02*
X121323D01*
X123933D02*
X124825D01*
X120644Y291487D02*
X121323D01*
X123867D02*
X124756D01*
X120644Y291580D02*
X121323D01*
X123801D02*
X124687D01*
X120644Y291674D02*
X121323D01*
X123735D02*
X124618D01*
X120644Y291768D02*
X121323D01*
X123669D02*
X124549D01*
X120644Y291861D02*
X121323D01*
X123603D02*
X124480D01*
X120644Y291955D02*
X121323D01*
X123537D02*
X124411D01*
X120644Y292049D02*
X121323D01*
X123471D02*
X124343D01*
X120644Y292143D02*
X121323D01*
X123405D02*
X124274D01*
X120644Y292236D02*
X121323D01*
X123339D02*
X124205D01*
X120644Y292330D02*
X121323D01*
X123273D02*
X124135D01*
X120644Y292424D02*
X121323D01*
X123207D02*
X124067D01*
X120644Y292517D02*
X121323D01*
X123141D02*
X123998D01*
X120644Y292611D02*
X121323D01*
X123075D02*
X123929D01*
X120644Y292705D02*
X121323D01*
X123009D02*
X123860D01*
X120644Y292798D02*
X121323D01*
X122943D02*
X123791D01*
X120644Y292892D02*
X121323D01*
X122877D02*
X123722D01*
X120644Y292986D02*
X121323D01*
X122811D02*
X123653D01*
X120644Y293080D02*
X121323D01*
X122745D02*
X123584D01*
X120644Y293173D02*
X121406D01*
X122679D02*
X123515D01*
X120644Y293267D02*
X121503D01*
X122613D02*
X123446D01*
X120644Y293361D02*
X121600D01*
X122547D02*
X123377D01*
X120644Y293454D02*
X121697D01*
X122481D02*
X123308D01*
X120644Y293548D02*
X121794D01*
X122415D02*
X123239D01*
X120644Y293642D02*
X121891D01*
X122349D02*
X123170D01*
X120644Y293735D02*
X121987D01*
X122283D02*
X123101D01*
X120644Y293829D02*
X122084D01*
X122217D02*
X123032D01*
X120644Y293923D02*
X121323D01*
X121344D02*
X122963D01*
X120644Y294017D02*
X121323D01*
X121439D02*
X122894D01*
X120644Y294110D02*
X121323D01*
X121533D02*
X122826D01*
X120644Y294204D02*
X121323D01*
X121626D02*
X122757D01*
X120644Y294298D02*
X121323D01*
X121720D02*
X122687D01*
X120644Y294391D02*
X121323D01*
X121815D02*
X122669D01*
X120644Y294485D02*
X121323D01*
X121909D02*
X122767D01*
X120644Y294579D02*
X121323D01*
X122002D02*
X122863D01*
X120644Y294672D02*
X121323D01*
X122096D02*
X122960D01*
X120644Y294766D02*
X121323D01*
X122191D02*
X123057D01*
X120644Y294860D02*
X121323D01*
X122285D02*
X123154D01*
X120644Y294954D02*
X121323D01*
X122378D02*
X123251D01*
X120644Y295047D02*
X121323D01*
X122472D02*
X123348D01*
X120644Y295141D02*
X121323D01*
X122567D02*
X123444D01*
X120644Y295235D02*
X121323D01*
X122661D02*
X123541D01*
X120644Y295328D02*
X121323D01*
X122754D02*
X123638D01*
X120644Y295422D02*
X121323D01*
X122848D02*
X123735D01*
X120644Y295516D02*
X121323D01*
X122943D02*
X123832D01*
X120644Y295609D02*
X121323D01*
X123036D02*
X123929D01*
X120644Y295703D02*
X121323D01*
X123130D02*
X124026D01*
X120644Y295797D02*
X121323D01*
X123224D02*
X124123D01*
X120644Y295891D02*
X121323D01*
X123319D02*
X124220D01*
X120644Y295984D02*
X121323D01*
X123412D02*
X124317D01*
X120644Y296078D02*
X121323D01*
X123506D02*
X124413D01*
X120644Y296172D02*
X121323D01*
X123600D02*
X124510D01*
X120644Y296265D02*
X121323D01*
X123694D02*
X124607D01*
X120644Y296359D02*
X121323D01*
X123788D02*
X124704D01*
X120644Y301316D02*
Y306441D01*
X121323*
Y303902*
X123870Y306441*
X124788*
X122640Y304363*
X124882Y301316*
X123987*
X122163Y303906*
X121323Y303093*
Y301316*
X120644*
Y301393D02*
X121323D01*
X123933D02*
X124825D01*
X120644Y301487D02*
X121323D01*
X123867D02*
X124756D01*
X120644Y301580D02*
X121323D01*
X123801D02*
X124687D01*
X120644Y301674D02*
X121323D01*
X123735D02*
X124618D01*
X120644Y301768D02*
X121323D01*
X123669D02*
X124549D01*
X120644Y301861D02*
X121323D01*
X123603D02*
X124480D01*
X120644Y301955D02*
X121323D01*
X123537D02*
X124411D01*
X120644Y302049D02*
X121323D01*
X123471D02*
X124343D01*
X120644Y302143D02*
X121323D01*
X123405D02*
X124274D01*
X120644Y302236D02*
X121323D01*
X123339D02*
X124205D01*
X120644Y302330D02*
X121323D01*
X123273D02*
X124135D01*
X120644Y302424D02*
X121323D01*
X123207D02*
X124067D01*
X120644Y302517D02*
X121323D01*
X123141D02*
X123998D01*
X120644Y302611D02*
X121323D01*
X123075D02*
X123929D01*
X120644Y302705D02*
X121323D01*
X123009D02*
X123860D01*
X120644Y302798D02*
X121323D01*
X122943D02*
X123791D01*
X120644Y302892D02*
X121323D01*
X122877D02*
X123722D01*
X120644Y302986D02*
X121323D01*
X122811D02*
X123653D01*
X120644Y303080D02*
X121323D01*
X122745D02*
X123584D01*
X120644Y303173D02*
X121406D01*
X122679D02*
X123515D01*
X120644Y303267D02*
X121503D01*
X122613D02*
X123446D01*
X120644Y303361D02*
X121600D01*
X122547D02*
X123377D01*
X120644Y303454D02*
X121697D01*
X122481D02*
X123308D01*
X120644Y303548D02*
X121794D01*
X122415D02*
X123239D01*
X120644Y303642D02*
X121891D01*
X122349D02*
X123170D01*
X120644Y303735D02*
X121987D01*
X122283D02*
X123101D01*
X120644Y303829D02*
X122084D01*
X122217D02*
X123032D01*
X120644Y303923D02*
X121323D01*
X121344D02*
X122963D01*
X120644Y304017D02*
X121323D01*
X121439D02*
X122894D01*
X120644Y304110D02*
X121323D01*
X121533D02*
X122826D01*
X120644Y304204D02*
X121323D01*
X121626D02*
X122757D01*
X120644Y304298D02*
X121323D01*
X121720D02*
X122687D01*
X120644Y304391D02*
X121323D01*
X121815D02*
X122669D01*
X120644Y304485D02*
X121323D01*
X121909D02*
X122767D01*
X120644Y304579D02*
X121323D01*
X122002D02*
X122863D01*
X120644Y304672D02*
X121323D01*
X122096D02*
X122960D01*
X120644Y304766D02*
X121323D01*
X122191D02*
X123057D01*
X120644Y304860D02*
X121323D01*
X122285D02*
X123154D01*
X120644Y304954D02*
X121323D01*
X122378D02*
X123251D01*
X120644Y305047D02*
X121323D01*
X122472D02*
X123348D01*
X120644Y305141D02*
X121323D01*
X122567D02*
X123444D01*
X120644Y305235D02*
X121323D01*
X122661D02*
X123541D01*
X120644Y305328D02*
X121323D01*
X122754D02*
X123638D01*
X120644Y305422D02*
X121323D01*
X122848D02*
X123735D01*
X120644Y305516D02*
X121323D01*
X122943D02*
X123832D01*
X120644Y305609D02*
X121323D01*
X123036D02*
X123929D01*
X120644Y305703D02*
X121323D01*
X123130D02*
X124026D01*
X120644Y305797D02*
X121323D01*
X123224D02*
X124123D01*
X120644Y305891D02*
X121323D01*
X123319D02*
X124220D01*
X120644Y305984D02*
X121323D01*
X123412D02*
X124317D01*
X120644Y306078D02*
X121323D01*
X123506D02*
X124413D01*
X120644Y306172D02*
X121323D01*
X123600D02*
X124510D01*
X120644Y306265D02*
X121323D01*
X123694D02*
X124607D01*
X120644Y306359D02*
X121323D01*
X123788D02*
X124704D01*
X120644Y311316D02*
Y316441D01*
X121323*
Y313902*
X123870Y316441*
X124788*
X122640Y314363*
X124882Y311316*
X123987*
X122163Y313906*
X121323Y313093*
Y311316*
X120644*
Y311393D02*
X121323D01*
X123933D02*
X124825D01*
X120644Y311487D02*
X121323D01*
X123867D02*
X124756D01*
X120644Y311580D02*
X121323D01*
X123801D02*
X124687D01*
X120644Y311674D02*
X121323D01*
X123735D02*
X124618D01*
X120644Y311768D02*
X121323D01*
X123669D02*
X124549D01*
X120644Y311861D02*
X121323D01*
X123603D02*
X124480D01*
X120644Y311955D02*
X121323D01*
X123537D02*
X124411D01*
X120644Y312049D02*
X121323D01*
X123471D02*
X124343D01*
X120644Y312143D02*
X121323D01*
X123405D02*
X124274D01*
X120644Y312236D02*
X121323D01*
X123339D02*
X124205D01*
X120644Y312330D02*
X121323D01*
X123273D02*
X124135D01*
X120644Y312424D02*
X121323D01*
X123207D02*
X124067D01*
X120644Y312517D02*
X121323D01*
X123141D02*
X123998D01*
X120644Y312611D02*
X121323D01*
X123075D02*
X123929D01*
X120644Y312705D02*
X121323D01*
X123009D02*
X123860D01*
X120644Y312798D02*
X121323D01*
X122943D02*
X123791D01*
X120644Y312892D02*
X121323D01*
X122877D02*
X123722D01*
X120644Y312986D02*
X121323D01*
X122811D02*
X123653D01*
X120644Y313080D02*
X121323D01*
X122745D02*
X123584D01*
X120644Y313173D02*
X121406D01*
X122679D02*
X123515D01*
X120644Y313267D02*
X121503D01*
X122613D02*
X123446D01*
X120644Y313361D02*
X121600D01*
X122547D02*
X123377D01*
X120644Y313454D02*
X121697D01*
X122481D02*
X123308D01*
X120644Y313548D02*
X121794D01*
X122415D02*
X123239D01*
X120644Y313642D02*
X121891D01*
X122349D02*
X123170D01*
X120644Y313735D02*
X121987D01*
X122283D02*
X123101D01*
X120644Y313829D02*
X122084D01*
X122217D02*
X123032D01*
X120644Y313923D02*
X121323D01*
X121344D02*
X122963D01*
X120644Y314017D02*
X121323D01*
X121439D02*
X122894D01*
X120644Y314110D02*
X121323D01*
X121533D02*
X122826D01*
X120644Y314204D02*
X121323D01*
X121626D02*
X122757D01*
X120644Y314298D02*
X121323D01*
X121720D02*
X122687D01*
X120644Y314391D02*
X121323D01*
X121815D02*
X122669D01*
X120644Y314485D02*
X121323D01*
X121909D02*
X122767D01*
X120644Y314579D02*
X121323D01*
X122002D02*
X122863D01*
X120644Y314672D02*
X121323D01*
X122096D02*
X122960D01*
X120644Y314766D02*
X121323D01*
X122191D02*
X123057D01*
X120644Y314860D02*
X121323D01*
X122285D02*
X123154D01*
X120644Y314954D02*
X121323D01*
X122378D02*
X123251D01*
X120644Y315047D02*
X121323D01*
X122472D02*
X123348D01*
X120644Y315141D02*
X121323D01*
X122567D02*
X123444D01*
X120644Y315235D02*
X121323D01*
X122661D02*
X123541D01*
X120644Y315328D02*
X121323D01*
X122754D02*
X123638D01*
X120644Y315422D02*
X121323D01*
X122848D02*
X123735D01*
X120644Y315516D02*
X121323D01*
X122943D02*
X123832D01*
X120644Y315609D02*
X121323D01*
X123036D02*
X123929D01*
X120644Y315703D02*
X121323D01*
X123130D02*
X124026D01*
X120644Y315797D02*
X121323D01*
X123224D02*
X124123D01*
X120644Y315891D02*
X121323D01*
X123319D02*
X124220D01*
X120644Y315984D02*
X121323D01*
X123412D02*
X124317D01*
X120644Y316078D02*
X121323D01*
X123506D02*
X124413D01*
X120644Y316172D02*
X121323D01*
X123600D02*
X124510D01*
X120644Y316265D02*
X121323D01*
X123694D02*
X124607D01*
X120644Y316359D02*
X121323D01*
X123788D02*
X124704D01*
X150644Y251316D02*
Y256441D01*
X151323*
Y253902*
X153870Y256441*
X154788*
X152640Y254363*
X154882Y251316*
X153987*
X152163Y253906*
X151323Y253093*
Y251316*
X150644*
Y251393D02*
X151323D01*
X153933D02*
X154825D01*
X150644Y251487D02*
X151323D01*
X153867D02*
X154756D01*
X150644Y251580D02*
X151323D01*
X153801D02*
X154687D01*
X150644Y251674D02*
X151323D01*
X153735D02*
X154618D01*
X150644Y251768D02*
X151323D01*
X153669D02*
X154549D01*
X150644Y251861D02*
X151323D01*
X153603D02*
X154480D01*
X150644Y251955D02*
X151323D01*
X153537D02*
X154411D01*
X150644Y252049D02*
X151323D01*
X153471D02*
X154343D01*
X150644Y252143D02*
X151323D01*
X153405D02*
X154274D01*
X150644Y252236D02*
X151323D01*
X153339D02*
X154205D01*
X150644Y252330D02*
X151323D01*
X153273D02*
X154135D01*
X150644Y252424D02*
X151323D01*
X153207D02*
X154067D01*
X150644Y252517D02*
X151323D01*
X153141D02*
X153998D01*
X150644Y252611D02*
X151323D01*
X153075D02*
X153929D01*
X150644Y252705D02*
X151323D01*
X153009D02*
X153860D01*
X150644Y252798D02*
X151323D01*
X152943D02*
X153791D01*
X150644Y252892D02*
X151323D01*
X152877D02*
X153722D01*
X150644Y252986D02*
X151323D01*
X152811D02*
X153653D01*
X150644Y253080D02*
X151323D01*
X152745D02*
X153584D01*
X150644Y253173D02*
X151406D01*
X152679D02*
X153515D01*
X150644Y253267D02*
X151503D01*
X152613D02*
X153446D01*
X150644Y253361D02*
X151600D01*
X152547D02*
X153377D01*
X150644Y253454D02*
X151697D01*
X152481D02*
X153308D01*
X150644Y253548D02*
X151794D01*
X152415D02*
X153239D01*
X150644Y253642D02*
X151891D01*
X152349D02*
X153170D01*
X150644Y253735D02*
X151987D01*
X152283D02*
X153101D01*
X150644Y253829D02*
X152084D01*
X152217D02*
X153032D01*
X150644Y253923D02*
X151323D01*
X151344D02*
X152963D01*
X150644Y254017D02*
X151323D01*
X151439D02*
X152894D01*
X150644Y254110D02*
X151323D01*
X151533D02*
X152826D01*
X150644Y254204D02*
X151323D01*
X151626D02*
X152757D01*
X150644Y254298D02*
X151323D01*
X151720D02*
X152687D01*
X150644Y254391D02*
X151323D01*
X151815D02*
X152669D01*
X150644Y254485D02*
X151323D01*
X151909D02*
X152767D01*
X150644Y254579D02*
X151323D01*
X152002D02*
X152863D01*
X150644Y254672D02*
X151323D01*
X152096D02*
X152960D01*
X150644Y254766D02*
X151323D01*
X152191D02*
X153057D01*
X150644Y254860D02*
X151323D01*
X152285D02*
X153154D01*
X150644Y254954D02*
X151323D01*
X152378D02*
X153251D01*
X150644Y255047D02*
X151323D01*
X152472D02*
X153348D01*
X150644Y255141D02*
X151323D01*
X152567D02*
X153444D01*
X150644Y255235D02*
X151323D01*
X152661D02*
X153541D01*
X150644Y255328D02*
X151323D01*
X152754D02*
X153638D01*
X150644Y255422D02*
X151323D01*
X152848D02*
X153735D01*
X150644Y255516D02*
X151323D01*
X152943D02*
X153832D01*
X150644Y255609D02*
X151323D01*
X153036D02*
X153929D01*
X150644Y255703D02*
X151323D01*
X153130D02*
X154026D01*
X150644Y255797D02*
X151323D01*
X153224D02*
X154123D01*
X150644Y255891D02*
X151323D01*
X153319D02*
X154220D01*
X150644Y255984D02*
X151323D01*
X153412D02*
X154317D01*
X150644Y256078D02*
X151323D01*
X153506D02*
X154413D01*
X150644Y256172D02*
X151323D01*
X153600D02*
X154510D01*
X150644Y256265D02*
X151323D01*
X153694D02*
X154607D01*
X150644Y256359D02*
X151323D01*
X153788D02*
X154704D01*
X150644Y261316D02*
Y266441D01*
X151323*
Y263902*
X153870Y266441*
X154788*
X152640Y264363*
X154882Y261316*
X153987*
X152163Y263906*
X151323Y263093*
Y261316*
X150644*
Y261393D02*
X151323D01*
X153933D02*
X154825D01*
X150644Y261487D02*
X151323D01*
X153867D02*
X154756D01*
X150644Y261580D02*
X151323D01*
X153801D02*
X154687D01*
X150644Y261674D02*
X151323D01*
X153735D02*
X154618D01*
X150644Y261768D02*
X151323D01*
X153669D02*
X154549D01*
X150644Y261861D02*
X151323D01*
X153603D02*
X154480D01*
X150644Y261955D02*
X151323D01*
X153537D02*
X154411D01*
X150644Y262049D02*
X151323D01*
X153471D02*
X154343D01*
X150644Y262143D02*
X151323D01*
X153405D02*
X154274D01*
X150644Y262236D02*
X151323D01*
X153339D02*
X154205D01*
X150644Y262330D02*
X151323D01*
X153273D02*
X154135D01*
X150644Y262424D02*
X151323D01*
X153207D02*
X154067D01*
X150644Y262517D02*
X151323D01*
X153141D02*
X153998D01*
X150644Y262611D02*
X151323D01*
X153075D02*
X153929D01*
X150644Y262705D02*
X151323D01*
X153009D02*
X153860D01*
X150644Y262798D02*
X151323D01*
X152943D02*
X153791D01*
X150644Y262892D02*
X151323D01*
X152877D02*
X153722D01*
X150644Y262986D02*
X151323D01*
X152811D02*
X153653D01*
X150644Y263080D02*
X151323D01*
X152745D02*
X153584D01*
X150644Y263173D02*
X151406D01*
X152679D02*
X153515D01*
X150644Y263267D02*
X151503D01*
X152613D02*
X153446D01*
X150644Y263361D02*
X151600D01*
X152547D02*
X153377D01*
X150644Y263454D02*
X151697D01*
X152481D02*
X153308D01*
X150644Y263548D02*
X151794D01*
X152415D02*
X153239D01*
X150644Y263642D02*
X151891D01*
X152349D02*
X153170D01*
X150644Y263735D02*
X151987D01*
X152283D02*
X153101D01*
X150644Y263829D02*
X152084D01*
X152217D02*
X153032D01*
X150644Y263923D02*
X151323D01*
X151344D02*
X152963D01*
X150644Y264017D02*
X151323D01*
X151439D02*
X152894D01*
X150644Y264110D02*
X151323D01*
X151533D02*
X152826D01*
X150644Y264204D02*
X151323D01*
X151626D02*
X152757D01*
X150644Y264298D02*
X151323D01*
X151720D02*
X152687D01*
X150644Y264391D02*
X151323D01*
X151815D02*
X152669D01*
X150644Y264485D02*
X151323D01*
X151909D02*
X152767D01*
X150644Y264579D02*
X151323D01*
X152002D02*
X152863D01*
X150644Y264672D02*
X151323D01*
X152096D02*
X152960D01*
X150644Y264766D02*
X151323D01*
X152191D02*
X153057D01*
X150644Y264860D02*
X151323D01*
X152285D02*
X153154D01*
X150644Y264954D02*
X151323D01*
X152378D02*
X153251D01*
X150644Y265047D02*
X151323D01*
X152472D02*
X153348D01*
X150644Y265141D02*
X151323D01*
X152567D02*
X153444D01*
X150644Y265235D02*
X151323D01*
X152661D02*
X153541D01*
X150644Y265328D02*
X151323D01*
X152754D02*
X153638D01*
X150644Y265422D02*
X151323D01*
X152848D02*
X153735D01*
X150644Y265516D02*
X151323D01*
X152943D02*
X153832D01*
X150644Y265609D02*
X151323D01*
X153036D02*
X153929D01*
X150644Y265703D02*
X151323D01*
X153130D02*
X154026D01*
X150644Y265797D02*
X151323D01*
X153224D02*
X154123D01*
X150644Y265891D02*
X151323D01*
X153319D02*
X154220D01*
X150644Y265984D02*
X151323D01*
X153412D02*
X154317D01*
X150644Y266078D02*
X151323D01*
X153506D02*
X154413D01*
X150644Y266172D02*
X151323D01*
X153600D02*
X154510D01*
X150644Y266265D02*
X151323D01*
X153694D02*
X154607D01*
X150644Y266359D02*
X151323D01*
X153788D02*
X154704D01*
X150644Y271316D02*
Y276441D01*
X151323*
Y273902*
X153870Y276441*
X154788*
X152640Y274363*
X154882Y271316*
X153987*
X152163Y273906*
X151323Y273093*
Y271316*
X150644*
Y271393D02*
X151323D01*
X153933D02*
X154825D01*
X150644Y271487D02*
X151323D01*
X153867D02*
X154756D01*
X150644Y271580D02*
X151323D01*
X153801D02*
X154687D01*
X150644Y271674D02*
X151323D01*
X153735D02*
X154618D01*
X150644Y271768D02*
X151323D01*
X153669D02*
X154549D01*
X150644Y271861D02*
X151323D01*
X153603D02*
X154480D01*
X150644Y271955D02*
X151323D01*
X153537D02*
X154411D01*
X150644Y272049D02*
X151323D01*
X153471D02*
X154343D01*
X150644Y272143D02*
X151323D01*
X153405D02*
X154274D01*
X150644Y272236D02*
X151323D01*
X153339D02*
X154205D01*
X150644Y272330D02*
X151323D01*
X153273D02*
X154135D01*
X150644Y272424D02*
X151323D01*
X153207D02*
X154067D01*
X150644Y272517D02*
X151323D01*
X153141D02*
X153998D01*
X150644Y272611D02*
X151323D01*
X153075D02*
X153929D01*
X150644Y272705D02*
X151323D01*
X153009D02*
X153860D01*
X150644Y272798D02*
X151323D01*
X152943D02*
X153791D01*
X150644Y272892D02*
X151323D01*
X152877D02*
X153722D01*
X150644Y272986D02*
X151323D01*
X152811D02*
X153653D01*
X150644Y273080D02*
X151323D01*
X152745D02*
X153584D01*
X150644Y273173D02*
X151406D01*
X152679D02*
X153515D01*
X150644Y273267D02*
X151503D01*
X152613D02*
X153446D01*
X150644Y273361D02*
X151600D01*
X152547D02*
X153377D01*
X150644Y273454D02*
X151697D01*
X152481D02*
X153308D01*
X150644Y273548D02*
X151794D01*
X152415D02*
X153239D01*
X150644Y273642D02*
X151891D01*
X152349D02*
X153170D01*
X150644Y273735D02*
X151987D01*
X152283D02*
X153101D01*
X150644Y273829D02*
X152084D01*
X152217D02*
X153032D01*
X150644Y273923D02*
X151323D01*
X151344D02*
X152963D01*
X150644Y274017D02*
X151323D01*
X151439D02*
X152894D01*
X150644Y274110D02*
X151323D01*
X151533D02*
X152826D01*
X150644Y274204D02*
X151323D01*
X151626D02*
X152757D01*
X150644Y274298D02*
X151323D01*
X151720D02*
X152687D01*
X150644Y274391D02*
X151323D01*
X151815D02*
X152669D01*
X150644Y274485D02*
X151323D01*
X151909D02*
X152767D01*
X150644Y274579D02*
X151323D01*
X152002D02*
X152863D01*
X150644Y274672D02*
X151323D01*
X152096D02*
X152960D01*
X150644Y274766D02*
X151323D01*
X152191D02*
X153057D01*
X150644Y274860D02*
X151323D01*
X152285D02*
X153154D01*
X150644Y274954D02*
X151323D01*
X152378D02*
X153251D01*
X150644Y275047D02*
X151323D01*
X152472D02*
X153348D01*
X150644Y275141D02*
X151323D01*
X152567D02*
X153444D01*
X150644Y275235D02*
X151323D01*
X152661D02*
X153541D01*
X150644Y275328D02*
X151323D01*
X152754D02*
X153638D01*
X150644Y275422D02*
X151323D01*
X152848D02*
X153735D01*
X150644Y275516D02*
X151323D01*
X152943D02*
X153832D01*
X150644Y275609D02*
X151323D01*
X153036D02*
X153929D01*
X150644Y275703D02*
X151323D01*
X153130D02*
X154026D01*
X150644Y275797D02*
X151323D01*
X153224D02*
X154123D01*
X150644Y275891D02*
X151323D01*
X153319D02*
X154220D01*
X150644Y275984D02*
X151323D01*
X153412D02*
X154317D01*
X150644Y276078D02*
X151323D01*
X153506D02*
X154413D01*
X150644Y276172D02*
X151323D01*
X153600D02*
X154510D01*
X150644Y276265D02*
X151323D01*
X153694D02*
X154607D01*
X150644Y276359D02*
X151323D01*
X153788D02*
X154704D01*
X150644Y281316D02*
Y286441D01*
X151323*
Y283902*
X153870Y286441*
X154788*
X152640Y284363*
X154882Y281316*
X153987*
X152163Y283906*
X151323Y283093*
Y281316*
X150644*
Y281393D02*
X151323D01*
X153933D02*
X154825D01*
X150644Y281487D02*
X151323D01*
X153867D02*
X154756D01*
X150644Y281580D02*
X151323D01*
X153801D02*
X154687D01*
X150644Y281674D02*
X151323D01*
X153735D02*
X154618D01*
X150644Y281768D02*
X151323D01*
X153669D02*
X154549D01*
X150644Y281861D02*
X151323D01*
X153603D02*
X154480D01*
X150644Y281955D02*
X151323D01*
X153537D02*
X154411D01*
X150644Y282049D02*
X151323D01*
X153471D02*
X154343D01*
X150644Y282143D02*
X151323D01*
X153405D02*
X154274D01*
X150644Y282236D02*
X151323D01*
X153339D02*
X154205D01*
X150644Y282330D02*
X151323D01*
X153273D02*
X154135D01*
X150644Y282424D02*
X151323D01*
X153207D02*
X154067D01*
X150644Y282517D02*
X151323D01*
X153141D02*
X153998D01*
X150644Y282611D02*
X151323D01*
X153075D02*
X153929D01*
X150644Y282705D02*
X151323D01*
X153009D02*
X153860D01*
X150644Y282798D02*
X151323D01*
X152943D02*
X153791D01*
X150644Y282892D02*
X151323D01*
X152877D02*
X153722D01*
X150644Y282986D02*
X151323D01*
X152811D02*
X153653D01*
X150644Y283080D02*
X151323D01*
X152745D02*
X153584D01*
X150644Y283173D02*
X151406D01*
X152679D02*
X153515D01*
X150644Y283267D02*
X151503D01*
X152613D02*
X153446D01*
X150644Y283361D02*
X151600D01*
X152547D02*
X153377D01*
X150644Y283454D02*
X151697D01*
X152481D02*
X153308D01*
X150644Y283548D02*
X151794D01*
X152415D02*
X153239D01*
X150644Y283642D02*
X151891D01*
X152349D02*
X153170D01*
X150644Y283735D02*
X151987D01*
X152283D02*
X153101D01*
X150644Y283829D02*
X152084D01*
X152217D02*
X153032D01*
X150644Y283923D02*
X151323D01*
X151344D02*
X152963D01*
X150644Y284017D02*
X151323D01*
X151439D02*
X152894D01*
X150644Y284110D02*
X151323D01*
X151533D02*
X152826D01*
X150644Y284204D02*
X151323D01*
X151626D02*
X152757D01*
X150644Y284298D02*
X151323D01*
X151720D02*
X152687D01*
X150644Y284391D02*
X151323D01*
X151815D02*
X152669D01*
X150644Y284485D02*
X151323D01*
X151909D02*
X152767D01*
X150644Y284579D02*
X151323D01*
X152002D02*
X152863D01*
X150644Y284672D02*
X151323D01*
X152096D02*
X152960D01*
X150644Y284766D02*
X151323D01*
X152191D02*
X153057D01*
X150644Y284860D02*
X151323D01*
X152285D02*
X153154D01*
X150644Y284954D02*
X151323D01*
X152378D02*
X153251D01*
X150644Y285047D02*
X151323D01*
X152472D02*
X153348D01*
X150644Y285141D02*
X151323D01*
X152567D02*
X153444D01*
X150644Y285235D02*
X151323D01*
X152661D02*
X153541D01*
X150644Y285328D02*
X151323D01*
X152754D02*
X153638D01*
X150644Y285422D02*
X151323D01*
X152848D02*
X153735D01*
X150644Y285516D02*
X151323D01*
X152943D02*
X153832D01*
X150644Y285609D02*
X151323D01*
X153036D02*
X153929D01*
X150644Y285703D02*
X151323D01*
X153130D02*
X154026D01*
X150644Y285797D02*
X151323D01*
X153224D02*
X154123D01*
X150644Y285891D02*
X151323D01*
X153319D02*
X154220D01*
X150644Y285984D02*
X151323D01*
X153412D02*
X154317D01*
X150644Y286078D02*
X151323D01*
X153506D02*
X154413D01*
X150644Y286172D02*
X151323D01*
X153600D02*
X154510D01*
X150644Y286265D02*
X151323D01*
X153694D02*
X154607D01*
X150644Y286359D02*
X151323D01*
X153788D02*
X154704D01*
X150644Y291316D02*
Y296441D01*
X151323*
Y293902*
X153870Y296441*
X154788*
X152640Y294363*
X154882Y291316*
X153987*
X152163Y293906*
X151323Y293093*
Y291316*
X150644*
Y291393D02*
X151323D01*
X153933D02*
X154825D01*
X150644Y291487D02*
X151323D01*
X153867D02*
X154756D01*
X150644Y291580D02*
X151323D01*
X153801D02*
X154687D01*
X150644Y291674D02*
X151323D01*
X153735D02*
X154618D01*
X150644Y291768D02*
X151323D01*
X153669D02*
X154549D01*
X150644Y291861D02*
X151323D01*
X153603D02*
X154480D01*
X150644Y291955D02*
X151323D01*
X153537D02*
X154411D01*
X150644Y292049D02*
X151323D01*
X153471D02*
X154343D01*
X150644Y292143D02*
X151323D01*
X153405D02*
X154274D01*
X150644Y292236D02*
X151323D01*
X153339D02*
X154205D01*
X150644Y292330D02*
X151323D01*
X153273D02*
X154135D01*
X150644Y292424D02*
X151323D01*
X153207D02*
X154067D01*
X150644Y292517D02*
X151323D01*
X153141D02*
X153998D01*
X150644Y292611D02*
X151323D01*
X153075D02*
X153929D01*
X150644Y292705D02*
X151323D01*
X153009D02*
X153860D01*
X150644Y292798D02*
X151323D01*
X152943D02*
X153791D01*
X150644Y292892D02*
X151323D01*
X152877D02*
X153722D01*
X150644Y292986D02*
X151323D01*
X152811D02*
X153653D01*
X150644Y293080D02*
X151323D01*
X152745D02*
X153584D01*
X150644Y293173D02*
X151406D01*
X152679D02*
X153515D01*
X150644Y293267D02*
X151503D01*
X152613D02*
X153446D01*
X150644Y293361D02*
X151600D01*
X152547D02*
X153377D01*
X150644Y293454D02*
X151697D01*
X152481D02*
X153308D01*
X150644Y293548D02*
X151794D01*
X152415D02*
X153239D01*
X150644Y293642D02*
X151891D01*
X152349D02*
X153170D01*
X150644Y293735D02*
X151987D01*
X152283D02*
X153101D01*
X150644Y293829D02*
X152084D01*
X152217D02*
X153032D01*
X150644Y293923D02*
X151323D01*
X151344D02*
X152963D01*
X150644Y294017D02*
X151323D01*
X151439D02*
X152894D01*
X150644Y294110D02*
X151323D01*
X151533D02*
X152826D01*
X150644Y294204D02*
X151323D01*
X151626D02*
X152757D01*
X150644Y294298D02*
X151323D01*
X151720D02*
X152687D01*
X150644Y294391D02*
X151323D01*
X151815D02*
X152669D01*
X150644Y294485D02*
X151323D01*
X151909D02*
X152767D01*
X150644Y294579D02*
X151323D01*
X152002D02*
X152863D01*
X150644Y294672D02*
X151323D01*
X152096D02*
X152960D01*
X150644Y294766D02*
X151323D01*
X152191D02*
X153057D01*
X150644Y294860D02*
X151323D01*
X152285D02*
X153154D01*
X150644Y294954D02*
X151323D01*
X152378D02*
X153251D01*
X150644Y295047D02*
X151323D01*
X152472D02*
X153348D01*
X150644Y295141D02*
X151323D01*
X152567D02*
X153444D01*
X150644Y295235D02*
X151323D01*
X152661D02*
X153541D01*
X150644Y295328D02*
X151323D01*
X152754D02*
X153638D01*
X150644Y295422D02*
X151323D01*
X152848D02*
X153735D01*
X150644Y295516D02*
X151323D01*
X152943D02*
X153832D01*
X150644Y295609D02*
X151323D01*
X153036D02*
X153929D01*
X150644Y295703D02*
X151323D01*
X153130D02*
X154026D01*
X150644Y295797D02*
X151323D01*
X153224D02*
X154123D01*
X150644Y295891D02*
X151323D01*
X153319D02*
X154220D01*
X150644Y295984D02*
X151323D01*
X153412D02*
X154317D01*
X150644Y296078D02*
X151323D01*
X153506D02*
X154413D01*
X150644Y296172D02*
X151323D01*
X153600D02*
X154510D01*
X150644Y296265D02*
X151323D01*
X153694D02*
X154607D01*
X150644Y296359D02*
X151323D01*
X153788D02*
X154704D01*
X150644Y301316D02*
Y306441D01*
X151323*
Y303902*
X153870Y306441*
X154788*
X152640Y304363*
X154882Y301316*
X153987*
X152163Y303906*
X151323Y303093*
Y301316*
X150644*
Y301393D02*
X151323D01*
X153933D02*
X154825D01*
X150644Y301487D02*
X151323D01*
X153867D02*
X154756D01*
X150644Y301580D02*
X151323D01*
X153801D02*
X154687D01*
X150644Y301674D02*
X151323D01*
X153735D02*
X154618D01*
X150644Y301768D02*
X151323D01*
X153669D02*
X154549D01*
X150644Y301861D02*
X151323D01*
X153603D02*
X154480D01*
X150644Y301955D02*
X151323D01*
X153537D02*
X154411D01*
X150644Y302049D02*
X151323D01*
X153471D02*
X154343D01*
X150644Y302143D02*
X151323D01*
X153405D02*
X154274D01*
X150644Y302236D02*
X151323D01*
X153339D02*
X154205D01*
X150644Y302330D02*
X151323D01*
X153273D02*
X154135D01*
X150644Y302424D02*
X151323D01*
X153207D02*
X154067D01*
X150644Y302517D02*
X151323D01*
X153141D02*
X153998D01*
X150644Y302611D02*
X151323D01*
X153075D02*
X153929D01*
X150644Y302705D02*
X151323D01*
X153009D02*
X153860D01*
X150644Y302798D02*
X151323D01*
X152943D02*
X153791D01*
X150644Y302892D02*
X151323D01*
X152877D02*
X153722D01*
X150644Y302986D02*
X151323D01*
X152811D02*
X153653D01*
X150644Y303080D02*
X151323D01*
X152745D02*
X153584D01*
X150644Y303173D02*
X151406D01*
X152679D02*
X153515D01*
X150644Y303267D02*
X151503D01*
X152613D02*
X153446D01*
X150644Y303361D02*
X151600D01*
X152547D02*
X153377D01*
X150644Y303454D02*
X151697D01*
X152481D02*
X153308D01*
X150644Y303548D02*
X151794D01*
X152415D02*
X153239D01*
X150644Y303642D02*
X151891D01*
X152349D02*
X153170D01*
X150644Y303735D02*
X151987D01*
X152283D02*
X153101D01*
X150644Y303829D02*
X152084D01*
X152217D02*
X153032D01*
X150644Y303923D02*
X151323D01*
X151344D02*
X152963D01*
X150644Y304017D02*
X151323D01*
X151439D02*
X152894D01*
X150644Y304110D02*
X151323D01*
X151533D02*
X152826D01*
X150644Y304204D02*
X151323D01*
X151626D02*
X152757D01*
X150644Y304298D02*
X151323D01*
X151720D02*
X152687D01*
X150644Y304391D02*
X151323D01*
X151815D02*
X152669D01*
X150644Y304485D02*
X151323D01*
X151909D02*
X152767D01*
X150644Y304579D02*
X151323D01*
X152002D02*
X152863D01*
X150644Y304672D02*
X151323D01*
X152096D02*
X152960D01*
X150644Y304766D02*
X151323D01*
X152191D02*
X153057D01*
X150644Y304860D02*
X151323D01*
X152285D02*
X153154D01*
X150644Y304954D02*
X151323D01*
X152378D02*
X153251D01*
X150644Y305047D02*
X151323D01*
X152472D02*
X153348D01*
X150644Y305141D02*
X151323D01*
X152567D02*
X153444D01*
X150644Y305235D02*
X151323D01*
X152661D02*
X153541D01*
X150644Y305328D02*
X151323D01*
X152754D02*
X153638D01*
X150644Y305422D02*
X151323D01*
X152848D02*
X153735D01*
X150644Y305516D02*
X151323D01*
X152943D02*
X153832D01*
X150644Y305609D02*
X151323D01*
X153036D02*
X153929D01*
X150644Y305703D02*
X151323D01*
X153130D02*
X154026D01*
X150644Y305797D02*
X151323D01*
X153224D02*
X154123D01*
X150644Y305891D02*
X151323D01*
X153319D02*
X154220D01*
X150644Y305984D02*
X151323D01*
X153412D02*
X154317D01*
X150644Y306078D02*
X151323D01*
X153506D02*
X154413D01*
X150644Y306172D02*
X151323D01*
X153600D02*
X154510D01*
X150644Y306265D02*
X151323D01*
X153694D02*
X154607D01*
X150644Y306359D02*
X151323D01*
X153788D02*
X154704D01*
X150644Y311316D02*
Y316441D01*
X151323*
Y313902*
X153870Y316441*
X154788*
X152640Y314363*
X154882Y311316*
X153987*
X152163Y313906*
X151323Y313093*
Y311316*
X150644*
Y311393D02*
X151323D01*
X153933D02*
X154825D01*
X150644Y311487D02*
X151323D01*
X153867D02*
X154756D01*
X150644Y311580D02*
X151323D01*
X153801D02*
X154687D01*
X150644Y311674D02*
X151323D01*
X153735D02*
X154618D01*
X150644Y311768D02*
X151323D01*
X153669D02*
X154549D01*
X150644Y311861D02*
X151323D01*
X153603D02*
X154480D01*
X150644Y311955D02*
X151323D01*
X153537D02*
X154411D01*
X150644Y312049D02*
X151323D01*
X153471D02*
X154343D01*
X150644Y312143D02*
X151323D01*
X153405D02*
X154274D01*
X150644Y312236D02*
X151323D01*
X153339D02*
X154205D01*
X150644Y312330D02*
X151323D01*
X153273D02*
X154135D01*
X150644Y312424D02*
X151323D01*
X153207D02*
X154067D01*
X150644Y312517D02*
X151323D01*
X153141D02*
X153998D01*
X150644Y312611D02*
X151323D01*
X153075D02*
X153929D01*
X150644Y312705D02*
X151323D01*
X153009D02*
X153860D01*
X150644Y312798D02*
X151323D01*
X152943D02*
X153791D01*
X150644Y312892D02*
X151323D01*
X152877D02*
X153722D01*
X150644Y312986D02*
X151323D01*
X152811D02*
X153653D01*
X150644Y313080D02*
X151323D01*
X152745D02*
X153584D01*
X150644Y313173D02*
X151406D01*
X152679D02*
X153515D01*
X150644Y313267D02*
X151503D01*
X152613D02*
X153446D01*
X150644Y313361D02*
X151600D01*
X152547D02*
X153377D01*
X150644Y313454D02*
X151697D01*
X152481D02*
X153308D01*
X150644Y313548D02*
X151794D01*
X152415D02*
X153239D01*
X150644Y313642D02*
X151891D01*
X152349D02*
X153170D01*
X150644Y313735D02*
X151987D01*
X152283D02*
X153101D01*
X150644Y313829D02*
X152084D01*
X152217D02*
X153032D01*
X150644Y313923D02*
X151323D01*
X151344D02*
X152963D01*
X150644Y314017D02*
X151323D01*
X151439D02*
X152894D01*
X150644Y314110D02*
X151323D01*
X151533D02*
X152826D01*
X150644Y314204D02*
X151323D01*
X151626D02*
X152757D01*
X150644Y314298D02*
X151323D01*
X151720D02*
X152687D01*
X150644Y314391D02*
X151323D01*
X151815D02*
X152669D01*
X150644Y314485D02*
X151323D01*
X151909D02*
X152767D01*
X150644Y314579D02*
X151323D01*
X152002D02*
X152863D01*
X150644Y314672D02*
X151323D01*
X152096D02*
X152960D01*
X150644Y314766D02*
X151323D01*
X152191D02*
X153057D01*
X150644Y314860D02*
X151323D01*
X152285D02*
X153154D01*
X150644Y314954D02*
X151323D01*
X152378D02*
X153251D01*
X150644Y315047D02*
X151323D01*
X152472D02*
X153348D01*
X150644Y315141D02*
X151323D01*
X152567D02*
X153444D01*
X150644Y315235D02*
X151323D01*
X152661D02*
X153541D01*
X150644Y315328D02*
X151323D01*
X152754D02*
X153638D01*
X150644Y315422D02*
X151323D01*
X152848D02*
X153735D01*
X150644Y315516D02*
X151323D01*
X152943D02*
X153832D01*
X150644Y315609D02*
X151323D01*
X153036D02*
X153929D01*
X150644Y315703D02*
X151323D01*
X153130D02*
X154026D01*
X150644Y315797D02*
X151323D01*
X153224D02*
X154123D01*
X150644Y315891D02*
X151323D01*
X153319D02*
X154220D01*
X150644Y315984D02*
X151323D01*
X153412D02*
X154317D01*
X150644Y316078D02*
X151323D01*
X153506D02*
X154413D01*
X150644Y316172D02*
X151323D01*
X153600D02*
X154510D01*
X150644Y316265D02*
X151323D01*
X153694D02*
X154607D01*
X150644Y316359D02*
X151323D01*
X153788D02*
X154704D01*
X170644Y281316D02*
Y286441D01*
X171323*
Y281921*
X173846*
Y281316*
X170644*
Y281393D02*
X173846D01*
X170644Y281487D02*
X173846D01*
X170644Y281580D02*
X173846D01*
X170644Y281674D02*
X173846D01*
X170644Y281768D02*
X173846D01*
X170644Y281861D02*
X173846D01*
X170644Y281955D02*
X171323D01*
X170644Y282049D02*
X171323D01*
X170644Y282143D02*
X171323D01*
X170644Y282236D02*
X171323D01*
X170644Y282330D02*
X171323D01*
X170644Y282424D02*
X171323D01*
X170644Y282517D02*
X171323D01*
X170644Y282611D02*
X171323D01*
X170644Y282705D02*
X171323D01*
X170644Y282798D02*
X171323D01*
X170644Y282892D02*
X171323D01*
X170644Y282986D02*
X171323D01*
X170644Y283080D02*
X171323D01*
X170644Y283173D02*
X171323D01*
X170644Y283267D02*
X171323D01*
X170644Y283361D02*
X171323D01*
X170644Y283454D02*
X171323D01*
X170644Y283548D02*
X171323D01*
X170644Y283642D02*
X171323D01*
X170644Y283735D02*
X171323D01*
X170644Y283829D02*
X171323D01*
X170644Y283923D02*
X171323D01*
X170644Y284017D02*
X171323D01*
X170644Y284110D02*
X171323D01*
X170644Y284204D02*
X171323D01*
X170644Y284298D02*
X171323D01*
X170644Y284391D02*
X171323D01*
X170644Y284485D02*
X171323D01*
X170644Y284579D02*
X171323D01*
X170644Y284672D02*
X171323D01*
X170644Y284766D02*
X171323D01*
X170644Y284860D02*
X171323D01*
X170644Y284954D02*
X171323D01*
X170644Y285047D02*
X171323D01*
X170644Y285141D02*
X171323D01*
X170644Y285235D02*
X171323D01*
X170644Y285328D02*
X171323D01*
X170644Y285422D02*
X171323D01*
X170644Y285516D02*
X171323D01*
X170644Y285609D02*
X171323D01*
X170644Y285703D02*
X171323D01*
X170644Y285797D02*
X171323D01*
X170644Y285891D02*
X171323D01*
X170644Y285984D02*
X171323D01*
X170644Y286078D02*
X171323D01*
X170644Y286172D02*
X171323D01*
X170644Y286265D02*
X171323D01*
X170644Y286359D02*
X171323D01*
X180644Y271316D02*
Y276441D01*
X181323*
Y271921*
X183846*
Y271316*
X180644*
Y271393D02*
X183846D01*
X180644Y271487D02*
X183846D01*
X180644Y271580D02*
X183846D01*
X180644Y271674D02*
X183846D01*
X180644Y271768D02*
X183846D01*
X180644Y271861D02*
X183846D01*
X180644Y271955D02*
X181323D01*
X180644Y272049D02*
X181323D01*
X180644Y272143D02*
X181323D01*
X180644Y272236D02*
X181323D01*
X180644Y272330D02*
X181323D01*
X180644Y272424D02*
X181323D01*
X180644Y272517D02*
X181323D01*
X180644Y272611D02*
X181323D01*
X180644Y272705D02*
X181323D01*
X180644Y272798D02*
X181323D01*
X180644Y272892D02*
X181323D01*
X180644Y272986D02*
X181323D01*
X180644Y273080D02*
X181323D01*
X180644Y273173D02*
X181323D01*
X180644Y273267D02*
X181323D01*
X180644Y273361D02*
X181323D01*
X180644Y273454D02*
X181323D01*
X180644Y273548D02*
X181323D01*
X180644Y273642D02*
X181323D01*
X180644Y273735D02*
X181323D01*
X180644Y273829D02*
X181323D01*
X180644Y273923D02*
X181323D01*
X180644Y274017D02*
X181323D01*
X180644Y274110D02*
X181323D01*
X180644Y274204D02*
X181323D01*
X180644Y274298D02*
X181323D01*
X180644Y274391D02*
X181323D01*
X180644Y274485D02*
X181323D01*
X180644Y274579D02*
X181323D01*
X180644Y274672D02*
X181323D01*
X180644Y274766D02*
X181323D01*
X180644Y274860D02*
X181323D01*
X180644Y274954D02*
X181323D01*
X180644Y275047D02*
X181323D01*
X180644Y275141D02*
X181323D01*
X180644Y275235D02*
X181323D01*
X180644Y275328D02*
X181323D01*
X180644Y275422D02*
X181323D01*
X180644Y275516D02*
X181323D01*
X180644Y275609D02*
X181323D01*
X180644Y275703D02*
X181323D01*
X180644Y275797D02*
X181323D01*
X180644Y275891D02*
X181323D01*
X180644Y275984D02*
X181323D01*
X180644Y276078D02*
X181323D01*
X180644Y276172D02*
X181323D01*
X180644Y276265D02*
X181323D01*
X180644Y276359D02*
X181323D01*
X180644Y311316D02*
Y316441D01*
X181323*
Y311921*
X183846*
Y311316*
X180644*
Y311393D02*
X183846D01*
X180644Y311487D02*
X183846D01*
X180644Y311580D02*
X183846D01*
X180644Y311674D02*
X183846D01*
X180644Y311768D02*
X183846D01*
X180644Y311861D02*
X183846D01*
X180644Y311955D02*
X181323D01*
X180644Y312049D02*
X181323D01*
X180644Y312143D02*
X181323D01*
X180644Y312236D02*
X181323D01*
X180644Y312330D02*
X181323D01*
X180644Y312424D02*
X181323D01*
X180644Y312517D02*
X181323D01*
X180644Y312611D02*
X181323D01*
X180644Y312705D02*
X181323D01*
X180644Y312798D02*
X181323D01*
X180644Y312892D02*
X181323D01*
X180644Y312986D02*
X181323D01*
X180644Y313080D02*
X181323D01*
X180644Y313173D02*
X181323D01*
X180644Y313267D02*
X181323D01*
X180644Y313361D02*
X181323D01*
X180644Y313454D02*
X181323D01*
X180644Y313548D02*
X181323D01*
X180644Y313642D02*
X181323D01*
X180644Y313735D02*
X181323D01*
X180644Y313829D02*
X181323D01*
X180644Y313923D02*
X181323D01*
X180644Y314017D02*
X181323D01*
X180644Y314110D02*
X181323D01*
X180644Y314204D02*
X181323D01*
X180644Y314298D02*
X181323D01*
X180644Y314391D02*
X181323D01*
X180644Y314485D02*
X181323D01*
X180644Y314579D02*
X181323D01*
X180644Y314672D02*
X181323D01*
X180644Y314766D02*
X181323D01*
X180644Y314860D02*
X181323D01*
X180644Y314954D02*
X181323D01*
X180644Y315047D02*
X181323D01*
X180644Y315141D02*
X181323D01*
X180644Y315235D02*
X181323D01*
X180644Y315328D02*
X181323D01*
X180644Y315422D02*
X181323D01*
X180644Y315516D02*
X181323D01*
X180644Y315609D02*
X181323D01*
X180644Y315703D02*
X181323D01*
X180644Y315797D02*
X181323D01*
X180644Y315891D02*
X181323D01*
X180644Y315984D02*
X181323D01*
X180644Y316078D02*
X181323D01*
X180644Y316172D02*
X181323D01*
X180644Y316265D02*
X181323D01*
X180644Y316359D02*
X181323D01*
X190644Y301316D02*
Y306441D01*
X191323*
Y301921*
X193846*
Y301316*
X190644*
Y301393D02*
X193846D01*
X190644Y301487D02*
X193846D01*
X190644Y301580D02*
X193846D01*
X190644Y301674D02*
X193846D01*
X190644Y301768D02*
X193846D01*
X190644Y301861D02*
X193846D01*
X190644Y301955D02*
X191323D01*
X190644Y302049D02*
X191323D01*
X190644Y302143D02*
X191323D01*
X190644Y302236D02*
X191323D01*
X190644Y302330D02*
X191323D01*
X190644Y302424D02*
X191323D01*
X190644Y302517D02*
X191323D01*
X190644Y302611D02*
X191323D01*
X190644Y302705D02*
X191323D01*
X190644Y302798D02*
X191323D01*
X190644Y302892D02*
X191323D01*
X190644Y302986D02*
X191323D01*
X190644Y303080D02*
X191323D01*
X190644Y303173D02*
X191323D01*
X190644Y303267D02*
X191323D01*
X190644Y303361D02*
X191323D01*
X190644Y303454D02*
X191323D01*
X190644Y303548D02*
X191323D01*
X190644Y303642D02*
X191323D01*
X190644Y303735D02*
X191323D01*
X190644Y303829D02*
X191323D01*
X190644Y303923D02*
X191323D01*
X190644Y304017D02*
X191323D01*
X190644Y304110D02*
X191323D01*
X190644Y304204D02*
X191323D01*
X190644Y304298D02*
X191323D01*
X190644Y304391D02*
X191323D01*
X190644Y304485D02*
X191323D01*
X190644Y304579D02*
X191323D01*
X190644Y304672D02*
X191323D01*
X190644Y304766D02*
X191323D01*
X190644Y304860D02*
X191323D01*
X190644Y304954D02*
X191323D01*
X190644Y305047D02*
X191323D01*
X190644Y305141D02*
X191323D01*
X190644Y305235D02*
X191323D01*
X190644Y305328D02*
X191323D01*
X190644Y305422D02*
X191323D01*
X190644Y305516D02*
X191323D01*
X190644Y305609D02*
X191323D01*
X190644Y305703D02*
X191323D01*
X190644Y305797D02*
X191323D01*
X190644Y305891D02*
X191323D01*
X190644Y305984D02*
X191323D01*
X190644Y306078D02*
X191323D01*
X190644Y306172D02*
X191323D01*
X190644Y306265D02*
X191323D01*
X190644Y306359D02*
X191323D01*
X200644Y291316D02*
Y296441D01*
X201323*
Y291921*
X203846*
Y291316*
X200644*
Y291393D02*
X203846D01*
X200644Y291487D02*
X203846D01*
X200644Y291580D02*
X203846D01*
X200644Y291674D02*
X203846D01*
X200644Y291768D02*
X203846D01*
X200644Y291861D02*
X203846D01*
X200644Y291955D02*
X201323D01*
X200644Y292049D02*
X201323D01*
X200644Y292143D02*
X201323D01*
X200644Y292236D02*
X201323D01*
X200644Y292330D02*
X201323D01*
X200644Y292424D02*
X201323D01*
X200644Y292517D02*
X201323D01*
X200644Y292611D02*
X201323D01*
X200644Y292705D02*
X201323D01*
X200644Y292798D02*
X201323D01*
X200644Y292892D02*
X201323D01*
X200644Y292986D02*
X201323D01*
X200644Y293080D02*
X201323D01*
X200644Y293173D02*
X201323D01*
X200644Y293267D02*
X201323D01*
X200644Y293361D02*
X201323D01*
X200644Y293454D02*
X201323D01*
X200644Y293548D02*
X201323D01*
X200644Y293642D02*
X201323D01*
X200644Y293735D02*
X201323D01*
X200644Y293829D02*
X201323D01*
X200644Y293923D02*
X201323D01*
X200644Y294017D02*
X201323D01*
X200644Y294110D02*
X201323D01*
X200644Y294204D02*
X201323D01*
X200644Y294298D02*
X201323D01*
X200644Y294391D02*
X201323D01*
X200644Y294485D02*
X201323D01*
X200644Y294579D02*
X201323D01*
X200644Y294672D02*
X201323D01*
X200644Y294766D02*
X201323D01*
X200644Y294860D02*
X201323D01*
X200644Y294954D02*
X201323D01*
X200644Y295047D02*
X201323D01*
X200644Y295141D02*
X201323D01*
X200644Y295235D02*
X201323D01*
X200644Y295328D02*
X201323D01*
X200644Y295422D02*
X201323D01*
X200644Y295516D02*
X201323D01*
X200644Y295609D02*
X201323D01*
X200644Y295703D02*
X201323D01*
X200644Y295797D02*
X201323D01*
X200644Y295891D02*
X201323D01*
X200644Y295984D02*
X201323D01*
X200644Y296078D02*
X201323D01*
X200644Y296172D02*
X201323D01*
X200644Y296265D02*
X201323D01*
X200644Y296359D02*
X201323D01*
X220644Y221316D02*
Y226441D01*
X221323*
Y223902*
X223870Y226441*
X224788*
X222640Y224363*
X224882Y221316*
X223987*
X222163Y223906*
X221323Y223093*
Y221316*
X220644*
Y221393D02*
X221323D01*
X223933D02*
X224825D01*
X220644Y221487D02*
X221323D01*
X223867D02*
X224756D01*
X220644Y221580D02*
X221323D01*
X223801D02*
X224687D01*
X220644Y221674D02*
X221323D01*
X223735D02*
X224618D01*
X220644Y221768D02*
X221323D01*
X223669D02*
X224549D01*
X220644Y221861D02*
X221323D01*
X223603D02*
X224480D01*
X220644Y221955D02*
X221323D01*
X223537D02*
X224411D01*
X220644Y222049D02*
X221323D01*
X223471D02*
X224343D01*
X220644Y222143D02*
X221323D01*
X223405D02*
X224274D01*
X220644Y222236D02*
X221323D01*
X223339D02*
X224205D01*
X220644Y222330D02*
X221323D01*
X223273D02*
X224135D01*
X220644Y222424D02*
X221323D01*
X223207D02*
X224067D01*
X220644Y222517D02*
X221323D01*
X223141D02*
X223998D01*
X220644Y222611D02*
X221323D01*
X223075D02*
X223929D01*
X220644Y222705D02*
X221323D01*
X223009D02*
X223860D01*
X220644Y222798D02*
X221323D01*
X222943D02*
X223791D01*
X220644Y222892D02*
X221323D01*
X222877D02*
X223722D01*
X220644Y222986D02*
X221323D01*
X222811D02*
X223653D01*
X220644Y223080D02*
X221323D01*
X222745D02*
X223584D01*
X220644Y223173D02*
X221406D01*
X222679D02*
X223515D01*
X220644Y223267D02*
X221503D01*
X222613D02*
X223446D01*
X220644Y223361D02*
X221600D01*
X222547D02*
X223377D01*
X220644Y223454D02*
X221697D01*
X222481D02*
X223308D01*
X220644Y223548D02*
X221794D01*
X222415D02*
X223239D01*
X220644Y223642D02*
X221891D01*
X222349D02*
X223170D01*
X220644Y223735D02*
X221987D01*
X222283D02*
X223101D01*
X220644Y223829D02*
X222084D01*
X222217D02*
X223032D01*
X220644Y223923D02*
X221323D01*
X221344D02*
X222963D01*
X220644Y224017D02*
X221323D01*
X221439D02*
X222894D01*
X220644Y224110D02*
X221323D01*
X221533D02*
X222826D01*
X220644Y224204D02*
X221323D01*
X221626D02*
X222757D01*
X220644Y224298D02*
X221323D01*
X221720D02*
X222687D01*
X220644Y224391D02*
X221323D01*
X221815D02*
X222669D01*
X220644Y224485D02*
X221323D01*
X221909D02*
X222767D01*
X220644Y224579D02*
X221323D01*
X222002D02*
X222863D01*
X220644Y224672D02*
X221323D01*
X222096D02*
X222960D01*
X220644Y224766D02*
X221323D01*
X222191D02*
X223057D01*
X220644Y224860D02*
X221323D01*
X222285D02*
X223154D01*
X220644Y224954D02*
X221323D01*
X222378D02*
X223251D01*
X220644Y225047D02*
X221323D01*
X222472D02*
X223348D01*
X220644Y225141D02*
X221323D01*
X222567D02*
X223444D01*
X220644Y225235D02*
X221323D01*
X222661D02*
X223541D01*
X220644Y225328D02*
X221323D01*
X222754D02*
X223638D01*
X220644Y225422D02*
X221323D01*
X222848D02*
X223735D01*
X220644Y225516D02*
X221323D01*
X222943D02*
X223832D01*
X220644Y225609D02*
X221323D01*
X223036D02*
X223929D01*
X220644Y225703D02*
X221323D01*
X223130D02*
X224026D01*
X220644Y225797D02*
X221323D01*
X223224D02*
X224123D01*
X220644Y225891D02*
X221323D01*
X223319D02*
X224220D01*
X220644Y225984D02*
X221323D01*
X223412D02*
X224317D01*
X220644Y226078D02*
X221323D01*
X223506D02*
X224413D01*
X220644Y226172D02*
X221323D01*
X223600D02*
X224510D01*
X220644Y226265D02*
X221323D01*
X223694D02*
X224607D01*
X220644Y226359D02*
X221323D01*
X223788D02*
X224704D01*
X220644Y231316D02*
Y236441D01*
X221323*
Y233902*
X223870Y236441*
X224788*
X222640Y234363*
X224882Y231316*
X223987*
X222163Y233906*
X221323Y233093*
Y231316*
X220644*
Y231393D02*
X221323D01*
X223933D02*
X224825D01*
X220644Y231487D02*
X221323D01*
X223867D02*
X224756D01*
X220644Y231580D02*
X221323D01*
X223801D02*
X224687D01*
X220644Y231674D02*
X221323D01*
X223735D02*
X224618D01*
X220644Y231768D02*
X221323D01*
X223669D02*
X224549D01*
X220644Y231861D02*
X221323D01*
X223603D02*
X224480D01*
X220644Y231955D02*
X221323D01*
X223537D02*
X224411D01*
X220644Y232049D02*
X221323D01*
X223471D02*
X224343D01*
X220644Y232143D02*
X221323D01*
X223405D02*
X224274D01*
X220644Y232236D02*
X221323D01*
X223339D02*
X224205D01*
X220644Y232330D02*
X221323D01*
X223273D02*
X224135D01*
X220644Y232424D02*
X221323D01*
X223207D02*
X224067D01*
X220644Y232517D02*
X221323D01*
X223141D02*
X223998D01*
X220644Y232611D02*
X221323D01*
X223075D02*
X223929D01*
X220644Y232705D02*
X221323D01*
X223009D02*
X223860D01*
X220644Y232798D02*
X221323D01*
X222943D02*
X223791D01*
X220644Y232892D02*
X221323D01*
X222877D02*
X223722D01*
X220644Y232986D02*
X221323D01*
X222811D02*
X223653D01*
X220644Y233080D02*
X221323D01*
X222745D02*
X223584D01*
X220644Y233173D02*
X221406D01*
X222679D02*
X223515D01*
X220644Y233267D02*
X221503D01*
X222613D02*
X223446D01*
X220644Y233361D02*
X221600D01*
X222547D02*
X223377D01*
X220644Y233454D02*
X221697D01*
X222481D02*
X223308D01*
X220644Y233548D02*
X221794D01*
X222415D02*
X223239D01*
X220644Y233642D02*
X221891D01*
X222349D02*
X223170D01*
X220644Y233735D02*
X221987D01*
X222283D02*
X223101D01*
X220644Y233829D02*
X222084D01*
X222217D02*
X223032D01*
X220644Y233923D02*
X221323D01*
X221344D02*
X222963D01*
X220644Y234017D02*
X221323D01*
X221439D02*
X222894D01*
X220644Y234110D02*
X221323D01*
X221533D02*
X222826D01*
X220644Y234204D02*
X221323D01*
X221626D02*
X222757D01*
X220644Y234298D02*
X221323D01*
X221720D02*
X222687D01*
X220644Y234391D02*
X221323D01*
X221815D02*
X222669D01*
X220644Y234485D02*
X221323D01*
X221909D02*
X222767D01*
X220644Y234579D02*
X221323D01*
X222002D02*
X222863D01*
X220644Y234672D02*
X221323D01*
X222096D02*
X222960D01*
X220644Y234766D02*
X221323D01*
X222191D02*
X223057D01*
X220644Y234860D02*
X221323D01*
X222285D02*
X223154D01*
X220644Y234954D02*
X221323D01*
X222378D02*
X223251D01*
X220644Y235047D02*
X221323D01*
X222472D02*
X223348D01*
X220644Y235141D02*
X221323D01*
X222567D02*
X223444D01*
X220644Y235235D02*
X221323D01*
X222661D02*
X223541D01*
X220644Y235328D02*
X221323D01*
X222754D02*
X223638D01*
X220644Y235422D02*
X221323D01*
X222848D02*
X223735D01*
X220644Y235516D02*
X221323D01*
X222943D02*
X223832D01*
X220644Y235609D02*
X221323D01*
X223036D02*
X223929D01*
X220644Y235703D02*
X221323D01*
X223130D02*
X224026D01*
X220644Y235797D02*
X221323D01*
X223224D02*
X224123D01*
X220644Y235891D02*
X221323D01*
X223319D02*
X224220D01*
X220644Y235984D02*
X221323D01*
X223412D02*
X224317D01*
X220644Y236078D02*
X221323D01*
X223506D02*
X224413D01*
X220644Y236172D02*
X221323D01*
X223600D02*
X224510D01*
X220644Y236265D02*
X221323D01*
X223694D02*
X224607D01*
X220644Y236359D02*
X221323D01*
X223788D02*
X224704D01*
X220644Y241316D02*
Y246441D01*
X221323*
Y243902*
X223870Y246441*
X224788*
X222640Y244363*
X224882Y241316*
X223987*
X222163Y243906*
X221323Y243093*
Y241316*
X220644*
Y241393D02*
X221323D01*
X223933D02*
X224825D01*
X220644Y241487D02*
X221323D01*
X223867D02*
X224756D01*
X220644Y241580D02*
X221323D01*
X223801D02*
X224687D01*
X220644Y241674D02*
X221323D01*
X223735D02*
X224618D01*
X220644Y241768D02*
X221323D01*
X223669D02*
X224549D01*
X220644Y241861D02*
X221323D01*
X223603D02*
X224480D01*
X220644Y241955D02*
X221323D01*
X223537D02*
X224411D01*
X220644Y242049D02*
X221323D01*
X223471D02*
X224343D01*
X220644Y242143D02*
X221323D01*
X223405D02*
X224274D01*
X220644Y242236D02*
X221323D01*
X223339D02*
X224205D01*
X220644Y242330D02*
X221323D01*
X223273D02*
X224135D01*
X220644Y242424D02*
X221323D01*
X223207D02*
X224067D01*
X220644Y242517D02*
X221323D01*
X223141D02*
X223998D01*
X220644Y242611D02*
X221323D01*
X223075D02*
X223929D01*
X220644Y242705D02*
X221323D01*
X223009D02*
X223860D01*
X220644Y242798D02*
X221323D01*
X222943D02*
X223791D01*
X220644Y242892D02*
X221323D01*
X222877D02*
X223722D01*
X220644Y242986D02*
X221323D01*
X222811D02*
X223653D01*
X220644Y243080D02*
X221323D01*
X222745D02*
X223584D01*
X220644Y243173D02*
X221406D01*
X222679D02*
X223515D01*
X220644Y243267D02*
X221503D01*
X222613D02*
X223446D01*
X220644Y243361D02*
X221600D01*
X222547D02*
X223377D01*
X220644Y243454D02*
X221697D01*
X222481D02*
X223308D01*
X220644Y243548D02*
X221794D01*
X222415D02*
X223239D01*
X220644Y243642D02*
X221891D01*
X222349D02*
X223170D01*
X220644Y243735D02*
X221987D01*
X222283D02*
X223101D01*
X220644Y243829D02*
X222084D01*
X222217D02*
X223032D01*
X220644Y243923D02*
X221323D01*
X221344D02*
X222963D01*
X220644Y244017D02*
X221323D01*
X221439D02*
X222894D01*
X220644Y244110D02*
X221323D01*
X221533D02*
X222826D01*
X220644Y244204D02*
X221323D01*
X221626D02*
X222757D01*
X220644Y244298D02*
X221323D01*
X221720D02*
X222687D01*
X220644Y244391D02*
X221323D01*
X221815D02*
X222669D01*
X220644Y244485D02*
X221323D01*
X221909D02*
X222767D01*
X220644Y244579D02*
X221323D01*
X222002D02*
X222863D01*
X220644Y244672D02*
X221323D01*
X222096D02*
X222960D01*
X220644Y244766D02*
X221323D01*
X222191D02*
X223057D01*
X220644Y244860D02*
X221323D01*
X222285D02*
X223154D01*
X220644Y244954D02*
X221323D01*
X222378D02*
X223251D01*
X220644Y245047D02*
X221323D01*
X222472D02*
X223348D01*
X220644Y245141D02*
X221323D01*
X222567D02*
X223444D01*
X220644Y245235D02*
X221323D01*
X222661D02*
X223541D01*
X220644Y245328D02*
X221323D01*
X222754D02*
X223638D01*
X220644Y245422D02*
X221323D01*
X222848D02*
X223735D01*
X220644Y245516D02*
X221323D01*
X222943D02*
X223832D01*
X220644Y245609D02*
X221323D01*
X223036D02*
X223929D01*
X220644Y245703D02*
X221323D01*
X223130D02*
X224026D01*
X220644Y245797D02*
X221323D01*
X223224D02*
X224123D01*
X220644Y245891D02*
X221323D01*
X223319D02*
X224220D01*
X220644Y245984D02*
X221323D01*
X223412D02*
X224317D01*
X220644Y246078D02*
X221323D01*
X223506D02*
X224413D01*
X220644Y246172D02*
X221323D01*
X223600D02*
X224510D01*
X220644Y246265D02*
X221323D01*
X223694D02*
X224607D01*
X220644Y246359D02*
X221323D01*
X223788D02*
X224704D01*
X220644Y251316D02*
Y256441D01*
X221323*
Y253902*
X223870Y256441*
X224788*
X222640Y254363*
X224882Y251316*
X223987*
X222163Y253906*
X221323Y253093*
Y251316*
X220644*
Y251393D02*
X221323D01*
X223933D02*
X224825D01*
X220644Y251487D02*
X221323D01*
X223867D02*
X224756D01*
X220644Y251580D02*
X221323D01*
X223801D02*
X224687D01*
X220644Y251674D02*
X221323D01*
X223735D02*
X224618D01*
X220644Y251768D02*
X221323D01*
X223669D02*
X224549D01*
X220644Y251861D02*
X221323D01*
X223603D02*
X224480D01*
X220644Y251955D02*
X221323D01*
X223537D02*
X224411D01*
X220644Y252049D02*
X221323D01*
X223471D02*
X224343D01*
X220644Y252143D02*
X221323D01*
X223405D02*
X224274D01*
X220644Y252236D02*
X221323D01*
X223339D02*
X224205D01*
X220644Y252330D02*
X221323D01*
X223273D02*
X224135D01*
X220644Y252424D02*
X221323D01*
X223207D02*
X224067D01*
X220644Y252517D02*
X221323D01*
X223141D02*
X223998D01*
X220644Y252611D02*
X221323D01*
X223075D02*
X223929D01*
X220644Y252705D02*
X221323D01*
X223009D02*
X223860D01*
X220644Y252798D02*
X221323D01*
X222943D02*
X223791D01*
X220644Y252892D02*
X221323D01*
X222877D02*
X223722D01*
X220644Y252986D02*
X221323D01*
X222811D02*
X223653D01*
X220644Y253080D02*
X221323D01*
X222745D02*
X223584D01*
X220644Y253173D02*
X221406D01*
X222679D02*
X223515D01*
X220644Y253267D02*
X221503D01*
X222613D02*
X223446D01*
X220644Y253361D02*
X221600D01*
X222547D02*
X223377D01*
X220644Y253454D02*
X221697D01*
X222481D02*
X223308D01*
X220644Y253548D02*
X221794D01*
X222415D02*
X223239D01*
X220644Y253642D02*
X221891D01*
X222349D02*
X223170D01*
X220644Y253735D02*
X221987D01*
X222283D02*
X223101D01*
X220644Y253829D02*
X222084D01*
X222217D02*
X223032D01*
X220644Y253923D02*
X221323D01*
X221344D02*
X222963D01*
X220644Y254017D02*
X221323D01*
X221439D02*
X222894D01*
X220644Y254110D02*
X221323D01*
X221533D02*
X222826D01*
X220644Y254204D02*
X221323D01*
X221626D02*
X222757D01*
X220644Y254298D02*
X221323D01*
X221720D02*
X222687D01*
X220644Y254391D02*
X221323D01*
X221815D02*
X222669D01*
X220644Y254485D02*
X221323D01*
X221909D02*
X222767D01*
X220644Y254579D02*
X221323D01*
X222002D02*
X222863D01*
X220644Y254672D02*
X221323D01*
X222096D02*
X222960D01*
X220644Y254766D02*
X221323D01*
X222191D02*
X223057D01*
X220644Y254860D02*
X221323D01*
X222285D02*
X223154D01*
X220644Y254954D02*
X221323D01*
X222378D02*
X223251D01*
X220644Y255047D02*
X221323D01*
X222472D02*
X223348D01*
X220644Y255141D02*
X221323D01*
X222567D02*
X223444D01*
X220644Y255235D02*
X221323D01*
X222661D02*
X223541D01*
X220644Y255328D02*
X221323D01*
X222754D02*
X223638D01*
X220644Y255422D02*
X221323D01*
X222848D02*
X223735D01*
X220644Y255516D02*
X221323D01*
X222943D02*
X223832D01*
X220644Y255609D02*
X221323D01*
X223036D02*
X223929D01*
X220644Y255703D02*
X221323D01*
X223130D02*
X224026D01*
X220644Y255797D02*
X221323D01*
X223224D02*
X224123D01*
X220644Y255891D02*
X221323D01*
X223319D02*
X224220D01*
X220644Y255984D02*
X221323D01*
X223412D02*
X224317D01*
X220644Y256078D02*
X221323D01*
X223506D02*
X224413D01*
X220644Y256172D02*
X221323D01*
X223600D02*
X224510D01*
X220644Y256265D02*
X221323D01*
X223694D02*
X224607D01*
X220644Y256359D02*
X221323D01*
X223788D02*
X224704D01*
X220644Y261316D02*
Y266441D01*
X221323*
Y263902*
X223870Y266441*
X224788*
X222640Y264363*
X224882Y261316*
X223987*
X222163Y263906*
X221323Y263093*
Y261316*
X220644*
Y261393D02*
X221323D01*
X223933D02*
X224825D01*
X220644Y261487D02*
X221323D01*
X223867D02*
X224756D01*
X220644Y261580D02*
X221323D01*
X223801D02*
X224687D01*
X220644Y261674D02*
X221323D01*
X223735D02*
X224618D01*
X220644Y261768D02*
X221323D01*
X223669D02*
X224549D01*
X220644Y261861D02*
X221323D01*
X223603D02*
X224480D01*
X220644Y261955D02*
X221323D01*
X223537D02*
X224411D01*
X220644Y262049D02*
X221323D01*
X223471D02*
X224343D01*
X220644Y262143D02*
X221323D01*
X223405D02*
X224274D01*
X220644Y262236D02*
X221323D01*
X223339D02*
X224205D01*
X220644Y262330D02*
X221323D01*
X223273D02*
X224135D01*
X220644Y262424D02*
X221323D01*
X223207D02*
X224067D01*
X220644Y262517D02*
X221323D01*
X223141D02*
X223998D01*
X220644Y262611D02*
X221323D01*
X223075D02*
X223929D01*
X220644Y262705D02*
X221323D01*
X223009D02*
X223860D01*
X220644Y262798D02*
X221323D01*
X222943D02*
X223791D01*
X220644Y262892D02*
X221323D01*
X222877D02*
X223722D01*
X220644Y262986D02*
X221323D01*
X222811D02*
X223653D01*
X220644Y263080D02*
X221323D01*
X222745D02*
X223584D01*
X220644Y263173D02*
X221406D01*
X222679D02*
X223515D01*
X220644Y263267D02*
X221503D01*
X222613D02*
X223446D01*
X220644Y263361D02*
X221600D01*
X222547D02*
X223377D01*
X220644Y263454D02*
X221697D01*
X222481D02*
X223308D01*
X220644Y263548D02*
X221794D01*
X222415D02*
X223239D01*
X220644Y263642D02*
X221891D01*
X222349D02*
X223170D01*
X220644Y263735D02*
X221987D01*
X222283D02*
X223101D01*
X220644Y263829D02*
X222084D01*
X222217D02*
X223032D01*
X220644Y263923D02*
X221323D01*
X221344D02*
X222963D01*
X220644Y264017D02*
X221323D01*
X221439D02*
X222894D01*
X220644Y264110D02*
X221323D01*
X221533D02*
X222826D01*
X220644Y264204D02*
X221323D01*
X221626D02*
X222757D01*
X220644Y264298D02*
X221323D01*
X221720D02*
X222687D01*
X220644Y264391D02*
X221323D01*
X221815D02*
X222669D01*
X220644Y264485D02*
X221323D01*
X221909D02*
X222767D01*
X220644Y264579D02*
X221323D01*
X222002D02*
X222863D01*
X220644Y264672D02*
X221323D01*
X222096D02*
X222960D01*
X220644Y264766D02*
X221323D01*
X222191D02*
X223057D01*
X220644Y264860D02*
X221323D01*
X222285D02*
X223154D01*
X220644Y264954D02*
X221323D01*
X222378D02*
X223251D01*
X220644Y265047D02*
X221323D01*
X222472D02*
X223348D01*
X220644Y265141D02*
X221323D01*
X222567D02*
X223444D01*
X220644Y265235D02*
X221323D01*
X222661D02*
X223541D01*
X220644Y265328D02*
X221323D01*
X222754D02*
X223638D01*
X220644Y265422D02*
X221323D01*
X222848D02*
X223735D01*
X220644Y265516D02*
X221323D01*
X222943D02*
X223832D01*
X220644Y265609D02*
X221323D01*
X223036D02*
X223929D01*
X220644Y265703D02*
X221323D01*
X223130D02*
X224026D01*
X220644Y265797D02*
X221323D01*
X223224D02*
X224123D01*
X220644Y265891D02*
X221323D01*
X223319D02*
X224220D01*
X220644Y265984D02*
X221323D01*
X223412D02*
X224317D01*
X220644Y266078D02*
X221323D01*
X223506D02*
X224413D01*
X220644Y266172D02*
X221323D01*
X223600D02*
X224510D01*
X220644Y266265D02*
X221323D01*
X223694D02*
X224607D01*
X220644Y266359D02*
X221323D01*
X223788D02*
X224704D01*
X220644Y271316D02*
Y276441D01*
X221323*
Y273902*
X223870Y276441*
X224788*
X222640Y274363*
X224882Y271316*
X223987*
X222163Y273906*
X221323Y273093*
Y271316*
X220644*
Y271393D02*
X221323D01*
X223933D02*
X224825D01*
X220644Y271487D02*
X221323D01*
X223867D02*
X224756D01*
X220644Y271580D02*
X221323D01*
X223801D02*
X224687D01*
X220644Y271674D02*
X221323D01*
X223735D02*
X224618D01*
X220644Y271768D02*
X221323D01*
X223669D02*
X224549D01*
X220644Y271861D02*
X221323D01*
X223603D02*
X224480D01*
X220644Y271955D02*
X221323D01*
X223537D02*
X224411D01*
X220644Y272049D02*
X221323D01*
X223471D02*
X224343D01*
X220644Y272143D02*
X221323D01*
X223405D02*
X224274D01*
X220644Y272236D02*
X221323D01*
X223339D02*
X224205D01*
X220644Y272330D02*
X221323D01*
X223273D02*
X224135D01*
X220644Y272424D02*
X221323D01*
X223207D02*
X224067D01*
X220644Y272517D02*
X221323D01*
X223141D02*
X223998D01*
X220644Y272611D02*
X221323D01*
X223075D02*
X223929D01*
X220644Y272705D02*
X221323D01*
X223009D02*
X223860D01*
X220644Y272798D02*
X221323D01*
X222943D02*
X223791D01*
X220644Y272892D02*
X221323D01*
X222877D02*
X223722D01*
X220644Y272986D02*
X221323D01*
X222811D02*
X223653D01*
X220644Y273080D02*
X221323D01*
X222745D02*
X223584D01*
X220644Y273173D02*
X221406D01*
X222679D02*
X223515D01*
X220644Y273267D02*
X221503D01*
X222613D02*
X223446D01*
X220644Y273361D02*
X221600D01*
X222547D02*
X223377D01*
X220644Y273454D02*
X221697D01*
X222481D02*
X223308D01*
X220644Y273548D02*
X221794D01*
X222415D02*
X223239D01*
X220644Y273642D02*
X221891D01*
X222349D02*
X223170D01*
X220644Y273735D02*
X221987D01*
X222283D02*
X223101D01*
X220644Y273829D02*
X222084D01*
X222217D02*
X223032D01*
X220644Y273923D02*
X221323D01*
X221344D02*
X222963D01*
X220644Y274017D02*
X221323D01*
X221439D02*
X222894D01*
X220644Y274110D02*
X221323D01*
X221533D02*
X222826D01*
X220644Y274204D02*
X221323D01*
X221626D02*
X222757D01*
X220644Y274298D02*
X221323D01*
X221720D02*
X222687D01*
X220644Y274391D02*
X221323D01*
X221815D02*
X222669D01*
X220644Y274485D02*
X221323D01*
X221909D02*
X222767D01*
X220644Y274579D02*
X221323D01*
X222002D02*
X222863D01*
X220644Y274672D02*
X221323D01*
X222096D02*
X222960D01*
X220644Y274766D02*
X221323D01*
X222191D02*
X223057D01*
X220644Y274860D02*
X221323D01*
X222285D02*
X223154D01*
X220644Y274954D02*
X221323D01*
X222378D02*
X223251D01*
X220644Y275047D02*
X221323D01*
X222472D02*
X223348D01*
X220644Y275141D02*
X221323D01*
X222567D02*
X223444D01*
X220644Y275235D02*
X221323D01*
X222661D02*
X223541D01*
X220644Y275328D02*
X221323D01*
X222754D02*
X223638D01*
X220644Y275422D02*
X221323D01*
X222848D02*
X223735D01*
X220644Y275516D02*
X221323D01*
X222943D02*
X223832D01*
X220644Y275609D02*
X221323D01*
X223036D02*
X223929D01*
X220644Y275703D02*
X221323D01*
X223130D02*
X224026D01*
X220644Y275797D02*
X221323D01*
X223224D02*
X224123D01*
X220644Y275891D02*
X221323D01*
X223319D02*
X224220D01*
X220644Y275984D02*
X221323D01*
X223412D02*
X224317D01*
X220644Y276078D02*
X221323D01*
X223506D02*
X224413D01*
X220644Y276172D02*
X221323D01*
X223600D02*
X224510D01*
X220644Y276265D02*
X221323D01*
X223694D02*
X224607D01*
X220644Y276359D02*
X221323D01*
X223788D02*
X224704D01*
X220644Y281316D02*
Y286441D01*
X221323*
Y283902*
X223870Y286441*
X224788*
X222640Y284363*
X224882Y281316*
X223987*
X222163Y283906*
X221323Y283093*
Y281316*
X220644*
Y281393D02*
X221323D01*
X223933D02*
X224825D01*
X220644Y281487D02*
X221323D01*
X223867D02*
X224756D01*
X220644Y281580D02*
X221323D01*
X223801D02*
X224687D01*
X220644Y281674D02*
X221323D01*
X223735D02*
X224618D01*
X220644Y281768D02*
X221323D01*
X223669D02*
X224549D01*
X220644Y281861D02*
X221323D01*
X223603D02*
X224480D01*
X220644Y281955D02*
X221323D01*
X223537D02*
X224411D01*
X220644Y282049D02*
X221323D01*
X223471D02*
X224343D01*
X220644Y282143D02*
X221323D01*
X223405D02*
X224274D01*
X220644Y282236D02*
X221323D01*
X223339D02*
X224205D01*
X220644Y282330D02*
X221323D01*
X223273D02*
X224135D01*
X220644Y282424D02*
X221323D01*
X223207D02*
X224067D01*
X220644Y282517D02*
X221323D01*
X223141D02*
X223998D01*
X220644Y282611D02*
X221323D01*
X223075D02*
X223929D01*
X220644Y282705D02*
X221323D01*
X223009D02*
X223860D01*
X220644Y282798D02*
X221323D01*
X222943D02*
X223791D01*
X220644Y282892D02*
X221323D01*
X222877D02*
X223722D01*
X220644Y282986D02*
X221323D01*
X222811D02*
X223653D01*
X220644Y283080D02*
X221323D01*
X222745D02*
X223584D01*
X220644Y283173D02*
X221406D01*
X222679D02*
X223515D01*
X220644Y283267D02*
X221503D01*
X222613D02*
X223446D01*
X220644Y283361D02*
X221600D01*
X222547D02*
X223377D01*
X220644Y283454D02*
X221697D01*
X222481D02*
X223308D01*
X220644Y283548D02*
X221794D01*
X222415D02*
X223239D01*
X220644Y283642D02*
X221891D01*
X222349D02*
X223170D01*
X220644Y283735D02*
X221987D01*
X222283D02*
X223101D01*
X220644Y283829D02*
X222084D01*
X222217D02*
X223032D01*
X220644Y283923D02*
X221323D01*
X221344D02*
X222963D01*
X220644Y284017D02*
X221323D01*
X221439D02*
X222894D01*
X220644Y284110D02*
X221323D01*
X221533D02*
X222826D01*
X220644Y284204D02*
X221323D01*
X221626D02*
X222757D01*
X220644Y284298D02*
X221323D01*
X221720D02*
X222687D01*
X220644Y284391D02*
X221323D01*
X221815D02*
X222669D01*
X220644Y284485D02*
X221323D01*
X221909D02*
X222767D01*
X220644Y284579D02*
X221323D01*
X222002D02*
X222863D01*
X220644Y284672D02*
X221323D01*
X222096D02*
X222960D01*
X220644Y284766D02*
X221323D01*
X222191D02*
X223057D01*
X220644Y284860D02*
X221323D01*
X222285D02*
X223154D01*
X220644Y284954D02*
X221323D01*
X222378D02*
X223251D01*
X220644Y285047D02*
X221323D01*
X222472D02*
X223348D01*
X220644Y285141D02*
X221323D01*
X222567D02*
X223444D01*
X220644Y285235D02*
X221323D01*
X222661D02*
X223541D01*
X220644Y285328D02*
X221323D01*
X222754D02*
X223638D01*
X220644Y285422D02*
X221323D01*
X222848D02*
X223735D01*
X220644Y285516D02*
X221323D01*
X222943D02*
X223832D01*
X220644Y285609D02*
X221323D01*
X223036D02*
X223929D01*
X220644Y285703D02*
X221323D01*
X223130D02*
X224026D01*
X220644Y285797D02*
X221323D01*
X223224D02*
X224123D01*
X220644Y285891D02*
X221323D01*
X223319D02*
X224220D01*
X220644Y285984D02*
X221323D01*
X223412D02*
X224317D01*
X220644Y286078D02*
X221323D01*
X223506D02*
X224413D01*
X220644Y286172D02*
X221323D01*
X223600D02*
X224510D01*
X220644Y286265D02*
X221323D01*
X223694D02*
X224607D01*
X220644Y286359D02*
X221323D01*
X223788D02*
X224704D01*
D02*
D72*
X20120Y214800D03*
Y224800D03*
Y234800D03*
Y244800D03*
Y254800D03*
Y264800D03*
Y304800D03*
Y314800D03*
X60120Y234800D03*
Y244800D03*
Y269800D03*
Y279800D03*
Y304800D03*
Y314800D03*
X110120Y244800D03*
Y254800D03*
Y264800D03*
Y274800D03*
Y284800D03*
Y294800D03*
Y304800D03*
X140120Y244800D03*
Y254800D03*
Y264800D03*
Y274800D03*
Y284800D03*
Y294800D03*
Y304800D03*
X160120Y274800D03*
X170120Y264800D03*
Y304800D03*
X180120Y294800D03*
X190120Y284800D03*
X210120Y214800D03*
Y224800D03*
Y234800D03*
Y244800D03*
Y254800D03*
Y264800D03*
Y274800D03*
X0Y0D02*
M02*
