G04 EasyPC Gerber Version 21.0.3 Build 4286 *
G04 #@! TF.Part,Single*
G04 #@! TF.FileFunction,Copper,L1,Top *
G04 #@! TF.FilePolarity,Positive *
%FSLAX35Y35*%
%MOIN*%
G04 #@! TA.AperFunction,ComponentPad*
%ADD26R,0.06000X0.06000*%
G04 #@! TD.AperFunction*
%ADD12C,0.01000*%
G04 #@! TA.AperFunction,ComponentPad*
%ADD27C,0.06000*%
X0Y0D02*
D02*
D12*
X1447620Y1124800D02*
X1445620D01*
X1450120Y1122300D02*
Y1120300D01*
Y1127300D02*
Y1129300D01*
X1452620Y1124800D02*
X1454620D01*
X1467620Y1154800D02*
X1465620D01*
X1470120Y1152300D02*
Y1150300D01*
Y1157300D02*
Y1159300D01*
X1472620Y1154800D02*
X1474620D01*
X1527620D02*
X1525620D01*
X1530120Y1152300D02*
Y1150300D01*
Y1157300D02*
Y1159300D01*
X1532620Y1154800D02*
X1534620D01*
D02*
D26*
X20120Y214800D03*
Y224800D03*
Y234800D03*
Y244800D03*
Y254800D03*
Y264800D03*
Y304800D03*
Y314800D03*
X60120Y269800D03*
Y279800D03*
Y304800D03*
Y314800D03*
X210120Y214800D03*
Y224800D03*
Y234800D03*
Y244800D03*
Y254800D03*
Y264800D03*
Y274800D03*
D02*
D27*
X60120Y234800D03*
Y244800D03*
X110120D03*
Y254800D03*
Y264800D03*
Y274800D03*
Y284800D03*
Y294800D03*
Y304800D03*
X140120Y244800D03*
Y254800D03*
Y264800D03*
Y274800D03*
Y284800D03*
Y294800D03*
Y304800D03*
X0Y0D02*
M02*
