G04 EasyPC Gerber Version 21.0.3 Build 4286 *
G04 #@! TF.Part,Single*
G04 #@! TF.FileFunction,Drillmap *
G04 #@! TF.FilePolarity,Positive *
%FSLAX35Y35*%
%MOIN*%
%ADD17C,0.00100*%
G04 #@! TA.AperFunction,WasherPad*
%ADD82C,0.10000*%
X0Y0D02*
D02*
D17*
X30644Y221316D02*
Y226441D01*
X32565*
X32710Y226437*
X32846Y226429*
X32976Y226417*
X33096Y226402*
X33210Y226378*
X33315Y226351*
X33417Y226320*
X33507Y226284*
X33593Y226241*
X33675Y226194*
X33753Y226144*
X33823Y226085*
X33890Y226023*
X33952Y225956*
X34011Y225882*
X34065Y225804*
X34112Y225726*
X34151Y225644*
X34187Y225558*
X34214Y225476*
X34237Y225390*
X34253Y225304*
X34261Y225218*
X34265Y225128*
X34261Y225046*
X34253Y224968*
X34241Y224890*
X34222Y224812*
X34194Y224733*
X34163Y224659*
X34128Y224585*
X34085Y224511*
X34038Y224441*
X33987Y224370*
X33929Y224308*
X33862Y224249*
X33792Y224191*
X33718Y224140*
X33636Y224089*
X33546Y224042*
X33659Y224003*
X33769Y223960*
X33866Y223913*
X33960Y223859*
X34046Y223796*
X34124Y223730*
X34198Y223656*
X34265Y223577*
X34323Y223491*
X34374Y223406*
X34417Y223312*
X34452Y223218*
X34480Y223120*
X34499Y223019*
X34511Y222909*
X34515Y222800*
X34511Y222710*
X34507Y222624*
X34495Y222538*
X34476Y222452*
X34456Y222370*
X34429Y222288*
X34397Y222210*
X34362Y222132*
X34323Y222058*
X34280Y221987*
X34237Y221921*
X34194Y221859*
X34144Y221800*
X34093Y221745*
X34042Y221698*
X33987Y221656*
X33866Y221577*
X33733Y221507*
X33589Y221448*
X33425Y221402*
X33339Y221382*
X33249Y221363*
X33151Y221347*
X33050Y221335*
X32944Y221327*
X32835Y221320*
X32718Y221316*
X32596*
X30644*
X31323Y224288D02*
X32429D01*
X32538*
X32640Y224292*
X32733Y224296*
X32815Y224304*
X32894Y224312*
X32964Y224320*
X33022Y224335*
X33077Y224347*
X33140Y224367*
X33198Y224394*
X33253Y224417*
X33304Y224448*
X33350Y224483*
X33394Y224519*
X33433Y224558*
X33468Y224601*
X33495Y224648*
X33522Y224698*
X33546Y224749*
X33565Y224804*
X33577Y224859*
X33589Y224921*
X33596Y224983*
Y225050*
X33589Y225171*
X33565Y225288*
X33526Y225398*
X33476Y225499*
X33405Y225585*
X33327Y225659*
X33233Y225718*
X33124Y225765*
X33065Y225780*
X32991Y225796*
X32909Y225808*
X32815Y225816*
X32714Y225824*
X32600Y225831*
X32480Y225835*
X32346*
X31323*
Y224288*
Y221921D02*
X32600D01*
X32679*
X32753*
X32819Y221925*
X32882*
X32937Y221929*
X32983Y221933*
X33026Y221941*
X33061Y221944*
X33175Y221968*
X33276Y221999*
X33370Y222038*
X33456Y222085*
X33530Y222140*
X33596Y222206*
X33659Y222280*
X33714Y222370*
X33757Y222468*
X33792Y222570*
X33807Y222683*
X33815Y222800*
X33811Y222870*
X33807Y222941*
X33796Y223007*
X33776Y223070*
X33757Y223132*
X33733Y223191*
X33702Y223245*
X33667Y223300*
X33628Y223351*
X33585Y223398*
X33538Y223441*
X33487Y223480*
X33437Y223515*
X33378Y223546*
X33319Y223574*
X33257Y223597*
X33187Y223617*
X33112Y223636*
X33030Y223648*
X32941Y223659*
X32843Y223671*
X32737Y223679*
X32624Y223683*
X32507*
X31323*
Y221921*
X30644Y221393D02*
X33387D01*
X30644Y221487D02*
X33683D01*
X30644Y221580D02*
X33871D01*
X30644Y221674D02*
X34011D01*
X30644Y221768D02*
X34114D01*
X30644Y221861D02*
X34196D01*
X30644Y221955D02*
X31323D01*
X33113D02*
X34259D01*
X30644Y222049D02*
X31323D01*
X33389D02*
X34318D01*
X30644Y222143D02*
X31323D01*
X33533D02*
X34367D01*
X30644Y222236D02*
X31323D01*
X33622D02*
X34408D01*
X30644Y222330D02*
X31323D01*
X33689D02*
X34443D01*
X30644Y222424D02*
X31323D01*
X33737D02*
X34469D01*
X30644Y222517D02*
X31323D01*
X33774D02*
X34491D01*
X30644Y222611D02*
X31323D01*
X33798D02*
X34505D01*
X30644Y222705D02*
X31323D01*
X33809D02*
X34510D01*
X30644Y222798D02*
X31323D01*
X33815D02*
X34515D01*
X30644Y222892D02*
X31323D01*
X33810D02*
X34511D01*
X30644Y222986D02*
X31323D01*
X33800D02*
X34502D01*
X30644Y223080D02*
X31323D01*
X33773D02*
X34487D01*
X30644Y223173D02*
X31323D01*
X33740D02*
X34465D01*
X30644Y223267D02*
X31323D01*
X33688D02*
X34434D01*
X30644Y223361D02*
X31323D01*
X33619D02*
X34394D01*
X30644Y223454D02*
X31323D01*
X33520D02*
X34345D01*
X30644Y223548D02*
X31323D01*
X33374D02*
X34285D01*
X30644Y223642D02*
X31323D01*
X33071D02*
X34210D01*
X30644Y223735D02*
X34117D01*
X30644Y223829D02*
X34000D01*
X30644Y223923D02*
X33846D01*
X30644Y224017D02*
X33620D01*
X30644Y224110D02*
X33670D01*
X30644Y224204D02*
X33808D01*
X30644Y224298D02*
X31323D01*
X32750D02*
X33917D01*
X30644Y224391D02*
X31323D01*
X33193D02*
X34002D01*
X30644Y224485D02*
X31323D01*
X33352D02*
X34068D01*
X30644Y224579D02*
X31323D01*
X33450D02*
X34124D01*
X30644Y224672D02*
X31323D01*
X33509D02*
X34169D01*
X30644Y224766D02*
X31323D01*
X33552D02*
X34206D01*
X30644Y224860D02*
X31323D01*
X33578D02*
X34234D01*
X30644Y224954D02*
X31323D01*
X33593D02*
X34251D01*
X30644Y225047D02*
X31323D01*
X33596D02*
X34261D01*
X30644Y225141D02*
X31323D01*
X33591D02*
X34264D01*
X30644Y225235D02*
X31323D01*
X33576D02*
X34259D01*
X30644Y225328D02*
X31323D01*
X33551D02*
X34248D01*
X30644Y225422D02*
X31323D01*
X33514D02*
X34228D01*
X30644Y225516D02*
X31323D01*
X33462D02*
X34200D01*
X30644Y225609D02*
X31323D01*
X33380D02*
X34165D01*
X30644Y225703D02*
X31323D01*
X33257D02*
X34123D01*
X30644Y225797D02*
X31323D01*
X32986D02*
X34070D01*
X30644Y225891D02*
X34004D01*
X30644Y225984D02*
X33926D01*
X30644Y226078D02*
X33831D01*
X30644Y226172D02*
X33710D01*
X30644Y226265D02*
X33544D01*
X30644Y226359D02*
X33283D01*
X30644Y231316D02*
Y236441D01*
X32565*
X32710Y236437*
X32846Y236429*
X32976Y236417*
X33096Y236402*
X33210Y236378*
X33315Y236351*
X33417Y236320*
X33507Y236284*
X33593Y236241*
X33675Y236194*
X33753Y236144*
X33823Y236085*
X33890Y236023*
X33952Y235956*
X34011Y235882*
X34065Y235804*
X34112Y235726*
X34151Y235644*
X34187Y235558*
X34214Y235476*
X34237Y235390*
X34253Y235304*
X34261Y235218*
X34265Y235128*
X34261Y235046*
X34253Y234968*
X34241Y234890*
X34222Y234812*
X34194Y234733*
X34163Y234659*
X34128Y234585*
X34085Y234511*
X34038Y234441*
X33987Y234370*
X33929Y234308*
X33862Y234249*
X33792Y234191*
X33718Y234140*
X33636Y234089*
X33546Y234042*
X33659Y234003*
X33769Y233960*
X33866Y233913*
X33960Y233859*
X34046Y233796*
X34124Y233730*
X34198Y233656*
X34265Y233577*
X34323Y233491*
X34374Y233406*
X34417Y233312*
X34452Y233218*
X34480Y233120*
X34499Y233019*
X34511Y232909*
X34515Y232800*
X34511Y232710*
X34507Y232624*
X34495Y232538*
X34476Y232452*
X34456Y232370*
X34429Y232288*
X34397Y232210*
X34362Y232132*
X34323Y232058*
X34280Y231987*
X34237Y231921*
X34194Y231859*
X34144Y231800*
X34093Y231745*
X34042Y231698*
X33987Y231656*
X33866Y231577*
X33733Y231507*
X33589Y231448*
X33425Y231402*
X33339Y231382*
X33249Y231363*
X33151Y231347*
X33050Y231335*
X32944Y231327*
X32835Y231320*
X32718Y231316*
X32596*
X30644*
X31323Y234288D02*
X32429D01*
X32538*
X32640Y234292*
X32733Y234296*
X32815Y234304*
X32894Y234312*
X32964Y234320*
X33022Y234335*
X33077Y234347*
X33140Y234367*
X33198Y234394*
X33253Y234417*
X33304Y234448*
X33350Y234483*
X33394Y234519*
X33433Y234558*
X33468Y234601*
X33495Y234648*
X33522Y234698*
X33546Y234749*
X33565Y234804*
X33577Y234859*
X33589Y234921*
X33596Y234983*
Y235050*
X33589Y235171*
X33565Y235288*
X33526Y235398*
X33476Y235499*
X33405Y235585*
X33327Y235659*
X33233Y235718*
X33124Y235765*
X33065Y235780*
X32991Y235796*
X32909Y235808*
X32815Y235816*
X32714Y235824*
X32600Y235831*
X32480Y235835*
X32346*
X31323*
Y234288*
Y231921D02*
X32600D01*
X32679*
X32753*
X32819Y231925*
X32882*
X32937Y231929*
X32983Y231933*
X33026Y231941*
X33061Y231944*
X33175Y231968*
X33276Y231999*
X33370Y232038*
X33456Y232085*
X33530Y232140*
X33596Y232206*
X33659Y232280*
X33714Y232370*
X33757Y232468*
X33792Y232570*
X33807Y232683*
X33815Y232800*
X33811Y232870*
X33807Y232941*
X33796Y233007*
X33776Y233070*
X33757Y233132*
X33733Y233191*
X33702Y233245*
X33667Y233300*
X33628Y233351*
X33585Y233398*
X33538Y233441*
X33487Y233480*
X33437Y233515*
X33378Y233546*
X33319Y233574*
X33257Y233597*
X33187Y233617*
X33112Y233636*
X33030Y233648*
X32941Y233659*
X32843Y233671*
X32737Y233679*
X32624Y233683*
X32507*
X31323*
Y231921*
X30644Y231393D02*
X33387D01*
X30644Y231487D02*
X33683D01*
X30644Y231580D02*
X33871D01*
X30644Y231674D02*
X34011D01*
X30644Y231768D02*
X34114D01*
X30644Y231861D02*
X34196D01*
X30644Y231955D02*
X31323D01*
X33113D02*
X34259D01*
X30644Y232049D02*
X31323D01*
X33389D02*
X34318D01*
X30644Y232143D02*
X31323D01*
X33533D02*
X34367D01*
X30644Y232236D02*
X31323D01*
X33622D02*
X34408D01*
X30644Y232330D02*
X31323D01*
X33689D02*
X34443D01*
X30644Y232424D02*
X31323D01*
X33737D02*
X34469D01*
X30644Y232517D02*
X31323D01*
X33774D02*
X34491D01*
X30644Y232611D02*
X31323D01*
X33798D02*
X34505D01*
X30644Y232705D02*
X31323D01*
X33809D02*
X34510D01*
X30644Y232798D02*
X31323D01*
X33815D02*
X34515D01*
X30644Y232892D02*
X31323D01*
X33810D02*
X34511D01*
X30644Y232986D02*
X31323D01*
X33800D02*
X34502D01*
X30644Y233080D02*
X31323D01*
X33773D02*
X34487D01*
X30644Y233173D02*
X31323D01*
X33740D02*
X34465D01*
X30644Y233267D02*
X31323D01*
X33688D02*
X34434D01*
X30644Y233361D02*
X31323D01*
X33619D02*
X34394D01*
X30644Y233454D02*
X31323D01*
X33520D02*
X34345D01*
X30644Y233548D02*
X31323D01*
X33374D02*
X34285D01*
X30644Y233642D02*
X31323D01*
X33071D02*
X34210D01*
X30644Y233735D02*
X34117D01*
X30644Y233829D02*
X34000D01*
X30644Y233923D02*
X33846D01*
X30644Y234017D02*
X33620D01*
X30644Y234110D02*
X33670D01*
X30644Y234204D02*
X33808D01*
X30644Y234298D02*
X31323D01*
X32750D02*
X33917D01*
X30644Y234391D02*
X31323D01*
X33193D02*
X34002D01*
X30644Y234485D02*
X31323D01*
X33352D02*
X34068D01*
X30644Y234579D02*
X31323D01*
X33450D02*
X34124D01*
X30644Y234672D02*
X31323D01*
X33509D02*
X34169D01*
X30644Y234766D02*
X31323D01*
X33552D02*
X34206D01*
X30644Y234860D02*
X31323D01*
X33578D02*
X34234D01*
X30644Y234954D02*
X31323D01*
X33593D02*
X34251D01*
X30644Y235047D02*
X31323D01*
X33596D02*
X34261D01*
X30644Y235141D02*
X31323D01*
X33591D02*
X34264D01*
X30644Y235235D02*
X31323D01*
X33576D02*
X34259D01*
X30644Y235328D02*
X31323D01*
X33551D02*
X34248D01*
X30644Y235422D02*
X31323D01*
X33514D02*
X34228D01*
X30644Y235516D02*
X31323D01*
X33462D02*
X34200D01*
X30644Y235609D02*
X31323D01*
X33380D02*
X34165D01*
X30644Y235703D02*
X31323D01*
X33257D02*
X34123D01*
X30644Y235797D02*
X31323D01*
X32986D02*
X34070D01*
X30644Y235891D02*
X34004D01*
X30644Y235984D02*
X33926D01*
X30644Y236078D02*
X33831D01*
X30644Y236172D02*
X33710D01*
X30644Y236265D02*
X33544D01*
X30644Y236359D02*
X33283D01*
X30644Y241316D02*
Y246441D01*
X32565*
X32710Y246437*
X32846Y246429*
X32976Y246417*
X33096Y246402*
X33210Y246378*
X33315Y246351*
X33417Y246320*
X33507Y246284*
X33593Y246241*
X33675Y246194*
X33753Y246144*
X33823Y246085*
X33890Y246023*
X33952Y245956*
X34011Y245882*
X34065Y245804*
X34112Y245726*
X34151Y245644*
X34187Y245558*
X34214Y245476*
X34237Y245390*
X34253Y245304*
X34261Y245218*
X34265Y245128*
X34261Y245046*
X34253Y244968*
X34241Y244890*
X34222Y244812*
X34194Y244733*
X34163Y244659*
X34128Y244585*
X34085Y244511*
X34038Y244441*
X33987Y244370*
X33929Y244308*
X33862Y244249*
X33792Y244191*
X33718Y244140*
X33636Y244089*
X33546Y244042*
X33659Y244003*
X33769Y243960*
X33866Y243913*
X33960Y243859*
X34046Y243796*
X34124Y243730*
X34198Y243656*
X34265Y243577*
X34323Y243491*
X34374Y243406*
X34417Y243312*
X34452Y243218*
X34480Y243120*
X34499Y243019*
X34511Y242909*
X34515Y242800*
X34511Y242710*
X34507Y242624*
X34495Y242538*
X34476Y242452*
X34456Y242370*
X34429Y242288*
X34397Y242210*
X34362Y242132*
X34323Y242058*
X34280Y241987*
X34237Y241921*
X34194Y241859*
X34144Y241800*
X34093Y241745*
X34042Y241698*
X33987Y241656*
X33866Y241577*
X33733Y241507*
X33589Y241448*
X33425Y241402*
X33339Y241382*
X33249Y241363*
X33151Y241347*
X33050Y241335*
X32944Y241327*
X32835Y241320*
X32718Y241316*
X32596*
X30644*
X31323Y244288D02*
X32429D01*
X32538*
X32640Y244292*
X32733Y244296*
X32815Y244304*
X32894Y244312*
X32964Y244320*
X33022Y244335*
X33077Y244347*
X33140Y244367*
X33198Y244394*
X33253Y244417*
X33304Y244448*
X33350Y244483*
X33394Y244519*
X33433Y244558*
X33468Y244601*
X33495Y244648*
X33522Y244698*
X33546Y244749*
X33565Y244804*
X33577Y244859*
X33589Y244921*
X33596Y244983*
Y245050*
X33589Y245171*
X33565Y245288*
X33526Y245398*
X33476Y245499*
X33405Y245585*
X33327Y245659*
X33233Y245718*
X33124Y245765*
X33065Y245780*
X32991Y245796*
X32909Y245808*
X32815Y245816*
X32714Y245824*
X32600Y245831*
X32480Y245835*
X32346*
X31323*
Y244288*
Y241921D02*
X32600D01*
X32679*
X32753*
X32819Y241925*
X32882*
X32937Y241929*
X32983Y241933*
X33026Y241941*
X33061Y241944*
X33175Y241968*
X33276Y241999*
X33370Y242038*
X33456Y242085*
X33530Y242140*
X33596Y242206*
X33659Y242280*
X33714Y242370*
X33757Y242468*
X33792Y242570*
X33807Y242683*
X33815Y242800*
X33811Y242870*
X33807Y242941*
X33796Y243007*
X33776Y243070*
X33757Y243132*
X33733Y243191*
X33702Y243245*
X33667Y243300*
X33628Y243351*
X33585Y243398*
X33538Y243441*
X33487Y243480*
X33437Y243515*
X33378Y243546*
X33319Y243574*
X33257Y243597*
X33187Y243617*
X33112Y243636*
X33030Y243648*
X32941Y243659*
X32843Y243671*
X32737Y243679*
X32624Y243683*
X32507*
X31323*
Y241921*
X30644Y241393D02*
X33387D01*
X30644Y241487D02*
X33683D01*
X30644Y241580D02*
X33871D01*
X30644Y241674D02*
X34011D01*
X30644Y241768D02*
X34114D01*
X30644Y241861D02*
X34196D01*
X30644Y241955D02*
X31323D01*
X33113D02*
X34259D01*
X30644Y242049D02*
X31323D01*
X33389D02*
X34318D01*
X30644Y242143D02*
X31323D01*
X33533D02*
X34367D01*
X30644Y242236D02*
X31323D01*
X33622D02*
X34408D01*
X30644Y242330D02*
X31323D01*
X33689D02*
X34443D01*
X30644Y242424D02*
X31323D01*
X33737D02*
X34469D01*
X30644Y242517D02*
X31323D01*
X33774D02*
X34491D01*
X30644Y242611D02*
X31323D01*
X33798D02*
X34505D01*
X30644Y242705D02*
X31323D01*
X33809D02*
X34510D01*
X30644Y242798D02*
X31323D01*
X33815D02*
X34515D01*
X30644Y242892D02*
X31323D01*
X33810D02*
X34511D01*
X30644Y242986D02*
X31323D01*
X33800D02*
X34502D01*
X30644Y243080D02*
X31323D01*
X33773D02*
X34487D01*
X30644Y243173D02*
X31323D01*
X33740D02*
X34465D01*
X30644Y243267D02*
X31323D01*
X33688D02*
X34434D01*
X30644Y243361D02*
X31323D01*
X33619D02*
X34394D01*
X30644Y243454D02*
X31323D01*
X33520D02*
X34345D01*
X30644Y243548D02*
X31323D01*
X33374D02*
X34285D01*
X30644Y243642D02*
X31323D01*
X33071D02*
X34210D01*
X30644Y243735D02*
X34117D01*
X30644Y243829D02*
X34000D01*
X30644Y243923D02*
X33846D01*
X30644Y244017D02*
X33620D01*
X30644Y244110D02*
X33670D01*
X30644Y244204D02*
X33808D01*
X30644Y244298D02*
X31323D01*
X32750D02*
X33917D01*
X30644Y244391D02*
X31323D01*
X33193D02*
X34002D01*
X30644Y244485D02*
X31323D01*
X33352D02*
X34068D01*
X30644Y244579D02*
X31323D01*
X33450D02*
X34124D01*
X30644Y244672D02*
X31323D01*
X33509D02*
X34169D01*
X30644Y244766D02*
X31323D01*
X33552D02*
X34206D01*
X30644Y244860D02*
X31323D01*
X33578D02*
X34234D01*
X30644Y244954D02*
X31323D01*
X33593D02*
X34251D01*
X30644Y245047D02*
X31323D01*
X33596D02*
X34261D01*
X30644Y245141D02*
X31323D01*
X33591D02*
X34264D01*
X30644Y245235D02*
X31323D01*
X33576D02*
X34259D01*
X30644Y245328D02*
X31323D01*
X33551D02*
X34248D01*
X30644Y245422D02*
X31323D01*
X33514D02*
X34228D01*
X30644Y245516D02*
X31323D01*
X33462D02*
X34200D01*
X30644Y245609D02*
X31323D01*
X33380D02*
X34165D01*
X30644Y245703D02*
X31323D01*
X33257D02*
X34123D01*
X30644Y245797D02*
X31323D01*
X32986D02*
X34070D01*
X30644Y245891D02*
X34004D01*
X30644Y245984D02*
X33926D01*
X30644Y246078D02*
X33831D01*
X30644Y246172D02*
X33710D01*
X30644Y246265D02*
X33544D01*
X30644Y246359D02*
X33283D01*
X30644Y251316D02*
Y256441D01*
X32565*
X32710Y256437*
X32846Y256429*
X32976Y256417*
X33096Y256402*
X33210Y256378*
X33315Y256351*
X33417Y256320*
X33507Y256284*
X33593Y256241*
X33675Y256194*
X33753Y256144*
X33823Y256085*
X33890Y256023*
X33952Y255956*
X34011Y255882*
X34065Y255804*
X34112Y255726*
X34151Y255644*
X34187Y255558*
X34214Y255476*
X34237Y255390*
X34253Y255304*
X34261Y255218*
X34265Y255128*
X34261Y255046*
X34253Y254968*
X34241Y254890*
X34222Y254812*
X34194Y254733*
X34163Y254659*
X34128Y254585*
X34085Y254511*
X34038Y254441*
X33987Y254370*
X33929Y254308*
X33862Y254249*
X33792Y254191*
X33718Y254140*
X33636Y254089*
X33546Y254042*
X33659Y254003*
X33769Y253960*
X33866Y253913*
X33960Y253859*
X34046Y253796*
X34124Y253730*
X34198Y253656*
X34265Y253577*
X34323Y253491*
X34374Y253406*
X34417Y253312*
X34452Y253218*
X34480Y253120*
X34499Y253019*
X34511Y252909*
X34515Y252800*
X34511Y252710*
X34507Y252624*
X34495Y252538*
X34476Y252452*
X34456Y252370*
X34429Y252288*
X34397Y252210*
X34362Y252132*
X34323Y252058*
X34280Y251987*
X34237Y251921*
X34194Y251859*
X34144Y251800*
X34093Y251745*
X34042Y251698*
X33987Y251656*
X33866Y251577*
X33733Y251507*
X33589Y251448*
X33425Y251402*
X33339Y251382*
X33249Y251363*
X33151Y251347*
X33050Y251335*
X32944Y251327*
X32835Y251320*
X32718Y251316*
X32596*
X30644*
X31323Y254288D02*
X32429D01*
X32538*
X32640Y254292*
X32733Y254296*
X32815Y254304*
X32894Y254312*
X32964Y254320*
X33022Y254335*
X33077Y254347*
X33140Y254367*
X33198Y254394*
X33253Y254417*
X33304Y254448*
X33350Y254483*
X33394Y254519*
X33433Y254558*
X33468Y254601*
X33495Y254648*
X33522Y254698*
X33546Y254749*
X33565Y254804*
X33577Y254859*
X33589Y254921*
X33596Y254983*
Y255050*
X33589Y255171*
X33565Y255288*
X33526Y255398*
X33476Y255499*
X33405Y255585*
X33327Y255659*
X33233Y255718*
X33124Y255765*
X33065Y255780*
X32991Y255796*
X32909Y255808*
X32815Y255816*
X32714Y255824*
X32600Y255831*
X32480Y255835*
X32346*
X31323*
Y254288*
Y251921D02*
X32600D01*
X32679*
X32753*
X32819Y251925*
X32882*
X32937Y251929*
X32983Y251933*
X33026Y251941*
X33061Y251944*
X33175Y251968*
X33276Y251999*
X33370Y252038*
X33456Y252085*
X33530Y252140*
X33596Y252206*
X33659Y252280*
X33714Y252370*
X33757Y252468*
X33792Y252570*
X33807Y252683*
X33815Y252800*
X33811Y252870*
X33807Y252941*
X33796Y253007*
X33776Y253070*
X33757Y253132*
X33733Y253191*
X33702Y253245*
X33667Y253300*
X33628Y253351*
X33585Y253398*
X33538Y253441*
X33487Y253480*
X33437Y253515*
X33378Y253546*
X33319Y253574*
X33257Y253597*
X33187Y253617*
X33112Y253636*
X33030Y253648*
X32941Y253659*
X32843Y253671*
X32737Y253679*
X32624Y253683*
X32507*
X31323*
Y251921*
X30644Y251393D02*
X33387D01*
X30644Y251487D02*
X33683D01*
X30644Y251580D02*
X33871D01*
X30644Y251674D02*
X34011D01*
X30644Y251768D02*
X34114D01*
X30644Y251861D02*
X34196D01*
X30644Y251955D02*
X31323D01*
X33113D02*
X34259D01*
X30644Y252049D02*
X31323D01*
X33389D02*
X34318D01*
X30644Y252143D02*
X31323D01*
X33533D02*
X34367D01*
X30644Y252236D02*
X31323D01*
X33622D02*
X34408D01*
X30644Y252330D02*
X31323D01*
X33689D02*
X34443D01*
X30644Y252424D02*
X31323D01*
X33737D02*
X34469D01*
X30644Y252517D02*
X31323D01*
X33774D02*
X34491D01*
X30644Y252611D02*
X31323D01*
X33798D02*
X34505D01*
X30644Y252705D02*
X31323D01*
X33809D02*
X34510D01*
X30644Y252798D02*
X31323D01*
X33815D02*
X34515D01*
X30644Y252892D02*
X31323D01*
X33810D02*
X34511D01*
X30644Y252986D02*
X31323D01*
X33800D02*
X34502D01*
X30644Y253080D02*
X31323D01*
X33773D02*
X34487D01*
X30644Y253173D02*
X31323D01*
X33740D02*
X34465D01*
X30644Y253267D02*
X31323D01*
X33688D02*
X34434D01*
X30644Y253361D02*
X31323D01*
X33619D02*
X34394D01*
X30644Y253454D02*
X31323D01*
X33520D02*
X34345D01*
X30644Y253548D02*
X31323D01*
X33374D02*
X34285D01*
X30644Y253642D02*
X31323D01*
X33071D02*
X34210D01*
X30644Y253735D02*
X34117D01*
X30644Y253829D02*
X34000D01*
X30644Y253923D02*
X33846D01*
X30644Y254017D02*
X33620D01*
X30644Y254110D02*
X33670D01*
X30644Y254204D02*
X33808D01*
X30644Y254298D02*
X31323D01*
X32750D02*
X33917D01*
X30644Y254391D02*
X31323D01*
X33193D02*
X34002D01*
X30644Y254485D02*
X31323D01*
X33352D02*
X34068D01*
X30644Y254579D02*
X31323D01*
X33450D02*
X34124D01*
X30644Y254672D02*
X31323D01*
X33509D02*
X34169D01*
X30644Y254766D02*
X31323D01*
X33552D02*
X34206D01*
X30644Y254860D02*
X31323D01*
X33578D02*
X34234D01*
X30644Y254954D02*
X31323D01*
X33593D02*
X34251D01*
X30644Y255047D02*
X31323D01*
X33596D02*
X34261D01*
X30644Y255141D02*
X31323D01*
X33591D02*
X34264D01*
X30644Y255235D02*
X31323D01*
X33576D02*
X34259D01*
X30644Y255328D02*
X31323D01*
X33551D02*
X34248D01*
X30644Y255422D02*
X31323D01*
X33514D02*
X34228D01*
X30644Y255516D02*
X31323D01*
X33462D02*
X34200D01*
X30644Y255609D02*
X31323D01*
X33380D02*
X34165D01*
X30644Y255703D02*
X31323D01*
X33257D02*
X34123D01*
X30644Y255797D02*
X31323D01*
X32986D02*
X34070D01*
X30644Y255891D02*
X34004D01*
X30644Y255984D02*
X33926D01*
X30644Y256078D02*
X33831D01*
X30644Y256172D02*
X33710D01*
X30644Y256265D02*
X33544D01*
X30644Y256359D02*
X33283D01*
X30644Y261316D02*
Y266441D01*
X32565*
X32710Y266437*
X32846Y266429*
X32976Y266417*
X33096Y266402*
X33210Y266378*
X33315Y266351*
X33417Y266320*
X33507Y266284*
X33593Y266241*
X33675Y266194*
X33753Y266144*
X33823Y266085*
X33890Y266023*
X33952Y265956*
X34011Y265882*
X34065Y265804*
X34112Y265726*
X34151Y265644*
X34187Y265558*
X34214Y265476*
X34237Y265390*
X34253Y265304*
X34261Y265218*
X34265Y265128*
X34261Y265046*
X34253Y264968*
X34241Y264890*
X34222Y264812*
X34194Y264733*
X34163Y264659*
X34128Y264585*
X34085Y264511*
X34038Y264441*
X33987Y264370*
X33929Y264308*
X33862Y264249*
X33792Y264191*
X33718Y264140*
X33636Y264089*
X33546Y264042*
X33659Y264003*
X33769Y263960*
X33866Y263913*
X33960Y263859*
X34046Y263796*
X34124Y263730*
X34198Y263656*
X34265Y263577*
X34323Y263491*
X34374Y263406*
X34417Y263312*
X34452Y263218*
X34480Y263120*
X34499Y263019*
X34511Y262909*
X34515Y262800*
X34511Y262710*
X34507Y262624*
X34495Y262538*
X34476Y262452*
X34456Y262370*
X34429Y262288*
X34397Y262210*
X34362Y262132*
X34323Y262058*
X34280Y261987*
X34237Y261921*
X34194Y261859*
X34144Y261800*
X34093Y261745*
X34042Y261698*
X33987Y261656*
X33866Y261577*
X33733Y261507*
X33589Y261448*
X33425Y261402*
X33339Y261382*
X33249Y261363*
X33151Y261347*
X33050Y261335*
X32944Y261327*
X32835Y261320*
X32718Y261316*
X32596*
X30644*
X31323Y264288D02*
X32429D01*
X32538*
X32640Y264292*
X32733Y264296*
X32815Y264304*
X32894Y264312*
X32964Y264320*
X33022Y264335*
X33077Y264347*
X33140Y264367*
X33198Y264394*
X33253Y264417*
X33304Y264448*
X33350Y264483*
X33394Y264519*
X33433Y264558*
X33468Y264601*
X33495Y264648*
X33522Y264698*
X33546Y264749*
X33565Y264804*
X33577Y264859*
X33589Y264921*
X33596Y264983*
Y265050*
X33589Y265171*
X33565Y265288*
X33526Y265398*
X33476Y265499*
X33405Y265585*
X33327Y265659*
X33233Y265718*
X33124Y265765*
X33065Y265780*
X32991Y265796*
X32909Y265808*
X32815Y265816*
X32714Y265824*
X32600Y265831*
X32480Y265835*
X32346*
X31323*
Y264288*
Y261921D02*
X32600D01*
X32679*
X32753*
X32819Y261925*
X32882*
X32937Y261929*
X32983Y261933*
X33026Y261941*
X33061Y261944*
X33175Y261968*
X33276Y261999*
X33370Y262038*
X33456Y262085*
X33530Y262140*
X33596Y262206*
X33659Y262280*
X33714Y262370*
X33757Y262468*
X33792Y262570*
X33807Y262683*
X33815Y262800*
X33811Y262870*
X33807Y262941*
X33796Y263007*
X33776Y263070*
X33757Y263132*
X33733Y263191*
X33702Y263245*
X33667Y263300*
X33628Y263351*
X33585Y263398*
X33538Y263441*
X33487Y263480*
X33437Y263515*
X33378Y263546*
X33319Y263574*
X33257Y263597*
X33187Y263617*
X33112Y263636*
X33030Y263648*
X32941Y263659*
X32843Y263671*
X32737Y263679*
X32624Y263683*
X32507*
X31323*
Y261921*
X30644Y261393D02*
X33387D01*
X30644Y261487D02*
X33683D01*
X30644Y261580D02*
X33871D01*
X30644Y261674D02*
X34011D01*
X30644Y261768D02*
X34114D01*
X30644Y261861D02*
X34196D01*
X30644Y261955D02*
X31323D01*
X33113D02*
X34259D01*
X30644Y262049D02*
X31323D01*
X33389D02*
X34318D01*
X30644Y262143D02*
X31323D01*
X33533D02*
X34367D01*
X30644Y262236D02*
X31323D01*
X33622D02*
X34408D01*
X30644Y262330D02*
X31323D01*
X33689D02*
X34443D01*
X30644Y262424D02*
X31323D01*
X33737D02*
X34469D01*
X30644Y262517D02*
X31323D01*
X33774D02*
X34491D01*
X30644Y262611D02*
X31323D01*
X33798D02*
X34505D01*
X30644Y262705D02*
X31323D01*
X33809D02*
X34510D01*
X30644Y262798D02*
X31323D01*
X33815D02*
X34515D01*
X30644Y262892D02*
X31323D01*
X33810D02*
X34511D01*
X30644Y262986D02*
X31323D01*
X33800D02*
X34502D01*
X30644Y263080D02*
X31323D01*
X33773D02*
X34487D01*
X30644Y263173D02*
X31323D01*
X33740D02*
X34465D01*
X30644Y263267D02*
X31323D01*
X33688D02*
X34434D01*
X30644Y263361D02*
X31323D01*
X33619D02*
X34394D01*
X30644Y263454D02*
X31323D01*
X33520D02*
X34345D01*
X30644Y263548D02*
X31323D01*
X33374D02*
X34285D01*
X30644Y263642D02*
X31323D01*
X33071D02*
X34210D01*
X30644Y263735D02*
X34117D01*
X30644Y263829D02*
X34000D01*
X30644Y263923D02*
X33846D01*
X30644Y264017D02*
X33620D01*
X30644Y264110D02*
X33670D01*
X30644Y264204D02*
X33808D01*
X30644Y264298D02*
X31323D01*
X32750D02*
X33917D01*
X30644Y264391D02*
X31323D01*
X33193D02*
X34002D01*
X30644Y264485D02*
X31323D01*
X33352D02*
X34068D01*
X30644Y264579D02*
X31323D01*
X33450D02*
X34124D01*
X30644Y264672D02*
X31323D01*
X33509D02*
X34169D01*
X30644Y264766D02*
X31323D01*
X33552D02*
X34206D01*
X30644Y264860D02*
X31323D01*
X33578D02*
X34234D01*
X30644Y264954D02*
X31323D01*
X33593D02*
X34251D01*
X30644Y265047D02*
X31323D01*
X33596D02*
X34261D01*
X30644Y265141D02*
X31323D01*
X33591D02*
X34264D01*
X30644Y265235D02*
X31323D01*
X33576D02*
X34259D01*
X30644Y265328D02*
X31323D01*
X33551D02*
X34248D01*
X30644Y265422D02*
X31323D01*
X33514D02*
X34228D01*
X30644Y265516D02*
X31323D01*
X33462D02*
X34200D01*
X30644Y265609D02*
X31323D01*
X33380D02*
X34165D01*
X30644Y265703D02*
X31323D01*
X33257D02*
X34123D01*
X30644Y265797D02*
X31323D01*
X32986D02*
X34070D01*
X30644Y265891D02*
X34004D01*
X30644Y265984D02*
X33926D01*
X30644Y266078D02*
X33831D01*
X30644Y266172D02*
X33710D01*
X30644Y266265D02*
X33544D01*
X30644Y266359D02*
X33283D01*
X30644Y271316D02*
Y276441D01*
X32565*
X32710Y276437*
X32846Y276429*
X32976Y276417*
X33096Y276402*
X33210Y276378*
X33315Y276351*
X33417Y276320*
X33507Y276284*
X33593Y276241*
X33675Y276194*
X33753Y276144*
X33823Y276085*
X33890Y276023*
X33952Y275956*
X34011Y275882*
X34065Y275804*
X34112Y275726*
X34151Y275644*
X34187Y275558*
X34214Y275476*
X34237Y275390*
X34253Y275304*
X34261Y275218*
X34265Y275128*
X34261Y275046*
X34253Y274968*
X34241Y274890*
X34222Y274812*
X34194Y274733*
X34163Y274659*
X34128Y274585*
X34085Y274511*
X34038Y274441*
X33987Y274370*
X33929Y274308*
X33862Y274249*
X33792Y274191*
X33718Y274140*
X33636Y274089*
X33546Y274042*
X33659Y274003*
X33769Y273960*
X33866Y273913*
X33960Y273859*
X34046Y273796*
X34124Y273730*
X34198Y273656*
X34265Y273577*
X34323Y273491*
X34374Y273406*
X34417Y273312*
X34452Y273218*
X34480Y273120*
X34499Y273019*
X34511Y272909*
X34515Y272800*
X34511Y272710*
X34507Y272624*
X34495Y272538*
X34476Y272452*
X34456Y272370*
X34429Y272288*
X34397Y272210*
X34362Y272132*
X34323Y272058*
X34280Y271987*
X34237Y271921*
X34194Y271859*
X34144Y271800*
X34093Y271745*
X34042Y271698*
X33987Y271656*
X33866Y271577*
X33733Y271507*
X33589Y271448*
X33425Y271402*
X33339Y271382*
X33249Y271363*
X33151Y271347*
X33050Y271335*
X32944Y271327*
X32835Y271320*
X32718Y271316*
X32596*
X30644*
X31323Y274288D02*
X32429D01*
X32538*
X32640Y274292*
X32733Y274296*
X32815Y274304*
X32894Y274312*
X32964Y274320*
X33022Y274335*
X33077Y274347*
X33140Y274367*
X33198Y274394*
X33253Y274417*
X33304Y274448*
X33350Y274483*
X33394Y274519*
X33433Y274558*
X33468Y274601*
X33495Y274648*
X33522Y274698*
X33546Y274749*
X33565Y274804*
X33577Y274859*
X33589Y274921*
X33596Y274983*
Y275050*
X33589Y275171*
X33565Y275288*
X33526Y275398*
X33476Y275499*
X33405Y275585*
X33327Y275659*
X33233Y275718*
X33124Y275765*
X33065Y275780*
X32991Y275796*
X32909Y275808*
X32815Y275816*
X32714Y275824*
X32600Y275831*
X32480Y275835*
X32346*
X31323*
Y274288*
Y271921D02*
X32600D01*
X32679*
X32753*
X32819Y271925*
X32882*
X32937Y271929*
X32983Y271933*
X33026Y271941*
X33061Y271944*
X33175Y271968*
X33276Y271999*
X33370Y272038*
X33456Y272085*
X33530Y272140*
X33596Y272206*
X33659Y272280*
X33714Y272370*
X33757Y272468*
X33792Y272570*
X33807Y272683*
X33815Y272800*
X33811Y272870*
X33807Y272941*
X33796Y273007*
X33776Y273070*
X33757Y273132*
X33733Y273191*
X33702Y273245*
X33667Y273300*
X33628Y273351*
X33585Y273398*
X33538Y273441*
X33487Y273480*
X33437Y273515*
X33378Y273546*
X33319Y273574*
X33257Y273597*
X33187Y273617*
X33112Y273636*
X33030Y273648*
X32941Y273659*
X32843Y273671*
X32737Y273679*
X32624Y273683*
X32507*
X31323*
Y271921*
X30644Y271393D02*
X33387D01*
X30644Y271487D02*
X33683D01*
X30644Y271580D02*
X33871D01*
X30644Y271674D02*
X34011D01*
X30644Y271768D02*
X34114D01*
X30644Y271861D02*
X34196D01*
X30644Y271955D02*
X31323D01*
X33113D02*
X34259D01*
X30644Y272049D02*
X31323D01*
X33389D02*
X34318D01*
X30644Y272143D02*
X31323D01*
X33533D02*
X34367D01*
X30644Y272236D02*
X31323D01*
X33622D02*
X34408D01*
X30644Y272330D02*
X31323D01*
X33689D02*
X34443D01*
X30644Y272424D02*
X31323D01*
X33737D02*
X34469D01*
X30644Y272517D02*
X31323D01*
X33774D02*
X34491D01*
X30644Y272611D02*
X31323D01*
X33798D02*
X34505D01*
X30644Y272705D02*
X31323D01*
X33809D02*
X34510D01*
X30644Y272798D02*
X31323D01*
X33815D02*
X34515D01*
X30644Y272892D02*
X31323D01*
X33810D02*
X34511D01*
X30644Y272986D02*
X31323D01*
X33800D02*
X34502D01*
X30644Y273080D02*
X31323D01*
X33773D02*
X34487D01*
X30644Y273173D02*
X31323D01*
X33740D02*
X34465D01*
X30644Y273267D02*
X31323D01*
X33688D02*
X34434D01*
X30644Y273361D02*
X31323D01*
X33619D02*
X34394D01*
X30644Y273454D02*
X31323D01*
X33520D02*
X34345D01*
X30644Y273548D02*
X31323D01*
X33374D02*
X34285D01*
X30644Y273642D02*
X31323D01*
X33071D02*
X34210D01*
X30644Y273735D02*
X34117D01*
X30644Y273829D02*
X34000D01*
X30644Y273923D02*
X33846D01*
X30644Y274017D02*
X33620D01*
X30644Y274110D02*
X33670D01*
X30644Y274204D02*
X33808D01*
X30644Y274298D02*
X31323D01*
X32750D02*
X33917D01*
X30644Y274391D02*
X31323D01*
X33193D02*
X34002D01*
X30644Y274485D02*
X31323D01*
X33352D02*
X34068D01*
X30644Y274579D02*
X31323D01*
X33450D02*
X34124D01*
X30644Y274672D02*
X31323D01*
X33509D02*
X34169D01*
X30644Y274766D02*
X31323D01*
X33552D02*
X34206D01*
X30644Y274860D02*
X31323D01*
X33578D02*
X34234D01*
X30644Y274954D02*
X31323D01*
X33593D02*
X34251D01*
X30644Y275047D02*
X31323D01*
X33596D02*
X34261D01*
X30644Y275141D02*
X31323D01*
X33591D02*
X34264D01*
X30644Y275235D02*
X31323D01*
X33576D02*
X34259D01*
X30644Y275328D02*
X31323D01*
X33551D02*
X34248D01*
X30644Y275422D02*
X31323D01*
X33514D02*
X34228D01*
X30644Y275516D02*
X31323D01*
X33462D02*
X34200D01*
X30644Y275609D02*
X31323D01*
X33380D02*
X34165D01*
X30644Y275703D02*
X31323D01*
X33257D02*
X34123D01*
X30644Y275797D02*
X31323D01*
X32986D02*
X34070D01*
X30644Y275891D02*
X34004D01*
X30644Y275984D02*
X33926D01*
X30644Y276078D02*
X33831D01*
X30644Y276172D02*
X33710D01*
X30644Y276265D02*
X33544D01*
X30644Y276359D02*
X33283D01*
X30644Y311316D02*
Y316441D01*
X32565*
X32710Y316437*
X32846Y316429*
X32976Y316417*
X33096Y316402*
X33210Y316378*
X33315Y316351*
X33417Y316320*
X33507Y316284*
X33593Y316241*
X33675Y316194*
X33753Y316144*
X33823Y316085*
X33890Y316023*
X33952Y315956*
X34011Y315882*
X34065Y315804*
X34112Y315726*
X34151Y315644*
X34187Y315558*
X34214Y315476*
X34237Y315390*
X34253Y315304*
X34261Y315218*
X34265Y315128*
X34261Y315046*
X34253Y314968*
X34241Y314890*
X34222Y314812*
X34194Y314733*
X34163Y314659*
X34128Y314585*
X34085Y314511*
X34038Y314441*
X33987Y314370*
X33929Y314308*
X33862Y314249*
X33792Y314191*
X33718Y314140*
X33636Y314089*
X33546Y314042*
X33659Y314003*
X33769Y313960*
X33866Y313913*
X33960Y313859*
X34046Y313796*
X34124Y313730*
X34198Y313656*
X34265Y313577*
X34323Y313491*
X34374Y313406*
X34417Y313312*
X34452Y313218*
X34480Y313120*
X34499Y313019*
X34511Y312909*
X34515Y312800*
X34511Y312710*
X34507Y312624*
X34495Y312538*
X34476Y312452*
X34456Y312370*
X34429Y312288*
X34397Y312210*
X34362Y312132*
X34323Y312058*
X34280Y311987*
X34237Y311921*
X34194Y311859*
X34144Y311800*
X34093Y311745*
X34042Y311698*
X33987Y311656*
X33866Y311577*
X33733Y311507*
X33589Y311448*
X33425Y311402*
X33339Y311382*
X33249Y311363*
X33151Y311347*
X33050Y311335*
X32944Y311327*
X32835Y311320*
X32718Y311316*
X32596*
X30644*
X31323Y314288D02*
X32429D01*
X32538*
X32640Y314292*
X32733Y314296*
X32815Y314304*
X32894Y314312*
X32964Y314320*
X33022Y314335*
X33077Y314347*
X33140Y314367*
X33198Y314394*
X33253Y314417*
X33304Y314448*
X33350Y314483*
X33394Y314519*
X33433Y314558*
X33468Y314601*
X33495Y314648*
X33522Y314698*
X33546Y314749*
X33565Y314804*
X33577Y314859*
X33589Y314921*
X33596Y314983*
Y315050*
X33589Y315171*
X33565Y315288*
X33526Y315398*
X33476Y315499*
X33405Y315585*
X33327Y315659*
X33233Y315718*
X33124Y315765*
X33065Y315780*
X32991Y315796*
X32909Y315808*
X32815Y315816*
X32714Y315824*
X32600Y315831*
X32480Y315835*
X32346*
X31323*
Y314288*
Y311921D02*
X32600D01*
X32679*
X32753*
X32819Y311925*
X32882*
X32937Y311929*
X32983Y311933*
X33026Y311941*
X33061Y311944*
X33175Y311968*
X33276Y311999*
X33370Y312038*
X33456Y312085*
X33530Y312140*
X33596Y312206*
X33659Y312280*
X33714Y312370*
X33757Y312468*
X33792Y312570*
X33807Y312683*
X33815Y312800*
X33811Y312870*
X33807Y312941*
X33796Y313007*
X33776Y313070*
X33757Y313132*
X33733Y313191*
X33702Y313245*
X33667Y313300*
X33628Y313351*
X33585Y313398*
X33538Y313441*
X33487Y313480*
X33437Y313515*
X33378Y313546*
X33319Y313574*
X33257Y313597*
X33187Y313617*
X33112Y313636*
X33030Y313648*
X32941Y313659*
X32843Y313671*
X32737Y313679*
X32624Y313683*
X32507*
X31323*
Y311921*
X30644Y311393D02*
X33387D01*
X30644Y311487D02*
X33683D01*
X30644Y311580D02*
X33871D01*
X30644Y311674D02*
X34011D01*
X30644Y311768D02*
X34114D01*
X30644Y311861D02*
X34196D01*
X30644Y311955D02*
X31323D01*
X33113D02*
X34259D01*
X30644Y312049D02*
X31323D01*
X33389D02*
X34318D01*
X30644Y312143D02*
X31323D01*
X33533D02*
X34367D01*
X30644Y312236D02*
X31323D01*
X33622D02*
X34408D01*
X30644Y312330D02*
X31323D01*
X33689D02*
X34443D01*
X30644Y312424D02*
X31323D01*
X33737D02*
X34469D01*
X30644Y312517D02*
X31323D01*
X33774D02*
X34491D01*
X30644Y312611D02*
X31323D01*
X33798D02*
X34505D01*
X30644Y312705D02*
X31323D01*
X33809D02*
X34510D01*
X30644Y312798D02*
X31323D01*
X33815D02*
X34515D01*
X30644Y312892D02*
X31323D01*
X33810D02*
X34511D01*
X30644Y312986D02*
X31323D01*
X33800D02*
X34502D01*
X30644Y313080D02*
X31323D01*
X33773D02*
X34487D01*
X30644Y313173D02*
X31323D01*
X33740D02*
X34465D01*
X30644Y313267D02*
X31323D01*
X33688D02*
X34434D01*
X30644Y313361D02*
X31323D01*
X33619D02*
X34394D01*
X30644Y313454D02*
X31323D01*
X33520D02*
X34345D01*
X30644Y313548D02*
X31323D01*
X33374D02*
X34285D01*
X30644Y313642D02*
X31323D01*
X33071D02*
X34210D01*
X30644Y313735D02*
X34117D01*
X30644Y313829D02*
X34000D01*
X30644Y313923D02*
X33846D01*
X30644Y314017D02*
X33620D01*
X30644Y314110D02*
X33670D01*
X30644Y314204D02*
X33808D01*
X30644Y314298D02*
X31323D01*
X32750D02*
X33917D01*
X30644Y314391D02*
X31323D01*
X33193D02*
X34002D01*
X30644Y314485D02*
X31323D01*
X33352D02*
X34068D01*
X30644Y314579D02*
X31323D01*
X33450D02*
X34124D01*
X30644Y314672D02*
X31323D01*
X33509D02*
X34169D01*
X30644Y314766D02*
X31323D01*
X33552D02*
X34206D01*
X30644Y314860D02*
X31323D01*
X33578D02*
X34234D01*
X30644Y314954D02*
X31323D01*
X33593D02*
X34251D01*
X30644Y315047D02*
X31323D01*
X33596D02*
X34261D01*
X30644Y315141D02*
X31323D01*
X33591D02*
X34264D01*
X30644Y315235D02*
X31323D01*
X33576D02*
X34259D01*
X30644Y315328D02*
X31323D01*
X33551D02*
X34248D01*
X30644Y315422D02*
X31323D01*
X33514D02*
X34228D01*
X30644Y315516D02*
X31323D01*
X33462D02*
X34200D01*
X30644Y315609D02*
X31323D01*
X33380D02*
X34165D01*
X30644Y315703D02*
X31323D01*
X33257D02*
X34123D01*
X30644Y315797D02*
X31323D01*
X32986D02*
X34070D01*
X30644Y315891D02*
X34004D01*
X30644Y315984D02*
X33926D01*
X30644Y316078D02*
X33831D01*
X30644Y316172D02*
X33710D01*
X30644Y316265D02*
X33544D01*
X30644Y316359D02*
X33283D01*
X30644Y321316D02*
Y326441D01*
X32565*
X32710Y326437*
X32846Y326429*
X32976Y326417*
X33096Y326402*
X33210Y326378*
X33315Y326351*
X33417Y326320*
X33507Y326284*
X33593Y326241*
X33675Y326194*
X33753Y326144*
X33823Y326085*
X33890Y326023*
X33952Y325956*
X34011Y325882*
X34065Y325804*
X34112Y325726*
X34151Y325644*
X34187Y325558*
X34214Y325476*
X34237Y325390*
X34253Y325304*
X34261Y325218*
X34265Y325128*
X34261Y325046*
X34253Y324968*
X34241Y324890*
X34222Y324812*
X34194Y324733*
X34163Y324659*
X34128Y324585*
X34085Y324511*
X34038Y324441*
X33987Y324370*
X33929Y324308*
X33862Y324249*
X33792Y324191*
X33718Y324140*
X33636Y324089*
X33546Y324042*
X33659Y324003*
X33769Y323960*
X33866Y323913*
X33960Y323859*
X34046Y323796*
X34124Y323730*
X34198Y323656*
X34265Y323577*
X34323Y323491*
X34374Y323406*
X34417Y323312*
X34452Y323218*
X34480Y323120*
X34499Y323019*
X34511Y322909*
X34515Y322800*
X34511Y322710*
X34507Y322624*
X34495Y322538*
X34476Y322452*
X34456Y322370*
X34429Y322288*
X34397Y322210*
X34362Y322132*
X34323Y322058*
X34280Y321987*
X34237Y321921*
X34194Y321859*
X34144Y321800*
X34093Y321745*
X34042Y321698*
X33987Y321656*
X33866Y321577*
X33733Y321507*
X33589Y321448*
X33425Y321402*
X33339Y321382*
X33249Y321363*
X33151Y321347*
X33050Y321335*
X32944Y321327*
X32835Y321320*
X32718Y321316*
X32596*
X30644*
X31323Y324288D02*
X32429D01*
X32538*
X32640Y324292*
X32733Y324296*
X32815Y324304*
X32894Y324312*
X32964Y324320*
X33022Y324335*
X33077Y324347*
X33140Y324367*
X33198Y324394*
X33253Y324417*
X33304Y324448*
X33350Y324483*
X33394Y324519*
X33433Y324558*
X33468Y324601*
X33495Y324648*
X33522Y324698*
X33546Y324749*
X33565Y324804*
X33577Y324859*
X33589Y324921*
X33596Y324983*
Y325050*
X33589Y325171*
X33565Y325288*
X33526Y325398*
X33476Y325499*
X33405Y325585*
X33327Y325659*
X33233Y325718*
X33124Y325765*
X33065Y325780*
X32991Y325796*
X32909Y325808*
X32815Y325816*
X32714Y325824*
X32600Y325831*
X32480Y325835*
X32346*
X31323*
Y324288*
Y321921D02*
X32600D01*
X32679*
X32753*
X32819Y321925*
X32882*
X32937Y321929*
X32983Y321933*
X33026Y321941*
X33061Y321944*
X33175Y321968*
X33276Y321999*
X33370Y322038*
X33456Y322085*
X33530Y322140*
X33596Y322206*
X33659Y322280*
X33714Y322370*
X33757Y322468*
X33792Y322570*
X33807Y322683*
X33815Y322800*
X33811Y322870*
X33807Y322941*
X33796Y323007*
X33776Y323070*
X33757Y323132*
X33733Y323191*
X33702Y323245*
X33667Y323300*
X33628Y323351*
X33585Y323398*
X33538Y323441*
X33487Y323480*
X33437Y323515*
X33378Y323546*
X33319Y323574*
X33257Y323597*
X33187Y323617*
X33112Y323636*
X33030Y323648*
X32941Y323659*
X32843Y323671*
X32737Y323679*
X32624Y323683*
X32507*
X31323*
Y321921*
X30644Y321393D02*
X33387D01*
X30644Y321487D02*
X33683D01*
X30644Y321580D02*
X33871D01*
X30644Y321674D02*
X34011D01*
X30644Y321768D02*
X34114D01*
X30644Y321861D02*
X34196D01*
X30644Y321955D02*
X31323D01*
X33113D02*
X34259D01*
X30644Y322049D02*
X31323D01*
X33389D02*
X34318D01*
X30644Y322143D02*
X31323D01*
X33533D02*
X34367D01*
X30644Y322236D02*
X31323D01*
X33622D02*
X34408D01*
X30644Y322330D02*
X31323D01*
X33689D02*
X34443D01*
X30644Y322424D02*
X31323D01*
X33737D02*
X34469D01*
X30644Y322517D02*
X31323D01*
X33774D02*
X34491D01*
X30644Y322611D02*
X31323D01*
X33798D02*
X34505D01*
X30644Y322705D02*
X31323D01*
X33809D02*
X34510D01*
X30644Y322798D02*
X31323D01*
X33815D02*
X34515D01*
X30644Y322892D02*
X31323D01*
X33810D02*
X34511D01*
X30644Y322986D02*
X31323D01*
X33800D02*
X34502D01*
X30644Y323080D02*
X31323D01*
X33773D02*
X34487D01*
X30644Y323173D02*
X31323D01*
X33740D02*
X34465D01*
X30644Y323267D02*
X31323D01*
X33688D02*
X34434D01*
X30644Y323361D02*
X31323D01*
X33619D02*
X34394D01*
X30644Y323454D02*
X31323D01*
X33520D02*
X34345D01*
X30644Y323548D02*
X31323D01*
X33374D02*
X34285D01*
X30644Y323642D02*
X31323D01*
X33071D02*
X34210D01*
X30644Y323735D02*
X34117D01*
X30644Y323829D02*
X34000D01*
X30644Y323923D02*
X33846D01*
X30644Y324017D02*
X33620D01*
X30644Y324110D02*
X33670D01*
X30644Y324204D02*
X33808D01*
X30644Y324298D02*
X31323D01*
X32750D02*
X33917D01*
X30644Y324391D02*
X31323D01*
X33193D02*
X34002D01*
X30644Y324485D02*
X31323D01*
X33352D02*
X34068D01*
X30644Y324579D02*
X31323D01*
X33450D02*
X34124D01*
X30644Y324672D02*
X31323D01*
X33509D02*
X34169D01*
X30644Y324766D02*
X31323D01*
X33552D02*
X34206D01*
X30644Y324860D02*
X31323D01*
X33578D02*
X34234D01*
X30644Y324954D02*
X31323D01*
X33593D02*
X34251D01*
X30644Y325047D02*
X31323D01*
X33596D02*
X34261D01*
X30644Y325141D02*
X31323D01*
X33591D02*
X34264D01*
X30644Y325235D02*
X31323D01*
X33576D02*
X34259D01*
X30644Y325328D02*
X31323D01*
X33551D02*
X34248D01*
X30644Y325422D02*
X31323D01*
X33514D02*
X34228D01*
X30644Y325516D02*
X31323D01*
X33462D02*
X34200D01*
X30644Y325609D02*
X31323D01*
X33380D02*
X34165D01*
X30644Y325703D02*
X31323D01*
X33257D02*
X34123D01*
X30644Y325797D02*
X31323D01*
X32986D02*
X34070D01*
X30644Y325891D02*
X34004D01*
X30644Y325984D02*
X33926D01*
X30644Y326078D02*
X33831D01*
X30644Y326172D02*
X33710D01*
X30644Y326265D02*
X33544D01*
X30644Y326359D02*
X33283D01*
X70644Y241316D02*
Y246441D01*
X72565*
X72710Y246437*
X72846Y246429*
X72976Y246417*
X73096Y246402*
X73210Y246378*
X73315Y246351*
X73417Y246320*
X73507Y246284*
X73593Y246241*
X73675Y246194*
X73753Y246144*
X73823Y246085*
X73890Y246023*
X73952Y245956*
X74011Y245882*
X74065Y245804*
X74112Y245726*
X74151Y245644*
X74187Y245558*
X74214Y245476*
X74237Y245390*
X74253Y245304*
X74261Y245218*
X74265Y245128*
X74261Y245046*
X74253Y244968*
X74241Y244890*
X74222Y244812*
X74194Y244733*
X74163Y244659*
X74128Y244585*
X74085Y244511*
X74038Y244441*
X73987Y244370*
X73929Y244308*
X73862Y244249*
X73792Y244191*
X73718Y244140*
X73636Y244089*
X73546Y244042*
X73659Y244003*
X73769Y243960*
X73866Y243913*
X73960Y243859*
X74046Y243796*
X74124Y243730*
X74198Y243656*
X74265Y243577*
X74323Y243491*
X74374Y243406*
X74417Y243312*
X74452Y243218*
X74480Y243120*
X74499Y243019*
X74511Y242909*
X74515Y242800*
X74511Y242710*
X74507Y242624*
X74495Y242538*
X74476Y242452*
X74456Y242370*
X74429Y242288*
X74397Y242210*
X74362Y242132*
X74323Y242058*
X74280Y241987*
X74237Y241921*
X74194Y241859*
X74144Y241800*
X74093Y241745*
X74042Y241698*
X73987Y241656*
X73866Y241577*
X73733Y241507*
X73589Y241448*
X73425Y241402*
X73339Y241382*
X73249Y241363*
X73151Y241347*
X73050Y241335*
X72944Y241327*
X72835Y241320*
X72718Y241316*
X72596*
X70644*
X71323Y244288D02*
X72429D01*
X72538*
X72640Y244292*
X72733Y244296*
X72815Y244304*
X72894Y244312*
X72964Y244320*
X73022Y244335*
X73077Y244347*
X73140Y244367*
X73198Y244394*
X73253Y244417*
X73304Y244448*
X73350Y244483*
X73394Y244519*
X73433Y244558*
X73468Y244601*
X73495Y244648*
X73522Y244698*
X73546Y244749*
X73565Y244804*
X73577Y244859*
X73589Y244921*
X73596Y244983*
Y245050*
X73589Y245171*
X73565Y245288*
X73526Y245398*
X73476Y245499*
X73405Y245585*
X73327Y245659*
X73233Y245718*
X73124Y245765*
X73065Y245780*
X72991Y245796*
X72909Y245808*
X72815Y245816*
X72714Y245824*
X72600Y245831*
X72480Y245835*
X72346*
X71323*
Y244288*
Y241921D02*
X72600D01*
X72679*
X72753*
X72819Y241925*
X72882*
X72937Y241929*
X72983Y241933*
X73026Y241941*
X73061Y241944*
X73175Y241968*
X73276Y241999*
X73370Y242038*
X73456Y242085*
X73530Y242140*
X73596Y242206*
X73659Y242280*
X73714Y242370*
X73757Y242468*
X73792Y242570*
X73807Y242683*
X73815Y242800*
X73811Y242870*
X73807Y242941*
X73796Y243007*
X73776Y243070*
X73757Y243132*
X73733Y243191*
X73702Y243245*
X73667Y243300*
X73628Y243351*
X73585Y243398*
X73538Y243441*
X73487Y243480*
X73437Y243515*
X73378Y243546*
X73319Y243574*
X73257Y243597*
X73187Y243617*
X73112Y243636*
X73030Y243648*
X72941Y243659*
X72843Y243671*
X72737Y243679*
X72624Y243683*
X72507*
X71323*
Y241921*
X70644Y241393D02*
X73387D01*
X70644Y241487D02*
X73683D01*
X70644Y241580D02*
X73871D01*
X70644Y241674D02*
X74011D01*
X70644Y241768D02*
X74114D01*
X70644Y241861D02*
X74196D01*
X70644Y241955D02*
X71323D01*
X73113D02*
X74259D01*
X70644Y242049D02*
X71323D01*
X73389D02*
X74318D01*
X70644Y242143D02*
X71323D01*
X73533D02*
X74367D01*
X70644Y242236D02*
X71323D01*
X73622D02*
X74408D01*
X70644Y242330D02*
X71323D01*
X73689D02*
X74443D01*
X70644Y242424D02*
X71323D01*
X73737D02*
X74469D01*
X70644Y242517D02*
X71323D01*
X73774D02*
X74491D01*
X70644Y242611D02*
X71323D01*
X73798D02*
X74505D01*
X70644Y242705D02*
X71323D01*
X73809D02*
X74510D01*
X70644Y242798D02*
X71323D01*
X73815D02*
X74515D01*
X70644Y242892D02*
X71323D01*
X73810D02*
X74511D01*
X70644Y242986D02*
X71323D01*
X73800D02*
X74502D01*
X70644Y243080D02*
X71323D01*
X73773D02*
X74487D01*
X70644Y243173D02*
X71323D01*
X73740D02*
X74465D01*
X70644Y243267D02*
X71323D01*
X73688D02*
X74434D01*
X70644Y243361D02*
X71323D01*
X73619D02*
X74394D01*
X70644Y243454D02*
X71323D01*
X73520D02*
X74345D01*
X70644Y243548D02*
X71323D01*
X73374D02*
X74285D01*
X70644Y243642D02*
X71323D01*
X73071D02*
X74210D01*
X70644Y243735D02*
X74117D01*
X70644Y243829D02*
X74000D01*
X70644Y243923D02*
X73846D01*
X70644Y244017D02*
X73620D01*
X70644Y244110D02*
X73670D01*
X70644Y244204D02*
X73808D01*
X70644Y244298D02*
X71323D01*
X72750D02*
X73917D01*
X70644Y244391D02*
X71323D01*
X73193D02*
X74002D01*
X70644Y244485D02*
X71323D01*
X73352D02*
X74068D01*
X70644Y244579D02*
X71323D01*
X73450D02*
X74124D01*
X70644Y244672D02*
X71323D01*
X73509D02*
X74169D01*
X70644Y244766D02*
X71323D01*
X73552D02*
X74206D01*
X70644Y244860D02*
X71323D01*
X73578D02*
X74234D01*
X70644Y244954D02*
X71323D01*
X73593D02*
X74251D01*
X70644Y245047D02*
X71323D01*
X73596D02*
X74261D01*
X70644Y245141D02*
X71323D01*
X73591D02*
X74264D01*
X70644Y245235D02*
X71323D01*
X73576D02*
X74259D01*
X70644Y245328D02*
X71323D01*
X73551D02*
X74248D01*
X70644Y245422D02*
X71323D01*
X73514D02*
X74228D01*
X70644Y245516D02*
X71323D01*
X73462D02*
X74200D01*
X70644Y245609D02*
X71323D01*
X73380D02*
X74165D01*
X70644Y245703D02*
X71323D01*
X73257D02*
X74123D01*
X70644Y245797D02*
X71323D01*
X72986D02*
X74070D01*
X70644Y245891D02*
X74004D01*
X70644Y245984D02*
X73926D01*
X70644Y246078D02*
X73831D01*
X70644Y246172D02*
X73710D01*
X70644Y246265D02*
X73544D01*
X70644Y246359D02*
X73283D01*
X70644Y251316D02*
Y256441D01*
X72565*
X72710Y256437*
X72846Y256429*
X72976Y256417*
X73096Y256402*
X73210Y256378*
X73315Y256351*
X73417Y256320*
X73507Y256284*
X73593Y256241*
X73675Y256194*
X73753Y256144*
X73823Y256085*
X73890Y256023*
X73952Y255956*
X74011Y255882*
X74065Y255804*
X74112Y255726*
X74151Y255644*
X74187Y255558*
X74214Y255476*
X74237Y255390*
X74253Y255304*
X74261Y255218*
X74265Y255128*
X74261Y255046*
X74253Y254968*
X74241Y254890*
X74222Y254812*
X74194Y254733*
X74163Y254659*
X74128Y254585*
X74085Y254511*
X74038Y254441*
X73987Y254370*
X73929Y254308*
X73862Y254249*
X73792Y254191*
X73718Y254140*
X73636Y254089*
X73546Y254042*
X73659Y254003*
X73769Y253960*
X73866Y253913*
X73960Y253859*
X74046Y253796*
X74124Y253730*
X74198Y253656*
X74265Y253577*
X74323Y253491*
X74374Y253406*
X74417Y253312*
X74452Y253218*
X74480Y253120*
X74499Y253019*
X74511Y252909*
X74515Y252800*
X74511Y252710*
X74507Y252624*
X74495Y252538*
X74476Y252452*
X74456Y252370*
X74429Y252288*
X74397Y252210*
X74362Y252132*
X74323Y252058*
X74280Y251987*
X74237Y251921*
X74194Y251859*
X74144Y251800*
X74093Y251745*
X74042Y251698*
X73987Y251656*
X73866Y251577*
X73733Y251507*
X73589Y251448*
X73425Y251402*
X73339Y251382*
X73249Y251363*
X73151Y251347*
X73050Y251335*
X72944Y251327*
X72835Y251320*
X72718Y251316*
X72596*
X70644*
X71323Y254288D02*
X72429D01*
X72538*
X72640Y254292*
X72733Y254296*
X72815Y254304*
X72894Y254312*
X72964Y254320*
X73022Y254335*
X73077Y254347*
X73140Y254367*
X73198Y254394*
X73253Y254417*
X73304Y254448*
X73350Y254483*
X73394Y254519*
X73433Y254558*
X73468Y254601*
X73495Y254648*
X73522Y254698*
X73546Y254749*
X73565Y254804*
X73577Y254859*
X73589Y254921*
X73596Y254983*
Y255050*
X73589Y255171*
X73565Y255288*
X73526Y255398*
X73476Y255499*
X73405Y255585*
X73327Y255659*
X73233Y255718*
X73124Y255765*
X73065Y255780*
X72991Y255796*
X72909Y255808*
X72815Y255816*
X72714Y255824*
X72600Y255831*
X72480Y255835*
X72346*
X71323*
Y254288*
Y251921D02*
X72600D01*
X72679*
X72753*
X72819Y251925*
X72882*
X72937Y251929*
X72983Y251933*
X73026Y251941*
X73061Y251944*
X73175Y251968*
X73276Y251999*
X73370Y252038*
X73456Y252085*
X73530Y252140*
X73596Y252206*
X73659Y252280*
X73714Y252370*
X73757Y252468*
X73792Y252570*
X73807Y252683*
X73815Y252800*
X73811Y252870*
X73807Y252941*
X73796Y253007*
X73776Y253070*
X73757Y253132*
X73733Y253191*
X73702Y253245*
X73667Y253300*
X73628Y253351*
X73585Y253398*
X73538Y253441*
X73487Y253480*
X73437Y253515*
X73378Y253546*
X73319Y253574*
X73257Y253597*
X73187Y253617*
X73112Y253636*
X73030Y253648*
X72941Y253659*
X72843Y253671*
X72737Y253679*
X72624Y253683*
X72507*
X71323*
Y251921*
X70644Y251393D02*
X73387D01*
X70644Y251487D02*
X73683D01*
X70644Y251580D02*
X73871D01*
X70644Y251674D02*
X74011D01*
X70644Y251768D02*
X74114D01*
X70644Y251861D02*
X74196D01*
X70644Y251955D02*
X71323D01*
X73113D02*
X74259D01*
X70644Y252049D02*
X71323D01*
X73389D02*
X74318D01*
X70644Y252143D02*
X71323D01*
X73533D02*
X74367D01*
X70644Y252236D02*
X71323D01*
X73622D02*
X74408D01*
X70644Y252330D02*
X71323D01*
X73689D02*
X74443D01*
X70644Y252424D02*
X71323D01*
X73737D02*
X74469D01*
X70644Y252517D02*
X71323D01*
X73774D02*
X74491D01*
X70644Y252611D02*
X71323D01*
X73798D02*
X74505D01*
X70644Y252705D02*
X71323D01*
X73809D02*
X74510D01*
X70644Y252798D02*
X71323D01*
X73815D02*
X74515D01*
X70644Y252892D02*
X71323D01*
X73810D02*
X74511D01*
X70644Y252986D02*
X71323D01*
X73800D02*
X74502D01*
X70644Y253080D02*
X71323D01*
X73773D02*
X74487D01*
X70644Y253173D02*
X71323D01*
X73740D02*
X74465D01*
X70644Y253267D02*
X71323D01*
X73688D02*
X74434D01*
X70644Y253361D02*
X71323D01*
X73619D02*
X74394D01*
X70644Y253454D02*
X71323D01*
X73520D02*
X74345D01*
X70644Y253548D02*
X71323D01*
X73374D02*
X74285D01*
X70644Y253642D02*
X71323D01*
X73071D02*
X74210D01*
X70644Y253735D02*
X74117D01*
X70644Y253829D02*
X74000D01*
X70644Y253923D02*
X73846D01*
X70644Y254017D02*
X73620D01*
X70644Y254110D02*
X73670D01*
X70644Y254204D02*
X73808D01*
X70644Y254298D02*
X71323D01*
X72750D02*
X73917D01*
X70644Y254391D02*
X71323D01*
X73193D02*
X74002D01*
X70644Y254485D02*
X71323D01*
X73352D02*
X74068D01*
X70644Y254579D02*
X71323D01*
X73450D02*
X74124D01*
X70644Y254672D02*
X71323D01*
X73509D02*
X74169D01*
X70644Y254766D02*
X71323D01*
X73552D02*
X74206D01*
X70644Y254860D02*
X71323D01*
X73578D02*
X74234D01*
X70644Y254954D02*
X71323D01*
X73593D02*
X74251D01*
X70644Y255047D02*
X71323D01*
X73596D02*
X74261D01*
X70644Y255141D02*
X71323D01*
X73591D02*
X74264D01*
X70644Y255235D02*
X71323D01*
X73576D02*
X74259D01*
X70644Y255328D02*
X71323D01*
X73551D02*
X74248D01*
X70644Y255422D02*
X71323D01*
X73514D02*
X74228D01*
X70644Y255516D02*
X71323D01*
X73462D02*
X74200D01*
X70644Y255609D02*
X71323D01*
X73380D02*
X74165D01*
X70644Y255703D02*
X71323D01*
X73257D02*
X74123D01*
X70644Y255797D02*
X71323D01*
X72986D02*
X74070D01*
X70644Y255891D02*
X74004D01*
X70644Y255984D02*
X73926D01*
X70644Y256078D02*
X73831D01*
X70644Y256172D02*
X73710D01*
X70644Y256265D02*
X73544D01*
X70644Y256359D02*
X73283D01*
X70644Y276316D02*
Y281441D01*
X72565*
X72710Y281437*
X72846Y281429*
X72976Y281417*
X73096Y281402*
X73210Y281378*
X73315Y281351*
X73417Y281320*
X73507Y281284*
X73593Y281241*
X73675Y281194*
X73753Y281144*
X73823Y281085*
X73890Y281023*
X73952Y280956*
X74011Y280882*
X74065Y280804*
X74112Y280726*
X74151Y280644*
X74187Y280558*
X74214Y280476*
X74237Y280390*
X74253Y280304*
X74261Y280218*
X74265Y280128*
X74261Y280046*
X74253Y279968*
X74241Y279890*
X74222Y279812*
X74194Y279733*
X74163Y279659*
X74128Y279585*
X74085Y279511*
X74038Y279441*
X73987Y279370*
X73929Y279308*
X73862Y279249*
X73792Y279191*
X73718Y279140*
X73636Y279089*
X73546Y279042*
X73659Y279003*
X73769Y278960*
X73866Y278913*
X73960Y278859*
X74046Y278796*
X74124Y278730*
X74198Y278656*
X74265Y278577*
X74323Y278491*
X74374Y278406*
X74417Y278312*
X74452Y278218*
X74480Y278120*
X74499Y278019*
X74511Y277909*
X74515Y277800*
X74511Y277710*
X74507Y277624*
X74495Y277538*
X74476Y277452*
X74456Y277370*
X74429Y277288*
X74397Y277210*
X74362Y277132*
X74323Y277058*
X74280Y276987*
X74237Y276921*
X74194Y276859*
X74144Y276800*
X74093Y276745*
X74042Y276698*
X73987Y276656*
X73866Y276577*
X73733Y276507*
X73589Y276448*
X73425Y276402*
X73339Y276382*
X73249Y276363*
X73151Y276347*
X73050Y276335*
X72944Y276327*
X72835Y276320*
X72718Y276316*
X72596*
X70644*
X71323Y279288D02*
X72429D01*
X72538*
X72640Y279292*
X72733Y279296*
X72815Y279304*
X72894Y279312*
X72964Y279320*
X73022Y279335*
X73077Y279347*
X73140Y279367*
X73198Y279394*
X73253Y279417*
X73304Y279448*
X73350Y279483*
X73394Y279519*
X73433Y279558*
X73468Y279601*
X73495Y279648*
X73522Y279698*
X73546Y279749*
X73565Y279804*
X73577Y279859*
X73589Y279921*
X73596Y279983*
Y280050*
X73589Y280171*
X73565Y280288*
X73526Y280398*
X73476Y280499*
X73405Y280585*
X73327Y280659*
X73233Y280718*
X73124Y280765*
X73065Y280780*
X72991Y280796*
X72909Y280808*
X72815Y280816*
X72714Y280824*
X72600Y280831*
X72480Y280835*
X72346*
X71323*
Y279288*
Y276921D02*
X72600D01*
X72679*
X72753*
X72819Y276925*
X72882*
X72937Y276929*
X72983Y276933*
X73026Y276941*
X73061Y276944*
X73175Y276968*
X73276Y276999*
X73370Y277038*
X73456Y277085*
X73530Y277140*
X73596Y277206*
X73659Y277280*
X73714Y277370*
X73757Y277468*
X73792Y277570*
X73807Y277683*
X73815Y277800*
X73811Y277870*
X73807Y277941*
X73796Y278007*
X73776Y278070*
X73757Y278132*
X73733Y278191*
X73702Y278245*
X73667Y278300*
X73628Y278351*
X73585Y278398*
X73538Y278441*
X73487Y278480*
X73437Y278515*
X73378Y278546*
X73319Y278574*
X73257Y278597*
X73187Y278617*
X73112Y278636*
X73030Y278648*
X72941Y278659*
X72843Y278671*
X72737Y278679*
X72624Y278683*
X72507*
X71323*
Y276921*
X70644Y276393D02*
X73387D01*
X70644Y276487D02*
X73683D01*
X70644Y276580D02*
X73871D01*
X70644Y276674D02*
X74011D01*
X70644Y276768D02*
X74114D01*
X70644Y276861D02*
X74196D01*
X70644Y276955D02*
X71323D01*
X73113D02*
X74259D01*
X70644Y277049D02*
X71323D01*
X73389D02*
X74318D01*
X70644Y277143D02*
X71323D01*
X73533D02*
X74367D01*
X70644Y277236D02*
X71323D01*
X73622D02*
X74408D01*
X70644Y277330D02*
X71323D01*
X73689D02*
X74443D01*
X70644Y277424D02*
X71323D01*
X73737D02*
X74469D01*
X70644Y277517D02*
X71323D01*
X73774D02*
X74491D01*
X70644Y277611D02*
X71323D01*
X73798D02*
X74505D01*
X70644Y277705D02*
X71323D01*
X73809D02*
X74510D01*
X70644Y277798D02*
X71323D01*
X73815D02*
X74515D01*
X70644Y277892D02*
X71323D01*
X73810D02*
X74511D01*
X70644Y277986D02*
X71323D01*
X73800D02*
X74502D01*
X70644Y278080D02*
X71323D01*
X73773D02*
X74487D01*
X70644Y278173D02*
X71323D01*
X73740D02*
X74465D01*
X70644Y278267D02*
X71323D01*
X73688D02*
X74434D01*
X70644Y278361D02*
X71323D01*
X73619D02*
X74394D01*
X70644Y278454D02*
X71323D01*
X73520D02*
X74345D01*
X70644Y278548D02*
X71323D01*
X73374D02*
X74285D01*
X70644Y278642D02*
X71323D01*
X73071D02*
X74210D01*
X70644Y278735D02*
X74117D01*
X70644Y278829D02*
X74000D01*
X70644Y278923D02*
X73846D01*
X70644Y279017D02*
X73620D01*
X70644Y279110D02*
X73670D01*
X70644Y279204D02*
X73808D01*
X70644Y279298D02*
X71323D01*
X72750D02*
X73917D01*
X70644Y279391D02*
X71323D01*
X73193D02*
X74002D01*
X70644Y279485D02*
X71323D01*
X73352D02*
X74068D01*
X70644Y279579D02*
X71323D01*
X73450D02*
X74124D01*
X70644Y279672D02*
X71323D01*
X73509D02*
X74169D01*
X70644Y279766D02*
X71323D01*
X73552D02*
X74206D01*
X70644Y279860D02*
X71323D01*
X73578D02*
X74234D01*
X70644Y279954D02*
X71323D01*
X73593D02*
X74251D01*
X70644Y280047D02*
X71323D01*
X73596D02*
X74261D01*
X70644Y280141D02*
X71323D01*
X73591D02*
X74264D01*
X70644Y280235D02*
X71323D01*
X73576D02*
X74259D01*
X70644Y280328D02*
X71323D01*
X73551D02*
X74248D01*
X70644Y280422D02*
X71323D01*
X73514D02*
X74228D01*
X70644Y280516D02*
X71323D01*
X73462D02*
X74200D01*
X70644Y280609D02*
X71323D01*
X73380D02*
X74165D01*
X70644Y280703D02*
X71323D01*
X73257D02*
X74123D01*
X70644Y280797D02*
X71323D01*
X72986D02*
X74070D01*
X70644Y280891D02*
X74004D01*
X70644Y280984D02*
X73926D01*
X70644Y281078D02*
X73831D01*
X70644Y281172D02*
X73710D01*
X70644Y281265D02*
X73544D01*
X70644Y281359D02*
X73283D01*
X70644Y286316D02*
Y291441D01*
X72565*
X72710Y291437*
X72846Y291429*
X72976Y291417*
X73096Y291402*
X73210Y291378*
X73315Y291351*
X73417Y291320*
X73507Y291284*
X73593Y291241*
X73675Y291194*
X73753Y291144*
X73823Y291085*
X73890Y291023*
X73952Y290956*
X74011Y290882*
X74065Y290804*
X74112Y290726*
X74151Y290644*
X74187Y290558*
X74214Y290476*
X74237Y290390*
X74253Y290304*
X74261Y290218*
X74265Y290128*
X74261Y290046*
X74253Y289968*
X74241Y289890*
X74222Y289812*
X74194Y289733*
X74163Y289659*
X74128Y289585*
X74085Y289511*
X74038Y289441*
X73987Y289370*
X73929Y289308*
X73862Y289249*
X73792Y289191*
X73718Y289140*
X73636Y289089*
X73546Y289042*
X73659Y289003*
X73769Y288960*
X73866Y288913*
X73960Y288859*
X74046Y288796*
X74124Y288730*
X74198Y288656*
X74265Y288577*
X74323Y288491*
X74374Y288406*
X74417Y288312*
X74452Y288218*
X74480Y288120*
X74499Y288019*
X74511Y287909*
X74515Y287800*
X74511Y287710*
X74507Y287624*
X74495Y287538*
X74476Y287452*
X74456Y287370*
X74429Y287288*
X74397Y287210*
X74362Y287132*
X74323Y287058*
X74280Y286987*
X74237Y286921*
X74194Y286859*
X74144Y286800*
X74093Y286745*
X74042Y286698*
X73987Y286656*
X73866Y286577*
X73733Y286507*
X73589Y286448*
X73425Y286402*
X73339Y286382*
X73249Y286363*
X73151Y286347*
X73050Y286335*
X72944Y286327*
X72835Y286320*
X72718Y286316*
X72596*
X70644*
X71323Y289288D02*
X72429D01*
X72538*
X72640Y289292*
X72733Y289296*
X72815Y289304*
X72894Y289312*
X72964Y289320*
X73022Y289335*
X73077Y289347*
X73140Y289367*
X73198Y289394*
X73253Y289417*
X73304Y289448*
X73350Y289483*
X73394Y289519*
X73433Y289558*
X73468Y289601*
X73495Y289648*
X73522Y289698*
X73546Y289749*
X73565Y289804*
X73577Y289859*
X73589Y289921*
X73596Y289983*
Y290050*
X73589Y290171*
X73565Y290288*
X73526Y290398*
X73476Y290499*
X73405Y290585*
X73327Y290659*
X73233Y290718*
X73124Y290765*
X73065Y290780*
X72991Y290796*
X72909Y290808*
X72815Y290816*
X72714Y290824*
X72600Y290831*
X72480Y290835*
X72346*
X71323*
Y289288*
Y286921D02*
X72600D01*
X72679*
X72753*
X72819Y286925*
X72882*
X72937Y286929*
X72983Y286933*
X73026Y286941*
X73061Y286944*
X73175Y286968*
X73276Y286999*
X73370Y287038*
X73456Y287085*
X73530Y287140*
X73596Y287206*
X73659Y287280*
X73714Y287370*
X73757Y287468*
X73792Y287570*
X73807Y287683*
X73815Y287800*
X73811Y287870*
X73807Y287941*
X73796Y288007*
X73776Y288070*
X73757Y288132*
X73733Y288191*
X73702Y288245*
X73667Y288300*
X73628Y288351*
X73585Y288398*
X73538Y288441*
X73487Y288480*
X73437Y288515*
X73378Y288546*
X73319Y288574*
X73257Y288597*
X73187Y288617*
X73112Y288636*
X73030Y288648*
X72941Y288659*
X72843Y288671*
X72737Y288679*
X72624Y288683*
X72507*
X71323*
Y286921*
X70644Y286393D02*
X73387D01*
X70644Y286487D02*
X73683D01*
X70644Y286580D02*
X73871D01*
X70644Y286674D02*
X74011D01*
X70644Y286768D02*
X74114D01*
X70644Y286861D02*
X74196D01*
X70644Y286955D02*
X71323D01*
X73113D02*
X74259D01*
X70644Y287049D02*
X71323D01*
X73389D02*
X74318D01*
X70644Y287143D02*
X71323D01*
X73533D02*
X74367D01*
X70644Y287236D02*
X71323D01*
X73622D02*
X74408D01*
X70644Y287330D02*
X71323D01*
X73689D02*
X74443D01*
X70644Y287424D02*
X71323D01*
X73737D02*
X74469D01*
X70644Y287517D02*
X71323D01*
X73774D02*
X74491D01*
X70644Y287611D02*
X71323D01*
X73798D02*
X74505D01*
X70644Y287705D02*
X71323D01*
X73809D02*
X74510D01*
X70644Y287798D02*
X71323D01*
X73815D02*
X74515D01*
X70644Y287892D02*
X71323D01*
X73810D02*
X74511D01*
X70644Y287986D02*
X71323D01*
X73800D02*
X74502D01*
X70644Y288080D02*
X71323D01*
X73773D02*
X74487D01*
X70644Y288173D02*
X71323D01*
X73740D02*
X74465D01*
X70644Y288267D02*
X71323D01*
X73688D02*
X74434D01*
X70644Y288361D02*
X71323D01*
X73619D02*
X74394D01*
X70644Y288454D02*
X71323D01*
X73520D02*
X74345D01*
X70644Y288548D02*
X71323D01*
X73374D02*
X74285D01*
X70644Y288642D02*
X71323D01*
X73071D02*
X74210D01*
X70644Y288735D02*
X74117D01*
X70644Y288829D02*
X74000D01*
X70644Y288923D02*
X73846D01*
X70644Y289017D02*
X73620D01*
X70644Y289110D02*
X73670D01*
X70644Y289204D02*
X73808D01*
X70644Y289298D02*
X71323D01*
X72750D02*
X73917D01*
X70644Y289391D02*
X71323D01*
X73193D02*
X74002D01*
X70644Y289485D02*
X71323D01*
X73352D02*
X74068D01*
X70644Y289579D02*
X71323D01*
X73450D02*
X74124D01*
X70644Y289672D02*
X71323D01*
X73509D02*
X74169D01*
X70644Y289766D02*
X71323D01*
X73552D02*
X74206D01*
X70644Y289860D02*
X71323D01*
X73578D02*
X74234D01*
X70644Y289954D02*
X71323D01*
X73593D02*
X74251D01*
X70644Y290047D02*
X71323D01*
X73596D02*
X74261D01*
X70644Y290141D02*
X71323D01*
X73591D02*
X74264D01*
X70644Y290235D02*
X71323D01*
X73576D02*
X74259D01*
X70644Y290328D02*
X71323D01*
X73551D02*
X74248D01*
X70644Y290422D02*
X71323D01*
X73514D02*
X74228D01*
X70644Y290516D02*
X71323D01*
X73462D02*
X74200D01*
X70644Y290609D02*
X71323D01*
X73380D02*
X74165D01*
X70644Y290703D02*
X71323D01*
X73257D02*
X74123D01*
X70644Y290797D02*
X71323D01*
X72986D02*
X74070D01*
X70644Y290891D02*
X74004D01*
X70644Y290984D02*
X73926D01*
X70644Y291078D02*
X73831D01*
X70644Y291172D02*
X73710D01*
X70644Y291265D02*
X73544D01*
X70644Y291359D02*
X73283D01*
X70644Y311316D02*
Y316441D01*
X72565*
X72710Y316437*
X72846Y316429*
X72976Y316417*
X73096Y316402*
X73210Y316378*
X73315Y316351*
X73417Y316320*
X73507Y316284*
X73593Y316241*
X73675Y316194*
X73753Y316144*
X73823Y316085*
X73890Y316023*
X73952Y315956*
X74011Y315882*
X74065Y315804*
X74112Y315726*
X74151Y315644*
X74187Y315558*
X74214Y315476*
X74237Y315390*
X74253Y315304*
X74261Y315218*
X74265Y315128*
X74261Y315046*
X74253Y314968*
X74241Y314890*
X74222Y314812*
X74194Y314733*
X74163Y314659*
X74128Y314585*
X74085Y314511*
X74038Y314441*
X73987Y314370*
X73929Y314308*
X73862Y314249*
X73792Y314191*
X73718Y314140*
X73636Y314089*
X73546Y314042*
X73659Y314003*
X73769Y313960*
X73866Y313913*
X73960Y313859*
X74046Y313796*
X74124Y313730*
X74198Y313656*
X74265Y313577*
X74323Y313491*
X74374Y313406*
X74417Y313312*
X74452Y313218*
X74480Y313120*
X74499Y313019*
X74511Y312909*
X74515Y312800*
X74511Y312710*
X74507Y312624*
X74495Y312538*
X74476Y312452*
X74456Y312370*
X74429Y312288*
X74397Y312210*
X74362Y312132*
X74323Y312058*
X74280Y311987*
X74237Y311921*
X74194Y311859*
X74144Y311800*
X74093Y311745*
X74042Y311698*
X73987Y311656*
X73866Y311577*
X73733Y311507*
X73589Y311448*
X73425Y311402*
X73339Y311382*
X73249Y311363*
X73151Y311347*
X73050Y311335*
X72944Y311327*
X72835Y311320*
X72718Y311316*
X72596*
X70644*
X71323Y314288D02*
X72429D01*
X72538*
X72640Y314292*
X72733Y314296*
X72815Y314304*
X72894Y314312*
X72964Y314320*
X73022Y314335*
X73077Y314347*
X73140Y314367*
X73198Y314394*
X73253Y314417*
X73304Y314448*
X73350Y314483*
X73394Y314519*
X73433Y314558*
X73468Y314601*
X73495Y314648*
X73522Y314698*
X73546Y314749*
X73565Y314804*
X73577Y314859*
X73589Y314921*
X73596Y314983*
Y315050*
X73589Y315171*
X73565Y315288*
X73526Y315398*
X73476Y315499*
X73405Y315585*
X73327Y315659*
X73233Y315718*
X73124Y315765*
X73065Y315780*
X72991Y315796*
X72909Y315808*
X72815Y315816*
X72714Y315824*
X72600Y315831*
X72480Y315835*
X72346*
X71323*
Y314288*
Y311921D02*
X72600D01*
X72679*
X72753*
X72819Y311925*
X72882*
X72937Y311929*
X72983Y311933*
X73026Y311941*
X73061Y311944*
X73175Y311968*
X73276Y311999*
X73370Y312038*
X73456Y312085*
X73530Y312140*
X73596Y312206*
X73659Y312280*
X73714Y312370*
X73757Y312468*
X73792Y312570*
X73807Y312683*
X73815Y312800*
X73811Y312870*
X73807Y312941*
X73796Y313007*
X73776Y313070*
X73757Y313132*
X73733Y313191*
X73702Y313245*
X73667Y313300*
X73628Y313351*
X73585Y313398*
X73538Y313441*
X73487Y313480*
X73437Y313515*
X73378Y313546*
X73319Y313574*
X73257Y313597*
X73187Y313617*
X73112Y313636*
X73030Y313648*
X72941Y313659*
X72843Y313671*
X72737Y313679*
X72624Y313683*
X72507*
X71323*
Y311921*
X70644Y311393D02*
X73387D01*
X70644Y311487D02*
X73683D01*
X70644Y311580D02*
X73871D01*
X70644Y311674D02*
X74011D01*
X70644Y311768D02*
X74114D01*
X70644Y311861D02*
X74196D01*
X70644Y311955D02*
X71323D01*
X73113D02*
X74259D01*
X70644Y312049D02*
X71323D01*
X73389D02*
X74318D01*
X70644Y312143D02*
X71323D01*
X73533D02*
X74367D01*
X70644Y312236D02*
X71323D01*
X73622D02*
X74408D01*
X70644Y312330D02*
X71323D01*
X73689D02*
X74443D01*
X70644Y312424D02*
X71323D01*
X73737D02*
X74469D01*
X70644Y312517D02*
X71323D01*
X73774D02*
X74491D01*
X70644Y312611D02*
X71323D01*
X73798D02*
X74505D01*
X70644Y312705D02*
X71323D01*
X73809D02*
X74510D01*
X70644Y312798D02*
X71323D01*
X73815D02*
X74515D01*
X70644Y312892D02*
X71323D01*
X73810D02*
X74511D01*
X70644Y312986D02*
X71323D01*
X73800D02*
X74502D01*
X70644Y313080D02*
X71323D01*
X73773D02*
X74487D01*
X70644Y313173D02*
X71323D01*
X73740D02*
X74465D01*
X70644Y313267D02*
X71323D01*
X73688D02*
X74434D01*
X70644Y313361D02*
X71323D01*
X73619D02*
X74394D01*
X70644Y313454D02*
X71323D01*
X73520D02*
X74345D01*
X70644Y313548D02*
X71323D01*
X73374D02*
X74285D01*
X70644Y313642D02*
X71323D01*
X73071D02*
X74210D01*
X70644Y313735D02*
X74117D01*
X70644Y313829D02*
X74000D01*
X70644Y313923D02*
X73846D01*
X70644Y314017D02*
X73620D01*
X70644Y314110D02*
X73670D01*
X70644Y314204D02*
X73808D01*
X70644Y314298D02*
X71323D01*
X72750D02*
X73917D01*
X70644Y314391D02*
X71323D01*
X73193D02*
X74002D01*
X70644Y314485D02*
X71323D01*
X73352D02*
X74068D01*
X70644Y314579D02*
X71323D01*
X73450D02*
X74124D01*
X70644Y314672D02*
X71323D01*
X73509D02*
X74169D01*
X70644Y314766D02*
X71323D01*
X73552D02*
X74206D01*
X70644Y314860D02*
X71323D01*
X73578D02*
X74234D01*
X70644Y314954D02*
X71323D01*
X73593D02*
X74251D01*
X70644Y315047D02*
X71323D01*
X73596D02*
X74261D01*
X70644Y315141D02*
X71323D01*
X73591D02*
X74264D01*
X70644Y315235D02*
X71323D01*
X73576D02*
X74259D01*
X70644Y315328D02*
X71323D01*
X73551D02*
X74248D01*
X70644Y315422D02*
X71323D01*
X73514D02*
X74228D01*
X70644Y315516D02*
X71323D01*
X73462D02*
X74200D01*
X70644Y315609D02*
X71323D01*
X73380D02*
X74165D01*
X70644Y315703D02*
X71323D01*
X73257D02*
X74123D01*
X70644Y315797D02*
X71323D01*
X72986D02*
X74070D01*
X70644Y315891D02*
X74004D01*
X70644Y315984D02*
X73926D01*
X70644Y316078D02*
X73831D01*
X70644Y316172D02*
X73710D01*
X70644Y316265D02*
X73544D01*
X70644Y316359D02*
X73283D01*
X70644Y321316D02*
Y326441D01*
X72565*
X72710Y326437*
X72846Y326429*
X72976Y326417*
X73096Y326402*
X73210Y326378*
X73315Y326351*
X73417Y326320*
X73507Y326284*
X73593Y326241*
X73675Y326194*
X73753Y326144*
X73823Y326085*
X73890Y326023*
X73952Y325956*
X74011Y325882*
X74065Y325804*
X74112Y325726*
X74151Y325644*
X74187Y325558*
X74214Y325476*
X74237Y325390*
X74253Y325304*
X74261Y325218*
X74265Y325128*
X74261Y325046*
X74253Y324968*
X74241Y324890*
X74222Y324812*
X74194Y324733*
X74163Y324659*
X74128Y324585*
X74085Y324511*
X74038Y324441*
X73987Y324370*
X73929Y324308*
X73862Y324249*
X73792Y324191*
X73718Y324140*
X73636Y324089*
X73546Y324042*
X73659Y324003*
X73769Y323960*
X73866Y323913*
X73960Y323859*
X74046Y323796*
X74124Y323730*
X74198Y323656*
X74265Y323577*
X74323Y323491*
X74374Y323406*
X74417Y323312*
X74452Y323218*
X74480Y323120*
X74499Y323019*
X74511Y322909*
X74515Y322800*
X74511Y322710*
X74507Y322624*
X74495Y322538*
X74476Y322452*
X74456Y322370*
X74429Y322288*
X74397Y322210*
X74362Y322132*
X74323Y322058*
X74280Y321987*
X74237Y321921*
X74194Y321859*
X74144Y321800*
X74093Y321745*
X74042Y321698*
X73987Y321656*
X73866Y321577*
X73733Y321507*
X73589Y321448*
X73425Y321402*
X73339Y321382*
X73249Y321363*
X73151Y321347*
X73050Y321335*
X72944Y321327*
X72835Y321320*
X72718Y321316*
X72596*
X70644*
X71323Y324288D02*
X72429D01*
X72538*
X72640Y324292*
X72733Y324296*
X72815Y324304*
X72894Y324312*
X72964Y324320*
X73022Y324335*
X73077Y324347*
X73140Y324367*
X73198Y324394*
X73253Y324417*
X73304Y324448*
X73350Y324483*
X73394Y324519*
X73433Y324558*
X73468Y324601*
X73495Y324648*
X73522Y324698*
X73546Y324749*
X73565Y324804*
X73577Y324859*
X73589Y324921*
X73596Y324983*
Y325050*
X73589Y325171*
X73565Y325288*
X73526Y325398*
X73476Y325499*
X73405Y325585*
X73327Y325659*
X73233Y325718*
X73124Y325765*
X73065Y325780*
X72991Y325796*
X72909Y325808*
X72815Y325816*
X72714Y325824*
X72600Y325831*
X72480Y325835*
X72346*
X71323*
Y324288*
Y321921D02*
X72600D01*
X72679*
X72753*
X72819Y321925*
X72882*
X72937Y321929*
X72983Y321933*
X73026Y321941*
X73061Y321944*
X73175Y321968*
X73276Y321999*
X73370Y322038*
X73456Y322085*
X73530Y322140*
X73596Y322206*
X73659Y322280*
X73714Y322370*
X73757Y322468*
X73792Y322570*
X73807Y322683*
X73815Y322800*
X73811Y322870*
X73807Y322941*
X73796Y323007*
X73776Y323070*
X73757Y323132*
X73733Y323191*
X73702Y323245*
X73667Y323300*
X73628Y323351*
X73585Y323398*
X73538Y323441*
X73487Y323480*
X73437Y323515*
X73378Y323546*
X73319Y323574*
X73257Y323597*
X73187Y323617*
X73112Y323636*
X73030Y323648*
X72941Y323659*
X72843Y323671*
X72737Y323679*
X72624Y323683*
X72507*
X71323*
Y321921*
X70644Y321393D02*
X73387D01*
X70644Y321487D02*
X73683D01*
X70644Y321580D02*
X73871D01*
X70644Y321674D02*
X74011D01*
X70644Y321768D02*
X74114D01*
X70644Y321861D02*
X74196D01*
X70644Y321955D02*
X71323D01*
X73113D02*
X74259D01*
X70644Y322049D02*
X71323D01*
X73389D02*
X74318D01*
X70644Y322143D02*
X71323D01*
X73533D02*
X74367D01*
X70644Y322236D02*
X71323D01*
X73622D02*
X74408D01*
X70644Y322330D02*
X71323D01*
X73689D02*
X74443D01*
X70644Y322424D02*
X71323D01*
X73737D02*
X74469D01*
X70644Y322517D02*
X71323D01*
X73774D02*
X74491D01*
X70644Y322611D02*
X71323D01*
X73798D02*
X74505D01*
X70644Y322705D02*
X71323D01*
X73809D02*
X74510D01*
X70644Y322798D02*
X71323D01*
X73815D02*
X74515D01*
X70644Y322892D02*
X71323D01*
X73810D02*
X74511D01*
X70644Y322986D02*
X71323D01*
X73800D02*
X74502D01*
X70644Y323080D02*
X71323D01*
X73773D02*
X74487D01*
X70644Y323173D02*
X71323D01*
X73740D02*
X74465D01*
X70644Y323267D02*
X71323D01*
X73688D02*
X74434D01*
X70644Y323361D02*
X71323D01*
X73619D02*
X74394D01*
X70644Y323454D02*
X71323D01*
X73520D02*
X74345D01*
X70644Y323548D02*
X71323D01*
X73374D02*
X74285D01*
X70644Y323642D02*
X71323D01*
X73071D02*
X74210D01*
X70644Y323735D02*
X74117D01*
X70644Y323829D02*
X74000D01*
X70644Y323923D02*
X73846D01*
X70644Y324017D02*
X73620D01*
X70644Y324110D02*
X73670D01*
X70644Y324204D02*
X73808D01*
X70644Y324298D02*
X71323D01*
X72750D02*
X73917D01*
X70644Y324391D02*
X71323D01*
X73193D02*
X74002D01*
X70644Y324485D02*
X71323D01*
X73352D02*
X74068D01*
X70644Y324579D02*
X71323D01*
X73450D02*
X74124D01*
X70644Y324672D02*
X71323D01*
X73509D02*
X74169D01*
X70644Y324766D02*
X71323D01*
X73552D02*
X74206D01*
X70644Y324860D02*
X71323D01*
X73578D02*
X74234D01*
X70644Y324954D02*
X71323D01*
X73593D02*
X74251D01*
X70644Y325047D02*
X71323D01*
X73596D02*
X74261D01*
X70644Y325141D02*
X71323D01*
X73591D02*
X74264D01*
X70644Y325235D02*
X71323D01*
X73576D02*
X74259D01*
X70644Y325328D02*
X71323D01*
X73551D02*
X74248D01*
X70644Y325422D02*
X71323D01*
X73514D02*
X74228D01*
X70644Y325516D02*
X71323D01*
X73462D02*
X74200D01*
X70644Y325609D02*
X71323D01*
X73380D02*
X74165D01*
X70644Y325703D02*
X71323D01*
X73257D02*
X74123D01*
X70644Y325797D02*
X71323D01*
X72986D02*
X74070D01*
X70644Y325891D02*
X74004D01*
X70644Y325984D02*
X73926D01*
X70644Y326078D02*
X73831D01*
X70644Y326172D02*
X73710D01*
X70644Y326265D02*
X73544D01*
X70644Y326359D02*
X73283D01*
X123073Y253324D02*
Y253929D01*
X125241*
Y252030*
X125116Y251933*
X124991Y251843*
X124862Y251757*
X124733Y251679*
X124604Y251609*
X124476Y251542*
X124343Y251483*
X124210Y251429*
X124077Y251382*
X123944Y251343*
X123807Y251308*
X123671Y251280*
X123534Y251257*
X123397Y251241*
X123261Y251233*
X123120Y251230*
X122933Y251233*
X122753Y251249*
X122573Y251276*
X122401Y251312*
X122230Y251355*
X122065Y251409*
X121905Y251476*
X121749Y251554*
X121600Y251640*
X121460Y251733*
X121327Y251835*
X121206Y251948*
X121096Y252070*
X120995Y252198*
X120901Y252339*
X120819Y252487*
X120745Y252644*
X120679Y252804*
X120624Y252968*
X120581Y253136*
X120546Y253308*
X120522Y253487*
X120507Y253667*
X120503Y253855*
X120507Y254042*
X120522Y254222*
X120546Y254402*
X120581Y254577*
X120624Y254753*
X120679Y254921*
X120741Y255089*
X120815Y255253*
X120897Y255409*
X120991Y255554*
X121089Y255691*
X121198Y255816*
X121315Y255933*
X121441Y256038*
X121573Y256132*
X121714Y256214*
X121866Y256288*
X122019Y256355*
X122183Y256406*
X122346Y256452*
X122519Y256487*
X122698Y256511*
X122878Y256526*
X123069Y256530*
X123206Y256526*
X123339Y256519*
X123468Y256503*
X123596Y256483*
X123722Y256460*
X123843Y256429*
X123960Y256394*
X124073Y256351*
X124183Y256304*
X124284Y256249*
X124382Y256194*
X124472Y256132*
X124557Y256070*
X124636Y255999*
X124710Y255925*
X124776Y255847*
X124839Y255765*
X124897Y255675*
X124952Y255577*
X125003Y255476*
X125046Y255367*
X125089Y255253*
X125128Y255132*
X125163Y255007*
X124554Y254839*
X124522Y254933*
X124491Y255023*
X124460Y255109*
X124425Y255187*
X124386Y255265*
X124346Y255331*
X124307Y255398*
X124265Y255456*
X124222Y255511*
X124171Y255562*
X124116Y255609*
X124057Y255656*
X123995Y255698*
X123929Y255741*
X123854Y255776*
X123776Y255812*
X123698Y255843*
X123612Y255874*
X123530Y255894*
X123441Y255913*
X123350Y255929*
X123261Y255941*
X123167Y255944*
X123073Y255948*
X122956Y255944*
X122846Y255941*
X122741Y255929*
X122640Y255913*
X122538Y255894*
X122444Y255867*
X122354Y255839*
X122269Y255808*
X122187Y255769*
X122108Y255730*
X122030Y255687*
X121960Y255644*
X121894Y255593*
X121835Y255542*
X121776Y255491*
X121722Y255433*
X121624Y255316*
X121538Y255191*
X121460Y255062*
X121397Y254929*
X121350Y254808*
X121311Y254687*
X121280Y254562*
X121253Y254433*
X121230Y254304*
X121214Y254171*
X121206Y254034*
X121202Y253898*
X121206Y253730*
X121218Y253570*
X121237Y253413*
X121261Y253269*
X121296Y253128*
X121335Y252995*
X121382Y252870*
X121437Y252749*
X121499Y252640*
X121569Y252534*
X121644Y252437*
X121730Y252351*
X121815Y252269*
X121913Y252194*
X122015Y252124*
X122124Y252066*
X122237Y252015*
X122354Y251968*
X122472Y251929*
X122589Y251898*
X122710Y251874*
X122831Y251859*
X122956Y251847*
X123081Y251843*
X123191Y251847*
X123300Y251855*
X123409Y251867*
X123519Y251886*
X123624Y251909*
X123730Y251937*
X123835Y251972*
X123941Y252011*
X124042Y252054*
X124140Y252097*
X124226Y252140*
X124311Y252187*
X124386Y252230*
X124456Y252276*
X124519Y252324*
X124577Y252370*
Y253324*
X123073*
X122462Y251299D02*
X123765D01*
X122115Y251393D02*
X124108D01*
X121883Y251487D02*
X124350D01*
X121703Y251580D02*
X124550D01*
X121549Y251674D02*
X124725D01*
X121415Y251768D02*
X124878D01*
X121299Y251861D02*
X122810D01*
X123362D02*
X125017D01*
X121200Y251955D02*
X122393D01*
X123785D02*
X125145D01*
X121115Y252049D02*
X122162D01*
X124030D02*
X125241D01*
X121039Y252143D02*
X121988D01*
X124231D02*
X125241D01*
X120970Y252236D02*
X121858D01*
X124396D02*
X125241D01*
X120907Y252330D02*
X121752D01*
X124526D02*
X125241D01*
X120854Y252424D02*
X121657D01*
X124577D02*
X125241D01*
X120805Y252517D02*
X121582D01*
X124577D02*
X125241D01*
X120761Y252611D02*
X121518D01*
X124577D02*
X125241D01*
X120720Y252705D02*
X121462D01*
X124577D02*
X125241D01*
X120681Y252798D02*
X121415D01*
X124577D02*
X125241D01*
X120649Y252892D02*
X121374D01*
X124577D02*
X125241D01*
X120619Y252986D02*
X121339D01*
X124577D02*
X125241D01*
X120596Y253080D02*
X121310D01*
X124577D02*
X125241D01*
X120573Y253173D02*
X121284D01*
X124577D02*
X125241D01*
X120554Y253267D02*
X121261D01*
X124577D02*
X125241D01*
X120539Y253361D02*
X121246D01*
X123073D02*
X125241D01*
X120527Y253454D02*
X121232D01*
X123073D02*
X125241D01*
X120517Y253548D02*
X121220D01*
X123073D02*
X125241D01*
X120509Y253642D02*
X121212D01*
X123073D02*
X125241D01*
X120505Y253735D02*
X121206D01*
X123073D02*
X125241D01*
X120503Y253829D02*
X121204D01*
X123073D02*
X125241D01*
X120504Y253923D02*
X121203D01*
X123073D02*
X125241D01*
X120506Y254017D02*
X121206D01*
X120513Y254110D02*
X121210D01*
X120521Y254204D02*
X121218D01*
X120532Y254298D02*
X121229D01*
X120544Y254391D02*
X121245D01*
X120563Y254485D02*
X121264D01*
X120581Y254579D02*
X121285D01*
X120604Y254672D02*
X121308D01*
X120628Y254766D02*
X121337D01*
X120659Y254860D02*
X121370D01*
X124546D02*
X124629D01*
X120691Y254954D02*
X121409D01*
X124515D02*
X124969D01*
X120726Y255047D02*
X121453D01*
X124482D02*
X125152D01*
X120765Y255141D02*
X121508D01*
X124445D02*
X125125D01*
X120807Y255235D02*
X121569D01*
X124401D02*
X125095D01*
X120855Y255328D02*
X121635D01*
X124348D02*
X125060D01*
X120906Y255422D02*
X121713D01*
X124290D02*
X125024D01*
X120967Y255516D02*
X121805D01*
X124217D02*
X124983D01*
X121031Y255609D02*
X121915D01*
X124115D02*
X124934D01*
X121100Y255703D02*
X122060D01*
X123988D02*
X124879D01*
X121181Y255797D02*
X122245D01*
X123809D02*
X124815D01*
X121273Y255891D02*
X122527D01*
X123544D02*
X124739D01*
X121376Y255984D02*
X124651D01*
X121497Y256078D02*
X124546D01*
X121641Y256172D02*
X124415D01*
X121819Y256265D02*
X124254D01*
X122033Y256359D02*
X124052D01*
X122348Y256453D02*
X123750D01*
X123073Y263324D02*
Y263929D01*
X125241*
Y262030*
X125116Y261933*
X124991Y261843*
X124862Y261757*
X124733Y261679*
X124604Y261609*
X124476Y261542*
X124343Y261483*
X124210Y261429*
X124077Y261382*
X123944Y261343*
X123807Y261308*
X123671Y261280*
X123534Y261257*
X123397Y261241*
X123261Y261233*
X123120Y261230*
X122933Y261233*
X122753Y261249*
X122573Y261276*
X122401Y261312*
X122230Y261355*
X122065Y261409*
X121905Y261476*
X121749Y261554*
X121600Y261640*
X121460Y261733*
X121327Y261835*
X121206Y261948*
X121096Y262070*
X120995Y262198*
X120901Y262339*
X120819Y262487*
X120745Y262644*
X120679Y262804*
X120624Y262968*
X120581Y263136*
X120546Y263308*
X120522Y263487*
X120507Y263667*
X120503Y263855*
X120507Y264042*
X120522Y264222*
X120546Y264402*
X120581Y264577*
X120624Y264753*
X120679Y264921*
X120741Y265089*
X120815Y265253*
X120897Y265409*
X120991Y265554*
X121089Y265691*
X121198Y265816*
X121315Y265933*
X121441Y266038*
X121573Y266132*
X121714Y266214*
X121866Y266288*
X122019Y266355*
X122183Y266406*
X122346Y266452*
X122519Y266487*
X122698Y266511*
X122878Y266526*
X123069Y266530*
X123206Y266526*
X123339Y266519*
X123468Y266503*
X123596Y266483*
X123722Y266460*
X123843Y266429*
X123960Y266394*
X124073Y266351*
X124183Y266304*
X124284Y266249*
X124382Y266194*
X124472Y266132*
X124557Y266070*
X124636Y265999*
X124710Y265925*
X124776Y265847*
X124839Y265765*
X124897Y265675*
X124952Y265577*
X125003Y265476*
X125046Y265367*
X125089Y265253*
X125128Y265132*
X125163Y265007*
X124554Y264839*
X124522Y264933*
X124491Y265023*
X124460Y265109*
X124425Y265187*
X124386Y265265*
X124346Y265331*
X124307Y265398*
X124265Y265456*
X124222Y265511*
X124171Y265562*
X124116Y265609*
X124057Y265656*
X123995Y265698*
X123929Y265741*
X123854Y265776*
X123776Y265812*
X123698Y265843*
X123612Y265874*
X123530Y265894*
X123441Y265913*
X123350Y265929*
X123261Y265941*
X123167Y265944*
X123073Y265948*
X122956Y265944*
X122846Y265941*
X122741Y265929*
X122640Y265913*
X122538Y265894*
X122444Y265867*
X122354Y265839*
X122269Y265808*
X122187Y265769*
X122108Y265730*
X122030Y265687*
X121960Y265644*
X121894Y265593*
X121835Y265542*
X121776Y265491*
X121722Y265433*
X121624Y265316*
X121538Y265191*
X121460Y265062*
X121397Y264929*
X121350Y264808*
X121311Y264687*
X121280Y264562*
X121253Y264433*
X121230Y264304*
X121214Y264171*
X121206Y264034*
X121202Y263898*
X121206Y263730*
X121218Y263570*
X121237Y263413*
X121261Y263269*
X121296Y263128*
X121335Y262995*
X121382Y262870*
X121437Y262749*
X121499Y262640*
X121569Y262534*
X121644Y262437*
X121730Y262351*
X121815Y262269*
X121913Y262194*
X122015Y262124*
X122124Y262066*
X122237Y262015*
X122354Y261968*
X122472Y261929*
X122589Y261898*
X122710Y261874*
X122831Y261859*
X122956Y261847*
X123081Y261843*
X123191Y261847*
X123300Y261855*
X123409Y261867*
X123519Y261886*
X123624Y261909*
X123730Y261937*
X123835Y261972*
X123941Y262011*
X124042Y262054*
X124140Y262097*
X124226Y262140*
X124311Y262187*
X124386Y262230*
X124456Y262276*
X124519Y262324*
X124577Y262370*
Y263324*
X123073*
X122462Y261299D02*
X123765D01*
X122115Y261393D02*
X124108D01*
X121883Y261487D02*
X124350D01*
X121703Y261580D02*
X124550D01*
X121549Y261674D02*
X124725D01*
X121415Y261768D02*
X124878D01*
X121299Y261861D02*
X122810D01*
X123362D02*
X125017D01*
X121200Y261955D02*
X122393D01*
X123785D02*
X125145D01*
X121115Y262049D02*
X122162D01*
X124030D02*
X125241D01*
X121039Y262143D02*
X121988D01*
X124231D02*
X125241D01*
X120970Y262236D02*
X121858D01*
X124396D02*
X125241D01*
X120907Y262330D02*
X121752D01*
X124526D02*
X125241D01*
X120854Y262424D02*
X121657D01*
X124577D02*
X125241D01*
X120805Y262517D02*
X121582D01*
X124577D02*
X125241D01*
X120761Y262611D02*
X121518D01*
X124577D02*
X125241D01*
X120720Y262705D02*
X121462D01*
X124577D02*
X125241D01*
X120681Y262798D02*
X121415D01*
X124577D02*
X125241D01*
X120649Y262892D02*
X121374D01*
X124577D02*
X125241D01*
X120619Y262986D02*
X121339D01*
X124577D02*
X125241D01*
X120596Y263080D02*
X121310D01*
X124577D02*
X125241D01*
X120573Y263173D02*
X121284D01*
X124577D02*
X125241D01*
X120554Y263267D02*
X121261D01*
X124577D02*
X125241D01*
X120539Y263361D02*
X121246D01*
X123073D02*
X125241D01*
X120527Y263454D02*
X121232D01*
X123073D02*
X125241D01*
X120517Y263548D02*
X121220D01*
X123073D02*
X125241D01*
X120509Y263642D02*
X121212D01*
X123073D02*
X125241D01*
X120505Y263735D02*
X121206D01*
X123073D02*
X125241D01*
X120503Y263829D02*
X121204D01*
X123073D02*
X125241D01*
X120504Y263923D02*
X121203D01*
X123073D02*
X125241D01*
X120506Y264017D02*
X121206D01*
X120513Y264110D02*
X121210D01*
X120521Y264204D02*
X121218D01*
X120532Y264298D02*
X121229D01*
X120544Y264391D02*
X121245D01*
X120563Y264485D02*
X121264D01*
X120581Y264579D02*
X121285D01*
X120604Y264672D02*
X121308D01*
X120628Y264766D02*
X121337D01*
X120659Y264860D02*
X121370D01*
X124546D02*
X124629D01*
X120691Y264954D02*
X121409D01*
X124515D02*
X124969D01*
X120726Y265047D02*
X121453D01*
X124482D02*
X125152D01*
X120765Y265141D02*
X121508D01*
X124445D02*
X125125D01*
X120807Y265235D02*
X121569D01*
X124401D02*
X125095D01*
X120855Y265328D02*
X121635D01*
X124348D02*
X125060D01*
X120906Y265422D02*
X121713D01*
X124290D02*
X125024D01*
X120967Y265516D02*
X121805D01*
X124217D02*
X124983D01*
X121031Y265609D02*
X121915D01*
X124115D02*
X124934D01*
X121100Y265703D02*
X122060D01*
X123988D02*
X124879D01*
X121181Y265797D02*
X122245D01*
X123809D02*
X124815D01*
X121273Y265891D02*
X122527D01*
X123544D02*
X124739D01*
X121376Y265984D02*
X124651D01*
X121497Y266078D02*
X124546D01*
X121641Y266172D02*
X124415D01*
X121819Y266265D02*
X124254D01*
X122033Y266359D02*
X124052D01*
X122348Y266453D02*
X123750D01*
X123073Y273324D02*
Y273929D01*
X125241*
Y272030*
X125116Y271933*
X124991Y271843*
X124862Y271757*
X124733Y271679*
X124604Y271609*
X124476Y271542*
X124343Y271483*
X124210Y271429*
X124077Y271382*
X123944Y271343*
X123807Y271308*
X123671Y271280*
X123534Y271257*
X123397Y271241*
X123261Y271233*
X123120Y271230*
X122933Y271233*
X122753Y271249*
X122573Y271276*
X122401Y271312*
X122230Y271355*
X122065Y271409*
X121905Y271476*
X121749Y271554*
X121600Y271640*
X121460Y271733*
X121327Y271835*
X121206Y271948*
X121096Y272070*
X120995Y272198*
X120901Y272339*
X120819Y272487*
X120745Y272644*
X120679Y272804*
X120624Y272968*
X120581Y273136*
X120546Y273308*
X120522Y273487*
X120507Y273667*
X120503Y273855*
X120507Y274042*
X120522Y274222*
X120546Y274402*
X120581Y274577*
X120624Y274753*
X120679Y274921*
X120741Y275089*
X120815Y275253*
X120897Y275409*
X120991Y275554*
X121089Y275691*
X121198Y275816*
X121315Y275933*
X121441Y276038*
X121573Y276132*
X121714Y276214*
X121866Y276288*
X122019Y276355*
X122183Y276406*
X122346Y276452*
X122519Y276487*
X122698Y276511*
X122878Y276526*
X123069Y276530*
X123206Y276526*
X123339Y276519*
X123468Y276503*
X123596Y276483*
X123722Y276460*
X123843Y276429*
X123960Y276394*
X124073Y276351*
X124183Y276304*
X124284Y276249*
X124382Y276194*
X124472Y276132*
X124557Y276070*
X124636Y275999*
X124710Y275925*
X124776Y275847*
X124839Y275765*
X124897Y275675*
X124952Y275577*
X125003Y275476*
X125046Y275367*
X125089Y275253*
X125128Y275132*
X125163Y275007*
X124554Y274839*
X124522Y274933*
X124491Y275023*
X124460Y275109*
X124425Y275187*
X124386Y275265*
X124346Y275331*
X124307Y275398*
X124265Y275456*
X124222Y275511*
X124171Y275562*
X124116Y275609*
X124057Y275656*
X123995Y275698*
X123929Y275741*
X123854Y275776*
X123776Y275812*
X123698Y275843*
X123612Y275874*
X123530Y275894*
X123441Y275913*
X123350Y275929*
X123261Y275941*
X123167Y275944*
X123073Y275948*
X122956Y275944*
X122846Y275941*
X122741Y275929*
X122640Y275913*
X122538Y275894*
X122444Y275867*
X122354Y275839*
X122269Y275808*
X122187Y275769*
X122108Y275730*
X122030Y275687*
X121960Y275644*
X121894Y275593*
X121835Y275542*
X121776Y275491*
X121722Y275433*
X121624Y275316*
X121538Y275191*
X121460Y275062*
X121397Y274929*
X121350Y274808*
X121311Y274687*
X121280Y274562*
X121253Y274433*
X121230Y274304*
X121214Y274171*
X121206Y274034*
X121202Y273898*
X121206Y273730*
X121218Y273570*
X121237Y273413*
X121261Y273269*
X121296Y273128*
X121335Y272995*
X121382Y272870*
X121437Y272749*
X121499Y272640*
X121569Y272534*
X121644Y272437*
X121730Y272351*
X121815Y272269*
X121913Y272194*
X122015Y272124*
X122124Y272066*
X122237Y272015*
X122354Y271968*
X122472Y271929*
X122589Y271898*
X122710Y271874*
X122831Y271859*
X122956Y271847*
X123081Y271843*
X123191Y271847*
X123300Y271855*
X123409Y271867*
X123519Y271886*
X123624Y271909*
X123730Y271937*
X123835Y271972*
X123941Y272011*
X124042Y272054*
X124140Y272097*
X124226Y272140*
X124311Y272187*
X124386Y272230*
X124456Y272276*
X124519Y272324*
X124577Y272370*
Y273324*
X123073*
X122462Y271299D02*
X123765D01*
X122115Y271393D02*
X124108D01*
X121883Y271487D02*
X124350D01*
X121703Y271580D02*
X124550D01*
X121549Y271674D02*
X124725D01*
X121415Y271768D02*
X124878D01*
X121299Y271861D02*
X122810D01*
X123362D02*
X125017D01*
X121200Y271955D02*
X122393D01*
X123785D02*
X125145D01*
X121115Y272049D02*
X122162D01*
X124030D02*
X125241D01*
X121039Y272143D02*
X121988D01*
X124231D02*
X125241D01*
X120970Y272236D02*
X121858D01*
X124396D02*
X125241D01*
X120907Y272330D02*
X121752D01*
X124526D02*
X125241D01*
X120854Y272424D02*
X121657D01*
X124577D02*
X125241D01*
X120805Y272517D02*
X121582D01*
X124577D02*
X125241D01*
X120761Y272611D02*
X121518D01*
X124577D02*
X125241D01*
X120720Y272705D02*
X121462D01*
X124577D02*
X125241D01*
X120681Y272798D02*
X121415D01*
X124577D02*
X125241D01*
X120649Y272892D02*
X121374D01*
X124577D02*
X125241D01*
X120619Y272986D02*
X121339D01*
X124577D02*
X125241D01*
X120596Y273080D02*
X121310D01*
X124577D02*
X125241D01*
X120573Y273173D02*
X121284D01*
X124577D02*
X125241D01*
X120554Y273267D02*
X121261D01*
X124577D02*
X125241D01*
X120539Y273361D02*
X121246D01*
X123073D02*
X125241D01*
X120527Y273454D02*
X121232D01*
X123073D02*
X125241D01*
X120517Y273548D02*
X121220D01*
X123073D02*
X125241D01*
X120509Y273642D02*
X121212D01*
X123073D02*
X125241D01*
X120505Y273735D02*
X121206D01*
X123073D02*
X125241D01*
X120503Y273829D02*
X121204D01*
X123073D02*
X125241D01*
X120504Y273923D02*
X121203D01*
X123073D02*
X125241D01*
X120506Y274017D02*
X121206D01*
X120513Y274110D02*
X121210D01*
X120521Y274204D02*
X121218D01*
X120532Y274298D02*
X121229D01*
X120544Y274391D02*
X121245D01*
X120563Y274485D02*
X121264D01*
X120581Y274579D02*
X121285D01*
X120604Y274672D02*
X121308D01*
X120628Y274766D02*
X121337D01*
X120659Y274860D02*
X121370D01*
X124546D02*
X124629D01*
X120691Y274954D02*
X121409D01*
X124515D02*
X124969D01*
X120726Y275047D02*
X121453D01*
X124482D02*
X125152D01*
X120765Y275141D02*
X121508D01*
X124445D02*
X125125D01*
X120807Y275235D02*
X121569D01*
X124401D02*
X125095D01*
X120855Y275328D02*
X121635D01*
X124348D02*
X125060D01*
X120906Y275422D02*
X121713D01*
X124290D02*
X125024D01*
X120967Y275516D02*
X121805D01*
X124217D02*
X124983D01*
X121031Y275609D02*
X121915D01*
X124115D02*
X124934D01*
X121100Y275703D02*
X122060D01*
X123988D02*
X124879D01*
X121181Y275797D02*
X122245D01*
X123809D02*
X124815D01*
X121273Y275891D02*
X122527D01*
X123544D02*
X124739D01*
X121376Y275984D02*
X124651D01*
X121497Y276078D02*
X124546D01*
X121641Y276172D02*
X124415D01*
X121819Y276265D02*
X124254D01*
X122033Y276359D02*
X124052D01*
X122348Y276453D02*
X123750D01*
X123073Y283324D02*
Y283929D01*
X125241*
Y282030*
X125116Y281933*
X124991Y281843*
X124862Y281757*
X124733Y281679*
X124604Y281609*
X124476Y281542*
X124343Y281483*
X124210Y281429*
X124077Y281382*
X123944Y281343*
X123807Y281308*
X123671Y281280*
X123534Y281257*
X123397Y281241*
X123261Y281233*
X123120Y281230*
X122933Y281233*
X122753Y281249*
X122573Y281276*
X122401Y281312*
X122230Y281355*
X122065Y281409*
X121905Y281476*
X121749Y281554*
X121600Y281640*
X121460Y281733*
X121327Y281835*
X121206Y281948*
X121096Y282070*
X120995Y282198*
X120901Y282339*
X120819Y282487*
X120745Y282644*
X120679Y282804*
X120624Y282968*
X120581Y283136*
X120546Y283308*
X120522Y283487*
X120507Y283667*
X120503Y283855*
X120507Y284042*
X120522Y284222*
X120546Y284402*
X120581Y284577*
X120624Y284753*
X120679Y284921*
X120741Y285089*
X120815Y285253*
X120897Y285409*
X120991Y285554*
X121089Y285691*
X121198Y285816*
X121315Y285933*
X121441Y286038*
X121573Y286132*
X121714Y286214*
X121866Y286288*
X122019Y286355*
X122183Y286406*
X122346Y286452*
X122519Y286487*
X122698Y286511*
X122878Y286526*
X123069Y286530*
X123206Y286526*
X123339Y286519*
X123468Y286503*
X123596Y286483*
X123722Y286460*
X123843Y286429*
X123960Y286394*
X124073Y286351*
X124183Y286304*
X124284Y286249*
X124382Y286194*
X124472Y286132*
X124557Y286070*
X124636Y285999*
X124710Y285925*
X124776Y285847*
X124839Y285765*
X124897Y285675*
X124952Y285577*
X125003Y285476*
X125046Y285367*
X125089Y285253*
X125128Y285132*
X125163Y285007*
X124554Y284839*
X124522Y284933*
X124491Y285023*
X124460Y285109*
X124425Y285187*
X124386Y285265*
X124346Y285331*
X124307Y285398*
X124265Y285456*
X124222Y285511*
X124171Y285562*
X124116Y285609*
X124057Y285656*
X123995Y285698*
X123929Y285741*
X123854Y285776*
X123776Y285812*
X123698Y285843*
X123612Y285874*
X123530Y285894*
X123441Y285913*
X123350Y285929*
X123261Y285941*
X123167Y285944*
X123073Y285948*
X122956Y285944*
X122846Y285941*
X122741Y285929*
X122640Y285913*
X122538Y285894*
X122444Y285867*
X122354Y285839*
X122269Y285808*
X122187Y285769*
X122108Y285730*
X122030Y285687*
X121960Y285644*
X121894Y285593*
X121835Y285542*
X121776Y285491*
X121722Y285433*
X121624Y285316*
X121538Y285191*
X121460Y285062*
X121397Y284929*
X121350Y284808*
X121311Y284687*
X121280Y284562*
X121253Y284433*
X121230Y284304*
X121214Y284171*
X121206Y284034*
X121202Y283898*
X121206Y283730*
X121218Y283570*
X121237Y283413*
X121261Y283269*
X121296Y283128*
X121335Y282995*
X121382Y282870*
X121437Y282749*
X121499Y282640*
X121569Y282534*
X121644Y282437*
X121730Y282351*
X121815Y282269*
X121913Y282194*
X122015Y282124*
X122124Y282066*
X122237Y282015*
X122354Y281968*
X122472Y281929*
X122589Y281898*
X122710Y281874*
X122831Y281859*
X122956Y281847*
X123081Y281843*
X123191Y281847*
X123300Y281855*
X123409Y281867*
X123519Y281886*
X123624Y281909*
X123730Y281937*
X123835Y281972*
X123941Y282011*
X124042Y282054*
X124140Y282097*
X124226Y282140*
X124311Y282187*
X124386Y282230*
X124456Y282276*
X124519Y282324*
X124577Y282370*
Y283324*
X123073*
X122462Y281299D02*
X123765D01*
X122115Y281393D02*
X124108D01*
X121883Y281487D02*
X124350D01*
X121703Y281580D02*
X124550D01*
X121549Y281674D02*
X124725D01*
X121415Y281768D02*
X124878D01*
X121299Y281861D02*
X122810D01*
X123362D02*
X125017D01*
X121200Y281955D02*
X122393D01*
X123785D02*
X125145D01*
X121115Y282049D02*
X122162D01*
X124030D02*
X125241D01*
X121039Y282143D02*
X121988D01*
X124231D02*
X125241D01*
X120970Y282236D02*
X121858D01*
X124396D02*
X125241D01*
X120907Y282330D02*
X121752D01*
X124526D02*
X125241D01*
X120854Y282424D02*
X121657D01*
X124577D02*
X125241D01*
X120805Y282517D02*
X121582D01*
X124577D02*
X125241D01*
X120761Y282611D02*
X121518D01*
X124577D02*
X125241D01*
X120720Y282705D02*
X121462D01*
X124577D02*
X125241D01*
X120681Y282798D02*
X121415D01*
X124577D02*
X125241D01*
X120649Y282892D02*
X121374D01*
X124577D02*
X125241D01*
X120619Y282986D02*
X121339D01*
X124577D02*
X125241D01*
X120596Y283080D02*
X121310D01*
X124577D02*
X125241D01*
X120573Y283173D02*
X121284D01*
X124577D02*
X125241D01*
X120554Y283267D02*
X121261D01*
X124577D02*
X125241D01*
X120539Y283361D02*
X121246D01*
X123073D02*
X125241D01*
X120527Y283454D02*
X121232D01*
X123073D02*
X125241D01*
X120517Y283548D02*
X121220D01*
X123073D02*
X125241D01*
X120509Y283642D02*
X121212D01*
X123073D02*
X125241D01*
X120505Y283735D02*
X121206D01*
X123073D02*
X125241D01*
X120503Y283829D02*
X121204D01*
X123073D02*
X125241D01*
X120504Y283923D02*
X121203D01*
X123073D02*
X125241D01*
X120506Y284017D02*
X121206D01*
X120513Y284110D02*
X121210D01*
X120521Y284204D02*
X121218D01*
X120532Y284298D02*
X121229D01*
X120544Y284391D02*
X121245D01*
X120563Y284485D02*
X121264D01*
X120581Y284579D02*
X121285D01*
X120604Y284672D02*
X121308D01*
X120628Y284766D02*
X121337D01*
X120659Y284860D02*
X121370D01*
X124546D02*
X124629D01*
X120691Y284954D02*
X121409D01*
X124515D02*
X124969D01*
X120726Y285047D02*
X121453D01*
X124482D02*
X125152D01*
X120765Y285141D02*
X121508D01*
X124445D02*
X125125D01*
X120807Y285235D02*
X121569D01*
X124401D02*
X125095D01*
X120855Y285328D02*
X121635D01*
X124348D02*
X125060D01*
X120906Y285422D02*
X121713D01*
X124290D02*
X125024D01*
X120967Y285516D02*
X121805D01*
X124217D02*
X124983D01*
X121031Y285609D02*
X121915D01*
X124115D02*
X124934D01*
X121100Y285703D02*
X122060D01*
X123988D02*
X124879D01*
X121181Y285797D02*
X122245D01*
X123809D02*
X124815D01*
X121273Y285891D02*
X122527D01*
X123544D02*
X124739D01*
X121376Y285984D02*
X124651D01*
X121497Y286078D02*
X124546D01*
X121641Y286172D02*
X124415D01*
X121819Y286265D02*
X124254D01*
X122033Y286359D02*
X124052D01*
X122348Y286453D02*
X123750D01*
X123073Y293324D02*
Y293929D01*
X125241*
Y292030*
X125116Y291933*
X124991Y291843*
X124862Y291757*
X124733Y291679*
X124604Y291609*
X124476Y291542*
X124343Y291483*
X124210Y291429*
X124077Y291382*
X123944Y291343*
X123807Y291308*
X123671Y291280*
X123534Y291257*
X123397Y291241*
X123261Y291233*
X123120Y291230*
X122933Y291233*
X122753Y291249*
X122573Y291276*
X122401Y291312*
X122230Y291355*
X122065Y291409*
X121905Y291476*
X121749Y291554*
X121600Y291640*
X121460Y291733*
X121327Y291835*
X121206Y291948*
X121096Y292070*
X120995Y292198*
X120901Y292339*
X120819Y292487*
X120745Y292644*
X120679Y292804*
X120624Y292968*
X120581Y293136*
X120546Y293308*
X120522Y293487*
X120507Y293667*
X120503Y293855*
X120507Y294042*
X120522Y294222*
X120546Y294402*
X120581Y294577*
X120624Y294753*
X120679Y294921*
X120741Y295089*
X120815Y295253*
X120897Y295409*
X120991Y295554*
X121089Y295691*
X121198Y295816*
X121315Y295933*
X121441Y296038*
X121573Y296132*
X121714Y296214*
X121866Y296288*
X122019Y296355*
X122183Y296406*
X122346Y296452*
X122519Y296487*
X122698Y296511*
X122878Y296526*
X123069Y296530*
X123206Y296526*
X123339Y296519*
X123468Y296503*
X123596Y296483*
X123722Y296460*
X123843Y296429*
X123960Y296394*
X124073Y296351*
X124183Y296304*
X124284Y296249*
X124382Y296194*
X124472Y296132*
X124557Y296070*
X124636Y295999*
X124710Y295925*
X124776Y295847*
X124839Y295765*
X124897Y295675*
X124952Y295577*
X125003Y295476*
X125046Y295367*
X125089Y295253*
X125128Y295132*
X125163Y295007*
X124554Y294839*
X124522Y294933*
X124491Y295023*
X124460Y295109*
X124425Y295187*
X124386Y295265*
X124346Y295331*
X124307Y295398*
X124265Y295456*
X124222Y295511*
X124171Y295562*
X124116Y295609*
X124057Y295656*
X123995Y295698*
X123929Y295741*
X123854Y295776*
X123776Y295812*
X123698Y295843*
X123612Y295874*
X123530Y295894*
X123441Y295913*
X123350Y295929*
X123261Y295941*
X123167Y295944*
X123073Y295948*
X122956Y295944*
X122846Y295941*
X122741Y295929*
X122640Y295913*
X122538Y295894*
X122444Y295867*
X122354Y295839*
X122269Y295808*
X122187Y295769*
X122108Y295730*
X122030Y295687*
X121960Y295644*
X121894Y295593*
X121835Y295542*
X121776Y295491*
X121722Y295433*
X121624Y295316*
X121538Y295191*
X121460Y295062*
X121397Y294929*
X121350Y294808*
X121311Y294687*
X121280Y294562*
X121253Y294433*
X121230Y294304*
X121214Y294171*
X121206Y294034*
X121202Y293898*
X121206Y293730*
X121218Y293570*
X121237Y293413*
X121261Y293269*
X121296Y293128*
X121335Y292995*
X121382Y292870*
X121437Y292749*
X121499Y292640*
X121569Y292534*
X121644Y292437*
X121730Y292351*
X121815Y292269*
X121913Y292194*
X122015Y292124*
X122124Y292066*
X122237Y292015*
X122354Y291968*
X122472Y291929*
X122589Y291898*
X122710Y291874*
X122831Y291859*
X122956Y291847*
X123081Y291843*
X123191Y291847*
X123300Y291855*
X123409Y291867*
X123519Y291886*
X123624Y291909*
X123730Y291937*
X123835Y291972*
X123941Y292011*
X124042Y292054*
X124140Y292097*
X124226Y292140*
X124311Y292187*
X124386Y292230*
X124456Y292276*
X124519Y292324*
X124577Y292370*
Y293324*
X123073*
X122462Y291299D02*
X123765D01*
X122115Y291393D02*
X124108D01*
X121883Y291487D02*
X124350D01*
X121703Y291580D02*
X124550D01*
X121549Y291674D02*
X124725D01*
X121415Y291768D02*
X124878D01*
X121299Y291861D02*
X122810D01*
X123362D02*
X125017D01*
X121200Y291955D02*
X122393D01*
X123785D02*
X125145D01*
X121115Y292049D02*
X122162D01*
X124030D02*
X125241D01*
X121039Y292143D02*
X121988D01*
X124231D02*
X125241D01*
X120970Y292236D02*
X121858D01*
X124396D02*
X125241D01*
X120907Y292330D02*
X121752D01*
X124526D02*
X125241D01*
X120854Y292424D02*
X121657D01*
X124577D02*
X125241D01*
X120805Y292517D02*
X121582D01*
X124577D02*
X125241D01*
X120761Y292611D02*
X121518D01*
X124577D02*
X125241D01*
X120720Y292705D02*
X121462D01*
X124577D02*
X125241D01*
X120681Y292798D02*
X121415D01*
X124577D02*
X125241D01*
X120649Y292892D02*
X121374D01*
X124577D02*
X125241D01*
X120619Y292986D02*
X121339D01*
X124577D02*
X125241D01*
X120596Y293080D02*
X121310D01*
X124577D02*
X125241D01*
X120573Y293173D02*
X121284D01*
X124577D02*
X125241D01*
X120554Y293267D02*
X121261D01*
X124577D02*
X125241D01*
X120539Y293361D02*
X121246D01*
X123073D02*
X125241D01*
X120527Y293454D02*
X121232D01*
X123073D02*
X125241D01*
X120517Y293548D02*
X121220D01*
X123073D02*
X125241D01*
X120509Y293642D02*
X121212D01*
X123073D02*
X125241D01*
X120505Y293735D02*
X121206D01*
X123073D02*
X125241D01*
X120503Y293829D02*
X121204D01*
X123073D02*
X125241D01*
X120504Y293923D02*
X121203D01*
X123073D02*
X125241D01*
X120506Y294017D02*
X121206D01*
X120513Y294110D02*
X121210D01*
X120521Y294204D02*
X121218D01*
X120532Y294298D02*
X121229D01*
X120544Y294391D02*
X121245D01*
X120563Y294485D02*
X121264D01*
X120581Y294579D02*
X121285D01*
X120604Y294672D02*
X121308D01*
X120628Y294766D02*
X121337D01*
X120659Y294860D02*
X121370D01*
X124546D02*
X124629D01*
X120691Y294954D02*
X121409D01*
X124515D02*
X124969D01*
X120726Y295047D02*
X121453D01*
X124482D02*
X125152D01*
X120765Y295141D02*
X121508D01*
X124445D02*
X125125D01*
X120807Y295235D02*
X121569D01*
X124401D02*
X125095D01*
X120855Y295328D02*
X121635D01*
X124348D02*
X125060D01*
X120906Y295422D02*
X121713D01*
X124290D02*
X125024D01*
X120967Y295516D02*
X121805D01*
X124217D02*
X124983D01*
X121031Y295609D02*
X121915D01*
X124115D02*
X124934D01*
X121100Y295703D02*
X122060D01*
X123988D02*
X124879D01*
X121181Y295797D02*
X122245D01*
X123809D02*
X124815D01*
X121273Y295891D02*
X122527D01*
X123544D02*
X124739D01*
X121376Y295984D02*
X124651D01*
X121497Y296078D02*
X124546D01*
X121641Y296172D02*
X124415D01*
X121819Y296265D02*
X124254D01*
X122033Y296359D02*
X124052D01*
X122348Y296453D02*
X123750D01*
X123073Y303324D02*
Y303929D01*
X125241*
Y302030*
X125116Y301933*
X124991Y301843*
X124862Y301757*
X124733Y301679*
X124604Y301609*
X124476Y301542*
X124343Y301483*
X124210Y301429*
X124077Y301382*
X123944Y301343*
X123807Y301308*
X123671Y301280*
X123534Y301257*
X123397Y301241*
X123261Y301233*
X123120Y301230*
X122933Y301233*
X122753Y301249*
X122573Y301276*
X122401Y301312*
X122230Y301355*
X122065Y301409*
X121905Y301476*
X121749Y301554*
X121600Y301640*
X121460Y301733*
X121327Y301835*
X121206Y301948*
X121096Y302070*
X120995Y302198*
X120901Y302339*
X120819Y302487*
X120745Y302644*
X120679Y302804*
X120624Y302968*
X120581Y303136*
X120546Y303308*
X120522Y303487*
X120507Y303667*
X120503Y303855*
X120507Y304042*
X120522Y304222*
X120546Y304402*
X120581Y304577*
X120624Y304753*
X120679Y304921*
X120741Y305089*
X120815Y305253*
X120897Y305409*
X120991Y305554*
X121089Y305691*
X121198Y305816*
X121315Y305933*
X121441Y306038*
X121573Y306132*
X121714Y306214*
X121866Y306288*
X122019Y306355*
X122183Y306406*
X122346Y306452*
X122519Y306487*
X122698Y306511*
X122878Y306526*
X123069Y306530*
X123206Y306526*
X123339Y306519*
X123468Y306503*
X123596Y306483*
X123722Y306460*
X123843Y306429*
X123960Y306394*
X124073Y306351*
X124183Y306304*
X124284Y306249*
X124382Y306194*
X124472Y306132*
X124557Y306070*
X124636Y305999*
X124710Y305925*
X124776Y305847*
X124839Y305765*
X124897Y305675*
X124952Y305577*
X125003Y305476*
X125046Y305367*
X125089Y305253*
X125128Y305132*
X125163Y305007*
X124554Y304839*
X124522Y304933*
X124491Y305023*
X124460Y305109*
X124425Y305187*
X124386Y305265*
X124346Y305331*
X124307Y305398*
X124265Y305456*
X124222Y305511*
X124171Y305562*
X124116Y305609*
X124057Y305656*
X123995Y305698*
X123929Y305741*
X123854Y305776*
X123776Y305812*
X123698Y305843*
X123612Y305874*
X123530Y305894*
X123441Y305913*
X123350Y305929*
X123261Y305941*
X123167Y305944*
X123073Y305948*
X122956Y305944*
X122846Y305941*
X122741Y305929*
X122640Y305913*
X122538Y305894*
X122444Y305867*
X122354Y305839*
X122269Y305808*
X122187Y305769*
X122108Y305730*
X122030Y305687*
X121960Y305644*
X121894Y305593*
X121835Y305542*
X121776Y305491*
X121722Y305433*
X121624Y305316*
X121538Y305191*
X121460Y305062*
X121397Y304929*
X121350Y304808*
X121311Y304687*
X121280Y304562*
X121253Y304433*
X121230Y304304*
X121214Y304171*
X121206Y304034*
X121202Y303898*
X121206Y303730*
X121218Y303570*
X121237Y303413*
X121261Y303269*
X121296Y303128*
X121335Y302995*
X121382Y302870*
X121437Y302749*
X121499Y302640*
X121569Y302534*
X121644Y302437*
X121730Y302351*
X121815Y302269*
X121913Y302194*
X122015Y302124*
X122124Y302066*
X122237Y302015*
X122354Y301968*
X122472Y301929*
X122589Y301898*
X122710Y301874*
X122831Y301859*
X122956Y301847*
X123081Y301843*
X123191Y301847*
X123300Y301855*
X123409Y301867*
X123519Y301886*
X123624Y301909*
X123730Y301937*
X123835Y301972*
X123941Y302011*
X124042Y302054*
X124140Y302097*
X124226Y302140*
X124311Y302187*
X124386Y302230*
X124456Y302276*
X124519Y302324*
X124577Y302370*
Y303324*
X123073*
X122462Y301299D02*
X123765D01*
X122115Y301393D02*
X124108D01*
X121883Y301487D02*
X124350D01*
X121703Y301580D02*
X124550D01*
X121549Y301674D02*
X124725D01*
X121415Y301768D02*
X124878D01*
X121299Y301861D02*
X122810D01*
X123362D02*
X125017D01*
X121200Y301955D02*
X122393D01*
X123785D02*
X125145D01*
X121115Y302049D02*
X122162D01*
X124030D02*
X125241D01*
X121039Y302143D02*
X121988D01*
X124231D02*
X125241D01*
X120970Y302236D02*
X121858D01*
X124396D02*
X125241D01*
X120907Y302330D02*
X121752D01*
X124526D02*
X125241D01*
X120854Y302424D02*
X121657D01*
X124577D02*
X125241D01*
X120805Y302517D02*
X121582D01*
X124577D02*
X125241D01*
X120761Y302611D02*
X121518D01*
X124577D02*
X125241D01*
X120720Y302705D02*
X121462D01*
X124577D02*
X125241D01*
X120681Y302798D02*
X121415D01*
X124577D02*
X125241D01*
X120649Y302892D02*
X121374D01*
X124577D02*
X125241D01*
X120619Y302986D02*
X121339D01*
X124577D02*
X125241D01*
X120596Y303080D02*
X121310D01*
X124577D02*
X125241D01*
X120573Y303173D02*
X121284D01*
X124577D02*
X125241D01*
X120554Y303267D02*
X121261D01*
X124577D02*
X125241D01*
X120539Y303361D02*
X121246D01*
X123073D02*
X125241D01*
X120527Y303454D02*
X121232D01*
X123073D02*
X125241D01*
X120517Y303548D02*
X121220D01*
X123073D02*
X125241D01*
X120509Y303642D02*
X121212D01*
X123073D02*
X125241D01*
X120505Y303735D02*
X121206D01*
X123073D02*
X125241D01*
X120503Y303829D02*
X121204D01*
X123073D02*
X125241D01*
X120504Y303923D02*
X121203D01*
X123073D02*
X125241D01*
X120506Y304017D02*
X121206D01*
X120513Y304110D02*
X121210D01*
X120521Y304204D02*
X121218D01*
X120532Y304298D02*
X121229D01*
X120544Y304391D02*
X121245D01*
X120563Y304485D02*
X121264D01*
X120581Y304579D02*
X121285D01*
X120604Y304672D02*
X121308D01*
X120628Y304766D02*
X121337D01*
X120659Y304860D02*
X121370D01*
X124546D02*
X124629D01*
X120691Y304954D02*
X121409D01*
X124515D02*
X124969D01*
X120726Y305047D02*
X121453D01*
X124482D02*
X125152D01*
X120765Y305141D02*
X121508D01*
X124445D02*
X125125D01*
X120807Y305235D02*
X121569D01*
X124401D02*
X125095D01*
X120855Y305328D02*
X121635D01*
X124348D02*
X125060D01*
X120906Y305422D02*
X121713D01*
X124290D02*
X125024D01*
X120967Y305516D02*
X121805D01*
X124217D02*
X124983D01*
X121031Y305609D02*
X121915D01*
X124115D02*
X124934D01*
X121100Y305703D02*
X122060D01*
X123988D02*
X124879D01*
X121181Y305797D02*
X122245D01*
X123809D02*
X124815D01*
X121273Y305891D02*
X122527D01*
X123544D02*
X124739D01*
X121376Y305984D02*
X124651D01*
X121497Y306078D02*
X124546D01*
X121641Y306172D02*
X124415D01*
X121819Y306265D02*
X124254D01*
X122033Y306359D02*
X124052D01*
X122348Y306453D02*
X123750D01*
X123073Y313324D02*
Y313929D01*
X125241*
Y312030*
X125116Y311933*
X124991Y311843*
X124862Y311757*
X124733Y311679*
X124604Y311609*
X124476Y311542*
X124343Y311483*
X124210Y311429*
X124077Y311382*
X123944Y311343*
X123807Y311308*
X123671Y311280*
X123534Y311257*
X123397Y311241*
X123261Y311233*
X123120Y311230*
X122933Y311233*
X122753Y311249*
X122573Y311276*
X122401Y311312*
X122230Y311355*
X122065Y311409*
X121905Y311476*
X121749Y311554*
X121600Y311640*
X121460Y311733*
X121327Y311835*
X121206Y311948*
X121096Y312070*
X120995Y312198*
X120901Y312339*
X120819Y312487*
X120745Y312644*
X120679Y312804*
X120624Y312968*
X120581Y313136*
X120546Y313308*
X120522Y313487*
X120507Y313667*
X120503Y313855*
X120507Y314042*
X120522Y314222*
X120546Y314402*
X120581Y314577*
X120624Y314753*
X120679Y314921*
X120741Y315089*
X120815Y315253*
X120897Y315409*
X120991Y315554*
X121089Y315691*
X121198Y315816*
X121315Y315933*
X121441Y316038*
X121573Y316132*
X121714Y316214*
X121866Y316288*
X122019Y316355*
X122183Y316406*
X122346Y316452*
X122519Y316487*
X122698Y316511*
X122878Y316526*
X123069Y316530*
X123206Y316526*
X123339Y316519*
X123468Y316503*
X123596Y316483*
X123722Y316460*
X123843Y316429*
X123960Y316394*
X124073Y316351*
X124183Y316304*
X124284Y316249*
X124382Y316194*
X124472Y316132*
X124557Y316070*
X124636Y315999*
X124710Y315925*
X124776Y315847*
X124839Y315765*
X124897Y315675*
X124952Y315577*
X125003Y315476*
X125046Y315367*
X125089Y315253*
X125128Y315132*
X125163Y315007*
X124554Y314839*
X124522Y314933*
X124491Y315023*
X124460Y315109*
X124425Y315187*
X124386Y315265*
X124346Y315331*
X124307Y315398*
X124265Y315456*
X124222Y315511*
X124171Y315562*
X124116Y315609*
X124057Y315656*
X123995Y315698*
X123929Y315741*
X123854Y315776*
X123776Y315812*
X123698Y315843*
X123612Y315874*
X123530Y315894*
X123441Y315913*
X123350Y315929*
X123261Y315941*
X123167Y315944*
X123073Y315948*
X122956Y315944*
X122846Y315941*
X122741Y315929*
X122640Y315913*
X122538Y315894*
X122444Y315867*
X122354Y315839*
X122269Y315808*
X122187Y315769*
X122108Y315730*
X122030Y315687*
X121960Y315644*
X121894Y315593*
X121835Y315542*
X121776Y315491*
X121722Y315433*
X121624Y315316*
X121538Y315191*
X121460Y315062*
X121397Y314929*
X121350Y314808*
X121311Y314687*
X121280Y314562*
X121253Y314433*
X121230Y314304*
X121214Y314171*
X121206Y314034*
X121202Y313898*
X121206Y313730*
X121218Y313570*
X121237Y313413*
X121261Y313269*
X121296Y313128*
X121335Y312995*
X121382Y312870*
X121437Y312749*
X121499Y312640*
X121569Y312534*
X121644Y312437*
X121730Y312351*
X121815Y312269*
X121913Y312194*
X122015Y312124*
X122124Y312066*
X122237Y312015*
X122354Y311968*
X122472Y311929*
X122589Y311898*
X122710Y311874*
X122831Y311859*
X122956Y311847*
X123081Y311843*
X123191Y311847*
X123300Y311855*
X123409Y311867*
X123519Y311886*
X123624Y311909*
X123730Y311937*
X123835Y311972*
X123941Y312011*
X124042Y312054*
X124140Y312097*
X124226Y312140*
X124311Y312187*
X124386Y312230*
X124456Y312276*
X124519Y312324*
X124577Y312370*
Y313324*
X123073*
X122462Y311299D02*
X123765D01*
X122115Y311393D02*
X124108D01*
X121883Y311487D02*
X124350D01*
X121703Y311580D02*
X124550D01*
X121549Y311674D02*
X124725D01*
X121415Y311768D02*
X124878D01*
X121299Y311861D02*
X122810D01*
X123362D02*
X125017D01*
X121200Y311955D02*
X122393D01*
X123785D02*
X125145D01*
X121115Y312049D02*
X122162D01*
X124030D02*
X125241D01*
X121039Y312143D02*
X121988D01*
X124231D02*
X125241D01*
X120970Y312236D02*
X121858D01*
X124396D02*
X125241D01*
X120907Y312330D02*
X121752D01*
X124526D02*
X125241D01*
X120854Y312424D02*
X121657D01*
X124577D02*
X125241D01*
X120805Y312517D02*
X121582D01*
X124577D02*
X125241D01*
X120761Y312611D02*
X121518D01*
X124577D02*
X125241D01*
X120720Y312705D02*
X121462D01*
X124577D02*
X125241D01*
X120681Y312798D02*
X121415D01*
X124577D02*
X125241D01*
X120649Y312892D02*
X121374D01*
X124577D02*
X125241D01*
X120619Y312986D02*
X121339D01*
X124577D02*
X125241D01*
X120596Y313080D02*
X121310D01*
X124577D02*
X125241D01*
X120573Y313173D02*
X121284D01*
X124577D02*
X125241D01*
X120554Y313267D02*
X121261D01*
X124577D02*
X125241D01*
X120539Y313361D02*
X121246D01*
X123073D02*
X125241D01*
X120527Y313454D02*
X121232D01*
X123073D02*
X125241D01*
X120517Y313548D02*
X121220D01*
X123073D02*
X125241D01*
X120509Y313642D02*
X121212D01*
X123073D02*
X125241D01*
X120505Y313735D02*
X121206D01*
X123073D02*
X125241D01*
X120503Y313829D02*
X121204D01*
X123073D02*
X125241D01*
X120504Y313923D02*
X121203D01*
X123073D02*
X125241D01*
X120506Y314017D02*
X121206D01*
X120513Y314110D02*
X121210D01*
X120521Y314204D02*
X121218D01*
X120532Y314298D02*
X121229D01*
X120544Y314391D02*
X121245D01*
X120563Y314485D02*
X121264D01*
X120581Y314579D02*
X121285D01*
X120604Y314672D02*
X121308D01*
X120628Y314766D02*
X121337D01*
X120659Y314860D02*
X121370D01*
X124546D02*
X124629D01*
X120691Y314954D02*
X121409D01*
X124515D02*
X124969D01*
X120726Y315047D02*
X121453D01*
X124482D02*
X125152D01*
X120765Y315141D02*
X121508D01*
X124445D02*
X125125D01*
X120807Y315235D02*
X121569D01*
X124401D02*
X125095D01*
X120855Y315328D02*
X121635D01*
X124348D02*
X125060D01*
X120906Y315422D02*
X121713D01*
X124290D02*
X125024D01*
X120967Y315516D02*
X121805D01*
X124217D02*
X124983D01*
X121031Y315609D02*
X121915D01*
X124115D02*
X124934D01*
X121100Y315703D02*
X122060D01*
X123988D02*
X124879D01*
X121181Y315797D02*
X122245D01*
X123809D02*
X124815D01*
X121273Y315891D02*
X122527D01*
X123544D02*
X124739D01*
X121376Y315984D02*
X124651D01*
X121497Y316078D02*
X124546D01*
X121641Y316172D02*
X124415D01*
X121819Y316265D02*
X124254D01*
X122033Y316359D02*
X124052D01*
X122348Y316453D02*
X123750D01*
X153073Y253324D02*
Y253929D01*
X155241*
Y252030*
X155116Y251933*
X154991Y251843*
X154862Y251757*
X154733Y251679*
X154604Y251609*
X154476Y251542*
X154343Y251483*
X154210Y251429*
X154077Y251382*
X153944Y251343*
X153807Y251308*
X153671Y251280*
X153534Y251257*
X153397Y251241*
X153261Y251233*
X153120Y251230*
X152933Y251233*
X152753Y251249*
X152573Y251276*
X152401Y251312*
X152230Y251355*
X152065Y251409*
X151905Y251476*
X151749Y251554*
X151600Y251640*
X151460Y251733*
X151327Y251835*
X151206Y251948*
X151096Y252070*
X150995Y252198*
X150901Y252339*
X150819Y252487*
X150745Y252644*
X150679Y252804*
X150624Y252968*
X150581Y253136*
X150546Y253308*
X150522Y253487*
X150507Y253667*
X150503Y253855*
X150507Y254042*
X150522Y254222*
X150546Y254402*
X150581Y254577*
X150624Y254753*
X150679Y254921*
X150741Y255089*
X150815Y255253*
X150897Y255409*
X150991Y255554*
X151089Y255691*
X151198Y255816*
X151315Y255933*
X151441Y256038*
X151573Y256132*
X151714Y256214*
X151866Y256288*
X152019Y256355*
X152183Y256406*
X152346Y256452*
X152519Y256487*
X152698Y256511*
X152878Y256526*
X153069Y256530*
X153206Y256526*
X153339Y256519*
X153468Y256503*
X153596Y256483*
X153722Y256460*
X153843Y256429*
X153960Y256394*
X154073Y256351*
X154183Y256304*
X154284Y256249*
X154382Y256194*
X154472Y256132*
X154557Y256070*
X154636Y255999*
X154710Y255925*
X154776Y255847*
X154839Y255765*
X154897Y255675*
X154952Y255577*
X155003Y255476*
X155046Y255367*
X155089Y255253*
X155128Y255132*
X155163Y255007*
X154554Y254839*
X154522Y254933*
X154491Y255023*
X154460Y255109*
X154425Y255187*
X154386Y255265*
X154346Y255331*
X154307Y255398*
X154265Y255456*
X154222Y255511*
X154171Y255562*
X154116Y255609*
X154057Y255656*
X153995Y255698*
X153929Y255741*
X153854Y255776*
X153776Y255812*
X153698Y255843*
X153612Y255874*
X153530Y255894*
X153441Y255913*
X153350Y255929*
X153261Y255941*
X153167Y255944*
X153073Y255948*
X152956Y255944*
X152846Y255941*
X152741Y255929*
X152640Y255913*
X152538Y255894*
X152444Y255867*
X152354Y255839*
X152269Y255808*
X152187Y255769*
X152108Y255730*
X152030Y255687*
X151960Y255644*
X151894Y255593*
X151835Y255542*
X151776Y255491*
X151722Y255433*
X151624Y255316*
X151538Y255191*
X151460Y255062*
X151397Y254929*
X151350Y254808*
X151311Y254687*
X151280Y254562*
X151253Y254433*
X151230Y254304*
X151214Y254171*
X151206Y254034*
X151202Y253898*
X151206Y253730*
X151218Y253570*
X151237Y253413*
X151261Y253269*
X151296Y253128*
X151335Y252995*
X151382Y252870*
X151437Y252749*
X151499Y252640*
X151569Y252534*
X151644Y252437*
X151730Y252351*
X151815Y252269*
X151913Y252194*
X152015Y252124*
X152124Y252066*
X152237Y252015*
X152354Y251968*
X152472Y251929*
X152589Y251898*
X152710Y251874*
X152831Y251859*
X152956Y251847*
X153081Y251843*
X153191Y251847*
X153300Y251855*
X153409Y251867*
X153519Y251886*
X153624Y251909*
X153730Y251937*
X153835Y251972*
X153941Y252011*
X154042Y252054*
X154140Y252097*
X154226Y252140*
X154311Y252187*
X154386Y252230*
X154456Y252276*
X154519Y252324*
X154577Y252370*
Y253324*
X153073*
X152462Y251299D02*
X153765D01*
X152115Y251393D02*
X154108D01*
X151883Y251487D02*
X154350D01*
X151703Y251580D02*
X154550D01*
X151549Y251674D02*
X154725D01*
X151415Y251768D02*
X154878D01*
X151299Y251861D02*
X152810D01*
X153362D02*
X155017D01*
X151200Y251955D02*
X152393D01*
X153785D02*
X155145D01*
X151115Y252049D02*
X152162D01*
X154030D02*
X155241D01*
X151039Y252143D02*
X151988D01*
X154231D02*
X155241D01*
X150970Y252236D02*
X151858D01*
X154396D02*
X155241D01*
X150907Y252330D02*
X151752D01*
X154526D02*
X155241D01*
X150854Y252424D02*
X151657D01*
X154577D02*
X155241D01*
X150805Y252517D02*
X151582D01*
X154577D02*
X155241D01*
X150761Y252611D02*
X151518D01*
X154577D02*
X155241D01*
X150720Y252705D02*
X151462D01*
X154577D02*
X155241D01*
X150681Y252798D02*
X151415D01*
X154577D02*
X155241D01*
X150649Y252892D02*
X151374D01*
X154577D02*
X155241D01*
X150619Y252986D02*
X151339D01*
X154577D02*
X155241D01*
X150596Y253080D02*
X151310D01*
X154577D02*
X155241D01*
X150573Y253173D02*
X151284D01*
X154577D02*
X155241D01*
X150554Y253267D02*
X151261D01*
X154577D02*
X155241D01*
X150539Y253361D02*
X151246D01*
X153073D02*
X155241D01*
X150527Y253454D02*
X151232D01*
X153073D02*
X155241D01*
X150517Y253548D02*
X151220D01*
X153073D02*
X155241D01*
X150509Y253642D02*
X151212D01*
X153073D02*
X155241D01*
X150505Y253735D02*
X151206D01*
X153073D02*
X155241D01*
X150503Y253829D02*
X151204D01*
X153073D02*
X155241D01*
X150504Y253923D02*
X151203D01*
X153073D02*
X155241D01*
X150506Y254017D02*
X151206D01*
X150513Y254110D02*
X151210D01*
X150521Y254204D02*
X151218D01*
X150532Y254298D02*
X151229D01*
X150544Y254391D02*
X151245D01*
X150563Y254485D02*
X151264D01*
X150581Y254579D02*
X151285D01*
X150604Y254672D02*
X151308D01*
X150628Y254766D02*
X151337D01*
X150659Y254860D02*
X151370D01*
X154546D02*
X154629D01*
X150691Y254954D02*
X151409D01*
X154515D02*
X154969D01*
X150726Y255047D02*
X151453D01*
X154482D02*
X155152D01*
X150765Y255141D02*
X151508D01*
X154445D02*
X155125D01*
X150807Y255235D02*
X151569D01*
X154401D02*
X155095D01*
X150855Y255328D02*
X151635D01*
X154348D02*
X155060D01*
X150906Y255422D02*
X151713D01*
X154290D02*
X155024D01*
X150967Y255516D02*
X151805D01*
X154217D02*
X154983D01*
X151031Y255609D02*
X151915D01*
X154115D02*
X154934D01*
X151100Y255703D02*
X152060D01*
X153988D02*
X154879D01*
X151181Y255797D02*
X152245D01*
X153809D02*
X154815D01*
X151273Y255891D02*
X152527D01*
X153544D02*
X154739D01*
X151376Y255984D02*
X154651D01*
X151497Y256078D02*
X154546D01*
X151641Y256172D02*
X154415D01*
X151819Y256265D02*
X154254D01*
X152033Y256359D02*
X154052D01*
X152348Y256453D02*
X153750D01*
X153073Y263324D02*
Y263929D01*
X155241*
Y262030*
X155116Y261933*
X154991Y261843*
X154862Y261757*
X154733Y261679*
X154604Y261609*
X154476Y261542*
X154343Y261483*
X154210Y261429*
X154077Y261382*
X153944Y261343*
X153807Y261308*
X153671Y261280*
X153534Y261257*
X153397Y261241*
X153261Y261233*
X153120Y261230*
X152933Y261233*
X152753Y261249*
X152573Y261276*
X152401Y261312*
X152230Y261355*
X152065Y261409*
X151905Y261476*
X151749Y261554*
X151600Y261640*
X151460Y261733*
X151327Y261835*
X151206Y261948*
X151096Y262070*
X150995Y262198*
X150901Y262339*
X150819Y262487*
X150745Y262644*
X150679Y262804*
X150624Y262968*
X150581Y263136*
X150546Y263308*
X150522Y263487*
X150507Y263667*
X150503Y263855*
X150507Y264042*
X150522Y264222*
X150546Y264402*
X150581Y264577*
X150624Y264753*
X150679Y264921*
X150741Y265089*
X150815Y265253*
X150897Y265409*
X150991Y265554*
X151089Y265691*
X151198Y265816*
X151315Y265933*
X151441Y266038*
X151573Y266132*
X151714Y266214*
X151866Y266288*
X152019Y266355*
X152183Y266406*
X152346Y266452*
X152519Y266487*
X152698Y266511*
X152878Y266526*
X153069Y266530*
X153206Y266526*
X153339Y266519*
X153468Y266503*
X153596Y266483*
X153722Y266460*
X153843Y266429*
X153960Y266394*
X154073Y266351*
X154183Y266304*
X154284Y266249*
X154382Y266194*
X154472Y266132*
X154557Y266070*
X154636Y265999*
X154710Y265925*
X154776Y265847*
X154839Y265765*
X154897Y265675*
X154952Y265577*
X155003Y265476*
X155046Y265367*
X155089Y265253*
X155128Y265132*
X155163Y265007*
X154554Y264839*
X154522Y264933*
X154491Y265023*
X154460Y265109*
X154425Y265187*
X154386Y265265*
X154346Y265331*
X154307Y265398*
X154265Y265456*
X154222Y265511*
X154171Y265562*
X154116Y265609*
X154057Y265656*
X153995Y265698*
X153929Y265741*
X153854Y265776*
X153776Y265812*
X153698Y265843*
X153612Y265874*
X153530Y265894*
X153441Y265913*
X153350Y265929*
X153261Y265941*
X153167Y265944*
X153073Y265948*
X152956Y265944*
X152846Y265941*
X152741Y265929*
X152640Y265913*
X152538Y265894*
X152444Y265867*
X152354Y265839*
X152269Y265808*
X152187Y265769*
X152108Y265730*
X152030Y265687*
X151960Y265644*
X151894Y265593*
X151835Y265542*
X151776Y265491*
X151722Y265433*
X151624Y265316*
X151538Y265191*
X151460Y265062*
X151397Y264929*
X151350Y264808*
X151311Y264687*
X151280Y264562*
X151253Y264433*
X151230Y264304*
X151214Y264171*
X151206Y264034*
X151202Y263898*
X151206Y263730*
X151218Y263570*
X151237Y263413*
X151261Y263269*
X151296Y263128*
X151335Y262995*
X151382Y262870*
X151437Y262749*
X151499Y262640*
X151569Y262534*
X151644Y262437*
X151730Y262351*
X151815Y262269*
X151913Y262194*
X152015Y262124*
X152124Y262066*
X152237Y262015*
X152354Y261968*
X152472Y261929*
X152589Y261898*
X152710Y261874*
X152831Y261859*
X152956Y261847*
X153081Y261843*
X153191Y261847*
X153300Y261855*
X153409Y261867*
X153519Y261886*
X153624Y261909*
X153730Y261937*
X153835Y261972*
X153941Y262011*
X154042Y262054*
X154140Y262097*
X154226Y262140*
X154311Y262187*
X154386Y262230*
X154456Y262276*
X154519Y262324*
X154577Y262370*
Y263324*
X153073*
X152462Y261299D02*
X153765D01*
X152115Y261393D02*
X154108D01*
X151883Y261487D02*
X154350D01*
X151703Y261580D02*
X154550D01*
X151549Y261674D02*
X154725D01*
X151415Y261768D02*
X154878D01*
X151299Y261861D02*
X152810D01*
X153362D02*
X155017D01*
X151200Y261955D02*
X152393D01*
X153785D02*
X155145D01*
X151115Y262049D02*
X152162D01*
X154030D02*
X155241D01*
X151039Y262143D02*
X151988D01*
X154231D02*
X155241D01*
X150970Y262236D02*
X151858D01*
X154396D02*
X155241D01*
X150907Y262330D02*
X151752D01*
X154526D02*
X155241D01*
X150854Y262424D02*
X151657D01*
X154577D02*
X155241D01*
X150805Y262517D02*
X151582D01*
X154577D02*
X155241D01*
X150761Y262611D02*
X151518D01*
X154577D02*
X155241D01*
X150720Y262705D02*
X151462D01*
X154577D02*
X155241D01*
X150681Y262798D02*
X151415D01*
X154577D02*
X155241D01*
X150649Y262892D02*
X151374D01*
X154577D02*
X155241D01*
X150619Y262986D02*
X151339D01*
X154577D02*
X155241D01*
X150596Y263080D02*
X151310D01*
X154577D02*
X155241D01*
X150573Y263173D02*
X151284D01*
X154577D02*
X155241D01*
X150554Y263267D02*
X151261D01*
X154577D02*
X155241D01*
X150539Y263361D02*
X151246D01*
X153073D02*
X155241D01*
X150527Y263454D02*
X151232D01*
X153073D02*
X155241D01*
X150517Y263548D02*
X151220D01*
X153073D02*
X155241D01*
X150509Y263642D02*
X151212D01*
X153073D02*
X155241D01*
X150505Y263735D02*
X151206D01*
X153073D02*
X155241D01*
X150503Y263829D02*
X151204D01*
X153073D02*
X155241D01*
X150504Y263923D02*
X151203D01*
X153073D02*
X155241D01*
X150506Y264017D02*
X151206D01*
X150513Y264110D02*
X151210D01*
X150521Y264204D02*
X151218D01*
X150532Y264298D02*
X151229D01*
X150544Y264391D02*
X151245D01*
X150563Y264485D02*
X151264D01*
X150581Y264579D02*
X151285D01*
X150604Y264672D02*
X151308D01*
X150628Y264766D02*
X151337D01*
X150659Y264860D02*
X151370D01*
X154546D02*
X154629D01*
X150691Y264954D02*
X151409D01*
X154515D02*
X154969D01*
X150726Y265047D02*
X151453D01*
X154482D02*
X155152D01*
X150765Y265141D02*
X151508D01*
X154445D02*
X155125D01*
X150807Y265235D02*
X151569D01*
X154401D02*
X155095D01*
X150855Y265328D02*
X151635D01*
X154348D02*
X155060D01*
X150906Y265422D02*
X151713D01*
X154290D02*
X155024D01*
X150967Y265516D02*
X151805D01*
X154217D02*
X154983D01*
X151031Y265609D02*
X151915D01*
X154115D02*
X154934D01*
X151100Y265703D02*
X152060D01*
X153988D02*
X154879D01*
X151181Y265797D02*
X152245D01*
X153809D02*
X154815D01*
X151273Y265891D02*
X152527D01*
X153544D02*
X154739D01*
X151376Y265984D02*
X154651D01*
X151497Y266078D02*
X154546D01*
X151641Y266172D02*
X154415D01*
X151819Y266265D02*
X154254D01*
X152033Y266359D02*
X154052D01*
X152348Y266453D02*
X153750D01*
X153073Y273324D02*
Y273929D01*
X155241*
Y272030*
X155116Y271933*
X154991Y271843*
X154862Y271757*
X154733Y271679*
X154604Y271609*
X154476Y271542*
X154343Y271483*
X154210Y271429*
X154077Y271382*
X153944Y271343*
X153807Y271308*
X153671Y271280*
X153534Y271257*
X153397Y271241*
X153261Y271233*
X153120Y271230*
X152933Y271233*
X152753Y271249*
X152573Y271276*
X152401Y271312*
X152230Y271355*
X152065Y271409*
X151905Y271476*
X151749Y271554*
X151600Y271640*
X151460Y271733*
X151327Y271835*
X151206Y271948*
X151096Y272070*
X150995Y272198*
X150901Y272339*
X150819Y272487*
X150745Y272644*
X150679Y272804*
X150624Y272968*
X150581Y273136*
X150546Y273308*
X150522Y273487*
X150507Y273667*
X150503Y273855*
X150507Y274042*
X150522Y274222*
X150546Y274402*
X150581Y274577*
X150624Y274753*
X150679Y274921*
X150741Y275089*
X150815Y275253*
X150897Y275409*
X150991Y275554*
X151089Y275691*
X151198Y275816*
X151315Y275933*
X151441Y276038*
X151573Y276132*
X151714Y276214*
X151866Y276288*
X152019Y276355*
X152183Y276406*
X152346Y276452*
X152519Y276487*
X152698Y276511*
X152878Y276526*
X153069Y276530*
X153206Y276526*
X153339Y276519*
X153468Y276503*
X153596Y276483*
X153722Y276460*
X153843Y276429*
X153960Y276394*
X154073Y276351*
X154183Y276304*
X154284Y276249*
X154382Y276194*
X154472Y276132*
X154557Y276070*
X154636Y275999*
X154710Y275925*
X154776Y275847*
X154839Y275765*
X154897Y275675*
X154952Y275577*
X155003Y275476*
X155046Y275367*
X155089Y275253*
X155128Y275132*
X155163Y275007*
X154554Y274839*
X154522Y274933*
X154491Y275023*
X154460Y275109*
X154425Y275187*
X154386Y275265*
X154346Y275331*
X154307Y275398*
X154265Y275456*
X154222Y275511*
X154171Y275562*
X154116Y275609*
X154057Y275656*
X153995Y275698*
X153929Y275741*
X153854Y275776*
X153776Y275812*
X153698Y275843*
X153612Y275874*
X153530Y275894*
X153441Y275913*
X153350Y275929*
X153261Y275941*
X153167Y275944*
X153073Y275948*
X152956Y275944*
X152846Y275941*
X152741Y275929*
X152640Y275913*
X152538Y275894*
X152444Y275867*
X152354Y275839*
X152269Y275808*
X152187Y275769*
X152108Y275730*
X152030Y275687*
X151960Y275644*
X151894Y275593*
X151835Y275542*
X151776Y275491*
X151722Y275433*
X151624Y275316*
X151538Y275191*
X151460Y275062*
X151397Y274929*
X151350Y274808*
X151311Y274687*
X151280Y274562*
X151253Y274433*
X151230Y274304*
X151214Y274171*
X151206Y274034*
X151202Y273898*
X151206Y273730*
X151218Y273570*
X151237Y273413*
X151261Y273269*
X151296Y273128*
X151335Y272995*
X151382Y272870*
X151437Y272749*
X151499Y272640*
X151569Y272534*
X151644Y272437*
X151730Y272351*
X151815Y272269*
X151913Y272194*
X152015Y272124*
X152124Y272066*
X152237Y272015*
X152354Y271968*
X152472Y271929*
X152589Y271898*
X152710Y271874*
X152831Y271859*
X152956Y271847*
X153081Y271843*
X153191Y271847*
X153300Y271855*
X153409Y271867*
X153519Y271886*
X153624Y271909*
X153730Y271937*
X153835Y271972*
X153941Y272011*
X154042Y272054*
X154140Y272097*
X154226Y272140*
X154311Y272187*
X154386Y272230*
X154456Y272276*
X154519Y272324*
X154577Y272370*
Y273324*
X153073*
X152462Y271299D02*
X153765D01*
X152115Y271393D02*
X154108D01*
X151883Y271487D02*
X154350D01*
X151703Y271580D02*
X154550D01*
X151549Y271674D02*
X154725D01*
X151415Y271768D02*
X154878D01*
X151299Y271861D02*
X152810D01*
X153362D02*
X155017D01*
X151200Y271955D02*
X152393D01*
X153785D02*
X155145D01*
X151115Y272049D02*
X152162D01*
X154030D02*
X155241D01*
X151039Y272143D02*
X151988D01*
X154231D02*
X155241D01*
X150970Y272236D02*
X151858D01*
X154396D02*
X155241D01*
X150907Y272330D02*
X151752D01*
X154526D02*
X155241D01*
X150854Y272424D02*
X151657D01*
X154577D02*
X155241D01*
X150805Y272517D02*
X151582D01*
X154577D02*
X155241D01*
X150761Y272611D02*
X151518D01*
X154577D02*
X155241D01*
X150720Y272705D02*
X151462D01*
X154577D02*
X155241D01*
X150681Y272798D02*
X151415D01*
X154577D02*
X155241D01*
X150649Y272892D02*
X151374D01*
X154577D02*
X155241D01*
X150619Y272986D02*
X151339D01*
X154577D02*
X155241D01*
X150596Y273080D02*
X151310D01*
X154577D02*
X155241D01*
X150573Y273173D02*
X151284D01*
X154577D02*
X155241D01*
X150554Y273267D02*
X151261D01*
X154577D02*
X155241D01*
X150539Y273361D02*
X151246D01*
X153073D02*
X155241D01*
X150527Y273454D02*
X151232D01*
X153073D02*
X155241D01*
X150517Y273548D02*
X151220D01*
X153073D02*
X155241D01*
X150509Y273642D02*
X151212D01*
X153073D02*
X155241D01*
X150505Y273735D02*
X151206D01*
X153073D02*
X155241D01*
X150503Y273829D02*
X151204D01*
X153073D02*
X155241D01*
X150504Y273923D02*
X151203D01*
X153073D02*
X155241D01*
X150506Y274017D02*
X151206D01*
X150513Y274110D02*
X151210D01*
X150521Y274204D02*
X151218D01*
X150532Y274298D02*
X151229D01*
X150544Y274391D02*
X151245D01*
X150563Y274485D02*
X151264D01*
X150581Y274579D02*
X151285D01*
X150604Y274672D02*
X151308D01*
X150628Y274766D02*
X151337D01*
X150659Y274860D02*
X151370D01*
X154546D02*
X154629D01*
X150691Y274954D02*
X151409D01*
X154515D02*
X154969D01*
X150726Y275047D02*
X151453D01*
X154482D02*
X155152D01*
X150765Y275141D02*
X151508D01*
X154445D02*
X155125D01*
X150807Y275235D02*
X151569D01*
X154401D02*
X155095D01*
X150855Y275328D02*
X151635D01*
X154348D02*
X155060D01*
X150906Y275422D02*
X151713D01*
X154290D02*
X155024D01*
X150967Y275516D02*
X151805D01*
X154217D02*
X154983D01*
X151031Y275609D02*
X151915D01*
X154115D02*
X154934D01*
X151100Y275703D02*
X152060D01*
X153988D02*
X154879D01*
X151181Y275797D02*
X152245D01*
X153809D02*
X154815D01*
X151273Y275891D02*
X152527D01*
X153544D02*
X154739D01*
X151376Y275984D02*
X154651D01*
X151497Y276078D02*
X154546D01*
X151641Y276172D02*
X154415D01*
X151819Y276265D02*
X154254D01*
X152033Y276359D02*
X154052D01*
X152348Y276453D02*
X153750D01*
X153073Y283324D02*
Y283929D01*
X155241*
Y282030*
X155116Y281933*
X154991Y281843*
X154862Y281757*
X154733Y281679*
X154604Y281609*
X154476Y281542*
X154343Y281483*
X154210Y281429*
X154077Y281382*
X153944Y281343*
X153807Y281308*
X153671Y281280*
X153534Y281257*
X153397Y281241*
X153261Y281233*
X153120Y281230*
X152933Y281233*
X152753Y281249*
X152573Y281276*
X152401Y281312*
X152230Y281355*
X152065Y281409*
X151905Y281476*
X151749Y281554*
X151600Y281640*
X151460Y281733*
X151327Y281835*
X151206Y281948*
X151096Y282070*
X150995Y282198*
X150901Y282339*
X150819Y282487*
X150745Y282644*
X150679Y282804*
X150624Y282968*
X150581Y283136*
X150546Y283308*
X150522Y283487*
X150507Y283667*
X150503Y283855*
X150507Y284042*
X150522Y284222*
X150546Y284402*
X150581Y284577*
X150624Y284753*
X150679Y284921*
X150741Y285089*
X150815Y285253*
X150897Y285409*
X150991Y285554*
X151089Y285691*
X151198Y285816*
X151315Y285933*
X151441Y286038*
X151573Y286132*
X151714Y286214*
X151866Y286288*
X152019Y286355*
X152183Y286406*
X152346Y286452*
X152519Y286487*
X152698Y286511*
X152878Y286526*
X153069Y286530*
X153206Y286526*
X153339Y286519*
X153468Y286503*
X153596Y286483*
X153722Y286460*
X153843Y286429*
X153960Y286394*
X154073Y286351*
X154183Y286304*
X154284Y286249*
X154382Y286194*
X154472Y286132*
X154557Y286070*
X154636Y285999*
X154710Y285925*
X154776Y285847*
X154839Y285765*
X154897Y285675*
X154952Y285577*
X155003Y285476*
X155046Y285367*
X155089Y285253*
X155128Y285132*
X155163Y285007*
X154554Y284839*
X154522Y284933*
X154491Y285023*
X154460Y285109*
X154425Y285187*
X154386Y285265*
X154346Y285331*
X154307Y285398*
X154265Y285456*
X154222Y285511*
X154171Y285562*
X154116Y285609*
X154057Y285656*
X153995Y285698*
X153929Y285741*
X153854Y285776*
X153776Y285812*
X153698Y285843*
X153612Y285874*
X153530Y285894*
X153441Y285913*
X153350Y285929*
X153261Y285941*
X153167Y285944*
X153073Y285948*
X152956Y285944*
X152846Y285941*
X152741Y285929*
X152640Y285913*
X152538Y285894*
X152444Y285867*
X152354Y285839*
X152269Y285808*
X152187Y285769*
X152108Y285730*
X152030Y285687*
X151960Y285644*
X151894Y285593*
X151835Y285542*
X151776Y285491*
X151722Y285433*
X151624Y285316*
X151538Y285191*
X151460Y285062*
X151397Y284929*
X151350Y284808*
X151311Y284687*
X151280Y284562*
X151253Y284433*
X151230Y284304*
X151214Y284171*
X151206Y284034*
X151202Y283898*
X151206Y283730*
X151218Y283570*
X151237Y283413*
X151261Y283269*
X151296Y283128*
X151335Y282995*
X151382Y282870*
X151437Y282749*
X151499Y282640*
X151569Y282534*
X151644Y282437*
X151730Y282351*
X151815Y282269*
X151913Y282194*
X152015Y282124*
X152124Y282066*
X152237Y282015*
X152354Y281968*
X152472Y281929*
X152589Y281898*
X152710Y281874*
X152831Y281859*
X152956Y281847*
X153081Y281843*
X153191Y281847*
X153300Y281855*
X153409Y281867*
X153519Y281886*
X153624Y281909*
X153730Y281937*
X153835Y281972*
X153941Y282011*
X154042Y282054*
X154140Y282097*
X154226Y282140*
X154311Y282187*
X154386Y282230*
X154456Y282276*
X154519Y282324*
X154577Y282370*
Y283324*
X153073*
X152462Y281299D02*
X153765D01*
X152115Y281393D02*
X154108D01*
X151883Y281487D02*
X154350D01*
X151703Y281580D02*
X154550D01*
X151549Y281674D02*
X154725D01*
X151415Y281768D02*
X154878D01*
X151299Y281861D02*
X152810D01*
X153362D02*
X155017D01*
X151200Y281955D02*
X152393D01*
X153785D02*
X155145D01*
X151115Y282049D02*
X152162D01*
X154030D02*
X155241D01*
X151039Y282143D02*
X151988D01*
X154231D02*
X155241D01*
X150970Y282236D02*
X151858D01*
X154396D02*
X155241D01*
X150907Y282330D02*
X151752D01*
X154526D02*
X155241D01*
X150854Y282424D02*
X151657D01*
X154577D02*
X155241D01*
X150805Y282517D02*
X151582D01*
X154577D02*
X155241D01*
X150761Y282611D02*
X151518D01*
X154577D02*
X155241D01*
X150720Y282705D02*
X151462D01*
X154577D02*
X155241D01*
X150681Y282798D02*
X151415D01*
X154577D02*
X155241D01*
X150649Y282892D02*
X151374D01*
X154577D02*
X155241D01*
X150619Y282986D02*
X151339D01*
X154577D02*
X155241D01*
X150596Y283080D02*
X151310D01*
X154577D02*
X155241D01*
X150573Y283173D02*
X151284D01*
X154577D02*
X155241D01*
X150554Y283267D02*
X151261D01*
X154577D02*
X155241D01*
X150539Y283361D02*
X151246D01*
X153073D02*
X155241D01*
X150527Y283454D02*
X151232D01*
X153073D02*
X155241D01*
X150517Y283548D02*
X151220D01*
X153073D02*
X155241D01*
X150509Y283642D02*
X151212D01*
X153073D02*
X155241D01*
X150505Y283735D02*
X151206D01*
X153073D02*
X155241D01*
X150503Y283829D02*
X151204D01*
X153073D02*
X155241D01*
X150504Y283923D02*
X151203D01*
X153073D02*
X155241D01*
X150506Y284017D02*
X151206D01*
X150513Y284110D02*
X151210D01*
X150521Y284204D02*
X151218D01*
X150532Y284298D02*
X151229D01*
X150544Y284391D02*
X151245D01*
X150563Y284485D02*
X151264D01*
X150581Y284579D02*
X151285D01*
X150604Y284672D02*
X151308D01*
X150628Y284766D02*
X151337D01*
X150659Y284860D02*
X151370D01*
X154546D02*
X154629D01*
X150691Y284954D02*
X151409D01*
X154515D02*
X154969D01*
X150726Y285047D02*
X151453D01*
X154482D02*
X155152D01*
X150765Y285141D02*
X151508D01*
X154445D02*
X155125D01*
X150807Y285235D02*
X151569D01*
X154401D02*
X155095D01*
X150855Y285328D02*
X151635D01*
X154348D02*
X155060D01*
X150906Y285422D02*
X151713D01*
X154290D02*
X155024D01*
X150967Y285516D02*
X151805D01*
X154217D02*
X154983D01*
X151031Y285609D02*
X151915D01*
X154115D02*
X154934D01*
X151100Y285703D02*
X152060D01*
X153988D02*
X154879D01*
X151181Y285797D02*
X152245D01*
X153809D02*
X154815D01*
X151273Y285891D02*
X152527D01*
X153544D02*
X154739D01*
X151376Y285984D02*
X154651D01*
X151497Y286078D02*
X154546D01*
X151641Y286172D02*
X154415D01*
X151819Y286265D02*
X154254D01*
X152033Y286359D02*
X154052D01*
X152348Y286453D02*
X153750D01*
X153073Y293324D02*
Y293929D01*
X155241*
Y292030*
X155116Y291933*
X154991Y291843*
X154862Y291757*
X154733Y291679*
X154604Y291609*
X154476Y291542*
X154343Y291483*
X154210Y291429*
X154077Y291382*
X153944Y291343*
X153807Y291308*
X153671Y291280*
X153534Y291257*
X153397Y291241*
X153261Y291233*
X153120Y291230*
X152933Y291233*
X152753Y291249*
X152573Y291276*
X152401Y291312*
X152230Y291355*
X152065Y291409*
X151905Y291476*
X151749Y291554*
X151600Y291640*
X151460Y291733*
X151327Y291835*
X151206Y291948*
X151096Y292070*
X150995Y292198*
X150901Y292339*
X150819Y292487*
X150745Y292644*
X150679Y292804*
X150624Y292968*
X150581Y293136*
X150546Y293308*
X150522Y293487*
X150507Y293667*
X150503Y293855*
X150507Y294042*
X150522Y294222*
X150546Y294402*
X150581Y294577*
X150624Y294753*
X150679Y294921*
X150741Y295089*
X150815Y295253*
X150897Y295409*
X150991Y295554*
X151089Y295691*
X151198Y295816*
X151315Y295933*
X151441Y296038*
X151573Y296132*
X151714Y296214*
X151866Y296288*
X152019Y296355*
X152183Y296406*
X152346Y296452*
X152519Y296487*
X152698Y296511*
X152878Y296526*
X153069Y296530*
X153206Y296526*
X153339Y296519*
X153468Y296503*
X153596Y296483*
X153722Y296460*
X153843Y296429*
X153960Y296394*
X154073Y296351*
X154183Y296304*
X154284Y296249*
X154382Y296194*
X154472Y296132*
X154557Y296070*
X154636Y295999*
X154710Y295925*
X154776Y295847*
X154839Y295765*
X154897Y295675*
X154952Y295577*
X155003Y295476*
X155046Y295367*
X155089Y295253*
X155128Y295132*
X155163Y295007*
X154554Y294839*
X154522Y294933*
X154491Y295023*
X154460Y295109*
X154425Y295187*
X154386Y295265*
X154346Y295331*
X154307Y295398*
X154265Y295456*
X154222Y295511*
X154171Y295562*
X154116Y295609*
X154057Y295656*
X153995Y295698*
X153929Y295741*
X153854Y295776*
X153776Y295812*
X153698Y295843*
X153612Y295874*
X153530Y295894*
X153441Y295913*
X153350Y295929*
X153261Y295941*
X153167Y295944*
X153073Y295948*
X152956Y295944*
X152846Y295941*
X152741Y295929*
X152640Y295913*
X152538Y295894*
X152444Y295867*
X152354Y295839*
X152269Y295808*
X152187Y295769*
X152108Y295730*
X152030Y295687*
X151960Y295644*
X151894Y295593*
X151835Y295542*
X151776Y295491*
X151722Y295433*
X151624Y295316*
X151538Y295191*
X151460Y295062*
X151397Y294929*
X151350Y294808*
X151311Y294687*
X151280Y294562*
X151253Y294433*
X151230Y294304*
X151214Y294171*
X151206Y294034*
X151202Y293898*
X151206Y293730*
X151218Y293570*
X151237Y293413*
X151261Y293269*
X151296Y293128*
X151335Y292995*
X151382Y292870*
X151437Y292749*
X151499Y292640*
X151569Y292534*
X151644Y292437*
X151730Y292351*
X151815Y292269*
X151913Y292194*
X152015Y292124*
X152124Y292066*
X152237Y292015*
X152354Y291968*
X152472Y291929*
X152589Y291898*
X152710Y291874*
X152831Y291859*
X152956Y291847*
X153081Y291843*
X153191Y291847*
X153300Y291855*
X153409Y291867*
X153519Y291886*
X153624Y291909*
X153730Y291937*
X153835Y291972*
X153941Y292011*
X154042Y292054*
X154140Y292097*
X154226Y292140*
X154311Y292187*
X154386Y292230*
X154456Y292276*
X154519Y292324*
X154577Y292370*
Y293324*
X153073*
X152462Y291299D02*
X153765D01*
X152115Y291393D02*
X154108D01*
X151883Y291487D02*
X154350D01*
X151703Y291580D02*
X154550D01*
X151549Y291674D02*
X154725D01*
X151415Y291768D02*
X154878D01*
X151299Y291861D02*
X152810D01*
X153362D02*
X155017D01*
X151200Y291955D02*
X152393D01*
X153785D02*
X155145D01*
X151115Y292049D02*
X152162D01*
X154030D02*
X155241D01*
X151039Y292143D02*
X151988D01*
X154231D02*
X155241D01*
X150970Y292236D02*
X151858D01*
X154396D02*
X155241D01*
X150907Y292330D02*
X151752D01*
X154526D02*
X155241D01*
X150854Y292424D02*
X151657D01*
X154577D02*
X155241D01*
X150805Y292517D02*
X151582D01*
X154577D02*
X155241D01*
X150761Y292611D02*
X151518D01*
X154577D02*
X155241D01*
X150720Y292705D02*
X151462D01*
X154577D02*
X155241D01*
X150681Y292798D02*
X151415D01*
X154577D02*
X155241D01*
X150649Y292892D02*
X151374D01*
X154577D02*
X155241D01*
X150619Y292986D02*
X151339D01*
X154577D02*
X155241D01*
X150596Y293080D02*
X151310D01*
X154577D02*
X155241D01*
X150573Y293173D02*
X151284D01*
X154577D02*
X155241D01*
X150554Y293267D02*
X151261D01*
X154577D02*
X155241D01*
X150539Y293361D02*
X151246D01*
X153073D02*
X155241D01*
X150527Y293454D02*
X151232D01*
X153073D02*
X155241D01*
X150517Y293548D02*
X151220D01*
X153073D02*
X155241D01*
X150509Y293642D02*
X151212D01*
X153073D02*
X155241D01*
X150505Y293735D02*
X151206D01*
X153073D02*
X155241D01*
X150503Y293829D02*
X151204D01*
X153073D02*
X155241D01*
X150504Y293923D02*
X151203D01*
X153073D02*
X155241D01*
X150506Y294017D02*
X151206D01*
X150513Y294110D02*
X151210D01*
X150521Y294204D02*
X151218D01*
X150532Y294298D02*
X151229D01*
X150544Y294391D02*
X151245D01*
X150563Y294485D02*
X151264D01*
X150581Y294579D02*
X151285D01*
X150604Y294672D02*
X151308D01*
X150628Y294766D02*
X151337D01*
X150659Y294860D02*
X151370D01*
X154546D02*
X154629D01*
X150691Y294954D02*
X151409D01*
X154515D02*
X154969D01*
X150726Y295047D02*
X151453D01*
X154482D02*
X155152D01*
X150765Y295141D02*
X151508D01*
X154445D02*
X155125D01*
X150807Y295235D02*
X151569D01*
X154401D02*
X155095D01*
X150855Y295328D02*
X151635D01*
X154348D02*
X155060D01*
X150906Y295422D02*
X151713D01*
X154290D02*
X155024D01*
X150967Y295516D02*
X151805D01*
X154217D02*
X154983D01*
X151031Y295609D02*
X151915D01*
X154115D02*
X154934D01*
X151100Y295703D02*
X152060D01*
X153988D02*
X154879D01*
X151181Y295797D02*
X152245D01*
X153809D02*
X154815D01*
X151273Y295891D02*
X152527D01*
X153544D02*
X154739D01*
X151376Y295984D02*
X154651D01*
X151497Y296078D02*
X154546D01*
X151641Y296172D02*
X154415D01*
X151819Y296265D02*
X154254D01*
X152033Y296359D02*
X154052D01*
X152348Y296453D02*
X153750D01*
X153073Y303324D02*
Y303929D01*
X155241*
Y302030*
X155116Y301933*
X154991Y301843*
X154862Y301757*
X154733Y301679*
X154604Y301609*
X154476Y301542*
X154343Y301483*
X154210Y301429*
X154077Y301382*
X153944Y301343*
X153807Y301308*
X153671Y301280*
X153534Y301257*
X153397Y301241*
X153261Y301233*
X153120Y301230*
X152933Y301233*
X152753Y301249*
X152573Y301276*
X152401Y301312*
X152230Y301355*
X152065Y301409*
X151905Y301476*
X151749Y301554*
X151600Y301640*
X151460Y301733*
X151327Y301835*
X151206Y301948*
X151096Y302070*
X150995Y302198*
X150901Y302339*
X150819Y302487*
X150745Y302644*
X150679Y302804*
X150624Y302968*
X150581Y303136*
X150546Y303308*
X150522Y303487*
X150507Y303667*
X150503Y303855*
X150507Y304042*
X150522Y304222*
X150546Y304402*
X150581Y304577*
X150624Y304753*
X150679Y304921*
X150741Y305089*
X150815Y305253*
X150897Y305409*
X150991Y305554*
X151089Y305691*
X151198Y305816*
X151315Y305933*
X151441Y306038*
X151573Y306132*
X151714Y306214*
X151866Y306288*
X152019Y306355*
X152183Y306406*
X152346Y306452*
X152519Y306487*
X152698Y306511*
X152878Y306526*
X153069Y306530*
X153206Y306526*
X153339Y306519*
X153468Y306503*
X153596Y306483*
X153722Y306460*
X153843Y306429*
X153960Y306394*
X154073Y306351*
X154183Y306304*
X154284Y306249*
X154382Y306194*
X154472Y306132*
X154557Y306070*
X154636Y305999*
X154710Y305925*
X154776Y305847*
X154839Y305765*
X154897Y305675*
X154952Y305577*
X155003Y305476*
X155046Y305367*
X155089Y305253*
X155128Y305132*
X155163Y305007*
X154554Y304839*
X154522Y304933*
X154491Y305023*
X154460Y305109*
X154425Y305187*
X154386Y305265*
X154346Y305331*
X154307Y305398*
X154265Y305456*
X154222Y305511*
X154171Y305562*
X154116Y305609*
X154057Y305656*
X153995Y305698*
X153929Y305741*
X153854Y305776*
X153776Y305812*
X153698Y305843*
X153612Y305874*
X153530Y305894*
X153441Y305913*
X153350Y305929*
X153261Y305941*
X153167Y305944*
X153073Y305948*
X152956Y305944*
X152846Y305941*
X152741Y305929*
X152640Y305913*
X152538Y305894*
X152444Y305867*
X152354Y305839*
X152269Y305808*
X152187Y305769*
X152108Y305730*
X152030Y305687*
X151960Y305644*
X151894Y305593*
X151835Y305542*
X151776Y305491*
X151722Y305433*
X151624Y305316*
X151538Y305191*
X151460Y305062*
X151397Y304929*
X151350Y304808*
X151311Y304687*
X151280Y304562*
X151253Y304433*
X151230Y304304*
X151214Y304171*
X151206Y304034*
X151202Y303898*
X151206Y303730*
X151218Y303570*
X151237Y303413*
X151261Y303269*
X151296Y303128*
X151335Y302995*
X151382Y302870*
X151437Y302749*
X151499Y302640*
X151569Y302534*
X151644Y302437*
X151730Y302351*
X151815Y302269*
X151913Y302194*
X152015Y302124*
X152124Y302066*
X152237Y302015*
X152354Y301968*
X152472Y301929*
X152589Y301898*
X152710Y301874*
X152831Y301859*
X152956Y301847*
X153081Y301843*
X153191Y301847*
X153300Y301855*
X153409Y301867*
X153519Y301886*
X153624Y301909*
X153730Y301937*
X153835Y301972*
X153941Y302011*
X154042Y302054*
X154140Y302097*
X154226Y302140*
X154311Y302187*
X154386Y302230*
X154456Y302276*
X154519Y302324*
X154577Y302370*
Y303324*
X153073*
X152462Y301299D02*
X153765D01*
X152115Y301393D02*
X154108D01*
X151883Y301487D02*
X154350D01*
X151703Y301580D02*
X154550D01*
X151549Y301674D02*
X154725D01*
X151415Y301768D02*
X154878D01*
X151299Y301861D02*
X152810D01*
X153362D02*
X155017D01*
X151200Y301955D02*
X152393D01*
X153785D02*
X155145D01*
X151115Y302049D02*
X152162D01*
X154030D02*
X155241D01*
X151039Y302143D02*
X151988D01*
X154231D02*
X155241D01*
X150970Y302236D02*
X151858D01*
X154396D02*
X155241D01*
X150907Y302330D02*
X151752D01*
X154526D02*
X155241D01*
X150854Y302424D02*
X151657D01*
X154577D02*
X155241D01*
X150805Y302517D02*
X151582D01*
X154577D02*
X155241D01*
X150761Y302611D02*
X151518D01*
X154577D02*
X155241D01*
X150720Y302705D02*
X151462D01*
X154577D02*
X155241D01*
X150681Y302798D02*
X151415D01*
X154577D02*
X155241D01*
X150649Y302892D02*
X151374D01*
X154577D02*
X155241D01*
X150619Y302986D02*
X151339D01*
X154577D02*
X155241D01*
X150596Y303080D02*
X151310D01*
X154577D02*
X155241D01*
X150573Y303173D02*
X151284D01*
X154577D02*
X155241D01*
X150554Y303267D02*
X151261D01*
X154577D02*
X155241D01*
X150539Y303361D02*
X151246D01*
X153073D02*
X155241D01*
X150527Y303454D02*
X151232D01*
X153073D02*
X155241D01*
X150517Y303548D02*
X151220D01*
X153073D02*
X155241D01*
X150509Y303642D02*
X151212D01*
X153073D02*
X155241D01*
X150505Y303735D02*
X151206D01*
X153073D02*
X155241D01*
X150503Y303829D02*
X151204D01*
X153073D02*
X155241D01*
X150504Y303923D02*
X151203D01*
X153073D02*
X155241D01*
X150506Y304017D02*
X151206D01*
X150513Y304110D02*
X151210D01*
X150521Y304204D02*
X151218D01*
X150532Y304298D02*
X151229D01*
X150544Y304391D02*
X151245D01*
X150563Y304485D02*
X151264D01*
X150581Y304579D02*
X151285D01*
X150604Y304672D02*
X151308D01*
X150628Y304766D02*
X151337D01*
X150659Y304860D02*
X151370D01*
X154546D02*
X154629D01*
X150691Y304954D02*
X151409D01*
X154515D02*
X154969D01*
X150726Y305047D02*
X151453D01*
X154482D02*
X155152D01*
X150765Y305141D02*
X151508D01*
X154445D02*
X155125D01*
X150807Y305235D02*
X151569D01*
X154401D02*
X155095D01*
X150855Y305328D02*
X151635D01*
X154348D02*
X155060D01*
X150906Y305422D02*
X151713D01*
X154290D02*
X155024D01*
X150967Y305516D02*
X151805D01*
X154217D02*
X154983D01*
X151031Y305609D02*
X151915D01*
X154115D02*
X154934D01*
X151100Y305703D02*
X152060D01*
X153988D02*
X154879D01*
X151181Y305797D02*
X152245D01*
X153809D02*
X154815D01*
X151273Y305891D02*
X152527D01*
X153544D02*
X154739D01*
X151376Y305984D02*
X154651D01*
X151497Y306078D02*
X154546D01*
X151641Y306172D02*
X154415D01*
X151819Y306265D02*
X154254D01*
X152033Y306359D02*
X154052D01*
X152348Y306453D02*
X153750D01*
X153073Y313324D02*
Y313929D01*
X155241*
Y312030*
X155116Y311933*
X154991Y311843*
X154862Y311757*
X154733Y311679*
X154604Y311609*
X154476Y311542*
X154343Y311483*
X154210Y311429*
X154077Y311382*
X153944Y311343*
X153807Y311308*
X153671Y311280*
X153534Y311257*
X153397Y311241*
X153261Y311233*
X153120Y311230*
X152933Y311233*
X152753Y311249*
X152573Y311276*
X152401Y311312*
X152230Y311355*
X152065Y311409*
X151905Y311476*
X151749Y311554*
X151600Y311640*
X151460Y311733*
X151327Y311835*
X151206Y311948*
X151096Y312070*
X150995Y312198*
X150901Y312339*
X150819Y312487*
X150745Y312644*
X150679Y312804*
X150624Y312968*
X150581Y313136*
X150546Y313308*
X150522Y313487*
X150507Y313667*
X150503Y313855*
X150507Y314042*
X150522Y314222*
X150546Y314402*
X150581Y314577*
X150624Y314753*
X150679Y314921*
X150741Y315089*
X150815Y315253*
X150897Y315409*
X150991Y315554*
X151089Y315691*
X151198Y315816*
X151315Y315933*
X151441Y316038*
X151573Y316132*
X151714Y316214*
X151866Y316288*
X152019Y316355*
X152183Y316406*
X152346Y316452*
X152519Y316487*
X152698Y316511*
X152878Y316526*
X153069Y316530*
X153206Y316526*
X153339Y316519*
X153468Y316503*
X153596Y316483*
X153722Y316460*
X153843Y316429*
X153960Y316394*
X154073Y316351*
X154183Y316304*
X154284Y316249*
X154382Y316194*
X154472Y316132*
X154557Y316070*
X154636Y315999*
X154710Y315925*
X154776Y315847*
X154839Y315765*
X154897Y315675*
X154952Y315577*
X155003Y315476*
X155046Y315367*
X155089Y315253*
X155128Y315132*
X155163Y315007*
X154554Y314839*
X154522Y314933*
X154491Y315023*
X154460Y315109*
X154425Y315187*
X154386Y315265*
X154346Y315331*
X154307Y315398*
X154265Y315456*
X154222Y315511*
X154171Y315562*
X154116Y315609*
X154057Y315656*
X153995Y315698*
X153929Y315741*
X153854Y315776*
X153776Y315812*
X153698Y315843*
X153612Y315874*
X153530Y315894*
X153441Y315913*
X153350Y315929*
X153261Y315941*
X153167Y315944*
X153073Y315948*
X152956Y315944*
X152846Y315941*
X152741Y315929*
X152640Y315913*
X152538Y315894*
X152444Y315867*
X152354Y315839*
X152269Y315808*
X152187Y315769*
X152108Y315730*
X152030Y315687*
X151960Y315644*
X151894Y315593*
X151835Y315542*
X151776Y315491*
X151722Y315433*
X151624Y315316*
X151538Y315191*
X151460Y315062*
X151397Y314929*
X151350Y314808*
X151311Y314687*
X151280Y314562*
X151253Y314433*
X151230Y314304*
X151214Y314171*
X151206Y314034*
X151202Y313898*
X151206Y313730*
X151218Y313570*
X151237Y313413*
X151261Y313269*
X151296Y313128*
X151335Y312995*
X151382Y312870*
X151437Y312749*
X151499Y312640*
X151569Y312534*
X151644Y312437*
X151730Y312351*
X151815Y312269*
X151913Y312194*
X152015Y312124*
X152124Y312066*
X152237Y312015*
X152354Y311968*
X152472Y311929*
X152589Y311898*
X152710Y311874*
X152831Y311859*
X152956Y311847*
X153081Y311843*
X153191Y311847*
X153300Y311855*
X153409Y311867*
X153519Y311886*
X153624Y311909*
X153730Y311937*
X153835Y311972*
X153941Y312011*
X154042Y312054*
X154140Y312097*
X154226Y312140*
X154311Y312187*
X154386Y312230*
X154456Y312276*
X154519Y312324*
X154577Y312370*
Y313324*
X153073*
X152462Y311299D02*
X153765D01*
X152115Y311393D02*
X154108D01*
X151883Y311487D02*
X154350D01*
X151703Y311580D02*
X154550D01*
X151549Y311674D02*
X154725D01*
X151415Y311768D02*
X154878D01*
X151299Y311861D02*
X152810D01*
X153362D02*
X155017D01*
X151200Y311955D02*
X152393D01*
X153785D02*
X155145D01*
X151115Y312049D02*
X152162D01*
X154030D02*
X155241D01*
X151039Y312143D02*
X151988D01*
X154231D02*
X155241D01*
X150970Y312236D02*
X151858D01*
X154396D02*
X155241D01*
X150907Y312330D02*
X151752D01*
X154526D02*
X155241D01*
X150854Y312424D02*
X151657D01*
X154577D02*
X155241D01*
X150805Y312517D02*
X151582D01*
X154577D02*
X155241D01*
X150761Y312611D02*
X151518D01*
X154577D02*
X155241D01*
X150720Y312705D02*
X151462D01*
X154577D02*
X155241D01*
X150681Y312798D02*
X151415D01*
X154577D02*
X155241D01*
X150649Y312892D02*
X151374D01*
X154577D02*
X155241D01*
X150619Y312986D02*
X151339D01*
X154577D02*
X155241D01*
X150596Y313080D02*
X151310D01*
X154577D02*
X155241D01*
X150573Y313173D02*
X151284D01*
X154577D02*
X155241D01*
X150554Y313267D02*
X151261D01*
X154577D02*
X155241D01*
X150539Y313361D02*
X151246D01*
X153073D02*
X155241D01*
X150527Y313454D02*
X151232D01*
X153073D02*
X155241D01*
X150517Y313548D02*
X151220D01*
X153073D02*
X155241D01*
X150509Y313642D02*
X151212D01*
X153073D02*
X155241D01*
X150505Y313735D02*
X151206D01*
X153073D02*
X155241D01*
X150503Y313829D02*
X151204D01*
X153073D02*
X155241D01*
X150504Y313923D02*
X151203D01*
X153073D02*
X155241D01*
X150506Y314017D02*
X151206D01*
X150513Y314110D02*
X151210D01*
X150521Y314204D02*
X151218D01*
X150532Y314298D02*
X151229D01*
X150544Y314391D02*
X151245D01*
X150563Y314485D02*
X151264D01*
X150581Y314579D02*
X151285D01*
X150604Y314672D02*
X151308D01*
X150628Y314766D02*
X151337D01*
X150659Y314860D02*
X151370D01*
X154546D02*
X154629D01*
X150691Y314954D02*
X151409D01*
X154515D02*
X154969D01*
X150726Y315047D02*
X151453D01*
X154482D02*
X155152D01*
X150765Y315141D02*
X151508D01*
X154445D02*
X155125D01*
X150807Y315235D02*
X151569D01*
X154401D02*
X155095D01*
X150855Y315328D02*
X151635D01*
X154348D02*
X155060D01*
X150906Y315422D02*
X151713D01*
X154290D02*
X155024D01*
X150967Y315516D02*
X151805D01*
X154217D02*
X154983D01*
X151031Y315609D02*
X151915D01*
X154115D02*
X154934D01*
X151100Y315703D02*
X152060D01*
X153988D02*
X154879D01*
X151181Y315797D02*
X152245D01*
X153809D02*
X154815D01*
X151273Y315891D02*
X152527D01*
X153544D02*
X154739D01*
X151376Y315984D02*
X154651D01*
X151497Y316078D02*
X154546D01*
X151641Y316172D02*
X154415D01*
X151819Y316265D02*
X154254D01*
X152033Y316359D02*
X154052D01*
X152348Y316453D02*
X153750D01*
X220644Y221316D02*
Y226441D01*
X222565*
X222710Y226437*
X222846Y226429*
X222976Y226417*
X223096Y226402*
X223210Y226378*
X223315Y226351*
X223417Y226320*
X223507Y226284*
X223593Y226241*
X223675Y226194*
X223753Y226144*
X223823Y226085*
X223890Y226023*
X223952Y225956*
X224011Y225882*
X224065Y225804*
X224112Y225726*
X224151Y225644*
X224187Y225558*
X224214Y225476*
X224237Y225390*
X224253Y225304*
X224261Y225218*
X224265Y225128*
X224261Y225046*
X224253Y224968*
X224241Y224890*
X224222Y224812*
X224194Y224733*
X224163Y224659*
X224128Y224585*
X224085Y224511*
X224038Y224441*
X223987Y224370*
X223929Y224308*
X223862Y224249*
X223792Y224191*
X223718Y224140*
X223636Y224089*
X223546Y224042*
X223659Y224003*
X223769Y223960*
X223866Y223913*
X223960Y223859*
X224046Y223796*
X224124Y223730*
X224198Y223656*
X224265Y223577*
X224323Y223491*
X224374Y223406*
X224417Y223312*
X224452Y223218*
X224480Y223120*
X224499Y223019*
X224511Y222909*
X224515Y222800*
X224511Y222710*
X224507Y222624*
X224495Y222538*
X224476Y222452*
X224456Y222370*
X224429Y222288*
X224397Y222210*
X224362Y222132*
X224323Y222058*
X224280Y221987*
X224237Y221921*
X224194Y221859*
X224144Y221800*
X224093Y221745*
X224042Y221698*
X223987Y221656*
X223866Y221577*
X223733Y221507*
X223589Y221448*
X223425Y221402*
X223339Y221382*
X223249Y221363*
X223151Y221347*
X223050Y221335*
X222944Y221327*
X222835Y221320*
X222718Y221316*
X222596*
X220644*
X221323Y224288D02*
X222429D01*
X222538*
X222640Y224292*
X222733Y224296*
X222815Y224304*
X222894Y224312*
X222964Y224320*
X223022Y224335*
X223077Y224347*
X223140Y224367*
X223198Y224394*
X223253Y224417*
X223304Y224448*
X223350Y224483*
X223394Y224519*
X223433Y224558*
X223468Y224601*
X223495Y224648*
X223522Y224698*
X223546Y224749*
X223565Y224804*
X223577Y224859*
X223589Y224921*
X223596Y224983*
Y225050*
X223589Y225171*
X223565Y225288*
X223526Y225398*
X223476Y225499*
X223405Y225585*
X223327Y225659*
X223233Y225718*
X223124Y225765*
X223065Y225780*
X222991Y225796*
X222909Y225808*
X222815Y225816*
X222714Y225824*
X222600Y225831*
X222480Y225835*
X222346*
X221323*
Y224288*
Y221921D02*
X222600D01*
X222679*
X222753*
X222819Y221925*
X222882*
X222937Y221929*
X222983Y221933*
X223026Y221941*
X223061Y221944*
X223175Y221968*
X223276Y221999*
X223370Y222038*
X223456Y222085*
X223530Y222140*
X223596Y222206*
X223659Y222280*
X223714Y222370*
X223757Y222468*
X223792Y222570*
X223807Y222683*
X223815Y222800*
X223811Y222870*
X223807Y222941*
X223796Y223007*
X223776Y223070*
X223757Y223132*
X223733Y223191*
X223702Y223245*
X223667Y223300*
X223628Y223351*
X223585Y223398*
X223538Y223441*
X223487Y223480*
X223437Y223515*
X223378Y223546*
X223319Y223574*
X223257Y223597*
X223187Y223617*
X223112Y223636*
X223030Y223648*
X222941Y223659*
X222843Y223671*
X222737Y223679*
X222624Y223683*
X222507*
X221323*
Y221921*
X220644Y221393D02*
X223387D01*
X220644Y221487D02*
X223683D01*
X220644Y221580D02*
X223871D01*
X220644Y221674D02*
X224011D01*
X220644Y221768D02*
X224114D01*
X220644Y221861D02*
X224196D01*
X220644Y221955D02*
X221323D01*
X223113D02*
X224259D01*
X220644Y222049D02*
X221323D01*
X223389D02*
X224318D01*
X220644Y222143D02*
X221323D01*
X223533D02*
X224367D01*
X220644Y222236D02*
X221323D01*
X223622D02*
X224408D01*
X220644Y222330D02*
X221323D01*
X223689D02*
X224443D01*
X220644Y222424D02*
X221323D01*
X223737D02*
X224469D01*
X220644Y222517D02*
X221323D01*
X223774D02*
X224491D01*
X220644Y222611D02*
X221323D01*
X223798D02*
X224505D01*
X220644Y222705D02*
X221323D01*
X223809D02*
X224510D01*
X220644Y222798D02*
X221323D01*
X223815D02*
X224515D01*
X220644Y222892D02*
X221323D01*
X223810D02*
X224511D01*
X220644Y222986D02*
X221323D01*
X223800D02*
X224502D01*
X220644Y223080D02*
X221323D01*
X223773D02*
X224487D01*
X220644Y223173D02*
X221323D01*
X223740D02*
X224465D01*
X220644Y223267D02*
X221323D01*
X223688D02*
X224434D01*
X220644Y223361D02*
X221323D01*
X223619D02*
X224394D01*
X220644Y223454D02*
X221323D01*
X223520D02*
X224345D01*
X220644Y223548D02*
X221323D01*
X223374D02*
X224285D01*
X220644Y223642D02*
X221323D01*
X223071D02*
X224210D01*
X220644Y223735D02*
X224117D01*
X220644Y223829D02*
X224000D01*
X220644Y223923D02*
X223846D01*
X220644Y224017D02*
X223620D01*
X220644Y224110D02*
X223670D01*
X220644Y224204D02*
X223808D01*
X220644Y224298D02*
X221323D01*
X222750D02*
X223917D01*
X220644Y224391D02*
X221323D01*
X223193D02*
X224002D01*
X220644Y224485D02*
X221323D01*
X223352D02*
X224068D01*
X220644Y224579D02*
X221323D01*
X223450D02*
X224124D01*
X220644Y224672D02*
X221323D01*
X223509D02*
X224169D01*
X220644Y224766D02*
X221323D01*
X223552D02*
X224206D01*
X220644Y224860D02*
X221323D01*
X223578D02*
X224234D01*
X220644Y224954D02*
X221323D01*
X223593D02*
X224251D01*
X220644Y225047D02*
X221323D01*
X223596D02*
X224261D01*
X220644Y225141D02*
X221323D01*
X223591D02*
X224264D01*
X220644Y225235D02*
X221323D01*
X223576D02*
X224259D01*
X220644Y225328D02*
X221323D01*
X223551D02*
X224248D01*
X220644Y225422D02*
X221323D01*
X223514D02*
X224228D01*
X220644Y225516D02*
X221323D01*
X223462D02*
X224200D01*
X220644Y225609D02*
X221323D01*
X223380D02*
X224165D01*
X220644Y225703D02*
X221323D01*
X223257D02*
X224123D01*
X220644Y225797D02*
X221323D01*
X222986D02*
X224070D01*
X220644Y225891D02*
X224004D01*
X220644Y225984D02*
X223926D01*
X220644Y226078D02*
X223831D01*
X220644Y226172D02*
X223710D01*
X220644Y226265D02*
X223544D01*
X220644Y226359D02*
X223283D01*
X220644Y231316D02*
Y236441D01*
X222565*
X222710Y236437*
X222846Y236429*
X222976Y236417*
X223096Y236402*
X223210Y236378*
X223315Y236351*
X223417Y236320*
X223507Y236284*
X223593Y236241*
X223675Y236194*
X223753Y236144*
X223823Y236085*
X223890Y236023*
X223952Y235956*
X224011Y235882*
X224065Y235804*
X224112Y235726*
X224151Y235644*
X224187Y235558*
X224214Y235476*
X224237Y235390*
X224253Y235304*
X224261Y235218*
X224265Y235128*
X224261Y235046*
X224253Y234968*
X224241Y234890*
X224222Y234812*
X224194Y234733*
X224163Y234659*
X224128Y234585*
X224085Y234511*
X224038Y234441*
X223987Y234370*
X223929Y234308*
X223862Y234249*
X223792Y234191*
X223718Y234140*
X223636Y234089*
X223546Y234042*
X223659Y234003*
X223769Y233960*
X223866Y233913*
X223960Y233859*
X224046Y233796*
X224124Y233730*
X224198Y233656*
X224265Y233577*
X224323Y233491*
X224374Y233406*
X224417Y233312*
X224452Y233218*
X224480Y233120*
X224499Y233019*
X224511Y232909*
X224515Y232800*
X224511Y232710*
X224507Y232624*
X224495Y232538*
X224476Y232452*
X224456Y232370*
X224429Y232288*
X224397Y232210*
X224362Y232132*
X224323Y232058*
X224280Y231987*
X224237Y231921*
X224194Y231859*
X224144Y231800*
X224093Y231745*
X224042Y231698*
X223987Y231656*
X223866Y231577*
X223733Y231507*
X223589Y231448*
X223425Y231402*
X223339Y231382*
X223249Y231363*
X223151Y231347*
X223050Y231335*
X222944Y231327*
X222835Y231320*
X222718Y231316*
X222596*
X220644*
X221323Y234288D02*
X222429D01*
X222538*
X222640Y234292*
X222733Y234296*
X222815Y234304*
X222894Y234312*
X222964Y234320*
X223022Y234335*
X223077Y234347*
X223140Y234367*
X223198Y234394*
X223253Y234417*
X223304Y234448*
X223350Y234483*
X223394Y234519*
X223433Y234558*
X223468Y234601*
X223495Y234648*
X223522Y234698*
X223546Y234749*
X223565Y234804*
X223577Y234859*
X223589Y234921*
X223596Y234983*
Y235050*
X223589Y235171*
X223565Y235288*
X223526Y235398*
X223476Y235499*
X223405Y235585*
X223327Y235659*
X223233Y235718*
X223124Y235765*
X223065Y235780*
X222991Y235796*
X222909Y235808*
X222815Y235816*
X222714Y235824*
X222600Y235831*
X222480Y235835*
X222346*
X221323*
Y234288*
Y231921D02*
X222600D01*
X222679*
X222753*
X222819Y231925*
X222882*
X222937Y231929*
X222983Y231933*
X223026Y231941*
X223061Y231944*
X223175Y231968*
X223276Y231999*
X223370Y232038*
X223456Y232085*
X223530Y232140*
X223596Y232206*
X223659Y232280*
X223714Y232370*
X223757Y232468*
X223792Y232570*
X223807Y232683*
X223815Y232800*
X223811Y232870*
X223807Y232941*
X223796Y233007*
X223776Y233070*
X223757Y233132*
X223733Y233191*
X223702Y233245*
X223667Y233300*
X223628Y233351*
X223585Y233398*
X223538Y233441*
X223487Y233480*
X223437Y233515*
X223378Y233546*
X223319Y233574*
X223257Y233597*
X223187Y233617*
X223112Y233636*
X223030Y233648*
X222941Y233659*
X222843Y233671*
X222737Y233679*
X222624Y233683*
X222507*
X221323*
Y231921*
X220644Y231393D02*
X223387D01*
X220644Y231487D02*
X223683D01*
X220644Y231580D02*
X223871D01*
X220644Y231674D02*
X224011D01*
X220644Y231768D02*
X224114D01*
X220644Y231861D02*
X224196D01*
X220644Y231955D02*
X221323D01*
X223113D02*
X224259D01*
X220644Y232049D02*
X221323D01*
X223389D02*
X224318D01*
X220644Y232143D02*
X221323D01*
X223533D02*
X224367D01*
X220644Y232236D02*
X221323D01*
X223622D02*
X224408D01*
X220644Y232330D02*
X221323D01*
X223689D02*
X224443D01*
X220644Y232424D02*
X221323D01*
X223737D02*
X224469D01*
X220644Y232517D02*
X221323D01*
X223774D02*
X224491D01*
X220644Y232611D02*
X221323D01*
X223798D02*
X224505D01*
X220644Y232705D02*
X221323D01*
X223809D02*
X224510D01*
X220644Y232798D02*
X221323D01*
X223815D02*
X224515D01*
X220644Y232892D02*
X221323D01*
X223810D02*
X224511D01*
X220644Y232986D02*
X221323D01*
X223800D02*
X224502D01*
X220644Y233080D02*
X221323D01*
X223773D02*
X224487D01*
X220644Y233173D02*
X221323D01*
X223740D02*
X224465D01*
X220644Y233267D02*
X221323D01*
X223688D02*
X224434D01*
X220644Y233361D02*
X221323D01*
X223619D02*
X224394D01*
X220644Y233454D02*
X221323D01*
X223520D02*
X224345D01*
X220644Y233548D02*
X221323D01*
X223374D02*
X224285D01*
X220644Y233642D02*
X221323D01*
X223071D02*
X224210D01*
X220644Y233735D02*
X224117D01*
X220644Y233829D02*
X224000D01*
X220644Y233923D02*
X223846D01*
X220644Y234017D02*
X223620D01*
X220644Y234110D02*
X223670D01*
X220644Y234204D02*
X223808D01*
X220644Y234298D02*
X221323D01*
X222750D02*
X223917D01*
X220644Y234391D02*
X221323D01*
X223193D02*
X224002D01*
X220644Y234485D02*
X221323D01*
X223352D02*
X224068D01*
X220644Y234579D02*
X221323D01*
X223450D02*
X224124D01*
X220644Y234672D02*
X221323D01*
X223509D02*
X224169D01*
X220644Y234766D02*
X221323D01*
X223552D02*
X224206D01*
X220644Y234860D02*
X221323D01*
X223578D02*
X224234D01*
X220644Y234954D02*
X221323D01*
X223593D02*
X224251D01*
X220644Y235047D02*
X221323D01*
X223596D02*
X224261D01*
X220644Y235141D02*
X221323D01*
X223591D02*
X224264D01*
X220644Y235235D02*
X221323D01*
X223576D02*
X224259D01*
X220644Y235328D02*
X221323D01*
X223551D02*
X224248D01*
X220644Y235422D02*
X221323D01*
X223514D02*
X224228D01*
X220644Y235516D02*
X221323D01*
X223462D02*
X224200D01*
X220644Y235609D02*
X221323D01*
X223380D02*
X224165D01*
X220644Y235703D02*
X221323D01*
X223257D02*
X224123D01*
X220644Y235797D02*
X221323D01*
X222986D02*
X224070D01*
X220644Y235891D02*
X224004D01*
X220644Y235984D02*
X223926D01*
X220644Y236078D02*
X223831D01*
X220644Y236172D02*
X223710D01*
X220644Y236265D02*
X223544D01*
X220644Y236359D02*
X223283D01*
X220644Y241316D02*
Y246441D01*
X222565*
X222710Y246437*
X222846Y246429*
X222976Y246417*
X223096Y246402*
X223210Y246378*
X223315Y246351*
X223417Y246320*
X223507Y246284*
X223593Y246241*
X223675Y246194*
X223753Y246144*
X223823Y246085*
X223890Y246023*
X223952Y245956*
X224011Y245882*
X224065Y245804*
X224112Y245726*
X224151Y245644*
X224187Y245558*
X224214Y245476*
X224237Y245390*
X224253Y245304*
X224261Y245218*
X224265Y245128*
X224261Y245046*
X224253Y244968*
X224241Y244890*
X224222Y244812*
X224194Y244733*
X224163Y244659*
X224128Y244585*
X224085Y244511*
X224038Y244441*
X223987Y244370*
X223929Y244308*
X223862Y244249*
X223792Y244191*
X223718Y244140*
X223636Y244089*
X223546Y244042*
X223659Y244003*
X223769Y243960*
X223866Y243913*
X223960Y243859*
X224046Y243796*
X224124Y243730*
X224198Y243656*
X224265Y243577*
X224323Y243491*
X224374Y243406*
X224417Y243312*
X224452Y243218*
X224480Y243120*
X224499Y243019*
X224511Y242909*
X224515Y242800*
X224511Y242710*
X224507Y242624*
X224495Y242538*
X224476Y242452*
X224456Y242370*
X224429Y242288*
X224397Y242210*
X224362Y242132*
X224323Y242058*
X224280Y241987*
X224237Y241921*
X224194Y241859*
X224144Y241800*
X224093Y241745*
X224042Y241698*
X223987Y241656*
X223866Y241577*
X223733Y241507*
X223589Y241448*
X223425Y241402*
X223339Y241382*
X223249Y241363*
X223151Y241347*
X223050Y241335*
X222944Y241327*
X222835Y241320*
X222718Y241316*
X222596*
X220644*
X221323Y244288D02*
X222429D01*
X222538*
X222640Y244292*
X222733Y244296*
X222815Y244304*
X222894Y244312*
X222964Y244320*
X223022Y244335*
X223077Y244347*
X223140Y244367*
X223198Y244394*
X223253Y244417*
X223304Y244448*
X223350Y244483*
X223394Y244519*
X223433Y244558*
X223468Y244601*
X223495Y244648*
X223522Y244698*
X223546Y244749*
X223565Y244804*
X223577Y244859*
X223589Y244921*
X223596Y244983*
Y245050*
X223589Y245171*
X223565Y245288*
X223526Y245398*
X223476Y245499*
X223405Y245585*
X223327Y245659*
X223233Y245718*
X223124Y245765*
X223065Y245780*
X222991Y245796*
X222909Y245808*
X222815Y245816*
X222714Y245824*
X222600Y245831*
X222480Y245835*
X222346*
X221323*
Y244288*
Y241921D02*
X222600D01*
X222679*
X222753*
X222819Y241925*
X222882*
X222937Y241929*
X222983Y241933*
X223026Y241941*
X223061Y241944*
X223175Y241968*
X223276Y241999*
X223370Y242038*
X223456Y242085*
X223530Y242140*
X223596Y242206*
X223659Y242280*
X223714Y242370*
X223757Y242468*
X223792Y242570*
X223807Y242683*
X223815Y242800*
X223811Y242870*
X223807Y242941*
X223796Y243007*
X223776Y243070*
X223757Y243132*
X223733Y243191*
X223702Y243245*
X223667Y243300*
X223628Y243351*
X223585Y243398*
X223538Y243441*
X223487Y243480*
X223437Y243515*
X223378Y243546*
X223319Y243574*
X223257Y243597*
X223187Y243617*
X223112Y243636*
X223030Y243648*
X222941Y243659*
X222843Y243671*
X222737Y243679*
X222624Y243683*
X222507*
X221323*
Y241921*
X220644Y241393D02*
X223387D01*
X220644Y241487D02*
X223683D01*
X220644Y241580D02*
X223871D01*
X220644Y241674D02*
X224011D01*
X220644Y241768D02*
X224114D01*
X220644Y241861D02*
X224196D01*
X220644Y241955D02*
X221323D01*
X223113D02*
X224259D01*
X220644Y242049D02*
X221323D01*
X223389D02*
X224318D01*
X220644Y242143D02*
X221323D01*
X223533D02*
X224367D01*
X220644Y242236D02*
X221323D01*
X223622D02*
X224408D01*
X220644Y242330D02*
X221323D01*
X223689D02*
X224443D01*
X220644Y242424D02*
X221323D01*
X223737D02*
X224469D01*
X220644Y242517D02*
X221323D01*
X223774D02*
X224491D01*
X220644Y242611D02*
X221323D01*
X223798D02*
X224505D01*
X220644Y242705D02*
X221323D01*
X223809D02*
X224510D01*
X220644Y242798D02*
X221323D01*
X223815D02*
X224515D01*
X220644Y242892D02*
X221323D01*
X223810D02*
X224511D01*
X220644Y242986D02*
X221323D01*
X223800D02*
X224502D01*
X220644Y243080D02*
X221323D01*
X223773D02*
X224487D01*
X220644Y243173D02*
X221323D01*
X223740D02*
X224465D01*
X220644Y243267D02*
X221323D01*
X223688D02*
X224434D01*
X220644Y243361D02*
X221323D01*
X223619D02*
X224394D01*
X220644Y243454D02*
X221323D01*
X223520D02*
X224345D01*
X220644Y243548D02*
X221323D01*
X223374D02*
X224285D01*
X220644Y243642D02*
X221323D01*
X223071D02*
X224210D01*
X220644Y243735D02*
X224117D01*
X220644Y243829D02*
X224000D01*
X220644Y243923D02*
X223846D01*
X220644Y244017D02*
X223620D01*
X220644Y244110D02*
X223670D01*
X220644Y244204D02*
X223808D01*
X220644Y244298D02*
X221323D01*
X222750D02*
X223917D01*
X220644Y244391D02*
X221323D01*
X223193D02*
X224002D01*
X220644Y244485D02*
X221323D01*
X223352D02*
X224068D01*
X220644Y244579D02*
X221323D01*
X223450D02*
X224124D01*
X220644Y244672D02*
X221323D01*
X223509D02*
X224169D01*
X220644Y244766D02*
X221323D01*
X223552D02*
X224206D01*
X220644Y244860D02*
X221323D01*
X223578D02*
X224234D01*
X220644Y244954D02*
X221323D01*
X223593D02*
X224251D01*
X220644Y245047D02*
X221323D01*
X223596D02*
X224261D01*
X220644Y245141D02*
X221323D01*
X223591D02*
X224264D01*
X220644Y245235D02*
X221323D01*
X223576D02*
X224259D01*
X220644Y245328D02*
X221323D01*
X223551D02*
X224248D01*
X220644Y245422D02*
X221323D01*
X223514D02*
X224228D01*
X220644Y245516D02*
X221323D01*
X223462D02*
X224200D01*
X220644Y245609D02*
X221323D01*
X223380D02*
X224165D01*
X220644Y245703D02*
X221323D01*
X223257D02*
X224123D01*
X220644Y245797D02*
X221323D01*
X222986D02*
X224070D01*
X220644Y245891D02*
X224004D01*
X220644Y245984D02*
X223926D01*
X220644Y246078D02*
X223831D01*
X220644Y246172D02*
X223710D01*
X220644Y246265D02*
X223544D01*
X220644Y246359D02*
X223283D01*
X220644Y251316D02*
Y256441D01*
X222565*
X222710Y256437*
X222846Y256429*
X222976Y256417*
X223096Y256402*
X223210Y256378*
X223315Y256351*
X223417Y256320*
X223507Y256284*
X223593Y256241*
X223675Y256194*
X223753Y256144*
X223823Y256085*
X223890Y256023*
X223952Y255956*
X224011Y255882*
X224065Y255804*
X224112Y255726*
X224151Y255644*
X224187Y255558*
X224214Y255476*
X224237Y255390*
X224253Y255304*
X224261Y255218*
X224265Y255128*
X224261Y255046*
X224253Y254968*
X224241Y254890*
X224222Y254812*
X224194Y254733*
X224163Y254659*
X224128Y254585*
X224085Y254511*
X224038Y254441*
X223987Y254370*
X223929Y254308*
X223862Y254249*
X223792Y254191*
X223718Y254140*
X223636Y254089*
X223546Y254042*
X223659Y254003*
X223769Y253960*
X223866Y253913*
X223960Y253859*
X224046Y253796*
X224124Y253730*
X224198Y253656*
X224265Y253577*
X224323Y253491*
X224374Y253406*
X224417Y253312*
X224452Y253218*
X224480Y253120*
X224499Y253019*
X224511Y252909*
X224515Y252800*
X224511Y252710*
X224507Y252624*
X224495Y252538*
X224476Y252452*
X224456Y252370*
X224429Y252288*
X224397Y252210*
X224362Y252132*
X224323Y252058*
X224280Y251987*
X224237Y251921*
X224194Y251859*
X224144Y251800*
X224093Y251745*
X224042Y251698*
X223987Y251656*
X223866Y251577*
X223733Y251507*
X223589Y251448*
X223425Y251402*
X223339Y251382*
X223249Y251363*
X223151Y251347*
X223050Y251335*
X222944Y251327*
X222835Y251320*
X222718Y251316*
X222596*
X220644*
X221323Y254288D02*
X222429D01*
X222538*
X222640Y254292*
X222733Y254296*
X222815Y254304*
X222894Y254312*
X222964Y254320*
X223022Y254335*
X223077Y254347*
X223140Y254367*
X223198Y254394*
X223253Y254417*
X223304Y254448*
X223350Y254483*
X223394Y254519*
X223433Y254558*
X223468Y254601*
X223495Y254648*
X223522Y254698*
X223546Y254749*
X223565Y254804*
X223577Y254859*
X223589Y254921*
X223596Y254983*
Y255050*
X223589Y255171*
X223565Y255288*
X223526Y255398*
X223476Y255499*
X223405Y255585*
X223327Y255659*
X223233Y255718*
X223124Y255765*
X223065Y255780*
X222991Y255796*
X222909Y255808*
X222815Y255816*
X222714Y255824*
X222600Y255831*
X222480Y255835*
X222346*
X221323*
Y254288*
Y251921D02*
X222600D01*
X222679*
X222753*
X222819Y251925*
X222882*
X222937Y251929*
X222983Y251933*
X223026Y251941*
X223061Y251944*
X223175Y251968*
X223276Y251999*
X223370Y252038*
X223456Y252085*
X223530Y252140*
X223596Y252206*
X223659Y252280*
X223714Y252370*
X223757Y252468*
X223792Y252570*
X223807Y252683*
X223815Y252800*
X223811Y252870*
X223807Y252941*
X223796Y253007*
X223776Y253070*
X223757Y253132*
X223733Y253191*
X223702Y253245*
X223667Y253300*
X223628Y253351*
X223585Y253398*
X223538Y253441*
X223487Y253480*
X223437Y253515*
X223378Y253546*
X223319Y253574*
X223257Y253597*
X223187Y253617*
X223112Y253636*
X223030Y253648*
X222941Y253659*
X222843Y253671*
X222737Y253679*
X222624Y253683*
X222507*
X221323*
Y251921*
X220644Y251393D02*
X223387D01*
X220644Y251487D02*
X223683D01*
X220644Y251580D02*
X223871D01*
X220644Y251674D02*
X224011D01*
X220644Y251768D02*
X224114D01*
X220644Y251861D02*
X224196D01*
X220644Y251955D02*
X221323D01*
X223113D02*
X224259D01*
X220644Y252049D02*
X221323D01*
X223389D02*
X224318D01*
X220644Y252143D02*
X221323D01*
X223533D02*
X224367D01*
X220644Y252236D02*
X221323D01*
X223622D02*
X224408D01*
X220644Y252330D02*
X221323D01*
X223689D02*
X224443D01*
X220644Y252424D02*
X221323D01*
X223737D02*
X224469D01*
X220644Y252517D02*
X221323D01*
X223774D02*
X224491D01*
X220644Y252611D02*
X221323D01*
X223798D02*
X224505D01*
X220644Y252705D02*
X221323D01*
X223809D02*
X224510D01*
X220644Y252798D02*
X221323D01*
X223815D02*
X224515D01*
X220644Y252892D02*
X221323D01*
X223810D02*
X224511D01*
X220644Y252986D02*
X221323D01*
X223800D02*
X224502D01*
X220644Y253080D02*
X221323D01*
X223773D02*
X224487D01*
X220644Y253173D02*
X221323D01*
X223740D02*
X224465D01*
X220644Y253267D02*
X221323D01*
X223688D02*
X224434D01*
X220644Y253361D02*
X221323D01*
X223619D02*
X224394D01*
X220644Y253454D02*
X221323D01*
X223520D02*
X224345D01*
X220644Y253548D02*
X221323D01*
X223374D02*
X224285D01*
X220644Y253642D02*
X221323D01*
X223071D02*
X224210D01*
X220644Y253735D02*
X224117D01*
X220644Y253829D02*
X224000D01*
X220644Y253923D02*
X223846D01*
X220644Y254017D02*
X223620D01*
X220644Y254110D02*
X223670D01*
X220644Y254204D02*
X223808D01*
X220644Y254298D02*
X221323D01*
X222750D02*
X223917D01*
X220644Y254391D02*
X221323D01*
X223193D02*
X224002D01*
X220644Y254485D02*
X221323D01*
X223352D02*
X224068D01*
X220644Y254579D02*
X221323D01*
X223450D02*
X224124D01*
X220644Y254672D02*
X221323D01*
X223509D02*
X224169D01*
X220644Y254766D02*
X221323D01*
X223552D02*
X224206D01*
X220644Y254860D02*
X221323D01*
X223578D02*
X224234D01*
X220644Y254954D02*
X221323D01*
X223593D02*
X224251D01*
X220644Y255047D02*
X221323D01*
X223596D02*
X224261D01*
X220644Y255141D02*
X221323D01*
X223591D02*
X224264D01*
X220644Y255235D02*
X221323D01*
X223576D02*
X224259D01*
X220644Y255328D02*
X221323D01*
X223551D02*
X224248D01*
X220644Y255422D02*
X221323D01*
X223514D02*
X224228D01*
X220644Y255516D02*
X221323D01*
X223462D02*
X224200D01*
X220644Y255609D02*
X221323D01*
X223380D02*
X224165D01*
X220644Y255703D02*
X221323D01*
X223257D02*
X224123D01*
X220644Y255797D02*
X221323D01*
X222986D02*
X224070D01*
X220644Y255891D02*
X224004D01*
X220644Y255984D02*
X223926D01*
X220644Y256078D02*
X223831D01*
X220644Y256172D02*
X223710D01*
X220644Y256265D02*
X223544D01*
X220644Y256359D02*
X223283D01*
X220644Y261316D02*
Y266441D01*
X222565*
X222710Y266437*
X222846Y266429*
X222976Y266417*
X223096Y266402*
X223210Y266378*
X223315Y266351*
X223417Y266320*
X223507Y266284*
X223593Y266241*
X223675Y266194*
X223753Y266144*
X223823Y266085*
X223890Y266023*
X223952Y265956*
X224011Y265882*
X224065Y265804*
X224112Y265726*
X224151Y265644*
X224187Y265558*
X224214Y265476*
X224237Y265390*
X224253Y265304*
X224261Y265218*
X224265Y265128*
X224261Y265046*
X224253Y264968*
X224241Y264890*
X224222Y264812*
X224194Y264733*
X224163Y264659*
X224128Y264585*
X224085Y264511*
X224038Y264441*
X223987Y264370*
X223929Y264308*
X223862Y264249*
X223792Y264191*
X223718Y264140*
X223636Y264089*
X223546Y264042*
X223659Y264003*
X223769Y263960*
X223866Y263913*
X223960Y263859*
X224046Y263796*
X224124Y263730*
X224198Y263656*
X224265Y263577*
X224323Y263491*
X224374Y263406*
X224417Y263312*
X224452Y263218*
X224480Y263120*
X224499Y263019*
X224511Y262909*
X224515Y262800*
X224511Y262710*
X224507Y262624*
X224495Y262538*
X224476Y262452*
X224456Y262370*
X224429Y262288*
X224397Y262210*
X224362Y262132*
X224323Y262058*
X224280Y261987*
X224237Y261921*
X224194Y261859*
X224144Y261800*
X224093Y261745*
X224042Y261698*
X223987Y261656*
X223866Y261577*
X223733Y261507*
X223589Y261448*
X223425Y261402*
X223339Y261382*
X223249Y261363*
X223151Y261347*
X223050Y261335*
X222944Y261327*
X222835Y261320*
X222718Y261316*
X222596*
X220644*
X221323Y264288D02*
X222429D01*
X222538*
X222640Y264292*
X222733Y264296*
X222815Y264304*
X222894Y264312*
X222964Y264320*
X223022Y264335*
X223077Y264347*
X223140Y264367*
X223198Y264394*
X223253Y264417*
X223304Y264448*
X223350Y264483*
X223394Y264519*
X223433Y264558*
X223468Y264601*
X223495Y264648*
X223522Y264698*
X223546Y264749*
X223565Y264804*
X223577Y264859*
X223589Y264921*
X223596Y264983*
Y265050*
X223589Y265171*
X223565Y265288*
X223526Y265398*
X223476Y265499*
X223405Y265585*
X223327Y265659*
X223233Y265718*
X223124Y265765*
X223065Y265780*
X222991Y265796*
X222909Y265808*
X222815Y265816*
X222714Y265824*
X222600Y265831*
X222480Y265835*
X222346*
X221323*
Y264288*
Y261921D02*
X222600D01*
X222679*
X222753*
X222819Y261925*
X222882*
X222937Y261929*
X222983Y261933*
X223026Y261941*
X223061Y261944*
X223175Y261968*
X223276Y261999*
X223370Y262038*
X223456Y262085*
X223530Y262140*
X223596Y262206*
X223659Y262280*
X223714Y262370*
X223757Y262468*
X223792Y262570*
X223807Y262683*
X223815Y262800*
X223811Y262870*
X223807Y262941*
X223796Y263007*
X223776Y263070*
X223757Y263132*
X223733Y263191*
X223702Y263245*
X223667Y263300*
X223628Y263351*
X223585Y263398*
X223538Y263441*
X223487Y263480*
X223437Y263515*
X223378Y263546*
X223319Y263574*
X223257Y263597*
X223187Y263617*
X223112Y263636*
X223030Y263648*
X222941Y263659*
X222843Y263671*
X222737Y263679*
X222624Y263683*
X222507*
X221323*
Y261921*
X220644Y261393D02*
X223387D01*
X220644Y261487D02*
X223683D01*
X220644Y261580D02*
X223871D01*
X220644Y261674D02*
X224011D01*
X220644Y261768D02*
X224114D01*
X220644Y261861D02*
X224196D01*
X220644Y261955D02*
X221323D01*
X223113D02*
X224259D01*
X220644Y262049D02*
X221323D01*
X223389D02*
X224318D01*
X220644Y262143D02*
X221323D01*
X223533D02*
X224367D01*
X220644Y262236D02*
X221323D01*
X223622D02*
X224408D01*
X220644Y262330D02*
X221323D01*
X223689D02*
X224443D01*
X220644Y262424D02*
X221323D01*
X223737D02*
X224469D01*
X220644Y262517D02*
X221323D01*
X223774D02*
X224491D01*
X220644Y262611D02*
X221323D01*
X223798D02*
X224505D01*
X220644Y262705D02*
X221323D01*
X223809D02*
X224510D01*
X220644Y262798D02*
X221323D01*
X223815D02*
X224515D01*
X220644Y262892D02*
X221323D01*
X223810D02*
X224511D01*
X220644Y262986D02*
X221323D01*
X223800D02*
X224502D01*
X220644Y263080D02*
X221323D01*
X223773D02*
X224487D01*
X220644Y263173D02*
X221323D01*
X223740D02*
X224465D01*
X220644Y263267D02*
X221323D01*
X223688D02*
X224434D01*
X220644Y263361D02*
X221323D01*
X223619D02*
X224394D01*
X220644Y263454D02*
X221323D01*
X223520D02*
X224345D01*
X220644Y263548D02*
X221323D01*
X223374D02*
X224285D01*
X220644Y263642D02*
X221323D01*
X223071D02*
X224210D01*
X220644Y263735D02*
X224117D01*
X220644Y263829D02*
X224000D01*
X220644Y263923D02*
X223846D01*
X220644Y264017D02*
X223620D01*
X220644Y264110D02*
X223670D01*
X220644Y264204D02*
X223808D01*
X220644Y264298D02*
X221323D01*
X222750D02*
X223917D01*
X220644Y264391D02*
X221323D01*
X223193D02*
X224002D01*
X220644Y264485D02*
X221323D01*
X223352D02*
X224068D01*
X220644Y264579D02*
X221323D01*
X223450D02*
X224124D01*
X220644Y264672D02*
X221323D01*
X223509D02*
X224169D01*
X220644Y264766D02*
X221323D01*
X223552D02*
X224206D01*
X220644Y264860D02*
X221323D01*
X223578D02*
X224234D01*
X220644Y264954D02*
X221323D01*
X223593D02*
X224251D01*
X220644Y265047D02*
X221323D01*
X223596D02*
X224261D01*
X220644Y265141D02*
X221323D01*
X223591D02*
X224264D01*
X220644Y265235D02*
X221323D01*
X223576D02*
X224259D01*
X220644Y265328D02*
X221323D01*
X223551D02*
X224248D01*
X220644Y265422D02*
X221323D01*
X223514D02*
X224228D01*
X220644Y265516D02*
X221323D01*
X223462D02*
X224200D01*
X220644Y265609D02*
X221323D01*
X223380D02*
X224165D01*
X220644Y265703D02*
X221323D01*
X223257D02*
X224123D01*
X220644Y265797D02*
X221323D01*
X222986D02*
X224070D01*
X220644Y265891D02*
X224004D01*
X220644Y265984D02*
X223926D01*
X220644Y266078D02*
X223831D01*
X220644Y266172D02*
X223710D01*
X220644Y266265D02*
X223544D01*
X220644Y266359D02*
X223283D01*
X220644Y271316D02*
Y276441D01*
X222565*
X222710Y276437*
X222846Y276429*
X222976Y276417*
X223096Y276402*
X223210Y276378*
X223315Y276351*
X223417Y276320*
X223507Y276284*
X223593Y276241*
X223675Y276194*
X223753Y276144*
X223823Y276085*
X223890Y276023*
X223952Y275956*
X224011Y275882*
X224065Y275804*
X224112Y275726*
X224151Y275644*
X224187Y275558*
X224214Y275476*
X224237Y275390*
X224253Y275304*
X224261Y275218*
X224265Y275128*
X224261Y275046*
X224253Y274968*
X224241Y274890*
X224222Y274812*
X224194Y274733*
X224163Y274659*
X224128Y274585*
X224085Y274511*
X224038Y274441*
X223987Y274370*
X223929Y274308*
X223862Y274249*
X223792Y274191*
X223718Y274140*
X223636Y274089*
X223546Y274042*
X223659Y274003*
X223769Y273960*
X223866Y273913*
X223960Y273859*
X224046Y273796*
X224124Y273730*
X224198Y273656*
X224265Y273577*
X224323Y273491*
X224374Y273406*
X224417Y273312*
X224452Y273218*
X224480Y273120*
X224499Y273019*
X224511Y272909*
X224515Y272800*
X224511Y272710*
X224507Y272624*
X224495Y272538*
X224476Y272452*
X224456Y272370*
X224429Y272288*
X224397Y272210*
X224362Y272132*
X224323Y272058*
X224280Y271987*
X224237Y271921*
X224194Y271859*
X224144Y271800*
X224093Y271745*
X224042Y271698*
X223987Y271656*
X223866Y271577*
X223733Y271507*
X223589Y271448*
X223425Y271402*
X223339Y271382*
X223249Y271363*
X223151Y271347*
X223050Y271335*
X222944Y271327*
X222835Y271320*
X222718Y271316*
X222596*
X220644*
X221323Y274288D02*
X222429D01*
X222538*
X222640Y274292*
X222733Y274296*
X222815Y274304*
X222894Y274312*
X222964Y274320*
X223022Y274335*
X223077Y274347*
X223140Y274367*
X223198Y274394*
X223253Y274417*
X223304Y274448*
X223350Y274483*
X223394Y274519*
X223433Y274558*
X223468Y274601*
X223495Y274648*
X223522Y274698*
X223546Y274749*
X223565Y274804*
X223577Y274859*
X223589Y274921*
X223596Y274983*
Y275050*
X223589Y275171*
X223565Y275288*
X223526Y275398*
X223476Y275499*
X223405Y275585*
X223327Y275659*
X223233Y275718*
X223124Y275765*
X223065Y275780*
X222991Y275796*
X222909Y275808*
X222815Y275816*
X222714Y275824*
X222600Y275831*
X222480Y275835*
X222346*
X221323*
Y274288*
Y271921D02*
X222600D01*
X222679*
X222753*
X222819Y271925*
X222882*
X222937Y271929*
X222983Y271933*
X223026Y271941*
X223061Y271944*
X223175Y271968*
X223276Y271999*
X223370Y272038*
X223456Y272085*
X223530Y272140*
X223596Y272206*
X223659Y272280*
X223714Y272370*
X223757Y272468*
X223792Y272570*
X223807Y272683*
X223815Y272800*
X223811Y272870*
X223807Y272941*
X223796Y273007*
X223776Y273070*
X223757Y273132*
X223733Y273191*
X223702Y273245*
X223667Y273300*
X223628Y273351*
X223585Y273398*
X223538Y273441*
X223487Y273480*
X223437Y273515*
X223378Y273546*
X223319Y273574*
X223257Y273597*
X223187Y273617*
X223112Y273636*
X223030Y273648*
X222941Y273659*
X222843Y273671*
X222737Y273679*
X222624Y273683*
X222507*
X221323*
Y271921*
X220644Y271393D02*
X223387D01*
X220644Y271487D02*
X223683D01*
X220644Y271580D02*
X223871D01*
X220644Y271674D02*
X224011D01*
X220644Y271768D02*
X224114D01*
X220644Y271861D02*
X224196D01*
X220644Y271955D02*
X221323D01*
X223113D02*
X224259D01*
X220644Y272049D02*
X221323D01*
X223389D02*
X224318D01*
X220644Y272143D02*
X221323D01*
X223533D02*
X224367D01*
X220644Y272236D02*
X221323D01*
X223622D02*
X224408D01*
X220644Y272330D02*
X221323D01*
X223689D02*
X224443D01*
X220644Y272424D02*
X221323D01*
X223737D02*
X224469D01*
X220644Y272517D02*
X221323D01*
X223774D02*
X224491D01*
X220644Y272611D02*
X221323D01*
X223798D02*
X224505D01*
X220644Y272705D02*
X221323D01*
X223809D02*
X224510D01*
X220644Y272798D02*
X221323D01*
X223815D02*
X224515D01*
X220644Y272892D02*
X221323D01*
X223810D02*
X224511D01*
X220644Y272986D02*
X221323D01*
X223800D02*
X224502D01*
X220644Y273080D02*
X221323D01*
X223773D02*
X224487D01*
X220644Y273173D02*
X221323D01*
X223740D02*
X224465D01*
X220644Y273267D02*
X221323D01*
X223688D02*
X224434D01*
X220644Y273361D02*
X221323D01*
X223619D02*
X224394D01*
X220644Y273454D02*
X221323D01*
X223520D02*
X224345D01*
X220644Y273548D02*
X221323D01*
X223374D02*
X224285D01*
X220644Y273642D02*
X221323D01*
X223071D02*
X224210D01*
X220644Y273735D02*
X224117D01*
X220644Y273829D02*
X224000D01*
X220644Y273923D02*
X223846D01*
X220644Y274017D02*
X223620D01*
X220644Y274110D02*
X223670D01*
X220644Y274204D02*
X223808D01*
X220644Y274298D02*
X221323D01*
X222750D02*
X223917D01*
X220644Y274391D02*
X221323D01*
X223193D02*
X224002D01*
X220644Y274485D02*
X221323D01*
X223352D02*
X224068D01*
X220644Y274579D02*
X221323D01*
X223450D02*
X224124D01*
X220644Y274672D02*
X221323D01*
X223509D02*
X224169D01*
X220644Y274766D02*
X221323D01*
X223552D02*
X224206D01*
X220644Y274860D02*
X221323D01*
X223578D02*
X224234D01*
X220644Y274954D02*
X221323D01*
X223593D02*
X224251D01*
X220644Y275047D02*
X221323D01*
X223596D02*
X224261D01*
X220644Y275141D02*
X221323D01*
X223591D02*
X224264D01*
X220644Y275235D02*
X221323D01*
X223576D02*
X224259D01*
X220644Y275328D02*
X221323D01*
X223551D02*
X224248D01*
X220644Y275422D02*
X221323D01*
X223514D02*
X224228D01*
X220644Y275516D02*
X221323D01*
X223462D02*
X224200D01*
X220644Y275609D02*
X221323D01*
X223380D02*
X224165D01*
X220644Y275703D02*
X221323D01*
X223257D02*
X224123D01*
X220644Y275797D02*
X221323D01*
X222986D02*
X224070D01*
X220644Y275891D02*
X224004D01*
X220644Y275984D02*
X223926D01*
X220644Y276078D02*
X223831D01*
X220644Y276172D02*
X223710D01*
X220644Y276265D02*
X223544D01*
X220644Y276359D02*
X223283D01*
X220644Y281316D02*
Y286441D01*
X222565*
X222710Y286437*
X222846Y286429*
X222976Y286417*
X223096Y286402*
X223210Y286378*
X223315Y286351*
X223417Y286320*
X223507Y286284*
X223593Y286241*
X223675Y286194*
X223753Y286144*
X223823Y286085*
X223890Y286023*
X223952Y285956*
X224011Y285882*
X224065Y285804*
X224112Y285726*
X224151Y285644*
X224187Y285558*
X224214Y285476*
X224237Y285390*
X224253Y285304*
X224261Y285218*
X224265Y285128*
X224261Y285046*
X224253Y284968*
X224241Y284890*
X224222Y284812*
X224194Y284733*
X224163Y284659*
X224128Y284585*
X224085Y284511*
X224038Y284441*
X223987Y284370*
X223929Y284308*
X223862Y284249*
X223792Y284191*
X223718Y284140*
X223636Y284089*
X223546Y284042*
X223659Y284003*
X223769Y283960*
X223866Y283913*
X223960Y283859*
X224046Y283796*
X224124Y283730*
X224198Y283656*
X224265Y283577*
X224323Y283491*
X224374Y283406*
X224417Y283312*
X224452Y283218*
X224480Y283120*
X224499Y283019*
X224511Y282909*
X224515Y282800*
X224511Y282710*
X224507Y282624*
X224495Y282538*
X224476Y282452*
X224456Y282370*
X224429Y282288*
X224397Y282210*
X224362Y282132*
X224323Y282058*
X224280Y281987*
X224237Y281921*
X224194Y281859*
X224144Y281800*
X224093Y281745*
X224042Y281698*
X223987Y281656*
X223866Y281577*
X223733Y281507*
X223589Y281448*
X223425Y281402*
X223339Y281382*
X223249Y281363*
X223151Y281347*
X223050Y281335*
X222944Y281327*
X222835Y281320*
X222718Y281316*
X222596*
X220644*
X221323Y284288D02*
X222429D01*
X222538*
X222640Y284292*
X222733Y284296*
X222815Y284304*
X222894Y284312*
X222964Y284320*
X223022Y284335*
X223077Y284347*
X223140Y284367*
X223198Y284394*
X223253Y284417*
X223304Y284448*
X223350Y284483*
X223394Y284519*
X223433Y284558*
X223468Y284601*
X223495Y284648*
X223522Y284698*
X223546Y284749*
X223565Y284804*
X223577Y284859*
X223589Y284921*
X223596Y284983*
Y285050*
X223589Y285171*
X223565Y285288*
X223526Y285398*
X223476Y285499*
X223405Y285585*
X223327Y285659*
X223233Y285718*
X223124Y285765*
X223065Y285780*
X222991Y285796*
X222909Y285808*
X222815Y285816*
X222714Y285824*
X222600Y285831*
X222480Y285835*
X222346*
X221323*
Y284288*
Y281921D02*
X222600D01*
X222679*
X222753*
X222819Y281925*
X222882*
X222937Y281929*
X222983Y281933*
X223026Y281941*
X223061Y281944*
X223175Y281968*
X223276Y281999*
X223370Y282038*
X223456Y282085*
X223530Y282140*
X223596Y282206*
X223659Y282280*
X223714Y282370*
X223757Y282468*
X223792Y282570*
X223807Y282683*
X223815Y282800*
X223811Y282870*
X223807Y282941*
X223796Y283007*
X223776Y283070*
X223757Y283132*
X223733Y283191*
X223702Y283245*
X223667Y283300*
X223628Y283351*
X223585Y283398*
X223538Y283441*
X223487Y283480*
X223437Y283515*
X223378Y283546*
X223319Y283574*
X223257Y283597*
X223187Y283617*
X223112Y283636*
X223030Y283648*
X222941Y283659*
X222843Y283671*
X222737Y283679*
X222624Y283683*
X222507*
X221323*
Y281921*
X220644Y281393D02*
X223387D01*
X220644Y281487D02*
X223683D01*
X220644Y281580D02*
X223871D01*
X220644Y281674D02*
X224011D01*
X220644Y281768D02*
X224114D01*
X220644Y281861D02*
X224196D01*
X220644Y281955D02*
X221323D01*
X223113D02*
X224259D01*
X220644Y282049D02*
X221323D01*
X223389D02*
X224318D01*
X220644Y282143D02*
X221323D01*
X223533D02*
X224367D01*
X220644Y282236D02*
X221323D01*
X223622D02*
X224408D01*
X220644Y282330D02*
X221323D01*
X223689D02*
X224443D01*
X220644Y282424D02*
X221323D01*
X223737D02*
X224469D01*
X220644Y282517D02*
X221323D01*
X223774D02*
X224491D01*
X220644Y282611D02*
X221323D01*
X223798D02*
X224505D01*
X220644Y282705D02*
X221323D01*
X223809D02*
X224510D01*
X220644Y282798D02*
X221323D01*
X223815D02*
X224515D01*
X220644Y282892D02*
X221323D01*
X223810D02*
X224511D01*
X220644Y282986D02*
X221323D01*
X223800D02*
X224502D01*
X220644Y283080D02*
X221323D01*
X223773D02*
X224487D01*
X220644Y283173D02*
X221323D01*
X223740D02*
X224465D01*
X220644Y283267D02*
X221323D01*
X223688D02*
X224434D01*
X220644Y283361D02*
X221323D01*
X223619D02*
X224394D01*
X220644Y283454D02*
X221323D01*
X223520D02*
X224345D01*
X220644Y283548D02*
X221323D01*
X223374D02*
X224285D01*
X220644Y283642D02*
X221323D01*
X223071D02*
X224210D01*
X220644Y283735D02*
X224117D01*
X220644Y283829D02*
X224000D01*
X220644Y283923D02*
X223846D01*
X220644Y284017D02*
X223620D01*
X220644Y284110D02*
X223670D01*
X220644Y284204D02*
X223808D01*
X220644Y284298D02*
X221323D01*
X222750D02*
X223917D01*
X220644Y284391D02*
X221323D01*
X223193D02*
X224002D01*
X220644Y284485D02*
X221323D01*
X223352D02*
X224068D01*
X220644Y284579D02*
X221323D01*
X223450D02*
X224124D01*
X220644Y284672D02*
X221323D01*
X223509D02*
X224169D01*
X220644Y284766D02*
X221323D01*
X223552D02*
X224206D01*
X220644Y284860D02*
X221323D01*
X223578D02*
X224234D01*
X220644Y284954D02*
X221323D01*
X223593D02*
X224251D01*
X220644Y285047D02*
X221323D01*
X223596D02*
X224261D01*
X220644Y285141D02*
X221323D01*
X223591D02*
X224264D01*
X220644Y285235D02*
X221323D01*
X223576D02*
X224259D01*
X220644Y285328D02*
X221323D01*
X223551D02*
X224248D01*
X220644Y285422D02*
X221323D01*
X223514D02*
X224228D01*
X220644Y285516D02*
X221323D01*
X223462D02*
X224200D01*
X220644Y285609D02*
X221323D01*
X223380D02*
X224165D01*
X220644Y285703D02*
X221323D01*
X223257D02*
X224123D01*
X220644Y285797D02*
X221323D01*
X222986D02*
X224070D01*
X220644Y285891D02*
X224004D01*
X220644Y285984D02*
X223926D01*
X220644Y286078D02*
X223831D01*
X220644Y286172D02*
X223710D01*
X220644Y286265D02*
X223544D01*
X220644Y286359D02*
X223283D01*
D02*
D82*
X20120Y214800D03*
Y224800D03*
Y234800D03*
Y244800D03*
Y254800D03*
Y264800D03*
Y304800D03*
Y314800D03*
X60120Y234800D03*
Y244800D03*
Y269800D03*
Y279800D03*
Y304800D03*
Y314800D03*
X110120Y244800D03*
Y254800D03*
Y264800D03*
Y274800D03*
Y284800D03*
Y294800D03*
Y304800D03*
X140120Y244800D03*
Y254800D03*
Y264800D03*
Y274800D03*
Y284800D03*
Y294800D03*
Y304800D03*
X210120Y214800D03*
Y224800D03*
Y234800D03*
Y244800D03*
Y254800D03*
Y264800D03*
Y274800D03*
X0Y0D02*
M02*
