G04 EasyPC Gerber Version 21.0.3 Build 4286 *
G04 #@! TF.Part,Single*
G04 #@! TF.FileFunction,Copper,L2,Bot *
G04 #@! TF.FilePolarity,Positive *
%FSLAX35Y35*%
%MOIN*%
G04 #@! TA.AperFunction,ComponentPad*
%ADD80R,0.07000X0.07000*%
G04 #@! TD.AperFunction*
%ADD70C,0.03100*%
%ADD19C,0.07874*%
G04 #@! TA.AperFunction,ComponentPad*
%ADD79O,0.10000X0.07000*%
X0Y0D02*
D02*
D19*
X20120Y314800D02*
X40120D01*
X45120Y309800*
Y224800*
X50120Y219800*
X120120*
X125120Y224800*
Y249800*
X130120Y254800*
X140120*
X160120Y274800D03*
X170120Y264800D03*
Y304800D03*
X180120Y294800D03*
X190120Y284800D03*
D02*
D70*
X20120Y304800D02*
X35120D01*
Y219800*
X45120Y209800*
X135120*
X140120Y214800*
Y244800*
X160120Y274800D02*
Y259800D01*
X185120Y234800*
X210120*
X170120Y264800D02*
X190120Y244800D01*
X210120*
X190120Y284800D02*
Y274800D01*
X200120Y264800*
X210120*
Y254800D02*
X195120D01*
X180120Y269800*
Y294800*
X210120Y274800D02*
Y284800D01*
X190120Y304800*
X170120*
D02*
D79*
X20120Y214800D03*
Y224800D03*
Y234800D03*
Y244800D03*
Y254800D03*
Y264800D03*
Y304800D03*
Y314800D03*
X60120Y269800D03*
Y279800D03*
Y304800D03*
Y314800D03*
X110120Y244800D03*
Y254800D03*
Y264800D03*
Y274800D03*
Y284800D03*
Y294800D03*
Y304800D03*
X140120Y244800D03*
Y254800D03*
Y264800D03*
Y274800D03*
Y284800D03*
Y294800D03*
Y304800D03*
X210120Y214800D03*
Y224800D03*
Y234800D03*
Y244800D03*
Y254800D03*
Y264800D03*
Y274800D03*
D02*
D80*
X60120Y234800D03*
Y244800D03*
X0Y0D02*
M02*
