G04 EasyPC Gerber Version 21.0.3 Build 4286 *
G04 #@! TF.Part,Single*
G04 #@! TF.FileFunction,Copper,L1,Top *
G04 #@! TF.FilePolarity,Positive *
%FSLAX35Y35*%
%MOIN*%
G04 #@! TA.AperFunction,ComponentPad*
%ADD80R,0.07000X0.07000*%
G04 #@! TD.AperFunction*
%ADD70C,0.03100*%
%ADD19C,0.07874*%
G04 #@! TA.AperFunction,ViaPad*
%ADD81C,0.07900*%
G04 #@! TA.AperFunction,ComponentPad*
%ADD79O,0.10000X0.07000*%
X0Y0D02*
D02*
D19*
X60120Y244800D02*
X70120Y254800D01*
X110120*
Y244800D02*
X100120Y234800D01*
X60120*
X125120Y224800D02*
Y249800D01*
X130120Y254800*
X140120*
D02*
D70*
X110120Y264800D02*
X80120D01*
X75120Y269800*
X60120*
X110120Y274800D02*
X85120D01*
X80120Y279800*
X60120*
X110120Y284800D02*
X90120D01*
X70120Y304800*
X60120*
X110120Y294800D02*
X95120D01*
X75120Y314800*
X60120*
X140120Y214800D02*
Y244800D01*
Y264800D02*
X170120D01*
X140120Y274800D02*
X160120D01*
X140120Y284800D02*
X190120D01*
X170120Y304800D02*
X140120D01*
X180120Y294800D02*
X140120D01*
D02*
D79*
X20120Y214800D03*
Y224800D03*
Y234800D03*
Y244800D03*
Y254800D03*
Y264800D03*
Y304800D03*
Y314800D03*
X60120Y269800D03*
Y279800D03*
Y304800D03*
Y314800D03*
X110120Y244800D03*
Y254800D03*
Y264800D03*
Y274800D03*
Y284800D03*
Y294800D03*
Y304800D03*
X140120Y244800D03*
Y254800D03*
Y264800D03*
Y274800D03*
Y284800D03*
Y294800D03*
Y304800D03*
X210120Y214800D03*
Y224800D03*
Y234800D03*
Y244800D03*
Y254800D03*
Y264800D03*
Y274800D03*
D02*
D80*
X60120Y234800D03*
Y244800D03*
D02*
D81*
X125120Y224800D03*
X140120Y214800D03*
X160120Y274800D03*
X170120Y264800D03*
Y304800D03*
X180120Y294800D03*
X190120Y284800D03*
X0Y0D02*
M02*
